<svg id="DrexelFloor2" xmlns="http://www.w3.org/2000/svg" width="910" height="510" viewBox="0 0 910 510"><g id="outline"><path id="stair_3_" fill="none" stroke="#000" stroke-miterlimit="10" d="M859.776 10.84h35.803v90.504h-35.804z"/><path id="stair_4_" fill="none" stroke="#000" stroke-miterlimit="10" d="M99.95 106.317h136.252v46.743H99.952z"/><path fill="none" stroke="#000" stroke-miterlimit="10" d="M216.312 105.82V10.84h643.96M99.454 153.06H13.426v273.498h231.23l-.995-198.41 25.86-25.978 202.387.12"/><path fill="#231815" stroke="#FFF" stroke-width=".314" d="M490.96 192.727l-4.073 6.985 2.1-.032 4.064-6.737zM499.407 192.727l4.04 6.98-2.097-.01-4.032-6.754z"/><path fill="#231815" stroke="#FFF" stroke-width=".314" d="M492.27 203.324v-10.43h5.82v10.77h-.004v9.068h-2.065v-9.137h-1.7v9.137h-2.06v-9.408z"/><circle fill="#231815" stroke="#FFF" stroke-width=".314" cx="495.258" cy="190.38" r="2.514"/><path fill="#231815" stroke="#FFF" stroke-width=".314" d="M476.238 192.727l-4.072 12.952 2.1-.033 4.062-12.704zM511.146 193.046l4.063 12.704 2.1.032-4.074-12.952zM484.684 192.727l4.07 6.965-2.117.024-4.04-6.773z"/><path fill="#231815" stroke="#FFF" stroke-width=".314" d="M477.548 203.324v-10.43h5.817v19.838H481.3v-9.137h-1.7v9.137h-2.064v-9.408z"/><circle fill="#231815" stroke="#FFF" stroke-width=".314" cx="480.537" cy="190.38" r="2.513"/><path fill="#231815" stroke="#FFF" stroke-width=".314" d="M505.328 192.727l-3.753 6.95 2.107.003 3.736-6.737z"/><path fill="#231815" stroke="#FFF" stroke-width=".314" d="M506.64 203.324v-10.43h5.815v19.838h-2.064v-9.137h-1.7v9.137h-2.063v-9.408z"/><circle fill="#231815" stroke="#FFF" stroke-width=".314" cx="509.627" cy="190.38" r="2.513"/><path fill="none" stroke="#000" d="M471.907 183.89h45.748v30.832h-45.748z"/><path d="M484.256 170.295h3.066l-3.86-11.765-3.87 11.765h3.066v10.612h1.598zM504.247 158.53h-1.6v10.612h-3.065l3.87 11.765 3.86-11.765h-3.065z"/><path fill="none" stroke="#000" stroke-miterlimit="10" d="M517.655 185.878l342.12-.496v-84.038"/><g id="stair"><path fill="none" stroke="#000" stroke-miterlimit="10" d="M125.312 106.317v46.743M131.942 106.317v46.743M139.235 106.317v46.743M146.197 106.317v46.743M153.16 106.317v46.743M160.618 106.317v46.743M168.077 106.317v46.743M175.038 106.317v46.743M182 106.317v46.743M188.298 106.317v46.743M195.26 106.317v46.743M202.554 106.317v46.743M209.184 106.317v46.743"/><path d="M192.445 128.634l25.222 1.946-25.222 1.93v-1.156H123.79v-1.395h68.655z"/><g><path fill="none" stroke="#000" stroke-miterlimit="10" d="M859.776 29.15h35.803M860.107 36.08h35.803M859.776 57.253h35.803M859.776 49.974h35.803M859.776 42.667h35.803M860.107 64.734h35.803M860.107 72.17h35.803M860.107 79.133h35.803"/><path d="M878.78 70.764l-.996 18.177-.99-18.176h.592v-49.48h.716v49.48z"/></g></g><path fill="none" stroke="#000" stroke-miterlimit="10" d="M280.833 18.3l44 43.867"/><path fill="#FFF" stroke="#000" stroke-miterlimit="10" d="M280.833 18.3h44v43.867h-44z"/><path fill="none" stroke="#000" stroke-miterlimit="10" d="M324.833 18.3l-44 43.867"/><path fill="#FFF" stroke="#000" stroke-miterlimit="10" d="M411 21.284h44V65.15h-44z"/><path fill="none" stroke="#000" stroke-miterlimit="10" d="M411 21.284l44 43.866M455 21.284L411 65.15"/><path fill="#FFF" stroke="#000" stroke-miterlimit="10" d="M632.167 21.284h44V65.15h-44z"/><path fill="none" stroke="#000" stroke-miterlimit="10" d="M632.167 21.284l44 43.866M676.167 21.284l-44 43.866"/><path fill="#FFF" stroke="#000" stroke-miterlimit="10" d="M751.5 20.733h44V64.6h-44z"/><path fill="none" stroke="#000" stroke-miterlimit="10" d="M751.5 20.733l44 43.867M795.5 20.733l-44 43.867"/><g id="lstair"><path fill="none" stroke="#000" stroke-miterlimit="10" d="M202.63 320.596h21.362M202.63 314.5h21.362M202.63 308.64h21.362M202.63 302.7h21.362M202.554 297.527h21.362M202.63 291.787h21.362M202.554 285.833h21.362M202.554 274.89h21.36v57.276h-21.36zM456.464 169.096v-21.362M450.368 169.096v-21.362M444.508 169.096v-21.362M438.567 169.096v-21.362M433.396 169.172v-21.36M427.655 169.096v-21.362M421.7 169.172v-21.36M410.76 147.81h57.274v21.362H410.76zM767.626 155.058v-21.362M773.722 155.058v-21.362M779.582 155.058v-21.362M785.52 155.058v-21.362M790.693 155.134v-21.36M796.435 155.058v-21.362M802.39 155.134v-21.36M756.056 133.773h57.275v21.36h-57.274z"/><path d="M214.244 316.48l-1.335 14.215-1.325-14.215h.793v-38.693h.957v38.693zM452.35 157.483l14.212 1.334-14.213 1.325v-.793h-38.695v-.958h38.694zM771.74 143.445l-14.214 1.334 14.215 1.324v-.793h38.695v-.956H771.74z"/></g><path fill="none" stroke="#000" stroke-miterlimit="10" d="M280.833 18.3l44 43.867"/></g><g id="active"><g id="studyStation" fill="#1AA3AD"><path d="M14.5 153.23h10V426.5h-10zM217.948 153.787h10V271.5h-10zM217.948 336.552h10v89.692h-10zM26.853 152.563h175.702v10H26.853zM26.853 414.623h175.702v11.935H26.853zM265.54 176.432h142.63v10H265.54zM242.502 95.5h10v63.03h-10z"/></g><path id="s45" fill="#F7931E" d="M817.508 21.284h7.957V158.53h-7.957z"/><path id="s44" fill="#F7931E" d="M799.606 21.284h7.956v105.65h-7.956z"/><path id="s41" fill="#F7931E" d="M739.935 21.284h7.956v105.65h-7.955z"/><path id="s40" fill="#F7931E" d="M720.044 21.284H728v105.65h-7.956z"/><path id="s39" fill="#F4EE21" d="M700.153 21.284h7.956v105.65h-7.957z"/><path id="s35" fill="#F4EE21" d="M620.59 21.284h7.957v105.65h-7.957z"/><path id="s34" fill="#2E2989" d="M599.705 21.284h7.956v105.65h-7.955z"/><path id="s33" fill="#2E2989" d="M578.82 21.284h7.956v105.65h-7.957z"/><path id="s32" fill="#2E2989" d="M558.93 21.284h7.955v105.65h-7.956z"/><path id="s31" fill="#2E2989" d="M540.033 21.284h7.956v105.65h-7.957z"/><path id="s30" fill="#2E2989" d="M522.13 21.284h7.958v105.65h-7.957z"/><path id="s29" fill="#2D2F38" d="M501.246 21.284h7.956v105.65h-7.956z"/><path id="s28" fill="#2D2F38" d="M481.355 21.284h7.953v105.65h-7.953z"/><path id="s27" fill="#2D2F38" d="M462.46 21.284h7.955v105.65h-7.956z"/><path id="s26" fill="#2D2F38" d="M439.585 78.805h7.956v60.505h-7.955z"/><path id="s25" fill="#2D2F38" d="M418.7 78.805h7.955v60.505H418.7z"/><path id="s24" fill="#2D2F38" d="M396.82 18.3h7.956v140.23h-7.957z"/><path id="s23" fill="#2D2F38" d="M375.935 18.3h7.956v140.23h-7.955z"/><path id="s22" fill="#2D2F38" d="M352.065 18.3h7.957v140.23h-7.957z"/><path id="s21" fill="#2D2F38" d="M332.175 18.3h7.957v140.23h-7.957z"/><path id="s20" fill="#C1272D" d="M310.295 71.954h7.957v86.577h-7.957z"/><path id="s19" fill="#C1272D" d="M289.41 71.954h7.957v73.163h-7.957z"/><path id="s18" fill="#C1272D" d="M265.54 18.3h7.957v140.23h-7.956z"/><path id="s17" fill="#C1272D" d="M244.656 18.3h7.956v70.115h-7.956z"/><path id="s38" fill="#F4EE21" d="M679.268 21.284h7.956v105.65h-7.956z"/><path id="s37" fill="#F4EE21" d="M659.377 74.68h7.956v52.254h-7.956z"/><path id="s42" fill="#F7931E" d="M759.825 74.68h7.956v52.254h-7.955z"/><path id="s43" fill="#F7931E" d="M779.716 74.68h7.956v52.254h-7.956z"/><path id="s36" fill="#F4EE21" d="M638.492 74.68h7.956v52.254h-7.956z"/><path id="s16" fill="#C1272D" d="M26.853 168.476h173.05v7.956H26.852z"/><path id="s15" fill="#C1272D" d="M26.853 184.388h173.05v7.956H26.852z"/><path id="s14" fill="#C1272D" d="M26.853 199.306h173.05v7.956H26.852z"/><path id="s13" fill="#C1272D" d="M26.853 214.224h173.05v7.956H26.852z"/><path id="s3" fill="#13277A" d="M26.853 366.388h173.05v7.956H26.852z"/><path id="s2" fill="#E84D10" d="M26.853 382.3h173.05v7.957H26.852z"/><path id="s1" fill="#E84D10" d="M26.355 397.716H187.47v7.956H26.355z"/><g id="s12" fill="#C1272D"><path d="M26.853 229.142h110.394v7.956H26.853zM147.19 229.142h52.71v7.956h-52.71z"/></g><g id="s11" fill="#C1272D"><path d="M26.853 244.06h110.394v7.957H26.853zM147.19 244.06h52.71v7.957h-52.71z"/></g><g id="s10" fill="#056832"><path d="M26.853 258.98h110.394v7.956H26.853zM147.19 258.98h52.71v7.956h-52.71z"/></g><g id="s9" fill="#056832"><path d="M26.853 274.89h110.394v7.958H26.853zM147.19 274.89h52.71v7.958h-52.71z"/></g><g id="s8" fill="#056832"><path d="M26.853 289.81h110.394v7.956H26.853zM147.19 289.81h52.71v7.956h-52.71z"/></g><g id="s7" fill="#056832"><path d="M26.853 305.72h110.394v7.958H26.853zM147.19 305.72h52.71v7.958h-52.71z"/></g><g id="s6" fill="#056832"><path d="M26.853 320.64h110.394v7.956H26.853zM147.19 320.64h52.71v7.956h-52.71z"/></g><g id="s5" fill="#13277A"><path d="M26.853 336.552h110.394v7.956H26.853zM147.19 336.552h52.71v7.956h-52.71z"/></g><g id="s4" fill="#13277A"><path d="M26.853 350.476h110.394v7.956H26.853zM147.19 350.476h52.71v7.956h-52.71z"/></g></g></svg>