<svg id="DrexelFloor2" xmlns="http://www.w3.org/2000/svg" xmlns:xlink="http://www.w3.org/1999/xlink" width="915" height="510" viewBox="0 0 915 510"><g id="outline"><path id="stair_1_" fill="none" stroke="#000" stroke-miterlimit="10" d="M588.576 164.472H704v25.153H588.576z"/><path id="stair_2_" fill="none" stroke="#000" stroke-miterlimit="10" d="M245.5 247.5h31v93h-31z"/><path id="stair_3_" fill="none" stroke="#000" stroke-miterlimit="10" d="M864.5 9.5h36v91h-36z"/><path id="stair_4_" fill="none" stroke="#000" stroke-miterlimit="10" d="M100.5 105.5h137v47h-137z"/><path id="toilet" fill="none" stroke="#000" stroke-miterlimit="10" d="M413.333 321.967l97.167-.467v84l-97.167.467z"/><path fill="none" stroke="#000" stroke-miterlimit="10" d="M217.5 105V10.5H865M100 152.5H13.5v275H246"/><path fill="none" d="M446.518 353.602h24.815v24.73h-24.815z"/><path fill="#231815" d="M471.333 374.43c0 2.152-1.754 3.903-3.912 3.903h-16.99c-2.16 0-3.912-1.75-3.912-3.902v-16.934c0-2.15 1.752-3.896 3.912-3.896h16.99c2.16 0 3.913 1.743 3.913 3.896v16.935z"/><path fill="#FFF" d="M458.52 355.448v19.983h-9.186v-15.596zM459.55 355.448v19.983h9.184v-15.596z"/><g fill="#231815"><path d="M452.726 361.604h2.574l2.354 5.774-.468.315-1.964-3.627-.18.186 2.062 5.516h-2.026l-.65 4.807h-.82l-.65-4.807h-2.025l2.094-5.406-.213-.296-1.96 3.627-.474-.315zM455.424 359.775c0 .81-.66 1.466-1.47 1.466-.813 0-1.468-.655-1.468-1.465 0-.812.647-1.472 1.467-1.472.81.01 1.47.67 1.47 1.472zM465.332 359.775c0 .81-.66 1.466-1.47 1.466-.813 0-1.478-.655-1.478-1.465 0-.812.657-1.472 1.48-1.472.808.01 1.468.67 1.468 1.472zM461.746 361.604h4.032l.908.533v6.777h-.783v-4.724h-.632v10.385h-1.01l-.3-3.964h-.337l-.27 3.965h-1.07V364.19h-.626l-.007 4.724h-.773v-6.64z"/></g><path fill="#231815" stroke="#FFF" stroke-width=".314" d="M493.258 173.014l-3.26 5.047 1.68-.023 3.255-4.867zM500.02 173.014l3.238 5.043-1.682-.008-3.228-4.88z"/><path fill="#231815" stroke="#FFF" stroke-width=".314" d="M494.307 180.67v-7.536h4.66v7.783h-.003v6.552h-1.652v-6.603h-1.363v6.602h-1.65v-6.8z"/><ellipse fill="#231815" stroke="#FFF" stroke-width=".314" cx="496.698" cy="171.317" rx="2.014" ry="1.816"/><g><path fill="#231815" stroke="#FFF" stroke-width=".314" d="M481.47 173.014l-3.26 5.047 1.68-.023 3.253-4.867zM488.23 173.014l3.26 5.032-1.694.017-3.235-4.893z"/><path fill="#231815" stroke="#FFF" stroke-width=".314" d="M482.52 180.67v-7.536h4.656v14.335h-1.655v-6.603h-1.36v6.602h-1.65v-6.8z"/><ellipse fill="#231815" stroke="#FFF" stroke-width=".314" cx="484.911" cy="171.317" rx="2.013" ry="1.816"/></g><g><path fill="#231815" stroke="#FFF" stroke-width=".314" d="M504.764 173.014l-3.006 5.022h1.686l2.994-4.866zM511.526 173.014l3.262 5.047-1.682-.023-3.252-4.867z"/><path fill="#231815" stroke="#FFF" stroke-width=".314" d="M505.812 180.67v-7.536h4.658v14.335h-1.653v-6.603h-1.362v6.602h-1.652v-6.8z"/><ellipse fill="#231815" stroke="#FFF" stroke-width=".314" cx="508.204" cy="171.317" rx="2.013" ry="1.816"/></g><path fill="none" stroke="#000" d="M478 166.628h36.634v22.28H478z"/><g><path d="M490.045 156.804h2.99l-3.765-12.814-3.774 12.814h2.99v7.668h1.56zM506.552 151.658h2.992l-3.767 12.814-3.775-12.814h2.99v-7.668h1.56z"/></g><g id="stair_5_"><path fill="none" stroke="#000" stroke-miterlimit="10" d="M126 105.5v47M132.667 105.5v47M140 105.5v47M147 105.5v47M154 105.5v47M161.5 105.5v47M169 105.5v47M176 105.5v47M183 105.5v47M189.333 105.5v47M196.333 105.5v47M203.667 105.5v47M210.333 105.5v47"/><path d="M193.502 127.94l25.36 1.956-25.36 1.94v-1.16h-69.03v-1.404h69.03z"/><g><path fill="none" stroke="#000" stroke-miterlimit="10" d="M864.5 27.908h36M864.833 34.878h36M864.5 56.167h36M864.5 48.847h36M864.5 41.5h36M864.833 63.69h36M864.833 71.167h36M864.833 78.167h36"/><path d="M883.61 69.752l-1.003 18.277-.996-18.278h.597V20h.72v49.752z"/></g></g><g><path fill="none" stroke="#000" stroke-miterlimit="10" d="M245.5 263h31M245.5 270.167h31M245.5 277h31M245.5 284h31M245.5 291h31M245.5 297.5h31M245.5 304h31M245.5 311h31M245.5 317h31"/><path d="M261.43 309.955l-1.397 20.74-1.386-20.74h.83V253.5h1.002v56.455z"/></g><g><path d="M665.168 176.428l22.828 1.003-22.828.997v-.596h-62.14v-.72h62.14z"/><path fill="none" stroke="#000" stroke-miterlimit="10" d="M603.61 164.472v25.153M611.37 164.472v25.153M618.645 164.472v25.153M625.918 164.472v25.153M633.68 163.753v25.154M640.47 164.472v25.153M647.258 163.753v25.154M654.533 164.472v25.153M661.807 164.472v25.153M668.597 164.77v25.152M675.387 164.77v25.152M682.176 164.77v25.152"/></g><path d="M852.664 144.725v-3.605l-28.603 4.54 28.604 4.55v-3.606h17.117v-1.88zM841.178 158.397v-3.604l28.603 4.54-28.602 4.55v-3.606H824.06v-1.88z"/><text transform="translate(795 177.5)" font-family="'Avenir-Medium'" font-size="14">To The Post Side</text></g><g id="active"><text transform="translate(828 273.5)" font-family="'Avenir-Medium'" font-size="14">Food</text><text transform="translate(814 290.3)" font-family="'Avenir-Medium'" font-size="14">Marketing</text><text transform="translate(816 307.1)" font-family="'Avenir-Medium'" font-size="14">Compbell</text><text transform="translate(814 323.9)" font-family="'Avenir-Medium'" font-size="14">Collection</text><text transform="translate(692 322.5)" font-family="'Avenir-Medium'" font-size="14">Curriculum</text><text transform="translate(696 339.3)" font-family="'Avenir-Medium'" font-size="14">Materials</text><text transform="translate(700 356.1)" font-family="'Avenir-Medium'" font-size="14">Center</text><text transform="translate(611 397.5)" font-family="'Avenir-Medium'" font-size="12">214</text><text transform="translate(536 374.5)" font-family="'Avenir-Medium'" font-size="12">215</text><text transform="translate(547 321.5)" font-family="'Avenir-Medium'" font-size="12">216</text><text transform="translate(547 283.5)" font-family="'Avenir-Medium'" font-size="12">217</text><text transform="translate(434 283.5)" font-family="'Avenir-Medium'" font-size="12">219</text><text transform="translate(491 301.5)" font-family="'Avenir-Medium'" font-size="12">220</text><text transform="translate(524 460.5)" font-family="'Avenir-Medium'" font-size="14">Quiet Area</text><text transform="translate(486 226.5)" font-family="'Avenir-Medium'" font-size="14">Open Study Area</text><a xlink:href="PostFloor2.svg" xlink:title="Click Go to the Post side"><text transform="translate(795 177.5)" font-family="'Avenir-Medium'" font-size="14">To The Post Side</text></a><g id="studyStation" fill="#1AA3AD"><path d="M214.146 153.23h9.867V426.5h-9.867zM14.5 153.23h9.867V426.5H14.5zM27 152h176.667v9.867H27zM287 175.368h183.334v9.867H287zM27 415.5h176.667v9.967H27z"/></g><path id="s90" fill="#1B1464" d="M822 20h8v106.23h-8z"/><path id="s89" fill="#1B1464" d="M804 20h8v106.23h-8z"/><path id="s86" fill="#1B1464" d="M744 20h8v106.23h-8z"/><path id="s85" fill="#F7931E" d="M724 20h8v106.23h-8z"/><path id="s84" fill="#F7931E" d="M704 20h8v106.23h-8z"/><path id="s78" fill="#F7931E" d="M624 20h8v106.23h-8z"/><path id="s79" fill="#F7931E" d="M603 20h8v106.23h-8z"/><path id="s78_1_" fill="#F7931E" d="M582 20h8v106.23h-8z"/><path id="s77" fill="#006837" d="M562 20h8v106.23h-8z"/><path id="s76" fill="#006837" d="M543 20h8v106.23h-8z"/><path id="s75" fill="#006837" d="M525 20h8v106.23h-8z"/><path id="s74" fill="#006837" d="M504 20h8v106.23h-8z"/><path id="s73" fill="#006837" d="M484 20h8v106.23h-8z"/><path id="s72" fill="#006837" d="M465 20h8v106.23h-8z"/><path id="s71" fill="#006837" d="M442 77.837h8v60.838h-8z"/><path id="s70" fill="#006837" d="M421 77.837h8v60.838h-8z"/><path id="s69" fill="#006837" d="M399 17h8v141h-8z"/><path id="s68" fill="#FF0" d="M378 17h8v141h-8z"/><path id="s67" fill="#FF0" d="M354 17h8v141h-8z"/><path id="s66" fill="#662D91" d="M334 17h8v141h-8z"/><path id="s65" fill="#662D91" d="M312 70.948h8V158h-8z"/><path id="s64" fill="#662D91" d="M291 70.948h8v73.565h-8z"/><path id="s63" fill="#662D91" d="M267 17h8v141h-8z"/><path id="s62" fill="#666" d="M246 17h8v70.5h-8z"/><path id="s83" fill="#F7931E" d="M683 20h8v106.23h-8z"/><path id="s82" fill="#F7931E" d="M663 73.69h8v52.54h-8z"/><path id="s87" fill="#1B1464" d="M764 73.69h8v52.54h-8z"/><path id="s88" fill="#1B1464" d="M784 73.69h8v52.54h-8z"/><path id="s81" fill="#F7931E" d="M642 73.69h8v52.54h-8z"/><path id="s61" fill="#666" d="M27 172h174v8H27z"/><path id="s60" fill="#666" d="M27 188h174v8H27z"/><path id="s59" fill="#666" d="M27 203h174v8H27z"/><path id="s58" fill="#666" d="M27 218h174v8H27z"/><path id="s48" fill="#0071BC" d="M27 371h174v8H27z"/><path id="s47" fill="#0071BC" d="M27 387h174v8H27z"/><path id="s46" fill="#0071BC" d="M26.5 402.5h162v8h-162z"/><g id="s57" fill="#C1272D"><path d="M27 233h111v8H27zM148 233h53v8h-53z"/></g><g id="s56" fill="#C1272D"><path d="M27 248h111v8H27zM148 248h53v8h-53z"/></g><g id="s55" fill="#C1272D"><path d="M27 263h111v8H27zM148 263h53v8h-53z"/></g><g id="s54" fill="#C1272D"><path d="M27 279h111v8H27zM148 279h53v8h-53z"/></g><g id="s53" fill="#C1272D"><path d="M27 294h111v8H27zM148 294h53v8h-53z"/></g><g id="s52" fill="#009245"><path d="M27 310h111v8H27zM148 310h53v8h-53z"/></g><g id="s51" fill="#009245"><path d="M27 325h111v8H27zM148 325h53v8h-53z"/></g><g id="s50" fill="#009245"><path d="M27 341h111v8H27zM148 341h53v8h-53z"/></g><g id="s49" fill="#009245"><path d="M27 355h111v8H27zM148 355h53v8h-53z"/></g><path id="room214" fill="#29ABE2" stroke="#000" stroke-miterlimit="10" d="M582.5 365.44h76v58.06h-76z"/><path id="room215" fill="#29ABE2" stroke="#000" stroke-miterlimit="10" d="M510.5 337.5h72v68h-72z"/><path id="room219" fill="#29ABE2" stroke="#000" stroke-miterlimit="10" d="M413.333 259.5H472.5v38h-59.167z"/><path id="room217" fill="#29ABE2" stroke="#000" stroke-miterlimit="10" d="M532.5 259.5h50v39h-50z"/><path id="room216" fill="#29ABE2" stroke="#000" stroke-miterlimit="10" d="M532.5 298.5h50v38h-50z"/><path id="room220" fill="#29ABE2" stroke="#000" stroke-miterlimit="10" d="M444.5 298v23.5h65.43l.716 16h20.81l.72-78h-59.56l.652 38z"/><path id="CMC" fill="#1CB5A3" stroke="#000" stroke-miterlimit="10" d="M658.5 259.5h135v164h-135z"/><path id="CampbellCollection" fill="#93278F" stroke="#000" stroke-miterlimit="10" d="M793.5 183.5h107v240h-107z"/><path id="quietArea2" fill="#E08B19" stroke="#000" stroke-miterlimit="10" d="M245.5 406v91.5h654.727l.773-74H582.72l.284-18z"/><g id="studyDesk" fill="#11248E" stroke="#000" stroke-miterlimit="10"><ellipse cx="777.5" cy="44.422" rx="12.5" ry="17.514"/><ellipse cx="658.5" cy="44.422" rx="12.5" ry="17.514"/><ellipse cx="442" cy="44.422" rx="12.5" ry="17.514"/><path d="M305.5 26.908c6.903 0 12.5 5.832 12.5 14.41 0 8.576-5.597 15.53-12.5 15.53S293 49.893 293 41.317c0-8.578 5.597-14.41 12.5-14.41z"/></g><path id="studyArea2" fill="#23B21F" stroke="#000" stroke-miterlimit="10" d="M777.5 192v60H399v146.5H287V192z"/></g></svg>