<svg id="DrexelFloor1" xmlns="http://www.w3.org/2000/svg" xmlns:xlink="http://www.w3.org/1999/xlink" width="915" height="510" viewBox="0 0 915 510"><g id="outline"><path id="computerArea" fill="none" stroke="#000" stroke-miterlimit="5" d="M701.586 238.59h124.52v178.065h-124.52z"/><path id="shelfArea" fill="none" stroke="#000" stroke-miterlimit="10" d="M137.25 429.546H8.95V143.11h128.3v119.35z"/><path fill="none" stroke="#000" stroke-miterlimit="10" d="M831.06 7.85H224.97l.498 93.49"/><path id="stair_4_" fill="none" stroke="#000" stroke-miterlimit="10" d="M582.12 155.345v-7.26h85.034v34.81H582.12v-8.654"/><path id="stair" fill="none" stroke="#000" stroke-miterlimit="10" d="M582.12 174.24v-.595"/><path id="stair1" fill="none" stroke="#000" stroke-miterlimit="10" d="M125.116 116.093h101.048v27.018H125.116z"/><path id="stair2" fill="none" stroke="#000" stroke-miterlimit="10" d="M876.212 7.85h29.638V94.38h-29.638z"/><path id="stair3" fill="none" stroke="#000" stroke-miterlimit="10" d="M277.88 238.59h36.9v91.62h-36.9z"/><path id="elevator" fill="none" stroke="#000" stroke-miterlimit="10" d="M469.335 148.084l52.514-.795v31.825l-52.515.795z"/><path fill="none" stroke="#000" stroke-miterlimit="10" d="M277.086 404.682l1.89 96.48h607.182V143.61S700 108.338 716.658 227.256"/><g stroke="#000"><path fill="none" d="M444.87 349.086h27.25v27.052h-27.25z"/><path fill="#231815" d="M472.12 371.86c0 2.388-1.89 4.272-4.276 4.272h-18.6c-2.386 0-4.275-1.89-4.275-4.27v-18.5c0-2.396 1.895-4.276 4.275-4.276h18.6c2.386 0 4.275 1.89 4.275 4.276v18.5z"/><path fill="#FFF" d="M457.997 351.075v21.88h-10.045v-17.007zM459.19 351.075v21.88h10.046v-17.007z"/><g fill="#231815"><path d="M451.632 357.838h2.885l2.587 6.365-.5.3-2.187-3.98-.2.2 2.29 6.066h-2.29l-.696 5.27h-.893l-.696-5.27h-2.188l2.288-5.97-.3-.297-2.087 3.98-.497-.3zM454.615 355.85c0 .895-.695 1.603-1.59 1.603-.897 0-1.605-.696-1.605-1.604 0-.896.695-1.592 1.604-1.592.896 0 1.59.696 1.59 1.59zM465.457 355.85c0 .895-.696 1.603-1.592 1.603-.896 0-1.592-.696-1.592-1.604 0-.896.688-1.592 1.592-1.592.896 0 1.592.696 1.592 1.59zM461.578 357.838h4.376l.994.597v7.36h-.796v-5.172h-.695v11.438h-1.095l-.397-4.375h-.3l-.297 4.376h-1.193v-11.437h-.696v5.172h-.897v-7.26z"/></g></g><path fill="#231815" stroke="#000" stroke-width=".373" d="M491.415 156.438l-4.675 7.758h2.387l4.675-7.558zM500.963 156.438l4.574 7.758h-2.387l-4.575-7.558z"/><path fill="#231815" stroke="#000" stroke-width=".373" d="M492.906 168.274v-11.736h6.565V178.717h-2.286v-10.145h-1.99v10.145h-2.288z"/><ellipse fill="#231815" stroke="#000" stroke-width=".373" cx="496.288" cy="153.753" rx="2.884" ry="2.785"/><path fill="#231815" stroke="#000" stroke-width=".373" d="M474.706 156.438l-4.575 7.758h2.388l4.575-7.558zM484.254 156.438l4.674 7.758h-2.387l-4.573-7.558z"/><path fill="#231815" stroke="#000" stroke-width=".373" d="M476.198 168.274v-11.736h6.564V178.717h-2.287v-10.145h-1.99v10.145h-2.287z"/><ellipse fill="#231815" stroke="#000" stroke-width=".373" cx="479.579" cy="153.753" rx="2.885" ry="2.785"/><path fill="#231815" stroke="#000" stroke-width=".373" d="M507.726 156.438l-4.277 7.758h2.386l4.276-7.558zM517.273 156.438l4.576 7.758h-2.39l-4.573-7.558z"/><path fill="#231815" stroke="#000" stroke-width=".373" d="M509.218 168.274v-11.736h6.563V178.717h-2.385v-10.145h-1.89v10.145h-2.287z"/><ellipse fill="#231815" stroke="#000" stroke-width=".373" cx="512.599" cy="153.753" rx="2.896" ry="2.785"/><path stroke="#000" stroke-miterlimit="10" d="M487.237 136.05h-2.784l3.58-14.322 3.58 14.322h-2.884v8.653h-1.493zM506.035 121.728h1.49v8.554h2.787l-3.582 14.42-3.48-14.42h2.785z"/><path fill="none" stroke="#000" stroke-miterlimit="10" d="M400.014 319.15h113.778v90.505H400.014zM582.12 153.753h74.094M582.12 175.932h74.094M648.854 153.753l.298 22.18M645.87 154.45l.2 22.08M641.893 154.45l.297 22.08M634.532 154.45l.3 22.08M631.15 154.45l.3 22.08M624.587 154.45l.2 22.08M628.466 154.45l.2 22.08M606.685 154.45l.2 22.08M603.502 154.45l.3 22.08M614.144 154.45l.298 22.08M610.364 154.45l.198 22.08M617.426 154.45l.3 22.08M621.404 154.45l.3 22.08M638.213 154.45l.298 22.08"/><path d="M639.107 164.495l18.997 1.79-18.997 1.79v-.994H587.59v-1.292h51.517z"/><path fill="none" stroke="#000" stroke-miterlimit="10" d="M277.086 251.293h37.694M277.88 318.43l36.9-.31M277.88 290.79l36.9-.23M277.88 295.718l36.9-.31M368.486 316.335L386 290.56M277.88 303.878l36.9-.232M277.88 308.267l36.9-.232M277.88 286.093l36.9-.308M277.88 281.09l36.9-.31M277.88 276.47l36.9-.308M277.88 271.157l36.9-.23M277.88 266.46l36.9-.308M277.88 261.07l36.9-.306M295.925 260.764l.304 47.35"/><path d="M305.26 268.938l-1.965-12.862-2.015 12.856 1.193.002-.07 35.03 1.392.002.07-35.03zM287.608 307.403l.07-45.255-1.542.012v45.254h-1.193l1.99 16.708 1.968-16.718z"/><path fill="none" stroke="#000" stroke-miterlimit="10" d="M152.554 116.093v26.89M147.19 116.157v26.89M157.917 116.093v26.89M163.28 116.157v26.89M169.19 116.157v26.89M175.02 116.157v26.89M185.745 116.157v26.89M180.38 116.157v26.89M211.162 116.157v26.89M206.266 116.157v26.89M201.37 116.157v26.89M196.005 116.157v26.89M190.64 116.157v26.89"/><path d="M195.23 127.93l22.54 1.8-22.54 1.802v-1.094h-61.175v-1.287h61.174z"/><path fill="none" stroke="#000" stroke-miterlimit="10" d="M876.212 21.774l29.638-.497M876.212 26.45l29.638-.498M831.357 7.552l74.493-.497M876.212 31.422l29.638-.498M876.212 36.395l29.638-.498M876.212 45.346l29.638-.497M876.212 49.324l29.638-.497M876.212 40.472l29.638-.497M876.212 53.8l29.638-.498M876.212 67.823l29.638-.497M876.212 62.75l29.638-.497M876.212 58.275l29.638-.497M891.03 17v50.524"/><g><path d="M900.877 63.05l-1.293 18.398-1.193-18.4h.697V12.824h.895V63.05zM885.96 30.526l-1.294-18.498-1.193 18.498h.695v50.127h.894V30.526z"/></g><path fill="none" stroke="#000" stroke-miterlimit="10" d="M225.17 59.66l174.844-1.193v126.416l-25.56 30.832M349.59 316.96l18.896-.625M277.88 299.566h36.9"/><path d="M841.178 120.397v-3.604l28.603 4.54-28.602 4.55v-3.606H824.06v-1.88zM869.78 107.398v1.88h-17.116v3.604l-28.603-4.55 28.604-4.54v3.605z"/><path fill="none" stroke="#000" stroke-miterlimit="10" d="M333.73 59.972h66.28v58.406h-66.28zM338.667 7.85h58.726V46.5h-58.726zM398.013 7.85h58.727V46.5h-58.727zM634.79 7.85H707V46.5h-72.21zM605.342 46.5h50.872V95h-50.872z"/><path fill="none" d="M656.214 46.5h50.872V95h-50.872z"/><path id="ATDL" fill="none" stroke="#000" stroke-miterlimit="10" d="M278.943 7.85v51.413l121.07.204-.03 52.748h127.982l.03-16.952L707 94.467V7.85z"/></g><g id="active"><text transform="matrix(1.156 0 0 1 734 186.923)" font-family="'Avenir-Medium'" font-size="14">Research</text><text transform="matrix(1.156 0 0 1 750 206.723)" font-family="'Avenir-Medium'" font-size="14">Help</text><text transform="matrix(1.156 0 0 1 818.055 175.884)" font-family="'Avenir-Medium'" font-size="14">Library</text><text transform="matrix(1.156 0 0 1 818.055 192.684)" font-family="'Avenir-Medium'" font-size="14">Service</text><text transform="matrix(1.156 0 0 1 824.993 209.483)" font-family="'Avenir-Medium'" font-size="14">Desk</text><text transform="matrix(1.056 0 0 1 734.338 326.829)" font-family="'Avenir-Medium'" font-size="14">Computer</text><text transform="matrix(1.056 0 0 1 750.338 342.743)" font-family="'Avenir-Medium'" font-size="14">Area</text><text transform="translate(168.667 332.166)" font-family="'Avenir-Medium'" font-size="14">Microfilm</text><text transform="translate(168.667 348.966)" font-family="'Avenir-Medium'" font-size="14">Workstation</text><text transform="translate(633.334 322.166)" font-family="'Avenir-Medium'" font-size="10">Printer</text><text transform="translate(637.334 334.166)" font-family="'Avenir-Medium'" font-size="10">Area</text><text transform="translate(631.001 397.499)" font-family="'Avenir-Medium'" font-size="12">122</text><text transform="translate(630.667 365.166)" font-family="'Avenir-Medium'" font-size="12">121</text><text transform="translate(584.334 299.166)" font-family="'Avenir-Medium'" font-size="8">Conference</text><text transform="translate(592.334 308.766)" font-family="'Avenir-Medium'" font-size="8">Room</text><text transform="translate(421.668 282.165)" font-family="'Avenir-Medium'" font-size="14">Library Instruction Lab</text><text transform="translate(633 280.5)" font-family="'Avenir-Medium'" font-size="12">Office</text><text transform="translate(638 294.9)" font-family="'Avenir-Medium'" font-size="12">120</text><text transform="translate(571 367.5)" font-family="'Avenir-Medium'" font-size="12">Office</text><text transform="translate(578 381.9)" font-family="'Avenir-Medium'" font-size="12">123</text><text transform="translate(522 386.5)" font-family="'Avenir-Medium'" font-size="12">Office</text><text transform="translate(527 400.9)" font-family="'Avenir-Medium'" font-size="12">124</text><text transform="translate(152 160.5)" font-family="'Avenir-Medium'" font-size="12">Office</text><text transform="translate(159 174.9)" font-family="'Avenir-Medium'" font-size="12">175</text><text transform="translate(235 84.5)" font-family="'Avenir-Medium'" font-size="12">Office</text><text transform="translate(242 98.9)" font-family="'Avenir-Medium'" font-size="12">172</text><text transform="translate(230 241.5)" font-family="'Avenir-Medium'" font-size="12">Office</text><text transform="translate(237 255.9)" font-family="'Avenir-Medium'" font-size="12">177</text><text transform="translate(361 145.5)" font-family="'Avenir-Medium'" font-size="12">Office</text><text transform="translate(361 159.9)" font-family="'Avenir-Medium'" font-size="12">178</text><text transform="translate(826.666 259.166)" font-family="'Avenir-Medium'" font-size="12">Circulation</text><text transform="translate(826.666 273.566)" font-family="'Avenir-Medium'" font-size="12">Workroom</text><text transform="matrix(1.046 0 0 1 838.762 314.5)" font-family="'Avenir-Medium'" font-size="12">Office</text><text transform="matrix(1.046 0 0 1 845.762 328.9)" font-family="'Avenir-Medium'" font-size="12">115</text><text transform="translate(326 281.5)" font-family="'Avenir-Medium'" font-size="12">ILL</text><text transform="translate(353.668 88.833)" font-family="'Avenir-Medium'" font-size="12">Office</text><text transform="translate(358.668 103.233)" font-family="'Avenir-Medium'" font-size="12">168</text><text transform="translate(290 23.5)" font-family="'Avenir-Medium'" font-size="12">Office</text><text transform="translate(295 37.9)" font-family="'Avenir-Medium'" font-size="12">170</text><text transform="translate(352.678 23.5)" font-family="'Avenir-Medium'" font-size="12">Office</text><text transform="translate(357.678 37.9)" font-family="'Avenir-Medium'" font-size="12">169</text><text transform="translate(409.678 23.5)" font-family="'Avenir-Medium'" font-size="12">Office</text><text transform="translate(414.678 37.9)" font-family="'Avenir-Medium'" font-size="12">167</text><text transform="translate(469.336 23.773)" font-family="'Avenir-Medium'" font-size="12">Office</text><text transform="translate(474.336 38.174)" font-family="'Avenir-Medium'" font-size="12">165</text><text transform="translate(586.744 23.773)" font-family="'Avenir-Medium'" font-size="12">Office</text><text transform="translate(591.744 38.174)" font-family="'Avenir-Medium'" font-size="12">161</text><text transform="translate(653.225 23.773)" font-family="'Avenir-Medium'" font-size="12">Office</text><text transform="translate(658.225 38.174)" font-family="'Avenir-Medium'" font-size="12">152</text><text transform="translate(612.441 70.75)" font-family="'Avenir-Medium'" font-size="12">Office</text><text transform="translate(617.441 85.149)" font-family="'Avenir-Medium'" font-size="12">150</text><text transform="translate(662.496 70.75)" font-family="'Avenir-Medium'" font-size="12">Office</text><text transform="translate(667.496 85.149)" font-family="'Avenir-Medium'" font-size="12">151</text><text transform="translate(410.497 83.39)" font-family="'Avenir-Medium'" font-size="12">Office</text><text transform="translate(415.497 97.789)" font-family="'Avenir-Medium'" font-size="12">166</text><text transform="translate(529.107 23.5)" font-family="'Avenir-Medium'" font-size="12">Office</text><text transform="translate(534.107 37.9)" font-family="'Avenir-Medium'" font-size="12">163</text><path id="room162" fill="none" d="M482.762 58.972h45.203V85.5h-45.203z"/><text transform="translate(482.762 70.516)" font-family="'Avenir-Medium'" font-size="12">Office</text><text transform="translate(487.762 84.916)" font-family="'Avenir-Medium'" font-size="12">162</text><text transform="translate(465.667 103.166)" font-family="'Avenir-Medium'" font-size="12">Office 164</text><a xlink:href="PostFloor1.svg" xlink:title="Click Go to the Post side"><text transform="translate(795 137.5)" font-family="'Avenir-Medium'" font-size="14">To The Post Side</text></a><path id="room116" fill="#9C4ACE" d="M826.666 226.953h59.492v57.484h-59.492z"/><path id="room115" fill="#828287" d="M827.666 284.874h57.636v61.55h-57.636z"/><path id="room122" fill="#29ABE2" stroke="#000" stroke-miterlimit="10" d="M610.96 377.83h59.974v31.825H610.96z"/><path id="room121" fill="#29ABE2" stroke="#000" stroke-miterlimit="10" d="M610.96 345.008h59.974v31.826H610.96z"/><path id="room119" fill="#5BB900" stroke="#000" stroke-miterlimit="10" d="M583.113 263.453h44.457v81.555h-44.457z"/><path id="room123" fill="#828287" stroke="#000" stroke-miterlimit="10" d="M562.427 345.008h48.634v53.707h-48.633z"/><path id="room124" fill="#828287" stroke="#000" stroke-miterlimit="10" d="M513.792 368.878h48.635v40.777h-48.635z"/><path id="room120" fill="#828287" stroke="#000" stroke-miterlimit="10" d="M627.57 258.48h43.463v49.73H627.57z"/><path id="room178" fill="#828287" stroke="#000" stroke-miterlimit="10" d="M352.678 118.378h47.333v56.59H352.68z"/><path id="room172" fill="#828287" stroke="#000" stroke-miterlimit="10" d="M225.17 59.83h51.71v56.263h-51.71z"/><path id="room175" fill="#828287" stroke="#000" stroke-miterlimit="10" d="M137.25 143.11h63.453v39.784H137.25z"/><path id="room177" fill="#828287" stroke="#000" stroke-miterlimit="10" d="M215.423 224.168h61.464v40.28h-61.464z"/><path id="ILL" fill="#828287" stroke="#000" stroke-miterlimit="10" d="M314.78 238.59h37.898v78.37H314.78z"/><path id="DrexelPrinter" fill="#C47272" stroke="#000" stroke-miterlimit="10" d="M627.57 308.21h43.463v36.798H627.57z"/><g id="referenceCollection" fill="#E54217"><path d="M729.365 30.66h6.266V95h-6.265zM744.907 30.66h6.267V95h-6.267zM760.748 30.66h6.266V95h-6.266zM777.495 30.66h6.266V95h-6.265z"/></g><path id="periodicalNewspaper" fill="#6A18B2" d="M791.867 30.66h6.266v52.73h-6.266z"/><g id="newspaperIndex" fill="#0E8C56"><path d="M533.386 148.084h6.27v31.826h-6.27zM543.73 148.084H550v31.826h-6.27z"/></g><g id="reference" fill="#0A877D"><path d="M469.335 180.9h55.896v5.967h-55.895zM469.335 213.715h113.778v5.967H469.335z"/></g><path id="atlases" fill="#1313BA" d="M628.117 250.834h42.37v5.967h-42.37z"/><g id="mediaCollection" fill="#ED1C24" stroke="#000" stroke-miterlimit="10"><path d="M775.463 428.52h86.925v5.978h-86.925zM775.463 437.48h86.925v5.968h-86.925z"/></g><g id="quietArea1" fill="#32BAA6"><path d="M669.74 446.454h82.848v48.733H669.74zM563.223 446.454h82.854v48.733h-82.854zM776.557 446.454h82.854v48.733h-82.853zM349.59 446.454h82.848v48.733H349.59zM456.307 446.454h82.854v48.733h-82.853z"/></g><g id="periodicals" fill="#C1272D" stroke="#000" stroke-miterlimit="10"><path d="M762.036 446.454h6.266v48.733h-6.266zM654.225 446.454h6.27v48.733h-6.27zM547.906 446.454h6.266v48.733h-6.266zM440.493 446.454h6.266v48.733h-6.267z"/></g><path id="s92" fill="#001473" d="M16.792 412.142h100.352v5.98H16.792z"/><path id="s93" fill="#001473" d="M16.792 403.19h100.352v5.967H16.792z"/><path id="s94" fill="#001473" d="M16.792 394.24h100.352v5.966H16.792z"/><path id="s95" fill="#001473" d="M16.792 386.282h100.352v5.968H16.792z"/><path id="s96" fill="#001473" d="M16.792 378.326h100.352v5.967H16.792z"/><path id="s97" fill="#001473" d="M16.792 370.37h100.352v5.967H16.792z"/><path id="s91" fill="#001473" d="M16.792 420.098h100.352v5.98H16.792z"/><path id="s101" fill="#D8200E" d="M16.792 338.543h100.352v5.968H16.792z"/><path id="s100" fill="#D8200E" d="M16.792 346.5h100.352v5.968H16.792z"/><path id="s99" fill="#015C00" d="M16.792 354.456h100.352v5.968H16.792z"/><path id="s98" fill="#015C00" d="M16.792 362.413h100.352v5.968H16.792z"/><path id="s104" fill="#D8200E" d="M16.792 315.668h100.352v5.968H16.792z"/><path id="s106" fill="#D8200E" d="M16.792 299.756h100.352v5.967H16.792z"/><path id="s105" fill="#D8200E" d="M16.792 307.712h100.352v5.968H16.792z"/><path id="s103" fill="#D8200E" d="M16.792 323.625h100.352v5.968H16.792z"/><path id="s102" fill="#D8200E" d="M16.792 331.58h100.352v5.97H16.792z"/><path id="s109" fill="#3B3D5B" d="M16.792 273.896h100.352v5.967H16.792z"/><path id="s108" fill="#3B3D5B" d="M16.792 282.848h100.352v5.97H16.792z"/><path id="s107" fill="#3B3D5B" d="M16.792 291.8h100.352v5.966H16.792z"/><path id="s110" fill="#7000B9" d="M16.792 265.94h100.352v5.968H16.792z"/><path id="s112" fill="#FFEC17" d="M16.792 250.027h100.352v5.967H16.792z"/><path id="s111" fill="#FFEC17" d="M16.792 257.984h100.352v5.967H16.792z"/><path id="s113" fill="#003CD0" d="M16.792 241.076h100.352v5.967H16.792z"/><path id="s114" fill="#003CD0" d="M16.792 232.125h100.352v5.967H16.792z"/><path id="s115" fill="#003CD0" d="M16.792 224.168h100.352v5.967H16.792z"/><path id="s116" fill="#003CD0" d="M16.792 215.217h100.352v5.967H16.792z"/><path id="s117" fill="#003CD0" d="M16.792 206.266h100.352v5.968H16.792z"/><path id="s118" fill="#FF8000" d="M16.792 196.32h100.352v5.968H16.792z"/><path id="s119" fill="#FF8000" d="M16.792 187.37h100.352v5.967H16.792z"/><path id="s120" fill="#FF8000" d="M16.792 178.418h100.352v5.967H16.792z"/><path id="s121" fill="#FF8000" d="M16.792 169.467h100.352v5.967H16.792z"/><path id="s122" fill="#B90043" d="M16.792 162.505h100.352v5.967H16.792z"/><path id="s123" fill="#255C00" d="M16.792 154.55h100.352v5.966H16.792z"/><path id="s124" fill="#255C00" d="M16.792 146.294h100.352v5.967H16.792z"/><path id="microfilm" fill="#008B5E" stroke="#000" stroke-miterlimit="10" d="M276.887 404.682H239.59v25.36l-101.345-.496V264.448h138.642z"/><g id="Dcomputers" fill="#E6E700"><path d="M711.034 401.11h8.752v11.77h-8.752zM711.034 367.192h8.752v11.77h-8.752zM711.034 350.233h8.752v11.77h-8.752zM711.034 329.79h8.752v11.775h-8.752zM711.034 312.83h8.752v11.783h-8.752zM711.034 242.17h8.752v11.776h-8.752zM711.034 258.188h8.752v11.775h-8.752zM711.034 278.914h8.752v11.775h-8.752zM711.034 295.4h8.752v11.77h-8.752zM711.034 383.492h8.752v11.77h-8.752zM729.83 401.203h8.754v11.783h-8.753zM729.83 367.287h8.754v11.77h-8.753zM729.83 350.328h8.754v11.782h-8.753zM729.83 329.884h8.754v11.782h-8.753zM729.83 312.924h8.754V324.7h-8.753zM729.83 242.264h8.754v11.777h-8.753zM729.83 258.28h8.754v11.776h-8.753zM729.83 279.01h8.754v11.78h-8.753zM729.83 295.495h8.754v11.776h-8.753zM729.83 383.586h8.754v11.776h-8.753zM758.574 401.203h8.752v11.783h-8.752zM758.574 367.287h8.752v11.77h-8.752zM758.574 350.328h8.752v11.782h-8.752zM758.574 329.79h8.752v11.775h-8.752zM758.574 312.83h8.752v11.783h-8.752zM758.574 242.17h8.752v11.776h-8.752zM758.574 258.188h8.752v11.775h-8.752zM758.574 278.914h8.752v11.775h-8.752zM758.574 295.4h8.752v11.77h-8.752zM758.574 383.492h8.752v11.77h-8.752zM777.372 401.298h8.752v11.777h-8.752zM777.372 367.38h8.752v11.783h-8.752zM777.372 350.423h8.752V362.2h-8.752zM777.372 329.884h8.752v11.782h-8.752zM777.372 312.924h8.752V324.7h-8.752zM777.372 279.01h8.752v11.78h-8.752zM777.372 295.495h8.752v11.776h-8.752zM777.372 383.586h8.752v11.776h-8.752zM806.016 310.005h8.752v11.776h-8.752zM806.016 292.668h8.752v11.783h-8.752zM806.016 275.146h8.752v11.77h-8.752zM806.413 334.97h8.752v11.784h-8.752zM806.413 352.118h8.752v11.77h-8.752zM806.413 368.135h8.752v11.782h-8.752zM806.016 384.527h8.752v11.77h-8.752zM806.016 401.298h8.752v11.777h-8.752z"/></g><g id="scannerAttached" fill="#E56D00"><path d="M777.372 242.264h8.752v11.777h-8.752zM777.372 258.28h8.752v11.776h-8.752z"/></g><g id="scanner" fill="#FF8345"><path d="M806.016 242.546h8.752v11.777h-8.752zM806.016 258.188h8.752v11.775h-8.752z"/></g><path id="DComputer1" fill="#E6E700" d="M314.78 330.398h37.898v14.3H314.78z"/><path id="DVDPlayStation" fill="#5B2EFF" d="M276.88 330.21h37.9v14.3h-37.9z"/><path id="LibraryInstructionLab" fill="#E59C28" stroke="#000" stroke-miterlimit="10" d="M400.014 221.682h183.104v97.467H400.014z"/><g fill="none" stroke="#000" stroke-miterlimit="10"><path d="M425.376 301.445h8.752v12.433h-8.752zM425.376 284.938h8.752v12.438h-8.752zM425.376 259.078h8.752v12.432h-8.752zM425.376 243.364h8.752v12.432h-8.752zM425.376 226.953h8.752v12.432h-8.752zM456.604 301.445h8.77v12.433h-8.77zM456.604 284.938h8.77v12.438h-8.77zM456.604 259.078h8.77v12.432h-8.77zM456.604 243.364h8.77v12.432h-8.77zM456.604 226.953h8.77v12.432h-8.77zM488.43 301.545h8.754v12.434h-8.753zM488.43 285.035h8.754v12.433h-8.753zM488.43 259.178h8.754v12.432h-8.753zM488.43 243.364h8.754v12.432h-8.753zM488.43 226.953h8.754v12.432h-8.753zM552.58 301.445h8.753v12.433h-8.753zM552.58 284.938h8.753v12.438h-8.753zM552.58 243.364h8.753v12.432h-8.753zM552.58 226.953h8.753v12.432h-8.753zM520.356 301.545h8.752v12.434h-8.752zM520.356 285.035h8.752v12.433h-8.752zM520.356 259.178h8.752v12.432h-8.752zM520.356 243.364h8.752v12.432h-8.752zM520.356 226.953h8.752v12.432h-8.752z"/></g><path id="referenceDesk" fill="#0040A2" d="M720.425 226.953h81.54l.79-80.488s-89.476 4.046-82.33 80.488z"/><path id="circulationDesk" fill="#9E4ACE" d="M803.077 146.465c53.335-6.584 79.923 1.58 79.923 1.58v78.908h-80.608l.685-80.488z"/><path id="studyStation" fill="#1AA3AD" d="M125.116 143.11h12.134v286.436h-12.134z"/><path id="studyStation1" fill="#19AF19" d="M720.02 8.85h90.353v13.924H720.02z"/><path id="room170" fill="#EFE63A" stroke="#000" stroke-miterlimit="10" d="M278.943 7.85h58.786V46.5h-58.787z"/><path id="room165" fill="#EFE63A" stroke="#000" stroke-miterlimit="10" d="M457.377 7.85h58.727V46.5h-58.727z"/><path id="room163" fill="#EFE63A" stroke="#000" stroke-miterlimit="10" d="M516.5 7.85h58.727V46.5H516.5z"/><path id="room164" fill="#EFE63A" stroke="#000" stroke-miterlimit="10" d="M456.604 85.5h71.36v26.715h-71.36z"/><path id="room166" fill="#EFE63A" stroke="#000" stroke-miterlimit="10" d="M400.01 58.972h56.594v53.243H400.01z"/><path id="room161" fill="#EFE63A" stroke="#000" stroke-miterlimit="10" d="M575.844 7.85h58.728V46.5h-58.728z"/><path id="room162" fill="#EFE63A" stroke="#000" stroke-miterlimit="10" d="M473.61 58.972h54.355V85.5H473.61z"/></g></svg>