<?xml version="1.0" encoding="utf-8"?>
<!-- Generator: Adobe Illustrator 16.0.4, SVG Export Plug-In . SVG Version: 6.00 Build 0)  -->
<!DOCTYPE svg PUBLIC "-//W3C//DTD SVG 1.1//EN" "http://www.w3.org/Graphics/SVG/1.1/DTD/svg11.dtd">
<svg version="1.1" id="DrexelFloor2" xmlns="http://www.w3.org/2000/svg" xmlns:xlink="http://www.w3.org/1999/xlink" x="0px"
	 y="0px" width="910px" height="510px" viewBox="0 0 910 510" enable-background="new 0 0 910 510" xml:space="preserve">
<g id="outline">
	<rect id="stair_3_" x="859.776" y="10.841" fill="none" stroke="#000000" stroke-miterlimit="10" width="35.803" height="90.503"/>
	
		<rect id="stair_4_" x="99.951" y="106.317" fill="none" stroke="#000000" stroke-miterlimit="10" width="136.251" height="46.743"/>
	<polyline fill="none" stroke="#000000" stroke-miterlimit="10" points="216.312,105.82 216.312,10.841 860.273,10.841 	"/>
	<polyline fill="none" stroke="#000000" stroke-miterlimit="10" points="99.454,153.06 13.426,153.06 13.426,426.558 
		244.656,426.558 243.661,228.147 269.519,202.17 471.907,202.29 	"/>
	<g>
		<g>
			<g>
				<g>
					<g>
						<polygon fill="#231815" stroke="#FFFFFF" stroke-width="0.3137" points="490.961,192.727 486.887,199.712 488.988,199.68 
							493.051,192.943 						"/>
						<polygon fill="#231815" stroke="#FFFFFF" stroke-width="0.3137" points="499.407,192.727 503.447,199.706 501.35,199.696 
							497.318,192.943 						"/>
						<polygon fill="#231815" stroke="#FFFFFF" stroke-width="0.3137" points="492.271,203.324 492.271,192.894 498.089,192.894 
							498.089,203.665 498.086,203.665 498.086,212.732 496.021,212.732 496.021,203.595 494.321,203.595 494.321,212.732 
							492.26,212.732 492.26,203.324 						"/>
						<g>
							<circle fill="#231815" stroke="#FFFFFF" stroke-width="0.3137" cx="495.258" cy="190.38" r="2.514"/>
						</g>
					</g>
				</g>
				<g>
					<g>
						<polygon fill="#231815" stroke="#FFFFFF" stroke-width="0.3137" points="476.238,192.727 472.166,205.679 474.266,205.647 
							478.328,192.943 						"/>
						<polygon fill="#231815" stroke="#FFFFFF" stroke-width="0.3137" points="511.146,193.046 515.209,205.75 517.309,205.782 
							513.236,192.83 						"/>
						<polygon fill="#231815" stroke="#FFFFFF" stroke-width="0.3137" points="484.684,192.727 488.753,199.692 486.637,199.716 
							482.596,192.943 						"/>
						<polygon fill="#231815" stroke="#FFFFFF" stroke-width="0.3137" points="477.548,203.324 477.548,192.894 483.365,192.894 
							483.365,203.665 483.364,203.665 483.364,212.732 481.301,212.732 481.301,203.595 479.6,203.595 479.6,212.732 
							477.536,212.732 477.536,203.324 						"/>
						<g>
							<circle fill="#231815" stroke="#FFFFFF" stroke-width="0.3137" cx="480.537" cy="190.38" r="2.513"/>
						</g>
					</g>
				</g>
				<g>
					<g>
						<polygon fill="#231815" stroke="#FFFFFF" stroke-width="0.3137" points="505.328,192.727 501.575,199.677 503.682,199.68 
							507.418,192.943 						"/>
						<polygon fill="#231815" stroke="#FFFFFF" stroke-width="0.3137" points="506.64,203.324 506.64,192.894 512.455,192.894 
							512.455,203.665 512.455,203.665 512.455,212.732 510.391,212.732 510.391,203.595 508.689,203.595 508.689,212.732 
							506.627,212.732 506.627,203.324 						"/>
						<g>
							<circle fill="#231815" stroke="#FFFFFF" stroke-width="0.3137" cx="509.627" cy="190.38" r="2.513"/>
						</g>
					</g>
				</g>
			</g>
			<path fill="#231815" stroke="#FFFFFF" stroke-miterlimit="10" d="M113.377-62.257"/>
			<rect x="471.907" y="183.891" fill="none" stroke="#000000" width="45.748" height="30.831"/>
			<g>
				<g>
					<g>
						<polygon points="484.256,170.295 487.322,170.295 483.461,158.53 479.592,170.295 482.658,170.295 482.658,180.907 
							484.256,180.907 						"/>
					</g>
				</g>
			</g>
			<g>
				<g>
					<g>
						<polygon points="504.247,158.53 502.648,158.53 502.648,169.142 499.582,169.142 503.452,180.907 507.312,169.142 
							504.247,169.142 						"/>
					</g>
				</g>
			</g>
		</g>
	</g>
	<polyline fill="none" stroke="#000000" stroke-miterlimit="10" points="517.655,185.878 859.776,185.382 859.776,101.344 	"/>
	<g id="stair">
		<g>
			<line fill="none" stroke="#000000" stroke-miterlimit="10" x1="125.312" y1="106.317" x2="125.312" y2="153.06"/>
			<line fill="none" stroke="#000000" stroke-miterlimit="10" x1="131.942" y1="106.317" x2="131.942" y2="153.06"/>
			<line fill="none" stroke="#000000" stroke-miterlimit="10" x1="139.235" y1="106.317" x2="139.235" y2="153.06"/>
			<line fill="none" stroke="#000000" stroke-miterlimit="10" x1="146.197" y1="106.317" x2="146.197" y2="153.06"/>
			<line fill="none" stroke="#000000" stroke-miterlimit="10" x1="153.159" y1="106.317" x2="153.159" y2="153.06"/>
			<line fill="none" stroke="#000000" stroke-miterlimit="10" x1="160.618" y1="106.317" x2="160.618" y2="153.06"/>
			<line fill="none" stroke="#000000" stroke-miterlimit="10" x1="168.077" y1="106.317" x2="168.077" y2="153.06"/>
			<line fill="none" stroke="#000000" stroke-miterlimit="10" x1="175.038" y1="106.317" x2="175.038" y2="153.06"/>
			<line fill="none" stroke="#000000" stroke-miterlimit="10" x1="182" y1="106.317" x2="182" y2="153.06"/>
			<line fill="none" stroke="#000000" stroke-miterlimit="10" x1="188.298" y1="106.317" x2="188.298" y2="153.06"/>
			<line fill="none" stroke="#000000" stroke-miterlimit="10" x1="195.26" y1="106.317" x2="195.26" y2="153.06"/>
			<line fill="none" stroke="#000000" stroke-miterlimit="10" x1="202.554" y1="106.317" x2="202.554" y2="153.06"/>
			<line fill="none" stroke="#000000" stroke-miterlimit="10" x1="209.184" y1="106.317" x2="209.184" y2="153.06"/>
			<polygon points="192.445,128.634 217.667,130.58 192.445,132.51 192.445,131.354 123.791,131.354 123.791,129.959 
				192.445,129.959 			"/>
		</g>
		<g>
			<line fill="none" stroke="#000000" stroke-miterlimit="10" x1="859.776" y1="29.149" x2="895.579" y2="29.149"/>
			<line fill="none" stroke="#000000" stroke-miterlimit="10" x1="860.107" y1="36.081" x2="895.91" y2="36.081"/>
			<line fill="none" stroke="#000000" stroke-miterlimit="10" x1="859.776" y1="57.253" x2="895.579" y2="57.253"/>
			<line fill="none" stroke="#000000" stroke-miterlimit="10" x1="859.776" y1="49.974" x2="895.579" y2="49.974"/>
			<line fill="none" stroke="#000000" stroke-miterlimit="10" x1="859.776" y1="42.667" x2="895.579" y2="42.667"/>
			<line fill="none" stroke="#000000" stroke-miterlimit="10" x1="860.107" y1="64.734" x2="895.91" y2="64.734"/>
			<line fill="none" stroke="#000000" stroke-miterlimit="10" x1="860.107" y1="72.171" x2="895.91" y2="72.171"/>
			<line fill="none" stroke="#000000" stroke-miterlimit="10" x1="860.107" y1="79.133" x2="895.91" y2="79.133"/>
			<polygon points="878.78,70.764 877.784,88.941 876.793,70.764 877.386,70.764 877.386,21.284 878.102,21.284 878.102,70.764 			
				"/>
		</g>
	</g>
	<line fill="none" stroke="#000000" stroke-miterlimit="10" x1="280.833" y1="18.301" x2="324.833" y2="62.167"/>
	<rect x="280.833" y="18.301" fill="#FFFFFF" stroke="#000000" stroke-miterlimit="10" width="44" height="43.866"/>
	<line fill="none" stroke="#000000" stroke-miterlimit="10" x1="324.833" y1="18.301" x2="280.833" y2="62.167"/>
	<rect x="411" y="21.284" fill="#FFFFFF" stroke="#000000" stroke-miterlimit="10" width="44" height="43.866"/>
	<line fill="none" stroke="#000000" stroke-miterlimit="10" x1="411" y1="21.284" x2="455" y2="65.15"/>
	<line fill="none" stroke="#000000" stroke-miterlimit="10" x1="455" y1="21.284" x2="411" y2="65.15"/>
	<rect x="632.167" y="21.284" fill="#FFFFFF" stroke="#000000" stroke-miterlimit="10" width="44" height="43.866"/>
	<line fill="none" stroke="#000000" stroke-miterlimit="10" x1="632.167" y1="21.284" x2="676.167" y2="65.15"/>
	<line fill="none" stroke="#000000" stroke-miterlimit="10" x1="676.167" y1="21.284" x2="632.167" y2="65.15"/>
	<rect x="751.5" y="20.733" fill="#FFFFFF" stroke="#000000" stroke-miterlimit="10" width="44" height="43.866"/>
	<line fill="none" stroke="#000000" stroke-miterlimit="10" x1="751.5" y1="20.733" x2="795.5" y2="64.6"/>
	<line fill="none" stroke="#000000" stroke-miterlimit="10" x1="795.5" y1="20.733" x2="751.5" y2="64.6"/>
	<g id="lstair">
		<line fill="none" stroke="#000000" stroke-miterlimit="10" x1="202.631" y1="320.596" x2="223.992" y2="320.596"/>
		<line fill="none" stroke="#000000" stroke-miterlimit="10" x1="202.631" y1="314.5" x2="223.992" y2="314.5"/>
		<line fill="none" stroke="#000000" stroke-miterlimit="10" x1="202.631" y1="308.64" x2="223.992" y2="308.64"/>
		<line fill="none" stroke="#000000" stroke-miterlimit="10" x1="202.631" y1="302.699" x2="223.992" y2="302.699"/>
		<line fill="none" stroke="#000000" stroke-miterlimit="10" x1="202.554" y1="297.527" x2="223.916" y2="297.527"/>
		<line fill="none" stroke="#000000" stroke-miterlimit="10" x1="202.631" y1="291.787" x2="223.992" y2="291.787"/>
		<line fill="none" stroke="#000000" stroke-miterlimit="10" x1="202.554" y1="285.833" x2="223.916" y2="285.833"/>
		<rect x="202.554" y="274.891" fill="none" stroke="#000000" stroke-miterlimit="10" width="21.361" height="57.275"/>
		<line fill="none" stroke="#000000" stroke-miterlimit="10" x1="456.464" y1="169.096" x2="456.464" y2="147.734"/>
		<line fill="none" stroke="#000000" stroke-miterlimit="10" x1="450.368" y1="169.096" x2="450.368" y2="147.734"/>
		<line fill="none" stroke="#000000" stroke-miterlimit="10" x1="444.508" y1="169.096" x2="444.508" y2="147.734"/>
		<line fill="none" stroke="#000000" stroke-miterlimit="10" x1="438.567" y1="169.096" x2="438.567" y2="147.734"/>
		<line fill="none" stroke="#000000" stroke-miterlimit="10" x1="433.396" y1="169.172" x2="433.396" y2="147.811"/>
		<line fill="none" stroke="#000000" stroke-miterlimit="10" x1="427.655" y1="169.096" x2="427.655" y2="147.734"/>
		<line fill="none" stroke="#000000" stroke-miterlimit="10" x1="421.701" y1="169.172" x2="421.701" y2="147.811"/>
		<rect x="410.759" y="147.811" fill="none" stroke="#000000" stroke-miterlimit="10" width="57.275" height="21.361"/>
		<line fill="none" stroke="#000000" stroke-miterlimit="10" x1="767.626" y1="155.058" x2="767.626" y2="133.696"/>
		<line fill="none" stroke="#000000" stroke-miterlimit="10" x1="773.722" y1="155.058" x2="773.722" y2="133.696"/>
		<line fill="none" stroke="#000000" stroke-miterlimit="10" x1="779.582" y1="155.058" x2="779.582" y2="133.696"/>
		<line fill="none" stroke="#000000" stroke-miterlimit="10" x1="785.521" y1="155.058" x2="785.521" y2="133.696"/>
		<line fill="none" stroke="#000000" stroke-miterlimit="10" x1="790.693" y1="155.134" x2="790.693" y2="133.773"/>
		<line fill="none" stroke="#000000" stroke-miterlimit="10" x1="796.435" y1="155.058" x2="796.435" y2="133.696"/>
		<line fill="none" stroke="#000000" stroke-miterlimit="10" x1="802.389" y1="155.134" x2="802.389" y2="133.773"/>
		<rect x="756.056" y="133.773" fill="none" stroke="#000000" stroke-miterlimit="10" width="57.275" height="21.361"/>
		<g>
			<polygon points="214.244,316.48 212.909,330.695 211.585,316.48 212.378,316.48 212.378,277.787 213.335,277.787 213.335,316.48 
							"/>
			<polygon points="452.349,157.483 466.562,158.817 452.349,160.142 452.349,159.349 413.655,159.349 413.655,158.392 
				452.349,158.392 			"/>
			<polygon points="771.741,143.445 757.526,144.779 771.741,146.104 771.741,145.311 810.435,145.311 810.435,144.354 
				771.741,144.354 			"/>
		</g>
	</g>
	<line fill="none" stroke="#000000" stroke-miterlimit="10" x1="280.833" y1="18.301" x2="324.833" y2="62.167"/>
</g>
<g id="active">
	<g id="studyStation">
		<rect x="14.5" y="153.231" fill="#1AA3AD" width="10" height="273.269"/>
		<rect x="217.948" y="153.787" fill="#1AA3AD" width="10" height="117.712"/>
		<rect x="217.948" y="336.552" fill="#1AA3AD" width="10" height="89.692"/>
		<rect x="26.853" y="152.563" fill="#1AA3AD" width="175.702" height="10"/>
		<rect x="26.853" y="414.623" fill="#1AA3AD" width="175.702" height="11.935"/>
		<rect x="265.541" y="176.432" fill="#1AA3AD" width="142.628" height="10"/>
		<rect x="242.502" y="95.5" fill="#1AA3AD" width="10" height="63.031"/>
	</g>
	<rect id="s45" x="817.508" y="21.284" fill="#F7931E" width="7.957" height="137.246"/>
	<rect id="s44" x="799.606" y="21.284" fill="#F7931E" width="7.956" height="105.649"/>
	<rect id="s41" x="739.935" y="21.284" fill="#F7931E" width="7.956" height="105.649"/>
	<rect id="s40" x="720.044" y="21.284" fill="#F7931E" width="7.956" height="105.649"/>
	<rect id="s39" x="700.153" y="21.284" fill="#F4EE21" width="7.956" height="105.649"/>
	<rect id="s35" x="620.59" y="21.284" fill="#F4EE21" width="7.957" height="105.649"/>
	<rect id="s34" x="599.705" y="21.284" fill="#2E2989" width="7.956" height="105.649"/>
	<rect id="s33" x="578.819" y="21.284" fill="#2E2989" width="7.957" height="105.649"/>
	<rect id="s32" x="558.929" y="21.284" fill="#2E2989" width="7.956" height="105.649"/>
	<rect id="s31" x="540.033" y="21.284" fill="#2E2989" width="7.956" height="105.649"/>
	<rect id="s30" x="522.131" y="21.284" fill="#2E2989" width="7.957" height="105.649"/>
	<rect id="s29" x="501.246" y="21.284" fill="#2D2F38" width="7.956" height="105.649"/>
	<rect id="s28" x="481.355" y="21.284" fill="#2D2F38" width="7.953" height="105.649"/>
	<rect id="s27" x="462.459" y="21.284" fill="#2D2F38" width="7.956" height="105.649"/>
	<rect id="s26" x="439.585" y="78.805" fill="#2D2F38" width="7.956" height="60.505"/>
	<rect id="s25" x="418.699" y="78.805" fill="#2D2F38" width="7.956" height="60.505"/>
	<rect id="s24" x="396.819" y="18.301" fill="#2D2F38" width="7.957" height="140.229"/>
	<rect id="s23" x="375.935" y="18.301" fill="#2D2F38" width="7.956" height="140.229"/>
	<rect id="s22" x="352.065" y="18.301" fill="#2D2F38" width="7.957" height="140.229"/>
	<rect id="s21" x="332.175" y="18.301" fill="#2D2F38" width="7.957" height="140.229"/>
	<rect id="s20" x="310.295" y="71.954" fill="#C1272D" width="7.957" height="86.577"/>
	<rect id="s19" x="289.41" y="71.954" fill="#C1272D" width="7.957" height="73.163"/>
	<rect id="s18" x="265.541" y="18.301" fill="#C1272D" width="7.956" height="140.229"/>
	<rect id="s17" x="244.656" y="18.301" fill="#C1272D" width="7.956" height="70.114"/>
	<rect id="s38" x="679.268" y="21.284" fill="#F4EE21" width="7.956" height="105.649"/>
	<rect id="s37" x="659.377" y="74.68" fill="#F4EE21" width="7.956" height="52.254"/>
	<rect id="s42" x="759.825" y="74.68" fill="#F7931E" width="7.956" height="52.254"/>
	<rect id="s43" x="779.716" y="74.68" fill="#F7931E" width="7.956" height="52.254"/>
	<rect id="s36" x="638.492" y="74.68" fill="#F4EE21" width="7.956" height="52.254"/>
	<rect id="s16" x="26.853" y="168.476" fill="#C1272D" width="173.049" height="7.956"/>
	<rect id="s15" x="26.853" y="184.388" fill="#C1272D" width="173.049" height="7.956"/>
	<rect id="s14" x="26.853" y="199.306" fill="#C1272D" width="173.049" height="7.956"/>
	<rect id="s13" x="26.853" y="214.224" fill="#C1272D" width="173.049" height="7.956"/>
	<rect id="s3" x="26.853" y="366.388" fill="#13277A" width="173.049" height="7.956"/>
	<rect id="s2" x="26.853" y="382.301" fill="#E84D10" width="173.049" height="7.956"/>
	<rect id="s1" x="26.355" y="397.716" fill="#E84D10" width="161.115" height="7.956"/>
	<g id="s12">
		<rect x="26.853" y="229.142" fill="#C1272D" width="110.394" height="7.956"/>
		<rect x="147.191" y="229.142" fill="#C1272D" width="52.71" height="7.956"/>
	</g>
	<g id="s11">
		<rect x="26.853" y="244.06" fill="#C1272D" width="110.394" height="7.957"/>
		<rect x="147.191" y="244.06" fill="#C1272D" width="52.71" height="7.957"/>
	</g>
	<g id="s10">
		<rect x="26.853" y="258.979" fill="#056832" width="110.394" height="7.957"/>
		<rect x="147.191" y="258.979" fill="#056832" width="52.71" height="7.957"/>
	</g>
	<g id="s9">
		<rect x="26.853" y="274.891" fill="#056832" width="110.394" height="7.957"/>
		<rect x="147.191" y="274.891" fill="#056832" width="52.71" height="7.957"/>
	</g>
	<g id="s8">
		<rect x="26.853" y="289.809" fill="#056832" width="110.394" height="7.957"/>
		<rect x="147.191" y="289.809" fill="#056832" width="52.71" height="7.957"/>
	</g>
	<g id="s7">
		<rect x="26.853" y="305.721" fill="#056832" width="110.394" height="7.957"/>
		<rect x="147.191" y="305.721" fill="#056832" width="52.71" height="7.957"/>
	</g>
	<g id="s6">
		<rect x="26.853" y="320.64" fill="#056832" width="110.394" height="7.956"/>
		<rect x="147.191" y="320.64" fill="#056832" width="52.71" height="7.956"/>
	</g>
	<g id="s5">
		<rect x="26.853" y="336.552" fill="#13277A" width="110.394" height="7.956"/>
		<rect x="147.191" y="336.552" fill="#13277A" width="52.71" height="7.956"/>
	</g>
	<g id="s4">
		<rect x="26.853" y="350.476" fill="#13277A" width="110.394" height="7.956"/>
		<rect x="147.191" y="350.476" fill="#13277A" width="52.71" height="7.956"/>
	</g>
</g>
</svg>
