<?xml version="1.0" encoding="utf-8"?>
<!-- Generator: Adobe Illustrator 16.0.4, SVG Export Plug-In . SVG Version: 6.00 Build 0)  -->
<!DOCTYPE svg PUBLIC "-//W3C//DTD SVG 1.1//EN" "http://www.w3.org/Graphics/SVG/1.1/DTD/svg11.dtd">
<svg version="1.1" id="PostFloor1" xmlns="http://www.w3.org/2000/svg" xmlns:xlink="http://www.w3.org/1999/xlink" x="0px" y="0px"
	 width="915px" height="510px" viewBox="0 0 915 510" enable-background="new 0 0 915 510" xml:space="preserve">
<symbol  id="Children" viewBox="-36.773 -20.025 73.546 40.05">
	<g>
		<polygon fill="#231F20" stroke="#FFFFFF" stroke-width="0.65" points="-6.4,12 -12.9,0.9 -9.5,1 -3.1,11.7 		"/>
		<polygon fill="#231F20" stroke="#FFFFFF" stroke-width="0.65" points="7,12 13.4,0.9 10.1,1 3.7,11.7 		"/>
		<polygon fill="#231F20" stroke="#FFFFFF" stroke-width="0.65" points="-4.3,-4.8 -4.3,11.8 4.9,11.8 4.9,-5.3 4.9,-5.3 4.9,-19.7 
			1.6,-19.7 1.6,-5.2 -1.1,-5.2 -1.1,-19.7 -4.4,-19.7 -4.4,-4.8 		"/>
		<path fill="#231F20" stroke="#FFFFFF" stroke-width="0.65" d="M-3.6,15.7c0-2.2,1.8-4,4-4c2.2,0,4,1.8,4,4s-1.8,4-4,4
			C-1.8,19.7-3.6,17.9-3.6,15.7z"/>
		<polygon fill="#231F20" stroke="#FFFFFF" stroke-width="0.65" points="-29.8,12 -36.2,0.9 -32.9,1 -26.4,11.7 		"/>
		<polygon fill="#231F20" stroke="#FFFFFF" stroke-width="0.65" points="-16.4,12 -9.9,1 -13.3,0.9 -19.7,11.7 		"/>
		<polygon fill="#231F20" stroke="#FFFFFF" stroke-width="0.65" points="-27.7,-4.8 -27.7,11.8 -18.5,11.8 -18.5,-5.3 -18.5,-5.3 
			-18.5,-19.7 -21.7,-19.7 -21.7,-5.2 -24.4,-5.2 -24.4,-19.7 -27.7,-19.7 		"/>
		<path fill="#231F20" stroke="#FFFFFF" stroke-width="0.65" d="M-26.9,15.7c0-2.2,1.8-4,4-4c2.2,0,4,1.8,4,4s-1.8,4-4,4
			C-25.1,19.7-26.9,17.9-26.9,15.7z"/>
		<polygon fill="#231F20" stroke="#FFFFFF" stroke-width="0.65" points="16.4,12 10.4,1 13.8,1 19.7,11.7 		"/>
		<polygon fill="#231F20" stroke="#FFFFFF" stroke-width="0.65" points="29.8,12 36.2,0.9 32.9,1 26.4,11.7 		"/>
		<polygon fill="#231F20" stroke="#FFFFFF" stroke-width="0.65" points="18.4,-4.8 18.4,11.8 27.7,11.8 27.7,-5.3 27.7,-5.3 
			27.7,-19.7 24.4,-19.7 24.4,-5.2 21.7,-5.2 21.7,-19.7 18.4,-19.7 		"/>
		<path fill="#231F20" stroke="#FFFFFF" stroke-width="0.65" d="M19.2,15.7c0-2.2,1.8-4,4-4c2.2,0,4,1.8,4,4s-1.8,4-4,4
			C21,19.7,19.2,17.9,19.2,15.7z"/>
	</g>
</symbol>
<g id="outline">
	<rect x="15" y="7.5" fill="none" stroke="#0B0B0B" stroke-miterlimit="10" width="160.4" height="57.4"/>
	<rect x="15" y="192.4" fill="none" stroke="#0B0B0B" stroke-miterlimit="10" width="110.3" height="66.3"/>
	<line fill="none" stroke="#0B0B0B" stroke-miterlimit="10" x1="15" y1="192.4" x2="125.3" y2="258.7"/>
	<line fill="none" stroke="#0B0B0B" stroke-miterlimit="10" x1="15" y1="258.7" x2="125.3" y2="192.4"/>
	<polygon id="stair" fill="none" stroke="#0B0B0B" stroke-miterlimit="10" points="900,64.9 736.7,64.9 735.3,7.5 900,7.5 	"/>
	<rect id="toilet" x="736.7" y="64.9" fill="none" stroke="#0B0B0B" stroke-miterlimit="10" width="163.3" height="125"/>
	<rect x="736.7" y="189.9" fill="none" stroke="#0B0B0B" stroke-miterlimit="10" width="163.3" height="70.1"/>
	<line fill="none" stroke="#0B0B0B" stroke-miterlimit="10" x1="769.7" y1="190.5" x2="769.7" y2="224.9"/>
	<line fill="none" stroke="#0B0B0B" stroke-miterlimit="10" x1="769" y1="225.6" x2="811.9" y2="225.6"/>
	<line fill="none" stroke="#0B0B0B" stroke-miterlimit="10" x1="811.2" y1="226.2" x2="811.2" y2="260.6"/>
	<line fill="none" stroke="#0B0B0B" stroke-miterlimit="10" x1="811.2" y1="208.4" x2="811.2" y2="190.5"/>
	<line fill="none" stroke="#0B0B0B" stroke-miterlimit="10" x1="843.4" y1="260" x2="844.9" y2="438.5"/>
	<path fill="none" stroke="#0B0B0B" stroke-width="2" stroke-miterlimit="10" d="M518.3,500.6"/>
	<path fill="none" stroke="#0B0B0B" stroke-miterlimit="10" d="M890.7,422.6c0,0-81.648,34.318-219.148,58.226"/>
	<line fill="none" stroke="#0B0B0B" stroke-width="2" stroke-miterlimit="10" x1="176.1" y1="25.6" x2="736.7" y2="26.4"/>
	<line fill="none" stroke="#0B0B0B" stroke-width="2" stroke-miterlimit="10" x1="588.3" y1="47.1" x2="588.3" y2="187.4"/>
	
		<use xlink:href="#Children"  width="73.546" height="40.05" x="-36.773" y="-20.025" transform="matrix(0.5651 0 0 -0.7754 682.5703 290.8408)" overflow="visible"/>
	<polygon fill="none" stroke="#0B0B0B" stroke-miterlimit="10" points="662.074,274.76 703.032,274.76 702.967,306.1 661.646,306.1 
			"/>
	<polyline fill="#231F20" stroke="#0B0B0B" stroke-miterlimit="10" points="661.365,285.275 647.479,288.168 647.479,286.064 
		636.069,286.064 636.069,284.398 645.352,284.398 647.479,282.384 	"/>
	<polyline fill="#231F20" stroke="#0B0B0B" stroke-miterlimit="10" points="649.957,294.74 649.957,296.757 661.365,296.757 
		661.365,298.421 649.957,298.421 650.666,300.523 636.778,297.633 	"/>
	<g id="Restrooms">
		<g>
			<rect x="797.9" y="105.6" fill="none" stroke="#0B0B0B" width="39.192" height="38.3"/>
			<g>
				<path fill="#231F20" stroke="#0B0B0B" d="M837,137.9c0,3.3-2.8,6-6.2,6H804c-3.4,0-6.2-2.7-6.2-6v-26.2c0-3.3,2.8-6,6.2-6h26.8
					c3.4,0,6.2,2.7,6.2,6V137.9z"/>
				<g>
					<polygon fill="#FFFFFF" stroke="#0B0B0B" points="816.8,108.5 816.8,139.4 802.3,139.4 802.3,115.3 					"/>
					<polygon fill="#FFFFFF" stroke="#0B0B0B" points="818.4,108.5 818.4,139.4 832.9,139.4 832.9,115.3 					"/>
					<g>
						<g>
							<polygon fill="#231F20" stroke="#0B0B0B" points="807.7,118 811.7,118 815.5,127 814.7,127.4 811.6,121.8 811.3,122.1 
								814.6,130.7 811.4,130.7 810.4,138.1 809.1,138.1 808,130.7 804.8,130.7 808.1,122.3 807.8,121.8 804.7,127.4 804,127 
															"/>
							<path fill="#231F20" stroke="#0B0B0B" d="M811.9,115.2c0,1.3-1,2.3-2.308,2.3c-1.3,0-2.3-1-2.3-2.3c0-1.2,1-2.3,2.3-2.3
								C810.9,112.9,811.9,113.9,811.9,115.2z"/>
							<path fill="#231F20" stroke="#0B0B0B" d="M827.6,115.2c0,1.3-1,2.3-2.3,2.3s-2.3-1-2.3-2.3c0-1.2,1-2.3,2.3-2.3
								C826.5,112.9,827.6,113.9,827.6,115.2z"/>
						</g>
						<polygon fill="#231F20" stroke="#0B0B0B" points="821.9,118 828.3,118 829.7,118.8 829.7,129.3 828.5,129.3 828.5,122 
							827.5,122 827.5,138.1 825.9,138.1 825.4,132 824.9,132 824.4,138.1 822.8,138.1 822.8,122 821.8,122 821.8,129.3 
							820.5,129.3 820.5,119.1 						"/>
					</g>
				</g>
			</g>
		</g>
	</g>
	<line fill="none" stroke="#0B0B0B" stroke-miterlimit="10" x1="769.7" y1="7.5" x2="769.7" y2="64.9"/>
	<line fill="none" stroke="#0B0B0B" stroke-miterlimit="10" x1="777" y1="7.5" x2="777" y2="64.9"/>
	<line fill="none" stroke="#0B0B0B" stroke-miterlimit="10" x1="783.7" y1="7.5" x2="783.7" y2="64.9"/>
	<line fill="none" stroke="#0B0B0B" stroke-miterlimit="10" x1="790.4" y1="7.5" x2="790.4" y2="64.9"/>
	<line fill="none" stroke="#0B0B0B" stroke-miterlimit="10" x1="797.7" y1="7.5" x2="797.7" y2="64.9"/>
	<line fill="none" stroke="#0B0B0B" stroke-miterlimit="10" x1="805.1" y1="7.5" x2="805.1" y2="64.9"/>
	<line fill="none" stroke="#0B0B0B" stroke-miterlimit="10" x1="813.3" y1="7.5" x2="813.3" y2="64.9"/>
	<line fill="none" stroke="#0B0B0B" stroke-miterlimit="10" x1="821" y1="7.5" x2="821" y2="64.9"/>
	<line fill="none" stroke="#0B0B0B" stroke-miterlimit="10" x1="828.2" y1="7.5" x2="828.2" y2="64.9"/>
	<line fill="none" stroke="#0B0B0B" stroke-miterlimit="10" x1="836" y1="7.5" x2="836" y2="64.9"/>
	<line fill="none" stroke="#0B0B0B" stroke-miterlimit="10" x1="845" y1="7.5" x2="845" y2="64.9"/>
	<line fill="none" stroke="#0B0B0B" stroke-miterlimit="10" x1="852.2" y1="7.5" x2="852.2" y2="64.9"/>
	<line fill="none" stroke="#0B0B0B" stroke-miterlimit="10" x1="860" y1="7.5" x2="860" y2="64.9"/>
	<line fill="none" stroke="#0B0B0B" stroke-miterlimit="10" x1="867.3" y1="7.5" x2="867.3" y2="64.9"/>
	<path fill="none" stroke="#0B0B0B" stroke-miterlimit="10" d="M411.7,25.6"/>
	<path fill="none" stroke="#0B0B0B" stroke-miterlimit="10" d="M419,25.6"/>
	<path fill="none" stroke="#0B0B0B" stroke-miterlimit="10" d="M425.7,25.6"/>
	<path fill="none" stroke="#0B0B0B" stroke-miterlimit="10" d="M432.4,25.6"/>
	<path fill="none" stroke="#0B0B0B" stroke-miterlimit="10" d="M439.7,25.6"/>
	<path fill="none" stroke="#0B0B0B" stroke-miterlimit="10" d="M447.1,25.6"/>
	<path fill="none" stroke="#0B0B0B" stroke-miterlimit="10" d="M455.3,25.6"/>
	<path fill="none" stroke="#0B0B0B" stroke-miterlimit="10" d="M463,25.6"/>
	<path fill="none" stroke="#0B0B0B" stroke-miterlimit="10" d="M470.2,25.6"/>
	<path fill="none" stroke="#0B0B0B" stroke-miterlimit="10" d="M478,25.6"/>
	<path fill="none" stroke="#0B0B0B" stroke-miterlimit="10" d="M487,25.6"/>
	<path fill="none" stroke="#0B0B0B" stroke-miterlimit="10" d="M494.2,25.6"/>
	<path fill="none" stroke="#0B0B0B" stroke-miterlimit="10" d="M502,25.6"/>
	<path fill="none" stroke="#0B0B0B" stroke-miterlimit="10" d="M509.3,25.6"/>
	<line fill="none" stroke="#0B0B0B" stroke-miterlimit="10" x1="149.5" y1="7.5" x2="149.5" y2="64.9"/>
	<line fill="none" stroke="#0B0B0B" stroke-miterlimit="10" x1="142.2" y1="7.5" x2="142.2" y2="64.9"/>
	<line fill="none" stroke="#0B0B0B" stroke-miterlimit="10" x1="135.5" y1="7.5" x2="135.5" y2="64.9"/>
	<line fill="none" stroke="#0B0B0B" stroke-miterlimit="10" x1="128.8" y1="7.5" x2="128.8" y2="64.9"/>
	<line fill="none" stroke="#0B0B0B" stroke-miterlimit="10" x1="121.5" y1="7.5" x2="121.5" y2="64.9"/>
	<line fill="none" stroke="#0B0B0B" stroke-miterlimit="10" x1="114.1" y1="7.5" x2="114.1" y2="64.9"/>
	<line fill="none" stroke="#0B0B0B" stroke-miterlimit="10" x1="105.9" y1="7.5" x2="105.9" y2="64.9"/>
	<line fill="none" stroke="#0B0B0B" stroke-miterlimit="10" x1="98.2" y1="7.5" x2="98.2" y2="64.9"/>
	<line fill="none" stroke="#0B0B0B" stroke-miterlimit="10" x1="90.9" y1="7.5" x2="90.9" y2="64.9"/>
	<line fill="none" stroke="#0B0B0B" stroke-miterlimit="10" x1="83.2" y1="7.5" x2="83.2" y2="64.9"/>
	<line fill="none" stroke="#0B0B0B" stroke-miterlimit="10" x1="74.2" y1="7.5" x2="74.2" y2="64.9"/>
	<line fill="none" stroke="#0B0B0B" stroke-miterlimit="10" x1="66.9" y1="7.5" x2="66.9" y2="64.9"/>
	<line fill="none" stroke="#0B0B0B" stroke-miterlimit="10" x1="59.2" y1="7.5" x2="59.2" y2="64.9"/>
	<line fill="none" stroke="#0B0B0B" stroke-miterlimit="10" x1="51.9" y1="7.5" x2="51.9" y2="64.9"/>
	<g>
		<polygon points="849.8,34.4 882,37.1 849.8,39.7 849.8,38.1 762,38.1 762,36.2 849.8,36.2 		"/>
		<polygon points="69.4,34.4 37.2,37.1 69.4,39.7 69.4,38.1 157.2,38.1 157.2,36.2 69.4,36.2 		"/>
	</g>
	<polygon points="660.697,422.243 664.302,422.243 659.761,393.64 655.213,422.243 658.817,422.243 658.818,439.36 660.698,439.36 	
		"/>
	<polygon points="647.024,410.757 650.629,410.757 646.09,439.36 641.54,410.757 645.145,410.757 645.145,393.64 647.023,393.64 	
		"/>

	<path fill="none" stroke="#0B0B0B" stroke-miterlimit="10" d="M515.671,500.593c0,0,31.996-2.428,42.829-7.094"/>
</g>
<g id="active">
	<text transform="matrix(1 0 0 1 126 110.5)" font-family="'Avenir-Medium'" font-size="12">144</text>
	<text transform="matrix(1 0 0 1 127 150.5)" font-family="'Avenir-Medium'" font-size="12">140</text>
	<text transform="matrix(1 0 0 1 39 174.5)" font-family="'Avenir-Medium'" font-size="12">141</text>
	<text transform="matrix(1 0 0 1 39 133.5)" font-family="'Avenir-Medium'" font-size="12">142</text>
	<text transform="matrix(1 0 0 1 38 91.5)" font-family="'Avenir-Medium'" font-size="12">143</text>
	<text transform="matrix(1 0 0 1 298 313.5)" font-family="'Avenir-Medium'" font-size="18">Computer Area</text>
	<text transform="matrix(1 0 0 1 301 114.5)" font-family="'Avenir-Medium'" font-size="18">Open Study Area</text>
	<text transform="matrix(1 0 0 1 752 360.5)" font-family="'Avenir-Medium'" font-size="18">Café</text>
	<text transform="matrix(1 0 0 1 282 460.5)" font-family="'Avenir-Medium'" font-size="12">Office</text>
	<text transform="matrix(1 0 0 1 288 474.9004)" font-family="'Avenir-Medium'" font-size="12">130</text>
	<text transform="matrix(1 0 0 1 103 345.5)" font-family="'Avenir-Medium'" font-size="12">Office</text>
	<text transform="matrix(1 0 0 1 109 359.9004)" font-family="'Avenir-Medium'" font-size="12">132</text>
	<text transform="matrix(1 0 0 1 104 284.5)" font-family="'Avenir-Medium'" font-size="12">Office</text>
	<text transform="matrix(1 0 0 1 110 298.9004)" font-family="'Avenir-Medium'" font-size="12">133</text>
	<text transform="matrix(1 0 0 1 380 460.5)" font-family="'Avenir-Medium'" font-size="12">Office</text>
	<text transform="matrix(1 0 0 1 386 474.9004)" font-family="'Avenir-Medium'" font-size="12">129</text>
	<text transform="matrix(1 0 0 1 105 455.5)" font-family="'Avenir-Medium'" font-size="12">Office</text>
	<text transform="matrix(1 0 0 1 111 469.9004)" font-family="'Avenir-Medium'" font-size="12">131</text>
	<text transform="matrix(1 0 0 1 458 459.5)" font-family="'Avenir-Medium'" font-size="12">Writing</text>
	<text transform="matrix(1 0 0 1 458 473.9004)" font-family="'Avenir-Medium'" font-size="12">Center</text>
	<text transform="matrix(1 0 0 1 607 109.5)" font-family="'Avenir-Medium'" font-size="14">Popular Reading</text>
	<a xlink:href="DrexelFloor1.svg" xlink:title="Go to the Drexel side">
        <text transform="matrix(1 0 0 1 594 457.5)" font-family="'Avenir-Medium'" font-size="14">To The Drexel Side</text>
	</a>

    <rect id="room141" x="15" y="149.1" fill="#29ABE2" stroke="#0B0B0B" stroke-miterlimit="10" width="67.3" height="42.1"/>
	<rect id="room140" x="102.4" y="126.1" fill="#29ABE2" stroke="#0B0B0B" stroke-miterlimit="10" width="67.3" height="42.1"/>
	<rect id="room143" x="15" y="64.9" fill="#29ABE2" stroke="#0B0B0B" stroke-miterlimit="10" width="67.3" height="42.1"/>
	<rect id="room142" x="15" y="107" fill="#29ABE2" stroke="#0B0B0B" stroke-miterlimit="10" width="67.3" height="42.1"/>
	<rect id="room144" x="102.4" y="84" fill="#29ABE2" stroke="#0B0B0B" stroke-miterlimit="10" width="67.3" height="42.1"/>
	<rect id="room133" x="76.6" y="258.7" fill="none" stroke="#0B0B0B" stroke-miterlimit="10" width="85.8" height="59.896"/>
	<rect id="room132" x="76.6" y="318.7" fill="#828287" stroke="#0B0B0B" stroke-miterlimit="10" width="85.8" height="58.7"/>
	<polygon id="room130" fill="#828287" stroke="#0B0B0B" stroke-miterlimit="10" points="247,416.9 308.608,417.617 308.667,439.4 
		345.612,438.715 345.667,505.566 247,504.9 	"/>
	<polygon id="room129" fill="none" stroke="#0B0B0B" stroke-miterlimit="10" points="380.667,437.9 380.594,417.189 
		441.335,416.566 441.335,505.566 345.667,505.9 345.768,438.423 	"/>
	<rect id="room131a" x="162.1" y="416.2" fill="#828287" width="84.9" height="44.6"/>
	<polygon id="room131b" fill="#828287" points="162.1,460.9 247,460.9 247,504.5 162.1,503.5 	"/>
	<path id="room128" fill="#828287" stroke="#0B0B0B" stroke-miterlimit="10" d="M441.302,416.9H516.4l-0.729,83.692
		c0,0-44.664,5.308-73.914,5.308"/>
	<rect id="computerArea" x="180" y="202" fill="none" stroke="#0B0B0B" stroke-miterlimit="10" width="378.5" height="205.5"/>
	<g id="Win">
		<rect x="523" y="247.5" fill="#E6E700" width="8.7" height="15"/>
		<rect x="523" y="277.5" fill="#E6E700" width="8.7" height="15"/>
		<rect x="523" y="218.2" fill="#E6E700" width="8.7" height="15"/>
		<rect x="507.3" y="247.2" fill="#E6E700" width="8.7" height="15"/>
		<rect x="507.3" y="277.2" fill="#E6E700" width="8.7" height="15"/>
		<rect x="507.3" y="217.8" fill="#E6E700" width="8.7" height="15"/>
		<rect x="444.7" y="247.3" fill="#E6E700" width="8.7" height="15"/>
		<rect x="444.7" y="277.3" fill="#E6E700" width="8.7" height="15"/>
		<rect x="444.7" y="218" fill="#E6E700" width="8.7" height="15"/>
		<rect x="429" y="247" fill="#E6E700" width="8.7" height="15"/>
		<rect x="429" y="277" fill="#E6E700" width="8.7" height="15"/>
		<rect x="429" y="217.7" fill="#E6E700" width="8.7" height="15"/>
		<rect x="367.4" y="247.4" fill="#E6E700" width="8.7" height="15"/>
		<rect x="367.4" y="277.4" fill="#E6E700" width="8.7" height="15"/>
		<rect x="367.4" y="218" fill="#E6E700" width="8.7" height="15"/>
		<rect x="351.8" y="247" fill="#E6E700" width="8.7" height="15"/>
		<rect x="351.8" y="277" fill="#E6E700" width="8.7" height="15"/>
		<rect x="351.8" y="217.7" fill="#E6E700" width="8.7" height="15"/>
		<rect x="210.3" y="247.8" fill="#E6E700" width="8.7" height="15"/>
		<rect x="210.3" y="277.8" fill="#E6E700" width="8.7" height="15"/>
		<rect x="210.3" y="218.5" fill="#E6E700" width="8.7" height="15"/>
		<rect x="194.7" y="247.5" fill="#E6E700" width="8.7" height="15"/>
		<rect x="194.7" y="277.5" fill="#E6E700" width="8.7" height="15"/>
		<rect x="194.7" y="218.2" fill="#E6E700" width="8.7" height="15"/>
		<rect x="289.1" y="248.2" fill="#E6E700" width="8.7" height="15"/>
		<rect x="289.1" y="278.2" fill="#E6E700" width="8.7" height="15"/>
		<rect x="289.1" y="218.9" fill="#E6E700" width="8.7" height="15"/>
		<rect x="273.4" y="247.9" fill="#E6E700" width="8.7" height="15"/>
		<rect x="273.4" y="277.9" fill="#E6E700" width="8.7" height="15"/>
		<rect x="273.4" y="218.5" fill="#E6E700" width="8.7" height="15"/>
	</g>
	<g id="Mac">
		<rect x="523" y="368.7" fill="#B7B334" width="8.7" height="15"/>
		<rect x="523" y="335.5" fill="#B7B334" width="8.7" height="15"/>
		<rect x="507.3" y="368.3" fill="#B7B334" width="8.7" height="15"/>
		<rect x="507.3" y="335.1" fill="#B7B334" width="8.7" height="15"/>
		<rect x="444.7" y="351.7" fill="#B7B334" width="8.7" height="15"/>
		<rect x="444.7" y="381.7" fill="#B7B334" width="8.7" height="15"/>
		<rect x="444.7" y="322.3" fill="#B7B334" width="8.7" height="15"/>
		<rect x="429" y="351.3" fill="#B7B334" width="8.7" height="15"/>
		<rect x="429" y="381.3" fill="#B7B334" width="8.7" height="15"/>
		<rect x="429" y="322" fill="#B7B334" width="8.7" height="15"/>
		<rect x="367.4" y="368.5" fill="#B7B334" width="8.7" height="15"/>
		<rect x="367.4" y="335.4" fill="#B7B334" width="8.7" height="15"/>
		<rect x="351.8" y="368.1" fill="#B7B334" width="8.7" height="15"/>
		<rect x="351.8" y="335" fill="#B7B334" width="8.7" height="15"/>
		<rect x="210.3" y="369" fill="#B7B334" width="8.7" height="15"/>
		<rect x="210.3" y="335.8" fill="#B7B334" width="8.7" height="15"/>
		<rect x="194.7" y="368.6" fill="#B7B334" width="8.7" height="15"/>
		<rect x="194.7" y="335.4" fill="#B7B334" width="8.7" height="15"/>
		<rect x="289.1" y="352.5" fill="#B7B334" width="8.7" height="15"/>
		<rect x="289.1" y="382.5" fill="#B7B334" width="8.7" height="15"/>
		<rect x="289.1" y="323.2" fill="#B7B334" width="8.7" height="15"/>
		<rect x="273.4" y="352.2" fill="#B7B334" width="8.7" height="15"/>
		<rect x="273.4" y="382.2" fill="#B7B334" width="8.7" height="15"/>
		<rect x="273.4" y="322.9" fill="#B7B334" width="8.7" height="15"/>
	</g>
	<rect x="125.3" y="202.6" fill="none" stroke="#0B0B0B" stroke-miterlimit="10" width="37.1" height="56.1"/>
	<polygon fill="none" stroke="#0B0B0B" stroke-miterlimit="10" points="76.9,377.3 162.1,377.3 162.1,416.2 247,416.9 247,504.5 
		76.6,503.8 	"/>
	<polygon id="newAC" fill="#FAAC58" stroke="#0B0B0B" stroke-miterlimit="10" points="678.08,305.9 682.271,305.9 682.646,362.7 
		677.734,362.7 	"/>
	
		<rect id="PostPrinter" x="308.667" y="416.2" fill="#109988" stroke="#0B0B0B" stroke-miterlimit="10" width="71.765" height="22.2"/>
	<rect id="cafe" x="714" y="274.76" fill="#BE5AF9" stroke="#0B0B0B" stroke-miterlimit="10" width="115.7" height="155.541"/>
	
		<rect id="saintJohnsBible" x="622.332" y="199.45" fill="#1EA4D3" stroke="#0B0B0B" stroke-miterlimit="10" width="67.366" height="18.25"/>
	<rect id="restArea" x="604" y="47.1" fill="#D63B1D" stroke="#0B0B0B" stroke-miterlimit="10" width="110" height="140.3"/>
	
		<rect id="openStudyArea1" x="180" y="30.167" fill="#118244" stroke="#0B0B0B" stroke-miterlimit="10" width="378.5" height="162.233"/>
	<path id="helpDesk" fill="#1ED340" stroke="#0B0B0B" stroke-miterlimit="10" d="M597.667,488.832V460.8h35.583v28.032
		C633.25,488.832,616.334,494.832,597.667,488.832z"/>
</g>
</svg>