<svg id="PostFloor1" xmlns="http://www.w3.org/2000/svg" xmlns:xlink="http://www.w3.org/1999/xlink" width="915" height="510" viewBox="0 0 915 510"><symbol id="Children" viewBox="-36.773 -20.025 73.546 40.05"><g fill="#231F20" stroke="#FFF" stroke-width=".65"><path d="M-6.4 12L-12.9.9l3.4.1 6.4 10.7zM7 12L13.4.9l-3.3.1-6.4 10.7z"/><path d="M-4.3-4.8v16.6h9.2v-31.5H1.6v14.5h-2.7v-14.5h-3.3v14.9zM-3.6 15.7c0-2.2 1.8-4 4-4s4 1.8 4 4-1.8 4-4 4-4-1.8-4-4zM-29.8 12L-36.2.9l3.3.1 6.5 10.7zM-16.4 12l6.5-11-3.4-.1-6.4 10.8z"/><path d="M-27.7-4.8v16.6h9.2v-31.5h-3.2v14.5h-2.7v-14.5h-3.3zM-26.9 15.7c0-2.2 1.8-4 4-4s4 1.8 4 4-1.8 4-4 4-4-1.8-4-4zM16.4 12l-6-11h3.4l5.9 10.7zM29.8 12L36.2.9l-3.3.1-6.5 10.7z"/><path d="M18.4-4.8v16.6h9.3v-31.5h-3.3v14.5h-2.7v-14.5h-3.3zM19.2 15.7c0-2.2 1.8-4 4-4s4 1.8 4 4-1.8 4-4 4-4-1.8-4-4z"/></g></symbol><g id="outline"><path fill="none" stroke="#0B0B0B" stroke-miterlimit="10" d="M15 7.5h160.4v57.4H15zM15 192.4h110.3v66.3H15zM15 192.4l110.3 66.3M15 258.7l110.3-66.3"/><path id="stair" fill="none" stroke="#0B0B0B" stroke-miterlimit="10" d="M900 64.9H736.7l-1.4-57.4H900z"/><path id="toilet" fill="none" stroke="#0B0B0B" stroke-miterlimit="10" d="M736.7 64.9H900v125H736.7z"/><path fill="none" stroke="#0B0B0B" stroke-miterlimit="10" d="M736.7 189.9H900V260H736.7zM769.7 190.5v34.4M769 225.6h42.9M811.2 226.2v34.4M811.2 208.4v-17.9M843.4 260l1.5 178.5M890.7 422.6s-81.648 34.318-219.148 58.226"/><path fill="none" stroke="#0B0B0B" stroke-width="2" stroke-miterlimit="10" d="M176.1 25.6l560.6.8M588.3 47.1v140.3"/><use xlink:href="#Children" width="73.546" height="40.05" x="-36.773" y="-20.025" transform="matrix(.565 0 0 -.775 682.57 290.841)" overflow="visible"/><path fill="none" stroke="#0B0B0B" stroke-miterlimit="10" d="M662.074 274.76h40.958l-.065 31.34h-41.32z"/><path fill="#231F20" stroke="#0B0B0B" stroke-miterlimit="10" d="M661.365 285.275l-13.886 2.893v-2.104h-11.41v-1.666h9.282l2.127-2.014M649.957 294.74v2.017h11.408v1.664h-11.408l.71 2.103-13.89-2.89"/><g stroke="#0B0B0B" id="Restrooms"><path fill="none" d="M797.9 105.6h39.192v38.3H797.9z"/><path fill="#231F20" d="M837 137.9c0 3.3-2.8 6-6.2 6H804c-3.4 0-6.2-2.7-6.2-6v-26.2c0-3.3 2.8-6 6.2-6h26.8c3.4 0 6.2 2.7 6.2 6v26.2z"/><path fill="#FFF" d="M816.8 108.5v30.9h-14.5v-24.1zM818.4 108.5v30.9h14.5v-24.1z"/><g fill="#231F20"><path d="M807.7 118h4l3.8 9-.8.4-3.1-5.6-.3.3 3.3 8.6h-3.2l-1 7.4h-1.3l-1.1-7.4h-3.2l3.3-8.4-.3-.5-3.1 5.6-.7-.4zM811.9 115.2c0 1.3-1 2.3-2.308 2.3-1.3 0-2.3-1-2.3-2.3 0-1.2 1-2.3 2.3-2.3 1.308 0 2.308 1 2.308 2.3zM827.6 115.2c0 1.3-1 2.3-2.3 2.3s-2.3-1-2.3-2.3c0-1.2 1-2.3 2.3-2.3 1.2 0 2.3 1 2.3 2.3zM821.9 118h6.4l1.4.8v10.5h-1.2V122h-1v16.1h-1.6l-.5-6.1h-.5l-.5 6.1h-1.6V122h-1v7.3h-1.3v-10.2z"/></g></g><path fill="none" stroke="#0B0B0B" stroke-miterlimit="10" d="M769.7 7.5v57.4M777 7.5v57.4M783.7 7.5v57.4M790.4 7.5v57.4M797.7 7.5v57.4M805.1 7.5v57.4M813.3 7.5v57.4M821 7.5v57.4M828.2 7.5v57.4M836 7.5v57.4M845 7.5v57.4M852.2 7.5v57.4M860 7.5v57.4M867.3 7.5v57.4M149.5 7.5v57.4M142.2 7.5v57.4M135.5 7.5v57.4M128.8 7.5v57.4M121.5 7.5v57.4M114.1 7.5v57.4M105.9 7.5v57.4M98.2 7.5v57.4M90.9 7.5v57.4M83.2 7.5v57.4M74.2 7.5v57.4M66.9 7.5v57.4M59.2 7.5v57.4M51.9 7.5v57.4"/><path d="M849.8 34.4l32.2 2.7-32.2 2.6v-1.6H762v-1.9h87.8zM69.4 34.4l-32.2 2.7 32.2 2.6v-1.6h87.8v-1.9H69.4zM660.697 422.243h3.605l-4.54-28.603-4.55 28.603h3.605v17.117h1.88zM647.024 410.757h3.605l-4.54 28.603-4.55-28.603h3.605V393.64h1.878z"/><path fill="none" stroke="#0B0B0B" stroke-miterlimit="10" d="M515.67 500.593s31.997-2.428 42.83-7.094"/></g><g id="active"><text transform="translate(126 110.5)" font-family="'Avenir-Medium'" font-size="12">144</text><text transform="translate(127 150.5)" font-family="'Avenir-Medium'" font-size="12">140</text><text transform="translate(39 174.5)" font-family="'Avenir-Medium'" font-size="12">141</text><text transform="translate(39 133.5)" font-family="'Avenir-Medium'" font-size="12">142</text><text transform="translate(38 91.5)" font-family="'Avenir-Medium'" font-size="12">143</text><text transform="translate(298 313.5)" font-family="'Avenir-Medium'" font-size="18">Computer Area</text><text transform="translate(301 114.5)" font-family="'Avenir-Medium'" font-size="18">Open Study Area</text><text transform="translate(752 360.5)" font-family="'Avenir-Medium'" font-size="18">Café</text><text transform="translate(282 460.5)" font-family="'Avenir-Medium'" font-size="12">Office</text><text transform="translate(288 474.9)" font-family="'Avenir-Medium'" font-size="12">130</text><text transform="translate(103 345.5)" font-family="'Avenir-Medium'" font-size="12">Office</text><text transform="translate(109 359.9)" font-family="'Avenir-Medium'" font-size="12">132</text><text transform="translate(104 284.5)" font-family="'Avenir-Medium'" font-size="12">Office</text><text transform="translate(110 298.9)" font-family="'Avenir-Medium'" font-size="12">133</text><text transform="translate(380 460.5)" font-family="'Avenir-Medium'" font-size="12">Office</text><text transform="translate(386 474.9)" font-family="'Avenir-Medium'" font-size="12">129</text><text transform="translate(105 455.5)" font-family="'Avenir-Medium'" font-size="12">Office</text><text transform="translate(111 469.9)" font-family="'Avenir-Medium'" font-size="12">131</text><text transform="translate(458 459.5)" font-family="'Avenir-Medium'" font-size="12">Writing</text><text transform="translate(458 473.9)" font-family="'Avenir-Medium'" font-size="12">Center</text><text transform="translate(607 109.5)" font-family="'Avenir-Medium'" font-size="14">Popular Reading</text><a xlink:href="DrexelFloor1.svg" xlink:title="Go to the Drexel side"><text transform="translate(594 457.5)" font-family="'Avenir-Medium'" font-size="14">To The Drexel Side</text></a><path id="room141" fill="#29ABE2" stroke="#0B0B0B" stroke-miterlimit="10" d="M15 149.1h67.3v42.1H15z"/><path id="room140" fill="#29ABE2" stroke="#0B0B0B" stroke-miterlimit="10" d="M102.4 126.1h67.3v42.1h-67.3z"/><path id="room143" fill="#29ABE2" stroke="#0B0B0B" stroke-miterlimit="10" d="M15 64.9h67.3V107H15z"/><path id="room142" fill="#29ABE2" stroke="#0B0B0B" stroke-miterlimit="10" d="M15 107h67.3v42.1H15z"/><path id="room144" fill="#29ABE2" stroke="#0B0B0B" stroke-miterlimit="10" d="M102.4 84h67.3v42.1h-67.3z"/><path id="room133" fill="none" stroke="#0B0B0B" stroke-miterlimit="10" d="M76.6 258.7h85.8v59.896H76.6z"/><path id="room132" fill="#828287" stroke="#0B0B0B" stroke-miterlimit="10" d="M76.6 318.7h85.8v58.7H76.6z"/><path id="room130" fill="#828287" stroke="#0B0B0B" stroke-miterlimit="10" d="M247 416.9l61.608.717.06 21.783 36.944-.685.055 66.85L247 504.9z"/><path id="room129" fill="none" stroke="#0B0B0B" stroke-miterlimit="10" d="M380.667 437.9l-.073-20.71 60.74-.624v89l-95.667.334.1-67.477z"/><path id="room131a" fill="#828287" d="M162.1 416.2H247v44.6h-84.9z"/><path id="room131b" fill="#828287" d="M162.1 460.9H247v43.6l-84.9-1z"/><path id="room128" fill="#828287" stroke="#0B0B0B" stroke-miterlimit="10" d="M441.302 416.9H516.4l-.73 83.692s-44.663 5.308-73.913 5.308"/><path id="computerArea" fill="none" stroke="#0B0B0B" stroke-miterlimit="10" d="M180 202h378.5v205.5H180z"/><g id="Win" fill="#E6E700"><path d="M523 247.5h8.7v15H523zM523 277.5h8.7v15H523zM523 218.2h8.7v15H523zM507.3 247.2h8.7v15h-8.7zM507.3 277.2h8.7v15h-8.7zM507.3 217.8h8.7v15h-8.7zM444.7 247.3h8.7v15h-8.7zM444.7 277.3h8.7v15h-8.7zM444.7 218h8.7v15h-8.7zM429 247h8.7v15H429zM429 277h8.7v15H429zM429 217.7h8.7v15H429zM367.4 247.4h8.7v15h-8.7zM367.4 277.4h8.7v15h-8.7zM367.4 218h8.7v15h-8.7zM351.8 247h8.7v15h-8.7zM351.8 277h8.7v15h-8.7zM351.8 217.7h8.7v15h-8.7zM210.3 247.8h8.7v15h-8.7zM210.3 277.8h8.7v15h-8.7zM210.3 218.5h8.7v15h-8.7zM194.7 247.5h8.7v15h-8.7zM194.7 277.5h8.7v15h-8.7zM194.7 218.2h8.7v15h-8.7zM289.1 248.2h8.7v15h-8.7zM289.1 278.2h8.7v15h-8.7zM289.1 218.9h8.7v15h-8.7zM273.4 247.9h8.7v15h-8.7zM273.4 277.9h8.7v15h-8.7zM273.4 218.5h8.7v15h-8.7z"/></g><g id="Mac" fill="#B7B334"><path d="M523 368.7h8.7v15H523zM523 335.5h8.7v15H523zM507.3 368.3h8.7v15h-8.7zM507.3 335.1h8.7v15h-8.7zM444.7 351.7h8.7v15h-8.7zM444.7 381.7h8.7v15h-8.7zM444.7 322.3h8.7v15h-8.7zM429 351.3h8.7v15H429zM429 381.3h8.7v15H429zM429 322h8.7v15H429zM367.4 368.5h8.7v15h-8.7zM367.4 335.4h8.7v15h-8.7zM351.8 368.1h8.7v15h-8.7zM351.8 335h8.7v15h-8.7zM210.3 369h8.7v15h-8.7zM210.3 335.8h8.7v15h-8.7zM194.7 368.6h8.7v15h-8.7zM194.7 335.4h8.7v15h-8.7zM289.1 352.5h8.7v15h-8.7zM289.1 382.5h8.7v15h-8.7zM289.1 323.2h8.7v15h-8.7zM273.4 352.2h8.7v15h-8.7zM273.4 382.2h8.7v15h-8.7zM273.4 322.9h8.7v15h-8.7z"/></g><path fill="none" stroke="#0B0B0B" stroke-miterlimit="10" d="M125.3 202.6h37.1v56.1h-37.1zM76.9 377.3h85.2v38.9l84.9.7v87.6l-170.4-.7z"/><path id="newAC" fill="#FAAC58" stroke="#0B0B0B" stroke-miterlimit="10" d="M678.08 305.9h4.19l.376 56.8h-4.912z"/><path id="PostPrinter" fill="#109988" stroke="#0B0B0B" stroke-miterlimit="10" d="M308.667 416.2h71.765v22.2h-71.765z"/><path id="cafe" fill="#BE5AF9" stroke="#0B0B0B" stroke-miterlimit="10" d="M714 274.76h115.7V430.3H714z"/><path id="saintJohnsBible" fill="#1EA4D3" stroke="#0B0B0B" stroke-miterlimit="10" d="M622.332 199.45h67.366v18.25h-67.366z"/><path id="restArea" fill="#D63B1D" stroke="#0B0B0B" stroke-miterlimit="10" d="M604 47.1h110v140.3H604z"/><path id="openStudyArea1" fill="#118244" stroke="#0B0B0B" stroke-miterlimit="10" d="M180 30.167h378.5V192.4H180z"/><path id="helpDesk" fill="#1ED340" stroke="#0B0B0B" stroke-miterlimit="10" d="M597.667 488.832V460.8h35.583v28.032s-16.916 6-35.583 0z"/></g></svg>