<svg id="PostFloor2" xmlns="http://www.w3.org/2000/svg" xmlns:xlink="http://www.w3.org/1999/xlink" width="885" height="510" viewBox="0 0 885 510"><g id="outline"><path id="stair_4_" fill="#FFF" stroke="#333" stroke-miterlimit="10" d="M2 5.5h162.73v56.556H2z"/><path id="stair_1_" fill="none" stroke="#333" stroke-miterlimit="10" d="M732.943 5.5H881v56.556H732.943z"/><path id="toilet_2_" fill="none" stroke="#333" stroke-miterlimit="10" d="M732.943 62.056H881v126.58H732.943z"/><path fill="none" stroke="#333" stroke-width="2" stroke-miterlimit="10" d="M164.062 26.37h568.216"/><path fill="none" stroke="#333" stroke-miterlimit="10" d="M880.66 260.677v166.146s-73.69 42.573-174.66 50.04M285.075 505.088s274.925-2.7 302.475-18.095"/><g id="Restrooms"><g stroke="#333"><path fill="none" d="M794.383 108.534h33.484v35.34h-33.484z"/><path fill="#231F20" d="M827.867 138.298c0 3.074-2.367 5.575-5.28 5.575h-22.924c-2.914 0-5.28-2.5-5.28-5.575V114.1c0-3.074 2.366-5.566 5.28-5.566h22.925c2.914 0 5.28 2.492 5.28 5.566v24.198z"/><path fill="#FFF" d="M810.58 111.172v28.554h-12.392V117.44zM811.97 111.172v28.554h12.39V117.44z"/><g fill="#231F20"><path d="M802.762 119.968h3.47l3.178 8.25-.632.45-2.65-5.183-.243.266 2.78 7.883h-2.73l-.878 6.868h-1.105l-.88-6.867h-2.73l2.824-7.722-.287-.425-2.644 5.183-.64-.45zM806.402 117.355c0 1.156-.896 2.095-1.985 2.095-1.094 0-1.98-.94-1.98-2.095 0-1.148.896-2.09 1.98-2.09s1.985.943 1.985 2.09zM819.77 117.355c0 1.156-.89 2.095-1.98 2.095-1.098 0-1.987-.94-1.987-2.095 0-1.148.896-2.09 1.988-2.09 1.09 0 1.98.943 1.98 2.09zM814.933 119.968h5.44l1.222.76v9.686h-1.056v-6.748h-.85V138.5h-1.366l-.407-5.66h-.454l-.366 5.66h-1.44v-14.834h-.845l-.008 6.748h-1.045v-9.49z"/></g></g><path fill="none" stroke="#333" d="M656.625 270.443h38.748v28.13h-38.748z"/></g><g id="Children"><path fill="#231F20" stroke="#333" stroke-width=".542" d="M671.833 275.614l-3.614 7.9 1.862-.035 3.606-7.623zM679.328 275.614l3.584 7.894-1.863-.013-3.576-7.638z"/><path fill="#231F20" stroke="#333" stroke-width=".542" d="M672.994 287.6v-11.795h5.162V298.24h-1.83v-10.333h-1.51v10.332h-1.83V287.6z"/><ellipse fill="#231F20" stroke="#333" stroke-width=".542" cx="675.646" cy="272.96" rx="2.229" ry="2.841"/><g><path fill="#231F20" stroke="#333" stroke-width=".542" d="M658.77 275.614l-3.613 7.9 1.864-.035 3.605-7.623zM666.266 275.614l3.605 7.878-1.873.028-3.584-7.663z"/><path fill="#231F20" stroke="#333" stroke-width=".542" d="M659.933 287.6v-11.795h5.16V298.24h-1.83v-10.333h-1.51v10.332h-1.828V287.6z"/><ellipse fill="#231F20" stroke="#333" stroke-width=".542" cx="662.585" cy="272.96" rx="2.23" ry="2.841"/></g><g><path fill="#231F20" stroke="#333" stroke-width=".542" d="M684.582 275.614l-3.333 7.86 1.87.005 3.316-7.623zM692.076 275.614l3.614 7.9-1.866-.035-3.603-7.623z"/><path fill="#231F20" stroke="#333" stroke-width=".542" d="M685.744 287.6v-11.795h5.16v12.18h-.003v10.254h-1.83v-10.333h-1.508v10.332h-1.83V287.6z"/><ellipse fill="#231F20" stroke="#333" stroke-width=".542" cx="688.394" cy="272.96" rx="2.229" ry="2.841"/></g></g><path d="M640.475 291.686v2.45l15.276-3.086-15.275-3.09v2.448h-9.143v1.278zM646.61 278.318v2.45l-15.278-3.086 15.277-3.09v2.45h9.14v1.276z"/><path fill="none" stroke="#333" stroke-miterlimit="10" d="M764.333 5.5v56.556M773.667 5.5v56.556M782.667 5.5v56.556M792.368 5.5v56.556M800.8 5.5v56.556M810.037 5.5v56.556M819.826 5.5v56.556M828.32 5.5v56.556M836.983 5.5v56.556M845.667 5.5v56.556M125.767 5.9v56.556M116.433 5.9v56.556M107.433 5.9v56.556M97.73 5.9v56.556M89.3 5.9v56.556M80.062 5.9v56.556M70.273 5.9v56.556M61.778 5.9v56.556M53.116 5.9v56.556M44.433 5.9v56.556"/><path d="M833.144 32.05l27.19 3.14-27.19 3.115V36.44h-74.007v-2.252h74.007zM56.956 32.45l-27.19 3.138 27.19 3.117V36.84h74.007v-2.253H56.956zM660.697 434.243h3.605l-4.54-28.603-4.55 28.603h3.605v17.117h1.88zM647.024 422.757h3.605l-4.54 28.603-4.55-28.603h3.605V405.64h1.878z"/><path fill="none" stroke="#333" stroke-miterlimit="10" d="M88.7 218.26h76.028v37.704h-76.03zM2 188.635h86.7v67.33H2zM754.285 224.992h42.682v35.01h-42.682zM754.285 188.635h42.682v36.357h-42.682zM796.967 188.635H881v71.368h-84.033zM158.06 321.946h126.714V433.71H158.06z"/></g><g id="active"><text transform="translate(434 376.5)" font-family="'Avenir-Medium'" font-size="18">Digital</text><text transform="translate(412 398.1)" font-family="'Avenir-Medium'" font-size="18">Media Zone</text><text transform="translate(374 124.5)" font-family="'Avenir-Medium'" font-size="18">Open Study Area</text><text transform="translate(756 350.5)" font-family="'Avenir-Medium'" font-size="18">Lounge</text><text transform="translate(338 249.5)" font-family="'Avenir-Medium'" font-size="14">Media</text><text transform="translate(332 266.3)" font-family="'Avenir-Medium'" font-size="14">Creation</text><text transform="translate(530 249.5)" font-family="'Avenir-Medium'" font-size="14">Media</text><text transform="translate(526 266.3)" font-family="'Avenir-Medium'" font-size="14">Creation</text><text transform="translate(420 248.5)" font-family="'Avenir-Medium'" font-size="14">Presentation</text><text transform="translate(412 265.3)" font-family="'Avenir-Medium'" font-size="14">Capture Room</text><text transform="translate(23 115.5)" font-family="'Avenir-Medium'" font-size="16">Wachterhauser</text><text transform="translate(23 137.1)" font-family="'Avenir-Medium'" font-size="16">Seminar Room</text><text transform="translate(100 473.5)" font-family="'Avenir-Medium'" font-size="14">Office 231</text><text transform="translate(207 473.5)" font-family="'Avenir-Medium'" font-size="14">Office 230</text><text transform="translate(114 284.166)"><tspan x="0" y="0" font-family="'Avenir-Medium'" font-size="12">Office </tspan><tspan x="7" y="14.4" font-family="'Avenir-Medium'" font-size="12"> 225</tspan></text><text transform="translate(199.333 284.166)"><tspan x="0" y="0" font-family="'Avenir-Medium'" font-size="12">Office </tspan><tspan x="7" y="14.4" font-family="'Avenir-Medium'" font-size="12"> 224</tspan></text><text transform="translate(246.667 284.223)"><tspan x="0" y="0" font-family="'Avenir-Medium'" font-size="12">Office </tspan><tspan x="7" y="14.4" font-family="'Avenir-Medium'" font-size="12"> 223</tspan></text><text transform="translate(97.667 348.57)"><tspan x="0" y="0" font-family="'Avenir-Medium'" font-size="12">Office </tspan><tspan x="7" y="14.4" font-family="'Avenir-Medium'" font-size="12"> 226</tspan></text><text transform="translate(97.667 403.237)"><tspan x="0" y="0" font-family="'Avenir-Medium'" font-size="12">Office </tspan><tspan x="7" y="14.4" font-family="'Avenir-Medium'" font-size="12"> 227</tspan></text><a xlink:href="DrexelFloor2.svg" xlink:title="Go to the Drexel side"><text transform="translate(594 466.5)" font-family="'Avenir-Medium'" font-size="14">To The Drexel Side</text></a><path id="room225" fill="#BC5616" stroke="#333" stroke-miterlimit="10" d="M67.358 255.964h124.047v65.982H67.358z"/><path id="room226" fill="#BC5616" stroke="#333" stroke-miterlimit="10" d="M67.358 321.946h90.7v59.248h-90.7z"/><path id="room227" fill="#BC5616" stroke="#333" stroke-miterlimit="10" d="M67.358 381.194h90.7v52.517h-90.7z"/><path id="room224" fill="#BC5616" stroke="#333" stroke-miterlimit="10" d="M191.405 255.964h49.352v66.21h-49.352z"/><path id="room223" fill="#BC5616" stroke="#333" stroke-miterlimit="10" d="M240.756 255.964h44.018v66.518h-44.018z"/><path id="wsRoom" fill="#AD1515" stroke="#333" stroke-miterlimit="10" d="M2 62.056h162.73v126.58H2z"/><path id="room231" fill="#828287" stroke="#333" stroke-miterlimit="10" d="M67.358 433.71h128.05v71.37H67.357z"/><path id="room230" fill="#828287" stroke="#333" stroke-miterlimit="10" d="M195.407 433.71h89.367v71.37h-89.367z"/><path id="room233" fill="#2E20ED" stroke="#333" stroke-miterlimit="10" d="M324.79 230.377h70.692v48.48H324.79z"/><path id="room234" fill="#2E20ED" stroke="#333" stroke-miterlimit="10" d="M395.482 230.377h122.714v48.48H395.482z"/><path id="room235" fill="#2E20ED" stroke="#333" stroke-miterlimit="10" d="M518.196 230.377h69.354v48.48h-69.354z"/><path id="digitMediaZone" fill="#E8E33F" d="M324.79 282.223v220.165s234.21 0 261.43-20.582V282.223H324.79z"/><path id="openStudyArea2" fill="#118244" d="M185 38.705h510.69v168.108H185z"/><path id="lounge" fill="#9B1FC9" d="M706 270.5h162v152H706z"/></g></svg>