<svg id="PostFloor3" xmlns="http://www.w3.org/2000/svg" width="885" height="510" viewBox="0 0 885 510"><g id="outline"><path id="stair" fill="none" stroke="#1A1A1A" stroke-miterlimit="10" d="M6.762 4.5H160.74v60.13H6.76z"/><path fill="none" stroke="#1A1A1A" stroke-miterlimit="10" d="M6.762 189.802h112.63v72.403H6.763zM790.896 191.03h91.24v71.175h-91.24zM722.465 64.63h159.678v126.4H722.465z"/><path id="stair_1_" fill="none" stroke="#1A1A1A" stroke-miterlimit="10" d="M722.465 4.5h159.678v60.13H722.465z"/><path fill="none" stroke="#1A1A1A" stroke-miterlimit="10" d="M882.143 262.205h-67.01v183.462s61.48-19.44 67.01-22.702v-160.76zM665.436 478.188S776 461.928 814.71 445.668M160.738 25.975l561.727.613M223.468 26.588h441.967v177.94H223.468zM223.468 204.528l441.968-177.94M223.468 26.588l441.968 177.94M813.71 262.205l67.007 160.76M880.717 262.205L814.71 445.667M790.896 191.03l89.82 71.175M790.896 262.205l91.247-71.175M6.762 189.802l112.63 72.403M119.393 189.802L6.763 262.205"/><g id="Restrooms"><g stroke="#1A1A1A"><path fill="none" d="M788.452 116.276h33.98v30.54h-33.98z"/><path fill="#231F20" d="M822.43 142c0 2.658-2.395 4.817-5.353 4.817H793.81c-2.955 0-5.354-2.16-5.354-4.817v-20.914c0-2.658 2.398-4.81 5.354-4.81h23.267c2.957 0 5.354 2.152 5.354 4.81V142z"/><path fill="#FFF" d="M804.887 118.558v24.676H792.31v-19.26zM806.3 118.558v24.676h12.573v-19.26z"/><g fill="#231F20"><path d="M796.953 126.16h3.524l3.224 7.13-.64.388-2.69-4.48-.247.23 2.824 6.812h-2.77l-.895 5.938h-1.12l-.895-5.938h-2.77l2.867-6.675-.29-.366-2.68 4.478-.654-.39zM800.648 123.9c0 1-.908 1.81-2.018 1.81s-2.012-.81-2.012-1.81c0-.992.896-1.806 2.012-1.806 1.112 0 2.018.815 2.018 1.806zM814.215 123.9c0 1-.904 1.81-2.012 1.81-1.116 0-2.02-.81-2.02-1.81 0-.992.9-1.806 2.02-1.806 1.108 0 2.012.815 2.012 1.806zM809.307 126.16h5.517l1.242.654v8.37h-1.072v-5.83h-.863v12.824h-1.383l-.412-4.896h-.46l-.373 4.896h-1.463v-12.825h-.858l-.008 5.832h-1.06v-8.2z"/></g></g><g id="Arrow_30_1_" fill="none" stroke="#1A1A1A"><path d="M642.562 270.16h48.534v33.77h-48.534zM72.345 261.59v242.98M72.345 504.57l151.123 1.23"/></g><g id="Children"><path fill="#231F20" stroke="#1A1A1A" stroke-width=".549" d="M662.034 277.062l-4.053 8.792 2.093-.04 4.04-8.478zM670.438 277.062l4.018 8.786-2.088-.014-4.01-8.498z"/><path fill="#231F20" stroke="#1A1A1A" stroke-width=".549" d="M663.337 290.4v-13.127h5.787v13.558h-.002v11.415h-2.05v-11.502h-1.694v11.502h-2.05V290.4z"/><ellipse fill="#231F20" stroke="#1A1A1A" stroke-width=".549" cx="666.311" cy="274.109" rx="2.501" ry="3.162"/><g><path fill="#231F20" stroke="#1A1A1A" stroke-width=".549" d="M647.387 277.062l-4.052 8.792 2.09-.04 4.04-8.478zM655.79 277.062l4.043 8.77-2.1.03-4.02-8.526z"/><path fill="#231F20" stroke="#1A1A1A" stroke-width=".549" d="M648.69 290.4v-13.127h5.79v13.558h-.003v11.415h-2.054v-11.502h-1.692v11.502h-2.05V290.4z"/><ellipse fill="#231F20" stroke="#1A1A1A" stroke-width=".549" cx="651.663" cy="274.109" rx="2.5" ry="3.162"/></g><g><path fill="#231F20" stroke="#1A1A1A" stroke-width=".549" d="M676.33 277.062l-3.736 8.75 2.095.002 3.717-8.478zM684.73 277.062l4.055 8.792-2.09-.04-4.04-8.478z"/><path fill="#231F20" stroke="#1A1A1A" stroke-width=".549" d="M677.63 290.4v-13.127h5.79v13.558h-.003v11.415h-2.052v-11.502h-1.69v11.502h-2.054V290.4z"/><ellipse fill="#231F20" stroke="#1A1A1A" stroke-width=".549" cx="680.604" cy="274.109" rx="2.5" ry="3.162"/></g></g></g><path d="M622.238 293.295v2.935l17.108-3.697-17.108-3.705v2.938H612v1.53zM629.108 276.234v2.936L612 275.473l17.108-3.705v2.936h10.238v1.53z"/><path fill="none" stroke="#1A1A1A" d="M757 4.5l-.5 60.13M765.766 4.5l-.5 60.13M773.766 4.5l-.5 60.13M783.463 4.5l-.5 60.13M791.983 4.5l-.5 60.13M801.11 4.5l-.5 60.13M810.14 4.5l-.5 60.13M818.967 4.5l-.5 60.13M827.072 4.498l-.5 60.13M837.057 4.5l-.5 60.13M845.737 4.5l-.5 60.13M130.745 4.37l.5 60.13M121.98 4.37l.5 60.13M113.98 4.37l.5 60.13M104.282 4.37l.5 60.13M95.762 4.37l.5 60.13M86.635 4.37l.5 60.13M77.604 4.37l.5 60.13M68.778 4.37l.5 60.13M60.673 4.367l.5 60.13M50.688 4.37l.5 60.13M42.008 4.37l.5 60.13"/><path d="M826.283 32.756l28.206 1.846-28.207 1.83v-1.095H749.5v-1.323h76.783zM61.462 32.625L33.256 34.47l28.206 1.832v-1.096h76.783v-1.324H61.462z"/></g><g id="active"><text transform="translate(120 350.5)" font-family="'Avenir-Medium'" font-size="18">Durant</text><text transform="translate(119 372.1)" font-family="'Avenir-Medium'" font-size="18">Special</text><text transform="translate(108 393.7)" font-family="'Avenir-Medium'" font-size="18">Collections</text><text transform="translate(118 415.3)" font-family="'Avenir-Medium'" font-size="18">Lounge</text><text transform="translate(313 372.5)" font-family="'Avenir-Medium'" font-size="18">Gerard Manley</text><text transform="translate(323 394.1)" font-family="'Avenir-Medium'" font-size="18">Hopkins, S.J.</text><text transform="translate(301 415.7)" font-family="'Avenir-Medium'" font-size="18">Special Collections</text><text transform="translate(708 361.5)" font-family="'Avenir-Medium'" font-size="18">Griffiths</text><text transform="translate(708 383.1)" font-family="'Avenir-Medium'" font-size="18">Scholars</text><text transform="translate(711 404.7)" font-family="'Avenir-Medium'" font-size="18">Lounge</text><text transform="translate(118 152.5)" font-family="'Avenir-Medium'" font-size="12">340</text><text transform="translate(118 109.5)" font-family="'Avenir-Medium'" font-size="12">344</text><text transform="translate(30 88.5)" font-family="'Avenir-Medium'" font-size="12">343</text><text transform="translate(31 130.5)" font-family="'Avenir-Medium'" font-size="12">342</text><text transform="translate(31 173.5)" font-family="'Avenir-Medium'" font-size="12">341</text><path fill="none" stroke="#1A1A1A" stroke-miterlimit="10" d="M518.59 305.154h146.846v62.588H518.59zM518.59 495.06c-5.832 0 134.167-11.56 146.846-16.872V368.354l-146.847-.607V495.06zM745.275 191.03h45.62v35.587h-45.62z"/><path fill="none" stroke="#1A1A1A" stroke-miterlimit="10" d="M745.275 226.617h45.62v35.588h-45.62zM119.393 202.074h44.195v60.13h-44.195z"/><path id="room340" fill="#29ABE2" stroke="#1A1A1A" stroke-miterlimit="10" d="M95.156 127.217h65.583v41.724H95.155z"/><path id="room341" fill="#29ABE2" stroke="#1A1A1A" stroke-miterlimit="10" d="M6.762 148.078h65.583v41.724H6.762z"/><path id="room342" fill="#29ABE2" stroke="#1A1A1A" stroke-miterlimit="10" d="M6.762 106.354h65.583v41.724H6.762z"/><path id="room343" fill="#29ABE2" stroke="#1A1A1A" stroke-miterlimit="10" d="M6.762 64.63h65.583v41.724H6.762z"/><path id="room344" fill="#29ABE2" stroke="#1A1A1A" stroke-miterlimit="10" d="M95.156 85.492h65.583v41.725H95.155z"/><path id="GMHCollection" fill="#E5892C" stroke="#1A1A1A" stroke-miterlimit="10" d="M223.468 305.154h294.407l.357 189.9s-217.232 14.94-294.77 10.74l.006-200.64z"/><path id="GSLounge" fill="#9427C1" d="M675.5 311.5h130.8v129H675.5z"/><path id="DSCLounge" fill="#1AC462" d="M72.345 262.205h151.12V503.5H72.346z"/><g id="studyStation3" fill="#1AA3AD" stroke="#1A1A1A" stroke-miterlimit="10"><path d="M223.468 204.527H666.87v27.613H223.47z"/><path d="M665.87 26.588h27.468v177.94H665.87zM196 26.588h27.468v177.94H196z"/></g></g></svg>