<?xml version="1.0" encoding="utf-8"?>
<!-- Generator: Adobe Illustrator 16.0.4, SVG Export Plug-In . SVG Version: 6.00 Build 0)  -->
<!DOCTYPE svg PUBLIC "-//W3C//DTD SVG 1.1//EN" "http://www.w3.org/Graphics/SVG/1.1/DTD/svg11.dtd">
<svg version="1.1" id="DrexelFloor2" xmlns="http://www.w3.org/2000/svg" xmlns:xlink="http://www.w3.org/1999/xlink" x="0px"
	 y="0px" width="915px" height="510px" viewBox="0 0 915 510" enable-background="new 0 0 915 510" xml:space="preserve">
<g id="outline">
	
		<rect id="stair_1_" x="588.576" y="164.472" fill="none" stroke="#000000" stroke-miterlimit="10" width="115.424" height="25.153"/>
	<rect id="stair_2_" x="245.5" y="247.5" fill="none" stroke="#000000" stroke-miterlimit="10" width="31" height="93"/>
	<rect id="stair_3_" x="864.5" y="9.5" fill="none" stroke="#000000" stroke-miterlimit="10" width="36" height="91"/>
	<rect id="stair_4_" x="100.5" y="105.5" fill="none" stroke="#000000" stroke-miterlimit="10" width="137" height="47"/>
	<polygon id="toilet" fill="none" stroke="#000000" stroke-miterlimit="10" points="413.333,321.967 510.5,321.5 510.5,405.5 
		413.333,405.967 	"/>
	<polyline fill="none" stroke="#000000" stroke-miterlimit="10" points="217.5,105 217.5,10.5 865,10.5 	"/>
	<polyline fill="none" stroke="#000000" stroke-miterlimit="10" points="100,152.5 13.5,152.5 13.5,427.5 246,427.5 	"/>
	<g>
		<g>
			<rect x="446.518" y="353.602" fill="none" width="24.815" height="24.731"/>
			<g>
				<path fill="#231815" d="M471.333,374.431c0,2.151-1.754,3.902-3.912,3.902H450.43c-2.16,0-3.912-1.751-3.912-3.902v-16.935
					c0-2.151,1.752-3.896,3.912-3.896h16.991c2.158,0,3.912,1.743,3.912,3.896V374.431z"/>
				<g>
					<polygon fill="#FFFFFF" points="458.521,355.448 458.521,375.431 449.334,375.431 449.334,359.834 					"/>
					<polygon fill="#FFFFFF" points="459.551,355.448 459.551,375.431 468.734,375.431 468.734,359.834 					"/>
					<g>
						<g>
							<polygon fill="#231815" points="452.726,361.604 455.3,361.604 457.654,367.378 457.186,367.693 455.222,364.066 
								455.041,364.252 457.104,369.768 455.078,369.768 454.428,374.575 453.609,374.575 452.957,369.768 450.933,369.768 
								453.027,364.362 452.814,364.066 450.855,367.693 450.38,367.378 							"/>
							<path fill="#231815" d="M455.424,359.775c0,0.81-0.661,1.466-1.471,1.466c-0.812,0-1.467-0.656-1.467-1.466
								c0-0.808,0.651-1.468,1.467-1.468C454.763,358.312,455.424,358.973,455.424,359.775z"/>
							<path fill="#231815" d="M465.332,359.775c0,0.81-0.66,1.466-1.469,1.466c-0.814,0-1.477-0.656-1.477-1.466
								c0-0.808,0.657-1.468,1.477-1.468C464.672,358.312,465.332,358.973,465.332,359.775z"/>
						</g>
						<polygon fill="#231815" points="461.746,361.604 465.778,361.604 466.686,362.137 466.686,368.914 465.903,368.914 
							465.903,364.19 465.271,364.19 465.271,374.575 464.261,374.575 463.961,370.611 463.623,370.611 463.352,374.575 
							462.283,374.575 462.283,364.19 461.657,364.19 461.65,368.914 460.877,368.914 460.877,362.273 						"/>
					</g>
				</g>
			</g>
		</g>
		<g>
			<g>
				<g>
					<g>
						<polygon fill="#231815" stroke="#FFFFFF" stroke-width="0.3137" points="493.258,173.014 489.997,178.061 491.679,178.037 
							494.933,173.17 						"/>
						<polygon fill="#231815" stroke="#FFFFFF" stroke-width="0.3137" points="500.021,173.014 503.258,178.057 501.576,178.049 
							498.348,173.17 						"/>
						<polygon fill="#231815" stroke="#FFFFFF" stroke-width="0.3137" points="494.307,180.671 494.307,173.134 498.966,173.134 
							498.966,180.917 498.964,180.917 498.964,187.469 497.312,187.469 497.312,180.867 495.949,180.867 495.949,187.469 
							494.299,187.469 494.299,180.671 						"/>
						<g>
							<ellipse fill="#231815" stroke="#FFFFFF" stroke-width="0.3137" cx="496.698" cy="171.317" rx="2.014" ry="1.816"/>
						</g>
					</g>
				</g>
				<g>
					<g>
						<polygon fill="#231815" stroke="#FFFFFF" stroke-width="0.3137" points="481.471,173.014 478.209,178.061 479.89,178.037 
							483.143,173.17 						"/>
						<polygon fill="#231815" stroke="#FFFFFF" stroke-width="0.3137" points="488.23,173.014 491.489,178.046 489.796,178.063 
							486.561,173.17 						"/>
						<polygon fill="#231815" stroke="#FFFFFF" stroke-width="0.3137" points="482.52,180.671 482.52,173.134 487.176,173.134 
							487.176,180.917 487.175,180.917 487.175,187.469 485.521,187.469 485.521,180.867 484.161,180.867 484.161,187.469 
							482.509,187.469 482.509,180.671 						"/>
						<g>
							<ellipse fill="#231815" stroke="#FFFFFF" stroke-width="0.3137" cx="484.911" cy="171.317" rx="2.013" ry="1.816"/>
						</g>
					</g>
				</g>
				<g>
					<g>
						<polygon fill="#231815" stroke="#FFFFFF" stroke-width="0.3137" points="504.764,173.014 501.758,178.036 503.444,178.037 
							506.438,173.17 						"/>
						<polygon fill="#231815" stroke="#FFFFFF" stroke-width="0.3137" points="511.526,173.014 514.788,178.061 513.106,178.037 
							509.854,173.17 						"/>
						<polygon fill="#231815" stroke="#FFFFFF" stroke-width="0.3137" points="505.812,180.671 505.812,173.134 510.47,173.134 
							510.47,180.917 510.47,180.917 510.47,187.469 508.817,187.469 508.817,180.867 507.455,180.867 507.455,187.469 
							505.803,187.469 505.803,180.671 						"/>
						<g>
							<ellipse fill="#231815" stroke="#FFFFFF" stroke-width="0.3137" cx="508.204" cy="171.317" rx="2.013" ry="1.816"/>
						</g>
					</g>
				</g>
			</g>
			<path fill="#231815" stroke="#FFFFFF" stroke-miterlimit="10" d="M114-64"/>
			<rect x="478.001" y="166.628" fill="none" stroke="#000000" width="36.633" height="22.279"/>
			<g>
				<g>
					<g>
						<polygon points="490.045,156.804 493.035,156.804 489.27,143.99 485.496,156.804 488.486,156.804 488.486,164.472 
							490.045,164.472 						"/>
					</g>
				</g>
				<g>
					<g>
						<polygon points="506.552,151.658 509.544,151.658 505.777,164.472 502.002,151.658 504.992,151.658 504.992,143.99 
							506.552,143.99 						"/>
					</g>
				</g>
			</g>
		</g>
	</g>
	<g id="stair_5_">
		<g>
			<line fill="none" stroke="#000000" stroke-miterlimit="10" x1="126" y1="105.5" x2="126" y2="152.5"/>
			<line fill="none" stroke="#000000" stroke-miterlimit="10" x1="132.667" y1="105.5" x2="132.667" y2="152.5"/>
			<line fill="none" stroke="#000000" stroke-miterlimit="10" x1="140" y1="105.5" x2="140" y2="152.5"/>
			<line fill="none" stroke="#000000" stroke-miterlimit="10" x1="147" y1="105.5" x2="147" y2="152.5"/>
			<line fill="none" stroke="#000000" stroke-miterlimit="10" x1="154" y1="105.5" x2="154" y2="152.5"/>
			<line fill="none" stroke="#000000" stroke-miterlimit="10" x1="161.5" y1="105.5" x2="161.5" y2="152.5"/>
			<line fill="none" stroke="#000000" stroke-miterlimit="10" x1="169" y1="105.5" x2="169" y2="152.5"/>
			<line fill="none" stroke="#000000" stroke-miterlimit="10" x1="176" y1="105.5" x2="176" y2="152.5"/>
			<line fill="none" stroke="#000000" stroke-miterlimit="10" x1="183" y1="105.5" x2="183" y2="152.5"/>
			<line fill="none" stroke="#000000" stroke-miterlimit="10" x1="189.333" y1="105.5" x2="189.333" y2="152.5"/>
			<line fill="none" stroke="#000000" stroke-miterlimit="10" x1="196.333" y1="105.5" x2="196.333" y2="152.5"/>
			<line fill="none" stroke="#000000" stroke-miterlimit="10" x1="203.667" y1="105.5" x2="203.667" y2="152.5"/>
			<line fill="none" stroke="#000000" stroke-miterlimit="10" x1="210.333" y1="105.5" x2="210.333" y2="152.5"/>
			<polygon points="193.502,127.94 218.863,129.896 193.502,131.837 193.502,130.675 124.471,130.675 124.471,129.272 
				193.502,129.272 			"/>
		</g>
		<g>
			<line fill="none" stroke="#000000" stroke-miterlimit="10" x1="864.5" y1="27.908" x2="900.5" y2="27.908"/>
			<line fill="none" stroke="#000000" stroke-miterlimit="10" x1="864.833" y1="34.878" x2="900.833" y2="34.878"/>
			<line fill="none" stroke="#000000" stroke-miterlimit="10" x1="864.5" y1="56.167" x2="900.5" y2="56.167"/>
			<line fill="none" stroke="#000000" stroke-miterlimit="10" x1="864.5" y1="48.847" x2="900.5" y2="48.847"/>
			<line fill="none" stroke="#000000" stroke-miterlimit="10" x1="864.5" y1="41.5" x2="900.5" y2="41.5"/>
			<line fill="none" stroke="#000000" stroke-miterlimit="10" x1="864.833" y1="63.689" x2="900.833" y2="63.689"/>
			<line fill="none" stroke="#000000" stroke-miterlimit="10" x1="864.833" y1="71.167" x2="900.833" y2="71.167"/>
			<line fill="none" stroke="#000000" stroke-miterlimit="10" x1="864.833" y1="78.167" x2="900.833" y2="78.167"/>
			<polygon points="883.609,69.752 882.607,88.029 881.611,69.752 882.207,69.752 882.207,20 882.926,20 882.926,69.752 			"/>
		</g>
	</g>
	<g>
		<line fill="none" stroke="#000000" stroke-miterlimit="10" x1="245.5" y1="263" x2="276.5" y2="263"/>
		<line fill="none" stroke="#000000" stroke-miterlimit="10" x1="245.5" y1="270.167" x2="276.5" y2="270.167"/>
		<line fill="none" stroke="#000000" stroke-miterlimit="10" x1="245.5" y1="277" x2="276.5" y2="277"/>
		<line fill="none" stroke="#000000" stroke-miterlimit="10" x1="245.5" y1="284" x2="276.5" y2="284"/>
		<line fill="none" stroke="#000000" stroke-miterlimit="10" x1="245.5" y1="291" x2="276.5" y2="291"/>
		<line fill="none" stroke="#000000" stroke-miterlimit="10" x1="245.5" y1="297.5" x2="276.5" y2="297.5"/>
		<line fill="none" stroke="#000000" stroke-miterlimit="10" x1="245.5" y1="304" x2="276.5" y2="304"/>
		<line fill="none" stroke="#000000" stroke-miterlimit="10" x1="245.5" y1="311" x2="276.5" y2="311"/>
		<line fill="none" stroke="#000000" stroke-miterlimit="10" x1="245.5" y1="317" x2="276.5" y2="317"/>
		<polygon points="261.43,309.955 260.033,330.695 258.647,309.955 259.477,309.955 259.477,253.5 260.479,253.5 260.479,309.955 		
			"/>
	</g>
	<g>
		<polygon points="665.168,176.428 687.996,177.431 665.168,178.427 665.168,177.831 603.029,177.831 603.029,177.111 
			665.168,177.111 		"/>
		<line fill="none" stroke="#000000" stroke-miterlimit="10" x1="603.61" y1="164.472" x2="603.61" y2="189.625"/>
		<line fill="none" stroke="#000000" stroke-miterlimit="10" x1="611.369" y1="164.472" x2="611.369" y2="189.625"/>
		<line fill="none" stroke="#000000" stroke-miterlimit="10" x1="618.645" y1="164.472" x2="618.645" y2="189.625"/>
		<line fill="none" stroke="#000000" stroke-miterlimit="10" x1="625.918" y1="164.472" x2="625.918" y2="189.625"/>
		<line fill="none" stroke="#000000" stroke-miterlimit="10" x1="633.679" y1="163.753" x2="633.679" y2="188.907"/>
		<line fill="none" stroke="#000000" stroke-miterlimit="10" x1="640.469" y1="164.472" x2="640.469" y2="189.625"/>
		<line fill="none" stroke="#000000" stroke-miterlimit="10" x1="647.258" y1="163.753" x2="647.258" y2="188.907"/>
		<line fill="none" stroke="#000000" stroke-miterlimit="10" x1="654.533" y1="164.472" x2="654.533" y2="189.625"/>
		<line fill="none" stroke="#000000" stroke-miterlimit="10" x1="661.807" y1="164.472" x2="661.807" y2="189.625"/>
		<line fill="none" stroke="#000000" stroke-miterlimit="10" x1="668.597" y1="164.769" x2="668.597" y2="189.922"/>
		<line fill="none" stroke="#000000" stroke-miterlimit="10" x1="675.387" y1="164.769" x2="675.387" y2="189.922"/>
		<line fill="none" stroke="#000000" stroke-miterlimit="10" x1="682.176" y1="164.769" x2="682.176" y2="189.922"/>
	</g>
	<polygon points="852.664,144.725 852.664,141.12 824.061,145.661 852.664,150.209 852.664,146.604 869.781,146.604 
		869.781,144.724 	"/>
	<polygon points="841.178,158.397 841.178,154.793 869.781,159.332 841.178,163.882 841.178,160.277 824.061,160.277 
		824.061,158.398 	"/>
    <text transform="matrix(1 0 0 1 795 177.5)" font-family="'Avenir-Medium'" font-size="14">To The Post Side</text>
</g>
<g id="active">
	<text transform="matrix(1 0 0 1 814 273.5)" font-family="'Avenir-Medium'" font-size="14">    Food</text>
	<text transform="matrix(1 0 0 1 814 290.2998)" font-family="'Avenir-Medium'" font-size="14">Marketing</text>
	<text transform="matrix(1 0 0 1 814 307.0996)" font-family="'Avenir-Medium'" font-size="14">Compbell</text>
	<text transform="matrix(1 0 0 1 814 323.9004)" font-family="'Avenir-Medium'" font-size="14">Collection</text>
	<text transform="matrix(1 0 0 1 692 322.5)" font-family="'Avenir-Medium'" font-size="14">Curriculum</text>
	<text transform="matrix(1 0 0 1 692 339.2998)" font-family="'Avenir-Medium'" font-size="14">Materials</text>
	<text transform="matrix(1 0 0 1 692 356.0996)" font-family="'Avenir-Medium'" font-size="14">Center</text>
	<text transform="matrix(1 0 0 1 611 397.5)" font-family="'Avenir-Medium'" font-size="12">214</text>
	<text transform="matrix(1 0 0 1 536 374.5)" font-family="'Avenir-Medium'" font-size="12">215</text>
	<text transform="matrix(1 0 0 1 547 321.5)" font-family="'Avenir-Medium'" font-size="12">216</text>
	<text transform="matrix(1 0 0 1 547 283.5)" font-family="'Avenir-Medium'" font-size="12">217</text>
	<text transform="matrix(1 0 0 1 434 283.5)" font-family="'Avenir-Medium'" font-size="12">219</text>
	<text transform="matrix(1 0 0 1 491 301.5)" font-family="'Avenir-Medium'" font-size="12">220</text>
	<text transform="matrix(1 0 0 1 524 460.5)" font-family="'Avenir-Medium'" font-size="14">Quiet Area</text>
	<g id="studyStation">
		<rect x="219.146" y="153.231" fill="#1AA3AD" width="9.867" height="273.269"/>
		<rect x="27" y="152" fill="#1AA3AD" width="176.667" height="12"/>
		<rect x="27" y="415.5" fill="#1AA3AD" width="176.667" height="12"/>
	</g>
	<rect id="s90" x="822" y="20" fill="#1B1464" width="8" height="106.23"/>
	<rect id="s89" x="804" y="20" fill="#1B1464" width="8" height="106.23"/>
	<rect id="s86" x="744" y="20" fill="#1B1464" width="8" height="106.23"/>
	<rect id="s85" x="724" y="20" fill="#F7931E" width="8" height="106.23"/>
	<rect id="s84" x="704" y="20" fill="#F7931E" width="8" height="106.23"/>
	<rect id="s78" x="624" y="20" fill="#F7931E" width="8" height="106.23"/>
	<rect id="s79" x="603" y="20" fill="#F7931E" width="8" height="106.23"/>
	<rect id="s78_1_" x="582" y="20" fill="#006837" width="8" height="106.23"/>
	<rect id="s77" x="562" y="20" fill="#006837" width="8" height="106.23"/>
	<rect id="s76" x="543" y="20" fill="#006837" width="8" height="106.23"/>
	<rect id="s75" x="525" y="20" fill="#006837" width="8" height="106.23"/>
	<rect id="s74" x="504" y="20" fill="#006837" width="8" height="106.23"/>
	<rect id="s73" x="484" y="20" fill="#006837" width="8" height="106.23"/>
	<rect id="s72" x="465" y="20" fill="#006837" width="8" height="106.23"/>
	<rect id="s71" x="442" y="77.837" fill="#006837" width="8" height="60.838"/>
	<rect id="s70" x="421" y="77.837" fill="#006837" width="8" height="60.838"/>
	<rect id="s69" x="399" y="17" fill="#006837" width="8" height="141"/>
	<rect id="s68" x="378" y="17" fill="#FFFF00" width="8" height="141"/>
	<rect id="s67" x="354" y="17" fill="#FFFF00" width="8" height="141"/>
	<rect id="s66" x="334" y="17" fill="#662D91" width="8" height="141"/>
	<rect id="s65" x="312" y="70.948" fill="#662D91" width="8" height="87.052"/>
	<rect id="s64" x="291" y="70.948" fill="#662D91" width="8" height="73.565"/>
	<rect id="s63" x="267" y="17" fill="#662D91" width="8" height="141"/>
	<rect id="s62" x="246" y="17" fill="#666666" width="8" height="70.5"/>
	<rect id="s83" x="683" y="20" fill="#F7931E" width="8" height="106.23"/>
	<rect id="s82" x="663" y="73.689" fill="#F7931E" width="8" height="52.541"/>
	<rect id="s87" x="764" y="73.689" fill="#1B1464" width="8" height="52.541"/>
	<rect id="s88" x="784" y="73.689" fill="#1B1464" width="8" height="52.541"/>
	<rect id="s81" x="642" y="73.689" fill="#F7931E" width="8" height="52.541"/>
	<rect id="s61" x="27" y="172" fill="#666666" width="174" height="8"/>
	<rect id="s60" x="27" y="188" fill="#666666" width="174" height="8"/>
	<rect id="s59" x="27" y="203" fill="#666666" width="174" height="8"/>
	<rect id="s58" x="27" y="218" fill="#666666" width="174" height="8"/>
	<rect id="s48" x="27" y="371" fill="#0071BC" width="174" height="8"/>
	<rect id="s47" x="27" y="387" fill="#0071BC" width="174" height="8"/>
	<rect id="s46" x="26.5" y="402.5" fill="#0071BC" width="162" height="8"/>
	<g id="s57">
		<rect x="27" y="233" fill="#C1272D" width="111" height="8"/>
		<rect x="148" y="233" fill="#C1272D" width="53" height="8"/>
	</g>
	<g id="s56">
		<rect x="27" y="248" fill="#C1272D" width="111" height="8"/>
		<rect x="148" y="248" fill="#C1272D" width="53" height="8"/>
	</g>
	<g id="s55">
		<rect x="27" y="263" fill="#C1272D" width="111" height="8"/>
		<rect x="148" y="263" fill="#C1272D" width="53" height="8"/>
	</g>
	<g id="s54">
		<rect x="27" y="279" fill="#C1272D" width="111" height="8"/>
		<rect x="148" y="279" fill="#C1272D" width="53" height="8"/>
	</g>
	<g id="s53">
		<rect x="27" y="294" fill="#C1272D" width="111" height="8"/>
		<rect x="148" y="294" fill="#C1272D" width="53" height="8"/>
	</g>
	<g id="s52">
		<rect x="27" y="310" fill="#009245" width="111" height="8"/>
		<rect x="148" y="310" fill="#009245" width="53" height="8"/>
	</g>
	<g id="s51">
		<rect x="27" y="325" fill="#009245" width="111" height="8"/>
		<rect x="148" y="325" fill="#009245" width="53" height="8"/>
	</g>
	<g id="s50">
		<rect x="27" y="341" fill="#009245" width="111" height="8"/>
		<rect x="148" y="341" fill="#009245" width="53" height="8"/>
	</g>
	<g id="s49">
		<rect x="27" y="355" fill="#009245" width="111" height="8"/>
		<rect x="148" y="355" fill="#009245" width="53" height="8"/>
	</g>
	<rect id="room214" x="582.5" y="365.439" fill="#29ABE2" stroke="#000000" stroke-miterlimit="10" width="76" height="58.061"/>
	<rect id="room215" x="510.5" y="337.5" fill="#29ABE2" stroke="#000000" stroke-miterlimit="10" width="72" height="68"/>
	<rect id="room219" x="413.333" y="259.5" fill="#29ABE2" stroke="#000000" stroke-miterlimit="10" width="59.167" height="38"/>
	<rect id="room217" x="532.5" y="259.5" fill="#29ABE2" stroke="#000000" stroke-miterlimit="10" width="50" height="39"/>
	<rect id="room216" x="532.5" y="298.5" fill="#29ABE2" stroke="#000000" stroke-miterlimit="10" width="50" height="38"/>
	<polygon id="room220" fill="#29ABE2" stroke="#000000" stroke-miterlimit="10" points="444.5,298 444.5,321.5 509.93,321.5 
		510.646,337.5 531.457,337.5 532.175,259.5 472.617,259.5 473.268,297.5 	"/>
	<rect id="CMC" x="658.5" y="259.5" fill="#1CB5A3" stroke="#000000" stroke-miterlimit="10" width="135" height="164"/>
	
		<rect id="CampbellCollection" x="793.5" y="183.5" fill="#93278F" stroke="#000000" stroke-miterlimit="10" width="107" height="240"/>
	<polygon id="quietArea2" fill="#E08B19" stroke="#000000" stroke-miterlimit="10" points="245.5,406 245.5,497.5 900.227,497.5 
		901,423.5 582.72,423.5 583.004,405.5 	"/>
	<g id="studyDesk">
		<ellipse fill="#11248E" stroke="#000000" stroke-miterlimit="10" cx="777.5" cy="44.422" rx="12.5" ry="17.514"/>
		<ellipse fill="#11248E" stroke="#000000" stroke-miterlimit="10" cx="658.5" cy="44.422" rx="12.5" ry="17.514"/>
		<ellipse fill="#11248E" stroke="#000000" stroke-miterlimit="10" cx="442" cy="44.422" rx="12.5" ry="17.514"/>
		<path fill="#11248E" stroke="#000000" stroke-miterlimit="10" d="M305.5,26.908c6.903,0,12.5,5.832,12.5,14.409
			c0,8.577-5.597,15.53-12.5,15.53S293,49.894,293,41.317C293,32.74,298.597,26.908,305.5,26.908z"/>
	</g>
	<polygon id="studyArea2" fill="#23B21F" stroke="#000000" stroke-miterlimit="10" points="777.5,192 777.5,252 399,252 399,398.5 
		287,398.5 287,192 	"/>
</g>

</svg>
