<?xml version="1.0" encoding="iso-8859-1"?>
<!-- Generator: Adobe Illustrator 16.0.4, SVG Export Plug-In . SVG Version: 6.00 Build 0)  -->
<!DOCTYPE svg PUBLIC "-//W3C//DTD SVG 1.1//EN" "http://www.w3.org/Graphics/SVG/1.1/DTD/svg11.dtd">
<svg version="1.1" id="&#x56FE;&#x5C42;_1" xmlns="http://www.w3.org/2000/svg" xmlns:xlink="http://www.w3.org/1999/xlink" x="0px"
	 y="0px" width="885px" height="510px" viewBox="0 0 885 510" style="enable-background:new 0 0 885 510;" xml:space="preserve">

<g id="active">
	<rect id="room120" x="591.5" y="378.5" style="fill:#73DAFF;stroke:#000000;stroke-miterlimit:10;" width="58" height="32"/>
	<rect id="room121" x="591.5" y="345.5" style="fill:#73DAFF;stroke:#000000;stroke-miterlimit:10;" width="58" height="32"/>
	<rect id="office" x="544.5" y="345.5" style="fill:#828287;stroke:#000000;stroke-miterlimit:10;" width="47" height="54"/>
	<rect id="office_1_" x="497.5" y="369.5" style="fill:#828287;stroke:#000000;stroke-miterlimit:10;" width="47" height="41"/>
	<rect id="office_2_" x="607.5" y="258.5" style="fill:#828287;stroke:#000000;stroke-miterlimit:10;" width="42" height="50"/>
	<rect id="DrexelPrinter" x="607.5" y="308.5" style="fill:none;stroke:#000000;stroke-miterlimit:10;" width="42" height="37"/>

		<rect id="LibraryInstructionLab" x="387.5" y="221.5" style="fill:none;stroke:#000000;stroke-miterlimit:10;" width="177" height="98"/>
	<rect x="564.5" y="263.5" style="fill:none;stroke:#000000;stroke-miterlimit:10;" width="43" height="82"/>
	<rect id="computerArea" x="648.5" y="221.5" style="fill:#45FFE2;" width="154" height="189"/>
	<g id="shelf">
		<polygon style="fill:none;stroke:#000000;stroke-miterlimit:10;" points="133.5,430.5 9.5,430.5 9.5,151.5 133.5,151.5
			133.5,262.5 		"/>
        <g id="referenceBook">
            <rect  x="725.5" y="41.5" style="fill:#6A18B2;" width="4" height="82"/>
            <rect  x="734.5" y="41.5" style="fill:#6A18B2;" width="4" height="82"/>
            <rect  x="742.5" y="41.5" style="fill:#6A18B2;" width="4" height="82"/>
            <rect  x="749.5" y="41.5" style="fill:#6A18B2;" width="4" height="82"/>
            <rect  x="756.5" y="41.5" style="fill:#6A18B2;" width="4" height="82"/>
        </g>
		<g id="newspaperIndex">
            <rect x="516.5" y="147.5" style="fill:#0E8C56;" width="4" height="32"/>
		    <rect x="526.5" y="147.5" style="fill:#0E8C56;" width="4" height="32"/>
		</g>
		<g id="reference">
            <rect x="454.5" y="184.5" style="fill:#0A877D;" width="54" height="4"/>
		    <rect x="454.5" y="215.5" style="fill:#0A877D;" width="110" height="4"/>
		</g>

        <g id="mediaCollection">
            <rect x="750.5" y="435.5" style="fill:#ED1C24;stroke:#000000;stroke-miterlimit:10;" width="84" height="4"/>

			<rect x="750.5" y="442.5" style="fill:#ED1C24;stroke:#000000;stroke-miterlimit:10;" width="84" height="4"/>
        </g>

		<g id="periodicals">
			<rect x="737.5" y="447.5" style="fill:#C1272D;stroke:#000000;stroke-miterlimit:10;" width="5" height="49"/>
			<rect x="652.5" y="447.5" style="fill:#C1272D;stroke:#000000;stroke-miterlimit:10;" width="5" height="49"/>
			<rect x="554.5" y="447.5" style="fill:#C1272D;stroke:#000000;stroke-miterlimit:10;" width="5" height="49"/>
			<rect x="456.5" y="447.5" style="fill:#C1272D;stroke:#000000;stroke-miterlimit:10;" width="5" height="49"/>
		</g>
		<g id="mathAndCs">
			<rect  x="20" y="405" style="fill:#001473;" width="97" height="4"/>
			<rect  x="20" y="398" style="fill:#001473;" width="97" height="4"/>
			<rect  x="20" y="390" style="fill:#001473;" width="97" height="4"/>
			<rect  x="20" y="383" style="fill:#001473;" width="97" height="4"/>
			<rect  x="20" y="376" style="fill:#001473;" width="97" height="4"/>
			<rect  x="20" y="369" style="fill:#001473;" width="97" height="4"/>
			<rect  x="20" y="413" style="fill:#001473;" width="97" height="4"/>
		</g>
		<g id="physics">
			<rect x="20" y="339" style="fill:#015C00;" width="97" height="5"/>
			<rect x="20" y="347" style="fill:#015C00;" width="97" height="5"/>
			<rect x="20" y="353" style="fill:#015C00;" width="97" height="5"/>
			<rect x="20" y="361" style="fill:#015C00;" width="97" height="5"/>
		</g>
		<g id="chemistry">
			<rect x="20" y="316" style="fill:#D8200E;" width="97" height="3"/>
			<rect x="20" y="302" style="fill:#D8200E;" width="97" height="3"/>
			<rect x="20" y="310" style="fill:#D8200E;" width="97" height="3"/>
			<rect x="20" y="323" style="fill:#D8200E;" width="97" height="3"/>
			<rect x="20" y="332" style="fill:#D8200E;" width="97" height="3"/>
		</g>
		<g id="biology">
			<rect x="20" y="278" style="fill:#3B3D5B;" width="97" height="3"/>
			<rect x="20" y="286" style="fill:#3B3D5B;" width="97" height="3"/>
			<rect x="20" y="294" style="fill:#3B3D5B;" width="97" height="3"/>
		</g>
		<rect id="s110" x="20" y="271" style="fill:#7000B9;" width="97" height="3"/>
		<g id="zoology">
			<rect x="20" y="256" style="fill:#FFEC17;" width="97" height="3"/>
			<rect x="20" y="264" style="fill:#FFEC17;" width="97" height="3"/>
		</g>
		<rect id="s113" x="20" y="249" style="fill:#003CD0;" width="97" height="3"/>
		<rect id="s114" x="20" y="241" style="fill:#003CD0;" width="97" height="3"/>
		<rect id="s115" x="20" y="234" style="fill:#003CD0;" width="97" height="3"/>
		<rect id="s116" x="20" y="227" style="fill:#003CD0;" width="97" height="3"/>
		<rect id="s117" x="20" y="219" style="fill:#003CD0;" width="97" height="3"/>
		<rect id="s118" x="20" y="212" style="fill:#FF8000;" width="97" height="3"/>
		<rect id="s119" x="20" y="204" style="fill:#FF8000;" width="97" height="3"/>
		<rect id="s120" x="20" y="197" style="fill:#FF8000;" width="97" height="3"/>
		<rect id="s121" x="20" y="190" style="fill:#FF8000;" width="97" height="3"/>
		<rect id="s122" x="20" y="182" style="fill:#B90043;" width="97" height="3"/>
		<rect id="s123" x="20" y="175" style="fill:#255C00;" width="97" height="3"/>
		<rect id="s124" x="20" y="167" style="fill:#255C00;" width="97" height="3"/>
		<rect id="atlases" x="607.5" y="253.5" style="fill:#1313BA;" width="41" height="5"/>
		<g id="&#x536B;&#x751F;&#x95F4;">
		</g>
	</g>
	<polygon id="microform" style="fill:none;stroke:#000000;stroke-miterlimit:10;" points="268.5,405.5 232.5,405.5 232.5,431
		134.5,430.5 134.5,264.5 268.5,264.5 	"/>
	<g id="computers">
		<rect id="dc1" x="691.25" y="394" style="fill:#E6E700;" width="8.5" height="12.5"/>
		<rect id="dc3" x="691.25" y="358" style="fill:#E6E700;" width="8.5" height="12.5"/>
		<rect id="dc4" x="691.25" y="340" style="fill:#E6E700;" width="8.5" height="12.5"/>
		<rect id="dc5" x="691.25" y="318.25" style="fill:#E6E700;" width="8.5" height="12.5"/>
		<rect id="dc6" x="691.25" y="300.25" style="fill:#E6E700;" width="8.5" height="12.5"/>
		<rect id="dc10" x="691.25" y="225.25" style="fill:#E6E700;" width="8.5" height="12.5"/>
		<rect id="dc9" x="691.25" y="242.25" style="fill:#E6E700;" width="8.5" height="12.5"/>
		<rect id="dc8" x="691.25" y="264.25" style="fill:#E6E700;" width="8.5" height="12.5"/>
		<rect id="dc7" x="691.25" y="281.75" style="fill:#E6E700;" width="8.5" height="12.5"/>
		<rect id="dc2" x="691.25" y="375.25" style="fill:#E6E700;" width="8.5" height="12.5"/>
		<rect id="dc20" x="709.415" y="394.125" style="fill:#E6E700;" width="8.5" height="12.5"/>
		<rect id="dc18" x="709.415" y="358.125" style="fill:#E6E700;" width="8.5" height="12.5"/>
		<rect id="dc17" x="709.415" y="340.125" style="fill:#E6E700;" width="8.5" height="12.5"/>
		<rect id="dc16" x="709.415" y="318.375" style="fill:#E6E700;" width="8.5" height="12.5"/>
		<rect id="dc15" x="709.415" y="300.375" style="fill:#E6E700;" width="8.5" height="12.5"/>
		<rect id="dc11" x="709.415" y="225.375" style="fill:#E6E700;" width="8.5" height="12.5"/>
		<rect id="dc12" x="709.415" y="242.375" style="fill:#E6E700;" width="8.5" height="12.5"/>
		<rect id="dc13" x="709.415" y="264.375" style="fill:#E6E700;" width="8.5" height="12.5"/>
		<rect id="dc14" x="709.415" y="281.875" style="fill:#E6E700;" width="8.5" height="12.5"/>
		<rect id="dc19" x="709.415" y="375.375" style="fill:#E6E700;" width="8.5" height="12.5"/>
		<rect id="dc21" x="737.167" y="394.062" style="fill:#E6E700;" width="8.5" height="12.5"/>
		<rect id="dc23" x="737.167" y="358.062" style="fill:#E6E700;" width="8.5" height="12.5"/>
		<rect id="dc24" x="737.167" y="340.062" style="fill:#E6E700;" width="8.5" height="12.5"/>
		<rect id="dc25" x="737.167" y="318.312" style="fill:#E6E700;" width="8.5" height="12.5"/>
		<rect id="dc26" x="737.167" y="300.312" style="fill:#E6E700;" width="8.5" height="12.5"/>
		<rect id="dc30" x="737.167" y="225.312" style="fill:#E6E700;" width="8.5" height="12.5"/>
		<rect id="dc29" x="737.167" y="242.312" style="fill:#E6E700;" width="8.5" height="12.5"/>
		<rect id="dc28" x="737.167" y="264.312" style="fill:#E6E700;" width="8.5" height="12.5"/>
		<rect id="dc27" x="737.167" y="281.812" style="fill:#E6E700;" width="8.5" height="12.5"/>
		<rect id="dc22" x="737.167" y="375.312" style="fill:#E6E700;" width="8.5" height="12.5"/>
		<rect id="dc40" x="755.332" y="394.188" style="fill:#E6E700;" width="8.5" height="12.5"/>
		<rect id="dc38" x="755.332" y="358.188" style="fill:#E6E700;" width="8.5" height="12.5"/>
		<rect id="dc37" x="755.332" y="340.188" style="fill:#E6E700;" width="8.5" height="12.5"/>
		<rect id="dc36" x="755.332" y="318.438" style="fill:#E6E700;" width="8.5" height="12.5"/>
		<rect id="dc35" x="755.332" y="300.438" style="fill:#E6E700;" width="8.5" height="12.5"/>
		<rect id="dc31" x="755.332" y="225.438" style="fill:#E6E700;" width="8.5" height="12.5"/>
		<rect id="dc32" x="755.332" y="242.438" style="fill:#E6E700;" width="8.5" height="12.5"/>
		<rect id="dc33" x="755.332" y="264.438" style="fill:#E6E700;" width="8.5" height="12.5"/>
		<rect id="dc34" x="755.332" y="281.938" style="fill:#E6E700;" width="8.5" height="12.5"/>
		<rect id="dc39" x="755.332" y="375.438" style="fill:#E6E700;" width="8.5" height="12.5"/>
		<rect id="dc46" x="783.08" y="297.25" style="fill:#E6E700;" width="8.5" height="12.5"/>
		<rect id="dc47" x="783.08" y="278.938" style="fill:#E6E700;" width="8.5" height="12.5"/>
		<rect id="dc48" x="783.08" y="260.25" style="fill:#E6E700;" width="8.5" height="12.5"/>
		<rect id="dc45" x="783.413" y="323.75" style="fill:#E6E700;" width="8.5" height="12.5"/>
		<rect id="dc44" x="783.413" y="342" style="fill:#E6E700;" width="8.5" height="12.5"/>
		<rect id="dc43" x="783.413" y="359" style="fill:#E6E700;" width="8.5" height="12.5"/>
		<rect id="dc42" x="783.08" y="376.438" style="fill:#E6E700;" width="8.5" height="12.5"/>
		<rect id="dc41" x="783.08" y="394.188" style="fill:#E6E700;" width="8.5" height="12.5"/>
	</g>
	<g id="scanner">
		<rect x="783.08" y="225.688" style="fill:#FF8345;" width="8.5" height="12.5"/>
		<rect x="783.08" y="242.251" style="fill:#FF8345;" width="8.5" height="12.5"/>
	</g>
</g>
<g id="outter">
	<polyline style="fill:none;stroke:#000000;stroke-miterlimit:10;" points="803,6.5 218.298,6.5 218.8,100.5 	"/>
	<rect id="stair" x="564.5" y="147.5" style="fill:none;stroke:#000000;stroke-miterlimit:10;" width="130" height="35"/>
	<rect id="stair_1_" x="94.5" y="100.5" style="fill:none;stroke:#000000;stroke-miterlimit:10;" width="125" height="50"/>
	<rect id="stair_2_" x="804.5" y="6.5" style="fill:none;stroke:#000000;stroke-miterlimit:10;" width="72" height="87"/>
	<rect id="stair_3_" x="269.5" y="238.5" style="fill:none;stroke:#000000;stroke-miterlimit:10;" width="48" height="119"/>
	<rect id="elevator" x="454.5" y="147.5" style="fill:none;stroke:#000000;stroke-miterlimit:10;" width="54" height="32"/>
	<path style="fill:none;stroke:#000000;stroke-miterlimit:10;" d="M268.682,405.5l1.856,97H857.5V143c0,0-124.164-12-107.083,65"/>
	<g id="&#x536B;&#x751F;&#x95F4;_1_">
		<g>
			<rect x="424.163" y="349.604" style="fill:none;stroke:#000000;" width="36.086" height="27.191"/>
			<g>
				<path style="fill:#231815;stroke:#000000;" d="M460.249,372.506c0,2.365-2.55,4.289-5.69,4.289h-24.706
					c-3.141,0-5.689-1.924-5.689-4.289v-18.62c0-2.366,2.549-4.282,5.689-4.282h24.706c3.142,0,5.69,1.916,5.69,4.282V372.506z"/>
				<g>
					<polygon style="fill:#FFFFFF;stroke:#000000;" points="441.618,351.633 441.618,373.604 428.26,373.604 428.26,356.456
						"/>
					<polygon style="fill:#FFFFFF;stroke:#000000;" points="443.116,351.633 443.116,373.604 456.469,373.604 456.469,356.456
						"/>
					<g>
						<g>
							<polygon style="fill:#231815;stroke:#000000;" points="433.192,358.401 436.935,358.401 440.358,364.75 439.677,365.097
								436.819,361.108 436.559,361.312 439.558,367.378 436.612,367.378 435.666,372.664 434.476,372.664 433.527,367.378
								430.584,367.378 433.628,361.435 433.32,361.108 430.47,365.097 429.781,364.75 							"/>
							<path style="fill:#231815;stroke:#000000;" d="M437.114,356.392c0,0.891-0.96,1.611-2.139,1.611s-2.134-0.722-2.134-1.611
								c0-0.884,0.955-1.607,2.134-1.607C436.154,354.783,437.114,355.508,437.114,356.392z"/>
							<path style="fill:#231815;stroke:#000000;" d="M451.523,356.392c0,0.891-0.961,1.611-2.138,1.611
								c-1.185,0-2.142-0.722-2.142-1.611c0-0.884,0.957-1.607,2.142-1.607C450.562,354.783,451.523,355.508,451.523,356.392z"/>
						</g>
						<polygon style="fill:#231815;stroke:#000000;" points="446.311,358.401 452.171,358.401 453.49,358.986 453.49,366.439
							452.352,366.439 452.352,361.246 451.435,361.246 451.435,372.664 449.966,372.664 449.527,368.306 449.037,368.306
							448.642,372.664 447.088,372.664 447.088,361.246 446.179,361.246 446.17,366.439 445.045,366.439 445.045,359.138 						"/>
					</g>
				</g>
			</g>
		</g>
	</g>
	<g id="&#x513F;&#x7AE5;">
		<g>
			<g>
				<g>
					<polygon style="fill:#231815;stroke:#000000;stroke-width:0.373;" points="475.881,155.862 471.414,163.704 473.718,163.669
						478.171,156.105 					"/>
					<polygon style="fill:#231815;stroke:#000000;stroke-width:0.373;" points="485.138,155.862 489.565,163.697 487.265,163.686
						482.847,156.105 					"/>
					<polygon style="fill:#231815;stroke:#000000;stroke-width:0.373;" points="477.315,167.76 477.315,156.049 483.692,156.049
						483.692,168.143 483.689,168.143 483.689,178.323 481.429,178.323 481.429,168.065 479.562,168.065 479.562,178.323
						477.304,178.323 477.304,167.76 					"/>
					<g>
						<ellipse style="fill:#231815;stroke:#000000;stroke-width:0.373;" cx="480.59" cy="153.227" rx="2.754" ry="2.82"/>
					</g>
				</g>
			</g>
			<g>
				<g>
					<polygon style="fill:#231815;stroke:#000000;stroke-width:0.373;" points="459.744,155.862 455.278,163.704 457.582,163.669
						462.033,156.105 					"/>
					<polygon style="fill:#231815;stroke:#000000;stroke-width:0.373;" points="469.001,155.862 473.456,163.682 471.141,163.709
						466.711,156.105 					"/>
					<polygon style="fill:#231815;stroke:#000000;stroke-width:0.373;" points="461.179,167.76 461.179,156.049 467.555,156.049
						467.555,168.143 467.554,168.143 467.554,178.323 465.292,178.323 465.292,168.065 463.429,168.065 463.429,178.323
						461.168,178.323 461.168,167.76 					"/>
					<g>
						<ellipse style="fill:#231815;stroke:#000000;stroke-width:0.373;" cx="464.455" cy="153.227" rx="2.753" ry="2.82"/>
					</g>
				</g>
			</g>
			<g>
				<g>
					<polygon style="fill:#231815;stroke:#000000;stroke-width:0.373;" points="491.628,155.862 487.513,163.664 489.821,163.669
						493.918,156.105 					"/>
					<polygon style="fill:#231815;stroke:#000000;stroke-width:0.373;" points="500.885,155.862 505.351,163.704 503.047,163.669
						498.596,156.105 					"/>
					<polygon style="fill:#231815;stroke:#000000;stroke-width:0.373;" points="493.062,167.76 493.062,156.049 499.439,156.049
						499.439,168.143 499.438,168.143 499.438,178.323 497.176,178.323 497.176,168.065 495.312,168.065 495.312,178.323
						493.051,178.323 493.051,167.76 					"/>
					<g>
						<ellipse style="fill:#231815;stroke:#000000;stroke-width:0.373;" cx="496.339" cy="153.227" rx="2.754" ry="2.82"/>
					</g>
				</g>
			</g>
		</g>
		<g id="&#x7BAD;&#x5934;_4">
			<g>
				<g>
					<polygon style="stroke:#000000;stroke-miterlimit:10;" points="488.251,129.629 483.444,129.629 489.498,144.051
						495.564,129.629 490.758,129.629 490.758,121 488.251,121 					"/>
				</g>
			</g>
			<g>
				<g>
					<polygon style="stroke:#000000;stroke-miterlimit:10;" points="468.83,135.421 464.023,135.421 470.077,121 476.145,135.421
						471.336,135.421 471.336,144.051 468.83,144.051 					"/>
				</g>
			</g>
			<g>
				<g>
					<polygon style="stroke:#000000;stroke-miterlimit:10;" points="488.251,129.629 483.444,129.629 489.498,144.051
						495.564,129.629 490.758,129.629 490.758,121 488.251,121 					"/>
				</g>
			</g>
		</g>
	</g>
	<rect x="387.5" y="319.5" style="fill:none;stroke:#000000;stroke-miterlimit:10;" width="110" height="91"/>
</g>
</svg>
