<?xml version="1.0" encoding="utf-8"?>
<!-- Generator: Adobe Illustrator 16.0.4, SVG Export Plug-In . SVG Version: 6.00 Build 0)  -->
<!DOCTYPE svg PUBLIC "-//W3C//DTD SVG 1.1//EN" "http://www.w3.org/Graphics/SVG/1.1/DTD/svg11.dtd">
<svg version="1.1" id="DrexelFloor2" xmlns="http://www.w3.org/2000/svg" xmlns:xlink="http://www.w3.org/1999/xlink" x="0px"
	 y="0px" width="910px" height="510px" viewBox="0 0 915 510" enable-background="new 0 0 915 510" xml:space="preserve">
<g id="active">
	<rect id="s45" x="822" y="20" fill="#B20D4C" width="8" height="138"/>
	<rect id="s44" x="804" y="20" fill="#B20D4C" width="8" height="106.23"/>
	<rect id="s41" x="744" y="20" fill="#B20D4C" width="8" height="106.23"/>
	<rect id="s40" x="724" y="20" fill="#F7931E" width="8" height="106.23"/>
	<rect id="s39" x="704" y="20" fill="#F4EE21" width="8" height="106.23"/>
	<rect id="s35" x="624" y="20" fill="#F4EE21" width="8" height="106.23"/>
	<rect id="s34" x="603" y="20" fill="#2E2989" width="8" height="106.23"/>
	<rect id="s33" x="582" y="20" fill="#2E2989" width="8" height="106.23"/>
	<rect id="s32" x="562" y="20" fill="#2E2989" width="8" height="106.23"/>
	<rect id="s31" x="543" y="20" fill="#2E2989" width="8" height="106.23"/>
	<rect id="s30" x="525" y="20" fill="#2E2989" width="8" height="106.23"/>
	<rect id="s29" x="504" y="20" fill="#2D2F38" width="8" height="106.23"/>
	<rect id="s28" x="484" y="20" fill="#2D2F38" width="8" height="106.23"/>
	<rect id="s27" x="465" y="20" fill="#2D2F38" width="8" height="106.23"/>
	<rect id="s26" x="442" y="77.837" fill="#2D2F38" width="8" height="60.838"/>
	<rect id="s25" x="421" y="77.837" fill="#2D2F38" width="8" height="60.838"/>
	<rect id="s24" x="399" y="17" fill="#2D2F38" width="8" height="141"/>
	<rect id="s23" x="378" y="17" fill="#2D2F38" width="8" height="141"/>
	<rect id="s22" x="354" y="17" fill="#2D2F38" width="8" height="141"/>
	<rect id="s21" x="334" y="17" fill="#2D2F38" width="8" height="141"/>
	<rect id="s20" x="312" y="70.948" fill="#2D2F38" width="8" height="87.052"/>
	<rect id="s19" x="291" y="70.948" fill="#C1272D" width="8" height="73.565"/>
	<rect id="s18" x="267" y="17" fill="#C1272D" width="8" height="141"/>
	<rect id="s17" x="246" y="17" fill="#C1272D" width="8" height="70.5"/>
	<rect id="s38" x="683" y="20" fill="#F4EE21" width="8" height="106.23"/>
	<rect id="s37" x="663" y="73.689" fill="#F4EE21" width="8" height="52.541"/>
	<rect id="s42" x="764" y="73.689" fill="#B20D4C" width="8" height="52.541"/>
	<rect id="s43" x="784" y="73.689" fill="#B20D4C" width="8" height="52.541"/>
	<rect id="s36" x="642" y="73.689" fill="#F4EE21" width="8" height="52.541"/>
	<rect id="s16" x="27" y="168" fill="#C1272D" width="174" height="8"/>
	<rect id="s15" x="27" y="184" fill="#C1272D" width="174" height="8"/>
	<rect id="s14" x="27" y="199" fill="#C1272D" width="174" height="8"/>
	<rect id="s13" x="27" y="214" fill="#C1272D" width="174" height="8"/>
	<rect id="s3" x="27" y="367" fill="#13277A" width="174" height="8"/>
	<rect id="s2" x="27" y="383" fill="#E84D10" width="174" height="8"/>
	<rect id="s1" x="26.5" y="398.5" fill="#E84D10" width="162" height="8"/>
	<g id="s12">
		<rect x="27" y="229" fill="#C1272D" width="111" height="8"/>
		<rect x="148" y="229" fill="#C1272D" width="53" height="8"/>
	</g>
	<g id="s11">
		<rect x="27" y="244" fill="#C1272D" width="111" height="8"/>
		<rect x="148" y="244" fill="#C1272D" width="53" height="8"/>
	</g>
	<g id="s10">
		<rect x="27" y="259" fill="#056832" width="111" height="8"/>
		<rect x="148" y="259" fill="#056832" width="53" height="8"/>
	</g>
	<g id="s9">
		<rect x="27" y="275" fill="#056832" width="111" height="8"/>
		<rect x="148" y="275" fill="#056832" width="53" height="8"/>
	</g>
	<g id="s8">
		<rect x="27" y="290" fill="#056832" width="111" height="8"/>
		<rect x="148" y="290" fill="#056832" width="53" height="8"/>
	</g>
	<g id="s7">
		<rect x="27" y="306" fill="#056832" width="111" height="8"/>
		<rect x="148" y="306" fill="#056832" width="53" height="8"/>
	</g>
	<g id="s6">
		<rect x="27" y="321" fill="#056832" width="111" height="8"/>
		<rect x="148" y="321" fill="#056832" width="53" height="8"/>
	</g>
	<g id="s5">
		<rect x="27" y="337" fill="#13277A" width="111" height="8"/>
		<rect x="148" y="337" fill="#13277A" width="53" height="8"/>
	</g>
	<g id="s4">
		<rect x="27" y="351" fill="#13277A" width="111" height="8"/>
		<rect x="148" y="351" fill="#13277A" width="53" height="8"/>
	</g>
</g>
<g id="outfit">
	<rect id="stair_3_" x="864.5" y="9.5" fill="none" stroke="#000000" stroke-miterlimit="10" width="36" height="91"/>
	<rect id="stair_4_" x="100.5" y="105.5" fill="none" stroke="#000000" stroke-miterlimit="10" width="137" height="47"/>
	<polyline fill="none" stroke="#000000" stroke-miterlimit="10" points="217.5,105 217.5,9.5 865,9.5 	"/>
	<polyline fill="none" stroke="#000000" stroke-miterlimit="10" points="100,152.5 13.5,152.5 13.5,427.5 246,427.5 245,228 
		271,201.88 474.5,202 	"/>
	<g>
		<g>
			<g>
				<g>
					<g>
						<polygon fill="#231815" stroke="#FFFFFF" stroke-width="0.3137" points="493.659,192.385 489.562,199.408 491.675,199.376 
							495.76,192.602 						"/>
						<polygon fill="#231815" stroke="#FFFFFF" stroke-width="0.3137" points="502.151,192.385 506.214,199.402 504.104,199.392 
							500.051,192.602 						"/>
						<polygon fill="#231815" stroke="#FFFFFF" stroke-width="0.3137" points="494.976,203.04 494.976,192.553 500.826,192.553 
							500.826,203.383 500.823,203.383 500.823,212.5 498.748,212.5 498.748,203.313 497.037,203.313 497.037,212.5 494.965,212.5 
							494.965,203.04 						"/>
						<g>
							<circle fill="#231815" stroke="#FFFFFF" stroke-width="0.3137" cx="497.979" cy="190.025" r="2.528"/>
						</g>
					</g>
				</g>
				<g>
					<g>
						<polygon fill="#231815" stroke="#FFFFFF" stroke-width="0.3137" points="478.855,192.385 474.76,205.408 476.871,205.376 
							480.956,192.602 						"/>
						<polygon fill="#231815" stroke="#FFFFFF" stroke-width="0.3137" points="513.955,192.706 518.04,205.479 520.151,205.512 
							516.056,192.488 						"/>
						<polygon fill="#231815" stroke="#FFFFFF" stroke-width="0.3137" points="487.347,192.385 491.438,199.388 489.311,199.412 
							485.247,192.602 						"/>
						<polygon fill="#231815" stroke="#FFFFFF" stroke-width="0.3137" points="480.172,203.04 480.172,192.553 486.021,192.553 
							486.021,203.383 486.02,203.383 486.02,212.5 483.945,212.5 483.945,203.313 482.235,203.313 482.235,212.5 480.16,212.5 
							480.16,203.04 						"/>
						<g>
							<circle fill="#231815" stroke="#FFFFFF" stroke-width="0.3137" cx="483.177" cy="190.025" r="2.527"/>
						</g>
					</g>
				</g>
				<g>
					<g>
						<polygon fill="#231815" stroke="#FFFFFF" stroke-width="0.3137" points="508.105,192.385 504.331,199.373 506.449,199.376 
							510.206,192.602 						"/>
						<polygon fill="#231815" stroke="#FFFFFF" stroke-width="0.3137" points="509.423,203.04 509.423,192.553 515.271,192.553 
							515.271,203.383 515.271,203.383 515.271,212.5 513.195,212.5 513.195,203.313 511.484,203.313 511.484,212.5 509.411,212.5 
							509.411,203.04 						"/>
						<g>
							<circle fill="#231815" stroke="#FFFFFF" stroke-width="0.3137" cx="512.427" cy="190.025" r="2.527"/>
						</g>
					</g>
				</g>
			</g>
			<path fill="#231815" stroke="#FFFFFF" stroke-miterlimit="10" d="M114-64"/>
			<rect x="474.5" y="183.5" fill="none" stroke="#000000" width="46" height="31"/>
			<g>
				<g>
					<g>
						<polygon points="486.917,169.83 490,169.83 486.117,158 482.227,169.83 485.31,169.83 485.31,180.5 486.917,180.5 						"/>
					</g>
				</g>
			</g>
			<g>
				<g>
					<g>
						<polygon points="507.018,158 505.41,158 505.41,168.67 502.327,168.67 506.218,180.5 510.101,168.67 507.018,168.67 						"/>
					</g>
				</g>
			</g>
		</g>
	</g>
	<g id="table">
		<ellipse fill="#FFFFFF" stroke="#000000" stroke-miterlimit="10" cx="777.5" cy="44.422" rx="12.5" ry="17.514"/>
		<ellipse fill="#FFFFFF" stroke="#000000" stroke-miterlimit="10" cx="658.5" cy="44.422" rx="12.5" ry="17.514"/>
		<ellipse fill="#FFFFFF" stroke="#000000" stroke-miterlimit="10" cx="440.5" cy="162.986" rx="12.5" ry="17.514"/>
		<ellipse fill="#FFFFFF" stroke="#000000" stroke-miterlimit="10" cx="295" cy="165.5" rx="12.5" ry="17.514"/>
		<ellipse fill="#FFFFFF" stroke="#000000" stroke-miterlimit="10" cx="442" cy="44.422" rx="12.5" ry="17.514"/>
		<path fill="#FFFFFF" stroke="#000000" stroke-miterlimit="10" d="M305.5,26.908c6.903,0,12.5,5.832,12.5,14.409
			c0,8.577-5.597,15.53-12.5,15.53S293,49.894,293,41.317C293,32.74,298.597,26.908,305.5,26.908z"/>
	</g>
	<polyline fill="none" stroke="#000000" stroke-miterlimit="10" points="520.5,185.498 864.5,185 864.5,100.5 	"/>

    <g id="stair">
        <g>
            <line fill="none" stroke="#000000" stroke-miterlimit="10" x1="126" y1="105.5" x2="126" y2="152.5"/>
            <line fill="none" stroke="#000000" stroke-miterlimit="10" x1="132.667" y1="105.5" x2="132.667" y2="152.5"/>
            <line fill="none" stroke="#000000" stroke-miterlimit="10" x1="140" y1="105.5" x2="140" y2="152.5"/>
            <line fill="none" stroke="#000000" stroke-miterlimit="10" x1="147" y1="105.5" x2="147" y2="152.5"/>
            <line fill="none" stroke="#000000" stroke-miterlimit="10" x1="154" y1="105.5" x2="154" y2="152.5"/>
            <line fill="none" stroke="#000000" stroke-miterlimit="10" x1="161.5" y1="105.5" x2="161.5" y2="152.5"/>
            <line fill="none" stroke="#000000" stroke-miterlimit="10" x1="169" y1="105.5" x2="169" y2="152.5"/>
            <line fill="none" stroke="#000000" stroke-miterlimit="10" x1="176" y1="105.5" x2="176" y2="152.5"/>
            <line fill="none" stroke="#000000" stroke-miterlimit="10" x1="183" y1="105.5" x2="183" y2="152.5"/>
            <line fill="none" stroke="#000000" stroke-miterlimit="10" x1="189.333" y1="105.5" x2="189.333" y2="152.5"/>
            <line fill="none" stroke="#000000" stroke-miterlimit="10" x1="196.333" y1="105.5" x2="196.333" y2="152.5"/>
            <line fill="none" stroke="#000000" stroke-miterlimit="10" x1="203.667" y1="105.5" x2="203.667" y2="152.5"/>
            <line fill="none" stroke="#000000" stroke-miterlimit="10" x1="210.333" y1="105.5" x2="210.333" y2="152.5"/>
            <polygon points="193.502,127.94 218.863,129.896 193.502,131.837 193.502,130.675 124.471,130.675 124.471,129.272
                193.502,129.272 		"/>
        </g>
        <g>
           <line fill="none" stroke="#000000" stroke-miterlimit="10" x1="864.5" y1="27.908" x2="900.5" y2="27.908"/>
            <line fill="none" stroke="#000000" stroke-miterlimit="10" x1="864.833" y1="34.878" x2="900.833" y2="34.878"/>
            <line fill="none" stroke="#000000" stroke-miterlimit="10" x1="864.5" y1="56.167" x2="900.5" y2="56.167"/>
            <line fill="none" stroke="#000000" stroke-miterlimit="10" x1="864.5" y1="48.847" x2="900.5" y2="48.847"/>
            <line fill="none" stroke="#000000" stroke-miterlimit="10" x1="864.5" y1="41.5" x2="900.5" y2="41.5"/>
            <line fill="none" stroke="#000000" stroke-miterlimit="10" x1="864.833" y1="63.689" x2="900.833" y2="63.689"/>
            <line fill="none" stroke="#000000" stroke-miterlimit="10" x1="864.833" y1="71.167" x2="900.833" y2="71.167"/>
            <line fill="none" stroke="#000000" stroke-miterlimit="10" x1="864.833" y1="78.167" x2="900.833" y2="78.167"/>
            <polygon points="883.609,69.752 882.607,88.029 881.611,69.752 882.207,69.752 882.207,20 882.926,20 882.926,69.752"/>
        </g>
    </g>
</g>
</svg>
