<?xml version="1.0" encoding="utf-8"?>
<!-- Generator: Adobe Illustrator 16.0.4, SVG Export Plug-In . SVG Version: 6.00 Build 0)  -->
<!DOCTYPE svg PUBLIC "-//W3C//DTD SVG 1.1//EN" "http://www.w3.org/Graphics/SVG/1.1/DTD/svg11.dtd">
<svg version="1.1" id="DrexelFloor2" xmlns="http://www.w3.org/2000/svg" xmlns:xlink="http://www.w3.org/1999/xlink" x="0px"
	 y="0px" width="915px" height="510px" viewBox="0 0 915 510" enable-background="new 0 0 915 510" xml:space="preserve">
<g id="active">
	<rect id="s90" x="822" y="20" fill="#1B1464" width="8" height="106.23"/>
	<rect id="s89" x="804" y="20" fill="#1B1464" width="8" height="106.23"/>
	<rect id="s86" x="744" y="20" fill="#1B1464" width="8" height="106.23"/>
	<rect id="s85" x="724" y="20" fill="#F7931E" width="8" height="106.23"/>
	<rect id="s84" x="704" y="20" fill="#F7931E" width="8" height="106.23"/>
	<rect id="s78" x="624" y="20" fill="#F7931E" width="8" height="106.23"/>
	<rect id="s79" x="603" y="20" fill="#F7931E" width="8" height="106.23"/>
	<rect id="s78_1_" x="582" y="20" fill="#006837" width="8" height="106.23"/>
	<rect id="s77" x="562" y="20" fill="#006837" width="8" height="106.23"/>
	<rect id="s76" x="543" y="20" fill="#006837" width="8" height="106.23"/>
	<rect id="s75" x="525" y="20" fill="#006837" width="8" height="106.23"/>
	<rect id="s74" x="504" y="20" fill="#006837" width="8" height="106.23"/>
	<rect id="s73" x="484" y="20" fill="#006837" width="8" height="106.23"/>
	<rect id="s72" x="465" y="20" fill="#006837" width="8" height="106.23"/>
	<rect id="s71" x="442" y="77.837" fill="#006837" width="8" height="60.838"/>
	<rect id="s70" x="421" y="77.837" fill="#006837" width="8" height="60.838"/>
	<rect id="s69" x="399" y="17" fill="#006837" width="8" height="141"/>
	<rect id="s68" x="378" y="17" fill="#FFFF00" width="8" height="141"/>
	<rect id="s67" x="354" y="17" fill="#FFFF00" width="8" height="141"/>
	<rect id="s66" x="334" y="17" fill="#662D91" width="8" height="141"/>
	<rect id="s65" x="312" y="70.948" fill="#662D91" width="8" height="87.052"/>
	<rect id="s64" x="291" y="70.948" fill="#662D91" width="8" height="73.565"/>
	<rect id="s63" x="267" y="17" fill="#662D91" width="8" height="141"/>
	<rect id="s62" x="246" y="17" fill="#666666" width="8" height="70.5"/>
	<rect id="s83" x="683" y="20" fill="#F7931E" width="8" height="106.23"/>
	<rect id="s82" x="663" y="73.689" fill="#F7931E" width="8" height="52.541"/>
	<rect id="s87" x="764" y="73.689" fill="#1B1464" width="8" height="52.541"/>
	<rect id="s88" x="784" y="73.689" fill="#1B1464" width="8" height="52.541"/>
	<rect id="s81" x="642" y="73.689" fill="#F7931E" width="8" height="52.541"/>
	<rect id="s61" x="27" y="168" fill="#666666" width="174" height="8"/>
	<rect id="s60" x="27" y="184" fill="#666666" width="174" height="8"/>
	<rect id="s59" x="27" y="199" fill="#666666" width="174" height="8"/>
	<rect id="s58" x="27" y="214" fill="#666666" width="174" height="8"/>
	<rect id="s48" x="27" y="367" fill="#0071BC" width="174" height="8"/>
	<rect id="s47" x="27" y="383" fill="#0071BC" width="174" height="8"/>
	<rect id="s46" x="26.5" y="398.5" fill="#0071BC" width="162" height="8"/>
	<g id="s57">
		<rect x="27" y="229" fill="#C1272D" width="111" height="8"/>
		<rect x="148" y="229" fill="#C1272D" width="53" height="8"/>
	</g>
	<g id="s56">
		<rect x="27" y="244" fill="#C1272D" width="111" height="8"/>
		<rect x="148" y="244" fill="#C1272D" width="53" height="8"/>
	</g>
	<g id="s55">
		<rect x="27" y="259" fill="#C1272D" width="111" height="8"/>
		<rect x="148" y="259" fill="#C1272D" width="53" height="8"/>
	</g>
	<g id="s54">
		<rect x="27" y="275" fill="#C1272D" width="111" height="8"/>
		<rect x="148" y="275" fill="#C1272D" width="53" height="8"/>
	</g>
	<g id="s53">
		<rect x="27" y="290" fill="#C1272D" width="111" height="8"/>
		<rect x="148" y="290" fill="#C1272D" width="53" height="8"/>
	</g>
	<g id="s52">
		<rect x="27" y="306" fill="#009245" width="111" height="8"/>
		<rect x="148" y="306" fill="#009245" width="53" height="8"/>
	</g>
	<g id="s51">
		<rect x="27" y="321" fill="#009245" width="111" height="8"/>
		<rect x="148" y="321" fill="#009245" width="53" height="8"/>
	</g>
	<g id="s50">
		<rect x="27" y="337" fill="#009245" width="111" height="8"/>
		<rect x="148" y="337" fill="#009245" width="53" height="8"/>
	</g>
	<g id="s49">
		<rect x="27" y="351" fill="#009245" width="111" height="8"/>
		<rect x="148" y="351" fill="#009245" width="53" height="8"/>
	</g>
	<rect id="room201" x="582.5" y="376.5" fill="#0071BC" stroke="#000000" stroke-miterlimit="10" width="76" height="47"/>
	<rect id="room202" x="510.5" y="337.5" fill="#0071BC" stroke="#000000" stroke-miterlimit="10" width="72" height="68"/>
	<rect id="room203" x="408.5" y="259.5" fill="#0071BC" stroke="#000000" stroke-miterlimit="10" width="64" height="34"/>
	<rect id="room204" x="532.5" y="259.5" fill="#0071BC" stroke="#000000" stroke-miterlimit="10" width="50" height="43"/>
	<rect id="room205" x="532.5" y="302.5" fill="#0071BC" stroke="#000000" stroke-miterlimit="10" width="50" height="35"/>
	<polygon id="room206" fill="#0071BC" stroke="#000000" stroke-miterlimit="10" points="444.5,294 444.5,321.5 509.93,321.5 
		510.646,337.5 531.457,337.5 532.175,259.5 472.617,259.5 473.268,293.5 	"/>
	
		<rect id="CurriculumCenter" x="658.5" y="259.5" fill="#93278F" stroke="#000000" stroke-miterlimit="10" width="135" height="164"/>
	
		<rect id="CampbellCollection" x="828.5" y="183.5" fill="#93278F" stroke="#000000" stroke-miterlimit="10" width="72" height="140"/>
	<polygon id="quietArea2" fill="#E08B19" stroke="#000000" stroke-miterlimit="10" points="245.5,406 245.5,497.5 900.227,497.5 
		901,423.5 582.72,423.5 583.004,405.5 	"/>
</g>
<g id="outfit">
	<rect id="stair" x="858.5" y="324.5" fill="none" stroke="#000000" stroke-miterlimit="10" width="42" height="99"/>
	<rect id="stair_1_" x="588.5" y="186.5" fill="none" stroke="#000000" stroke-miterlimit="10" width="119" height="35"/>
	<rect id="stair_2_" x="245.5" y="247.5" fill="none" stroke="#000000" stroke-miterlimit="10" width="31" height="93"/>
	<rect id="stair_3_" x="864.5" y="9.5" fill="none" stroke="#000000" stroke-miterlimit="10" width="36" height="91"/>
	<rect id="stair_4_" x="100.5" y="105.5" fill="none" stroke="#000000" stroke-miterlimit="10" width="137" height="47"/>
	<rect id="toilet" x="408.5" y="321.5" fill="none" stroke="#000000" stroke-miterlimit="10" width="102" height="84"/>
	<polyline fill="none" stroke="#000000" stroke-miterlimit="10" points="217.5,105 217.5,10.5 865,10.5 	"/>
	<polyline fill="none" stroke="#000000" stroke-miterlimit="10" points="100,152.5 13.5,152.5 13.5,427.5 246,427.5 	"/>
	<g id="卫生间">
		<g>
			<rect x="446.518" y="353.602" fill="none" width="24.815" height="24.731"/>
			<g>
				<path fill="#231815" d="M471.333,374.431c0,2.151-1.754,3.902-3.912,3.902H450.43c-2.16,0-3.912-1.751-3.912-3.902v-16.935
					c0-2.151,1.752-3.896,3.912-3.896h16.991c2.158,0,3.912,1.743,3.912,3.896V374.431z"/>
				<g>
					<polygon fill="#FFFFFF" points="458.521,355.448 458.521,375.431 449.334,375.431 449.334,359.834 					"/>
					<polygon fill="#FFFFFF" points="459.551,355.448 459.551,375.431 468.734,375.431 468.734,359.834 					"/>
					<g>
						<g>
							<polygon fill="#231815" points="452.726,361.604 455.3,361.604 457.654,367.378 457.186,367.693 455.222,364.066 
								455.041,364.252 457.104,369.768 455.078,369.768 454.428,374.575 453.609,374.575 452.957,369.768 450.933,369.768 
								453.027,364.362 452.814,364.066 450.855,367.693 450.38,367.378 							"/>
							<path fill="#231815" d="M455.424,359.775c0,0.81-0.661,1.466-1.471,1.466c-0.812,0-1.467-0.656-1.467-1.466
								c0-0.806,0.653-1.466,1.467-1.466C454.763,358.312,455.424,358.973,455.424,359.775z"/>
							<path fill="#231815" d="M465.332,359.775c0,0.81-0.66,1.466-1.469,1.466c-0.814,0-1.475-0.656-1.475-1.466
								c0-0.806,0.657-1.466,1.475-1.466C464.672,358.312,465.332,358.973,465.332,359.775z"/>
						</g>
						<polygon fill="#231815" points="461.746,361.604 465.778,361.604 466.686,362.137 466.686,368.914 465.903,368.914 
							465.903,364.19 465.271,364.19 465.271,374.575 464.261,374.575 463.961,370.611 463.623,370.611 463.352,374.575 
							462.283,374.575 462.283,364.19 461.657,364.19 461.65,368.914 460.877,368.914 460.877,362.273 						"/>
					</g>
				</g>
			</g>
		</g>
		<g id="儿童">
			<g>
				<g>
					<g>
						<polygon fill="#231815" stroke="#FFFFFF" stroke-width="0.3137" points="493.659,198.385 489.562,205.408 491.675,205.376 
							495.76,198.602 						"/>
						<polygon fill="#231815" stroke="#FFFFFF" stroke-width="0.3137" points="502.151,198.385 506.214,205.402 504.104,205.392 
							500.051,198.602 						"/>
						<polygon fill="#231815" stroke="#FFFFFF" stroke-width="0.3137" points="494.976,209.04 494.976,198.553 500.826,198.553 
							500.826,209.383 500.823,209.383 500.823,218.5 498.748,218.5 498.748,209.313 497.037,209.313 497.037,218.5 494.965,218.5 
							494.965,209.04 						"/>
						<g>
							<circle fill="#231815" stroke="#FFFFFF" stroke-width="0.3137" cx="497.979" cy="196.025" r="2.528"/>
						</g>
					</g>
				</g>
				<g>
					<g>
						<polygon fill="#231815" stroke="#FFFFFF" stroke-width="0.3137" points="478.855,198.385 474.76,205.408 476.871,205.376 
							480.956,198.602 						"/>
						<polygon fill="#231815" stroke="#FFFFFF" stroke-width="0.3137" points="487.347,198.385 491.438,205.388 489.311,205.412 
							485.247,198.602 						"/>
						<polygon fill="#231815" stroke="#FFFFFF" stroke-width="0.3137" points="480.172,209.04 480.172,198.553 486.021,198.553 
							486.021,209.383 486.02,209.383 486.02,218.5 483.945,218.5 483.945,209.313 482.235,209.313 482.235,218.5 480.16,218.5 
							480.16,209.04 						"/>
						<g>
							<circle fill="#231815" stroke="#FFFFFF" stroke-width="0.3137" cx="483.177" cy="196.025" r="2.527"/>
						</g>
					</g>
				</g>
				<g>
					<g>
						<polygon fill="#231815" stroke="#FFFFFF" stroke-width="0.3137" points="508.105,198.385 504.331,205.373 506.449,205.376 
							510.206,198.602 						"/>
						<polygon fill="#231815" stroke="#FFFFFF" stroke-width="0.3137" points="516.599,198.385 520.694,205.408 518.582,205.376 
							514.498,198.602 						"/>
						<polygon fill="#231815" stroke="#FFFFFF" stroke-width="0.3137" points="509.423,209.04 509.423,198.553 515.271,198.553 
							515.271,209.383 515.271,209.383 515.271,218.5 513.195,218.5 513.195,209.313 511.484,209.313 511.484,218.5 509.411,218.5 
							509.411,209.04 						"/>
						<g>
							<circle fill="#231815" stroke="#FFFFFF" stroke-width="0.3137" cx="512.427" cy="196.025" r="2.527"/>
						</g>
					</g>
				</g>
			</g>
			<path fill="#231815" stroke="#FFFFFF" stroke-miterlimit="10" d="M114-64"/>
			<rect x="474.5" y="189.5" fill="none" stroke="#000000" width="46" height="31"/>
			<g>
				<g>
					<g>
						<polygon points="486.917,175.83 490,175.83 486.117,158 482.227,175.83 485.31,175.83 485.31,186.5 486.917,186.5 						"/>
					</g>
				</g>
				<g>
					<g>
						<polygon points="503.936,168.67 507.02,168.67 503.136,186.5 499.245,168.67 502.328,168.67 502.328,158 503.936,158 						
							"/>
					</g>
				</g>
			</g>
		</g>
	</g>
	<g id="table">
		<ellipse fill="#FFFFFF" stroke="#000000" stroke-miterlimit="10" cx="777.5" cy="44.422" rx="12.5" ry="17.514"/>
		<ellipse fill="#FFFFFF" stroke="#000000" stroke-miterlimit="10" cx="658.5" cy="44.422" rx="12.5" ry="17.514"/>
		<ellipse fill="#FFFFFF" stroke="#000000" stroke-miterlimit="10" cx="440.5" cy="162.986" rx="12.5" ry="17.514"/>
		<ellipse fill="#FFFFFF" stroke="#000000" stroke-miterlimit="10" cx="299" cy="180.5" rx="12.5" ry="17.514"/>
		<ellipse fill="#FFFFFF" stroke="#000000" stroke-miterlimit="10" cx="442" cy="44.422" rx="12.5" ry="17.514"/>
		<path fill="#FFFFFF" stroke="#000000" stroke-miterlimit="10" d="M305.5,26.908c6.903,0,12.5,5.832,12.5,14.409
			c0,8.577-5.597,15.53-12.5,15.53S293,49.894,293,41.317C293,32.74,298.597,26.908,305.5,26.908z"/>
	</g>
	<g id="stair_5_">
		<g>
			<line fill="none" stroke="#000000" stroke-miterlimit="10" x1="126" y1="105.5" x2="126" y2="152.5"/>
			<line fill="none" stroke="#000000" stroke-miterlimit="10" x1="132.667" y1="105.5" x2="132.667" y2="152.5"/>
			<line fill="none" stroke="#000000" stroke-miterlimit="10" x1="140" y1="105.5" x2="140" y2="152.5"/>
			<line fill="none" stroke="#000000" stroke-miterlimit="10" x1="147" y1="105.5" x2="147" y2="152.5"/>
			<line fill="none" stroke="#000000" stroke-miterlimit="10" x1="154" y1="105.5" x2="154" y2="152.5"/>
			<line fill="none" stroke="#000000" stroke-miterlimit="10" x1="161.5" y1="105.5" x2="161.5" y2="152.5"/>
			<line fill="none" stroke="#000000" stroke-miterlimit="10" x1="169" y1="105.5" x2="169" y2="152.5"/>
			<line fill="none" stroke="#000000" stroke-miterlimit="10" x1="176" y1="105.5" x2="176" y2="152.5"/>
			<line fill="none" stroke="#000000" stroke-miterlimit="10" x1="183" y1="105.5" x2="183" y2="152.5"/>
			<line fill="none" stroke="#000000" stroke-miterlimit="10" x1="189.333" y1="105.5" x2="189.333" y2="152.5"/>
			<line fill="none" stroke="#000000" stroke-miterlimit="10" x1="196.333" y1="105.5" x2="196.333" y2="152.5"/>
			<line fill="none" stroke="#000000" stroke-miterlimit="10" x1="203.667" y1="105.5" x2="203.667" y2="152.5"/>
			<line fill="none" stroke="#000000" stroke-miterlimit="10" x1="210.333" y1="105.5" x2="210.333" y2="152.5"/>
			<polygon points="193.502,127.94 218.863,129.896 193.502,131.837 193.502,130.675 124.471,130.675 124.471,129.272 
				193.502,129.272 			"/>
		</g>
		<g>
			<line fill="none" stroke="#000000" stroke-miterlimit="10" x1="864.5" y1="27.908" x2="900.5" y2="27.908"/>
			<line fill="none" stroke="#000000" stroke-miterlimit="10" x1="864.833" y1="34.878" x2="900.833" y2="34.878"/>
			<line fill="none" stroke="#000000" stroke-miterlimit="10" x1="864.5" y1="56.167" x2="900.5" y2="56.167"/>
			<line fill="none" stroke="#000000" stroke-miterlimit="10" x1="864.5" y1="48.847" x2="900.5" y2="48.847"/>
			<line fill="none" stroke="#000000" stroke-miterlimit="10" x1="864.5" y1="41.5" x2="900.5" y2="41.5"/>
			<line fill="none" stroke="#000000" stroke-miterlimit="10" x1="864.833" y1="63.689" x2="900.833" y2="63.689"/>
			<line fill="none" stroke="#000000" stroke-miterlimit="10" x1="864.833" y1="71.167" x2="900.833" y2="71.167"/>
			<line fill="none" stroke="#000000" stroke-miterlimit="10" x1="864.833" y1="78.167" x2="900.833" y2="78.167"/>
			<polygon points="883.609,69.752 882.607,88.029 881.611,69.752 882.207,69.752 882.207,20 882.926,20 882.926,69.752 			"/>
		</g>
	</g>

    <g>
        <line fill="none" stroke="#000000" stroke-miterlimit="10" x1="245.5" y1="263" x2="276.5" y2="263"/>
        <line fill="none" stroke="#000000" stroke-miterlimit="10" x1="245.5" y1="270.167" x2="276.5" y2="270.167"/>
        <line fill="none" stroke="#000000" stroke-miterlimit="10" x1="245.5" y1="277" x2="276.5" y2="277"/>
        <line fill="none" stroke="#000000" stroke-miterlimit="10" x1="245.5" y1="284" x2="276.5" y2="284"/>
        <line fill="none" stroke="#000000" stroke-miterlimit="10" x1="245.5" y1="291" x2="276.5" y2="291"/>
        <line fill="none" stroke="#000000" stroke-miterlimit="10" x1="245.5" y1="297.5" x2="276.5" y2="297.5"/>
        <line fill="none" stroke="#000000" stroke-miterlimit="10" x1="245.5" y1="304" x2="276.5" y2="304"/>
        <line fill="none" stroke="#000000" stroke-miterlimit="10" x1="245.5" y1="311" x2="276.5" y2="311"/>
        <line fill="none" stroke="#000000" stroke-miterlimit="10" x1="245.5" y1="317" x2="276.5" y2="317"/>
        <polygon points="261.43,309.955 260.033,330.695 258.647,309.955 259.477,309.955 259.477,253.5 260.479,253.5 260.479,309.955
			"/>
    </g>
    <g>
		<polygon points="667.465,203.136 691,204.532 667.465,205.918 667.465,205.089 603.402,205.089 603.402,204.087 667.465,204.087 
					"/>
		<line fill="none" stroke="#000000" stroke-miterlimit="10" x1="604" y1="186.5" x2="604" y2="221.5"/>
		<line fill="none" stroke="#000000" stroke-miterlimit="10" x1="612" y1="186.5" x2="612" y2="221.5"/>
		<line fill="none" stroke="#000000" stroke-miterlimit="10" x1="619.5" y1="186.5" x2="619.5" y2="221.5"/>
		<line fill="none" stroke="#000000" stroke-miterlimit="10" x1="627" y1="186.5" x2="627" y2="221.5"/>
		<line fill="none" stroke="#000000" stroke-miterlimit="10" x1="635" y1="185.5" x2="635" y2="220.5"/>
		<line fill="none" stroke="#000000" stroke-miterlimit="10" x1="642" y1="186.5" x2="642" y2="221.5"/>
		<line fill="none" stroke="#000000" stroke-miterlimit="10" x1="649" y1="185.5" x2="649" y2="220.5"/>
		<line fill="none" stroke="#000000" stroke-miterlimit="10" x1="656.5" y1="186.5" x2="656.5" y2="221.5"/>
		<line fill="none" stroke="#000000" stroke-miterlimit="10" x1="664" y1="186.5" x2="664" y2="221.5"/>
		<line fill="none" stroke="#000000" stroke-miterlimit="10" x1="671" y1="186.912" x2="671" y2="221.912"/>
		<line fill="none" stroke="#000000" stroke-miterlimit="10" x1="678" y1="186.912" x2="678" y2="221.912"/>
		<line fill="none" stroke="#000000" stroke-miterlimit="10" x1="685" y1="186.912" x2="685" y2="221.912"/>
	</g>
</g>
</svg>
