<?xml version="1.0" encoding="utf-8"?>
<!-- Generator: Adobe Illustrator 17.1.0, SVG Export Plug-In . SVG Version: 6.00 Build 0)  -->
<!DOCTYPE svg PUBLIC "-//W3C//DTD SVG 1.1//EN" "http://www.w3.org/Graphics/SVG/1.1/DTD/svg11.dtd">
<svg version="1.1" id="DrexelFloor1" xmlns="http://www.w3.org/2000/svg" xmlns:xlink="http://www.w3.org/1999/xlink" x="0px"
	 y="0px" viewBox="0 0 920 510" enable-background="new 0 0 920 510" xml:space="preserve">
<g id="active">
	<rect id="room120" x="614.3" y="378.5" fill="#73DAFF" stroke="#000000" stroke-miterlimit="10" width="60.3" height="32"/>
	<rect id="room121" x="614.3" y="345.5" fill="#73DAFF" stroke="#000000" stroke-miterlimit="10" width="60.3" height="32"/>
	<rect id="office" x="565.5" y="345.5" fill="#828287" stroke="#000000" stroke-miterlimit="10" width="48.9" height="54"/>
	<rect id="office_1_" x="516.6" y="369.5" fill="#828287" stroke="#000000" stroke-miterlimit="10" width="48.9" height="41"/>
	<rect id="office_2_" x="631" y="258.5" fill="#828287" stroke="#000000" stroke-miterlimit="10" width="43.7" height="50"/>
	<rect id="DrexelPrinter" x="631" y="308.5" fill="#C47272" stroke="#000000" stroke-miterlimit="10" width="43.7" height="37"/>
	

	<g id="LibraryInstructionLab">
    		<rect x="427.7" y="301.7" fill="#E6E700" width="8.8" height="12.5"/>
    		<rect x="427.7" y="285.1" fill="#E6E700" width="8.8" height="12.5"/>
    		<rect x="427.7" y="259.1" fill="#E6E700" width="8.8" height="12.5"/>
    		<rect x="427.7" y="243.3" fill="#E6E700" width="8.8" height="12.5"/>
    		<rect x="427.7" y="226.8" fill="#E6E700" width="8.8" height="12.5"/>
    		<rect x="459.1" y="301.7" fill="#E6E700" width="8.8" height="12.5"/>
    		<rect x="459.1" y="285.1" fill="#E6E700" width="8.8" height="12.5"/>
    		<rect x="459.1" y="259.1" fill="#E6E700" width="8.8" height="12.5"/>
    		<rect x="459.1" y="243.3" fill="#E6E700" width="8.8" height="12.5"/>
    		<rect x="459.1" y="226.8" fill="#E6E700" width="8.8" height="12.5"/>
    		<rect x="491.1" y="301.8" fill="#E6E700" width="8.8" height="12.5"/>
    		<rect x="491.1" y="285.2" fill="#E6E700" width="8.8" height="12.5"/>
    		<rect x="491.1" y="259.2" fill="#E6E700" width="8.8" height="12.5"/>
    		<rect x="491.1" y="243.3" fill="#E6E700" width="8.8" height="12.5"/>
    		<rect x="491.1" y="226.8" fill="#E6E700" width="8.8" height="12.5"/>
    		<rect x="555.6" y="301.7" fill="#E6E700" width="8.8" height="12.5"/>
    		<rect x="555.6" y="285.1" fill="#E6E700" width="8.8" height="12.5"/>
    		<rect x="555.6" y="243.3" fill="#E6E700" width="8.8" height="12.5"/>
    		<rect x="555.6" y="226.8" fill="#E6E700" width="8.8" height="12.5"/>
    		<rect x="523.2" y="301.8" fill="#E6E700" width="8.8" height="12.5"/>
    		<rect x="523.2" y="285.2" fill="#E6E700" width="8.8" height="12.5"/>
    		<rect x="523.2" y="259.2" fill="#E6E700" width="8.8" height="12.5"/>
    		<rect x="523.2" y="243.3" fill="#E6E700" width="8.8" height="12.5"/>
    		<rect x="523.2" y="226.8" fill="#E6E700" width="8.8" height="12.5"/>
    </g>
	<rect x="586.3" y="263.5" fill="none" stroke="#000000" stroke-miterlimit="10" width="44.7" height="82"/>
	<rect id="computerArea" x="738.6" y="221.5" fill="none" stroke="#000000" stroke-miterlimit="5" width="125.2" height="189"/>
	<polygon fill="none" stroke="#000000" stroke-miterlimit="10" points="138,430.5 9,430.5 9,142.5 138,142.5 138,262.5 	"/>
	<g id="referenceCollection">
		<rect x="742.4" y="41.5" fill="#6A18B2" width="6.3" height="82"/>
		<rect x="753" y="41.5" fill="#6A18B2" width="6.3" height="82"/>
		<rect x="763.9" y="41.5" fill="#6A18B2" width="6.3" height="82"/>
		<rect x="773.7" y="41.5" fill="#6A18B2" width="6.3" height="82"/>
		<rect x="783.5" y="41.5" fill="#6A18B2" width="6.3" height="82"/>
	</g>
	<g id="newspaperIndex">
		<rect x="536.3" y="147.5" fill="#0E8C56" width="6.3" height="32"/>
		<rect x="546.7" y="147.5" fill="#0E8C56" width="6.3" height="32"/>
	</g>
	<g id="reference">
		<rect x="471.9" y="184.5" fill="#0A877D" width="56.2" height="5"/>
		<rect x="471.9" y="215.5" fill="#0A877D" width="114.4" height="5"/>
	</g>
	<rect id="atlases" x="631" y="252.5" fill="#1313BA" width="42.6" height="5"/>
	<g id="mediaCollection">
		<rect x="779.7" y="435.5" fill="#ED1C24" stroke="#000000" stroke-miterlimit="10" width="87.4" height="5"/>
		<rect x="779.7" y="442.5" fill="#ED1C24" stroke="#000000" stroke-miterlimit="10" width="87.4" height="5"/>
	</g>
	<g id="quietStudyArea">
		<rect x="673.4" y="447.5" fill="#32BAA6" width="83.3" height="49"/>
		<rect x="566.3" y="447.5" fill="#32BAA6" width="83.3" height="49"/>
		<rect x="780.8" y="447.5" fill="#32BAA6" width="83.3" height="49"/>
		<rect x="351.5" y="447.5" fill="#32BAA6" width="83.3" height="49"/>
		<rect x="458.8" y="447.5" fill="#32BAA6" width="83.3" height="49"/>
	</g>
	<g id="periodicals">
		<rect x="766.2" y="447.5" fill="#C1272D" stroke="#000000" stroke-miterlimit="10" width="6.3" height="49"/>
		<rect x="657.8" y="447.5" fill="#C1272D" stroke="#000000" stroke-miterlimit="10" width="6.3" height="49"/>
		<rect x="550.9" y="447.5" fill="#C1272D" stroke="#000000" stroke-miterlimit="10" width="6.3" height="49"/>
		<rect x="442.9" y="447.5" fill="#C1272D" stroke="#000000" stroke-miterlimit="10" width="6.3" height="49"/>
	</g>
	<g id="mathAndCs">
		<rect id="s92" x="19.9" y="413" fill="#001473" width="100.9" height="6"/>
		<rect id="s93" x="19.9" y="404" fill="#001473" width="100.9" height="6"/>
		<rect id="s94" x="19.9" y="395" fill="#001473" width="100.9" height="6"/>
		<rect id="s95" x="19.9" y="387" fill="#001473" width="100.9" height="6"/>
		<rect id="s96" x="19.9" y="379" fill="#001473" width="100.9" height="6"/>
		<rect id="s97" x="19.9" y="371" fill="#001473" width="100.9" height="6"/>
		<rect id="s91" x="19.9" y="421" fill="#001473" width="100.9" height="6"/>
	</g>
	<g id="physics">
		<rect id="s101" x="19.9" y="339" fill="#015C00" width="100.9" height="6"/>
		<rect id="s100" x="19.9" y="347" fill="#015C00" width="100.9" height="6"/>
		<rect id="s99" x="19.9" y="355" fill="#015C00" width="100.9" height="6"/>
		<rect id="s98" x="19.9" y="363" fill="#015C00" width="100.9" height="6"/>
	</g>
	<g id="chemistry">
		<rect id="s104" x="19.9" y="316" fill="#D8200E" width="100.9" height="6"/>
		<rect id="s106_1_" x="19.9" y="300" fill="#D8200E" width="100.9" height="6"/>
		<rect id="s105" x="19.9" y="308" fill="#D8200E" width="100.9" height="6"/>
		<rect id="s103" x="19.9" y="324" fill="#D8200E" width="100.9" height="6"/>
		<rect id="s102" x="19.9" y="332" fill="#D8200E" width="100.9" height="6"/>
	</g>
	<g id="biology">
		<rect id="s109" x="19.9" y="274" fill="#3B3D5B" width="100.9" height="6"/>
		<rect id="s108" x="19.9" y="283" fill="#3B3D5B" width="100.9" height="6"/>
		<rect id="s107" x="19.9" y="292" fill="#3B3D5B" width="100.9" height="6"/>
	</g>
	<rect id="s110" x="19.9" y="266" fill="#7000B9" width="100.9" height="6"/>
	<g id="zoology">
		<rect id="s112" x="19.9" y="250" fill="#FFEC17" width="100.9" height="6"/>
		<rect id="s111" x="19.9" y="258" fill="#FFEC17" width="100.9" height="6"/>
	</g>
	<rect id="s113" x="19.9" y="241" fill="#003CD0" width="100.9" height="6"/>
	<rect id="s114" x="19.9" y="232" fill="#003CD0" width="100.9" height="6"/>
	<rect id="s115" x="19.9" y="224" fill="#003CD0" width="100.9" height="6"/>
	<rect id="s116" x="19.9" y="215" fill="#003CD0" width="100.9" height="6"/>
	<rect id="s117" x="19.9" y="206" fill="#003CD0" width="100.9" height="6"/>
	<rect id="s118" x="19.9" y="196" fill="#FF8000" width="100.9" height="7"/>
	<rect id="s119" x="19.9" y="187" fill="#FF8000" width="100.9" height="6"/>
	<rect id="s120" x="19.9" y="178" fill="#FF8000" width="100.9" height="6"/>
	<rect id="s121" x="19.9" y="169" fill="#FF8000" width="100.9" height="6"/>
	<rect id="s122" x="19.9" y="162" fill="#B90043" width="100.9" height="5"/>
	<rect id="s123" x="19.9" y="154" fill="#255C00" width="100.9" height="6"/>
	<rect id="s124" x="19.9" y="145.7" fill="#255C00" width="100.9" height="6"/>
	<polygon id="microform" fill="none" stroke="#000000" stroke-miterlimit="10" points="278.4,405.5 240.9,405.5 240.9,431 
		139,430.5 139,264.5 278.4,264.5 	"/>
	<g id="Dcomputers">
		<rect x="748.1" y="394" fill="#E6E700" width="8.8" height="12.5"/>
		<rect x="748.1" y="358" fill="#E6E700" width="8.8" height="12.5"/>
		<rect x="748.1" y="340" fill="#E6E700" width="8.8" height="12.5"/>
		<rect x="748.1" y="318.3" fill="#E6E700" width="8.8" height="12.5"/>
		<rect x="748.1" y="300.3" fill="#E6E700" width="8.8" height="12.5"/>
		<rect x="748.1" y="225.3" fill="#E6E700" width="8.8" height="12.5"/>
		<rect x="748.1" y="242.3" fill="#E6E700" width="8.8" height="12.5"/>
		<rect x="748.1" y="264.3" fill="#E6E700" width="8.8" height="12.5"/>
		<rect x="748.1" y="281.8" fill="#E6E700" width="8.8" height="12.5"/>
		<rect x="748.1" y="375.3" fill="#E6E700" width="8.8" height="12.5"/>
		<rect x="767" y="394.1" fill="#E6E700" width="8.8" height="12.5"/>
		<rect x="767" y="358.1" fill="#E6E700" width="8.8" height="12.5"/>
		<rect x="767" y="340.1" fill="#E6E700" width="8.8" height="12.5"/>
		<rect x="767" y="318.4" fill="#E6E700" width="8.8" height="12.5"/>
		<rect x="767" y="300.4" fill="#E6E700" width="8.8" height="12.5"/>
		<rect x="767" y="225.4" fill="#E6E700" width="8.8" height="12.5"/>
		<rect x="767" y="242.4" fill="#E6E700" width="8.8" height="12.5"/>
		<rect x="767" y="264.4" fill="#E6E700" width="8.8" height="12.5"/>
		<rect x="767" y="281.9" fill="#E6E700" width="8.8" height="12.5"/>
		<rect x="767" y="375.4" fill="#E6E700" width="8.8" height="12.5"/>
		<rect x="795.9" y="394.1" fill="#E6E700" width="8.8" height="12.5"/>
		<rect x="795.9" y="358.1" fill="#E6E700" width="8.8" height="12.5"/>
		<rect x="795.9" y="340.1" fill="#E6E700" width="8.8" height="12.5"/>
		<rect x="795.9" y="318.3" fill="#E6E700" width="8.8" height="12.5"/>
		<rect x="795.9" y="300.3" fill="#E6E700" width="8.8" height="12.5"/>
		<rect x="795.9" y="225.3" fill="#E6E700" width="8.8" height="12.5"/>
		<rect x="795.9" y="242.3" fill="#E6E700" width="8.8" height="12.5"/>
		<rect x="795.9" y="264.3" fill="#E6E700" width="8.8" height="12.5"/>
		<rect x="795.9" y="281.8" fill="#E6E700" width="8.8" height="12.5"/>
		<rect x="795.9" y="375.3" fill="#E6E700" width="8.8" height="12.5"/>
		<rect x="814.8" y="394.2" fill="#E6E700" width="8.8" height="12.5"/>
		<rect x="814.8" y="358.2" fill="#E6E700" width="8.8" height="12.5"/>
		<rect x="814.8" y="340.2" fill="#E6E700" width="8.8" height="12.5"/>
		<rect x="814.8" y="318.4" fill="#E6E700" width="8.8" height="12.5"/>
		<rect x="814.8" y="300.4" fill="#E6E700" width="8.8" height="12.5"/>
		<rect x="814.8" y="264.4" fill="#E6E700" width="8.8" height="12.5"/>
		<rect x="814.8" y="281.9" fill="#E6E700" width="8.8" height="12.5"/>
		<rect x="814.8" y="375.4" fill="#E6E700" width="8.8" height="12.5"/>
		<rect x="843.6" y="297.3" fill="#E6E700" width="8.8" height="12.5"/>
		<rect x="843.6" y="278.9" fill="#E6E700" width="8.8" height="12.5"/>
		<rect x="843.6" y="260.3" fill="#E6E700" width="8.8" height="12.5"/>
		<rect x="844" y="323.8" fill="#E6E700" width="8.8" height="12.5"/>
		<rect x="844" y="342" fill="#E6E700" width="8.8" height="12.5"/>
		<rect x="844" y="359" fill="#E6E700" width="8.8" height="12.5"/>
		<rect x="843.6" y="376.4" fill="#E6E700" width="8.8" height="12.5"/>
		<rect x="843.6" y="394.2" fill="#E6E700" width="8.8" height="12.5"/>
	</g>

	<g id="scannerAttached">
		<rect x="814.8" y="225.4" fill="#E56D00" width="8.8" height="12.5"/>
		<rect x="814.8" y="242.4" fill="#E56D00" width="8.8" height="12.5"/>
	</g>
	<g id="scanner">
		<rect x="843.6" y="225.7" fill="#FF8345" width="8.8" height="12.5"/>
		<rect x="843.6" y="242.3" fill="#FF8345" width="8.8" height="12.5"/>
	</g>
	<rect id="office_7_" x="360.5" y="104.2" fill="#828287" stroke="#000000" stroke-miterlimit="10" width="41.7" height="46.2"/>
	<rect id="office_6_" x="226.4" y="41.5" fill="#828287" stroke="#000000" stroke-miterlimit="10" width="43.5" height="59"/>
	<rect id="office_5_" x="138" y="142.5" fill="#828287" stroke="#000000" stroke-miterlimit="10" width="57.6" height="29.5"/>
	<rect id="office_4_" x="221.2" y="231.9" fill="#828287" stroke="#000000" stroke-miterlimit="10" width="57.2" height="32.6"/>
	<rect id="office_3_" x="316.5" y="238.5" fill="#828287" stroke="#000000" stroke-miterlimit="10" width="35" height="78.8"/>
</g>
<g id="outter">
	<rect id="LibraryInstructionLabRoom" x="402.2" y="221.5" fill="none" stroke="#000000" stroke-miterlimit="10" width="184.1" height="98"/>
	<polyline fill="none" stroke="#000000" stroke-miterlimit="10" points="835.6,6.5 226.2,6.5 226.7,100.5 	"/>
	<polyline id="stair_4_" fill="none" stroke="#000000" stroke-miterlimit="10" points="585.3,154.8 585.3,147.5 670.8,147.5 
		670.8,182.5 585.3,182.5 585.3,173.8 	"/>
	<line id="stair" fill="none" stroke="#000000" stroke-miterlimit="10" x1="585.3" y1="173.8" x2="585.3" y2="173.2"/>
	<rect id="stair_1_" x="97.4" y="100.5" fill="none" stroke="#000000" stroke-miterlimit="10" width="130" height="42"/>
	<rect id="stair_2_" x="881" y="6.5" fill="none" stroke="#000000" stroke-miterlimit="10" width="29.8" height="87"/>
	<rect id="stair_3_" x="279.4" y="238.5" fill="none" stroke="#000000" stroke-miterlimit="10" width="37.1" height="119"/>
	<polygon id="elevator" fill="none" stroke="#000000" stroke-miterlimit="10" points="471.9,147.5 524.7,146.7 524.7,178.7 
		471.9,179.5 	"/>
	<path fill="none" stroke="#000000" stroke-miterlimit="10" d="M278.6,405.5l1.9,97H891V143c0,0-116.3-24.1-110.1,65"/>
	<g>
		<g>
			<rect x="447.3" y="349.6" fill="none" stroke="#000000" width="27.4" height="27.2"/>
			<g>
				<path fill="#231815" stroke="#000000" d="M474.7,372.5c0,2.4-1.9,4.3-4.3,4.3h-18.7c-2.4,0-4.3-1.9-4.3-4.3v-18.6
					c0-2.4,1.9-4.3,4.3-4.3h18.7c2.4,0,4.3,1.9,4.3,4.3V372.5L474.7,372.5z"/>
				<g>
					<polygon fill="#FFFFFF" stroke="#000000" points="460.5,351.6 460.5,373.6 450.4,373.6 450.4,356.5 					"/>
					<polygon fill="#FFFFFF" stroke="#000000" points="461.7,351.6 461.7,373.6 471.8,373.6 471.8,356.5 					"/>
					<g>
						<g>
							<polygon fill="#231815" stroke="#000000" points="454.1,358.4 457,358.4 459.6,364.8 459.1,365.1 456.9,361.1 456.7,361.3 
								459,367.4 456.7,367.4 456,372.7 455.1,372.7 454.4,367.4 452.2,367.4 454.5,361.4 454.2,361.1 452.1,365.1 451.6,364.8 
															"/>
							<path fill="#231815" stroke="#000000" d="M457.1,356.4c0,0.9-0.7,1.6-1.6,1.6s-1.6-0.7-1.6-1.6c0-0.9,0.7-1.6,1.6-1.6
								C456.4,354.8,457.1,355.5,457.1,356.4z"/>
							<path fill="#231815" stroke="#000000" d="M468,356.4c0,0.9-0.7,1.6-1.6,1.6c-0.9,0-1.6-0.7-1.6-1.6c0-0.9,0.7-1.6,1.6-1.6
								C467.3,354.8,468,355.5,468,356.4z"/>
						</g>
						<polygon fill="#231815" stroke="#000000" points="464.1,358.4 468.5,358.4 469.5,359 469.5,366.4 468.7,366.4 468.7,361.2 
							468,361.2 468,372.7 466.9,372.7 466.5,368.3 466.2,368.3 465.9,372.7 464.7,372.7 464.7,361.2 464,361.2 464,366.4 
							463.1,366.4 463.1,359.1 						"/>
					</g>
				</g>
			</g>
		</g>
	</g>
	<g>
		<g>
			<g>
				<g>
					<polygon fill="#231815" stroke="#000000" stroke-width="0.373" points="494.1,155.9 489.4,163.7 491.8,163.7 496.5,156.1 					
						"/>
					<polygon fill="#231815" stroke="#000000" stroke-width="0.373" points="503.7,155.9 508.3,163.7 505.9,163.7 501.3,156.1 					
						"/>
					<polygon fill="#231815" stroke="#000000" stroke-width="0.373" points="495.6,167.8 495.6,156 502.2,156 502.2,168.1 
						502.2,168.1 502.2,178.3 499.9,178.3 499.9,168.1 497.9,168.1 497.9,178.3 495.6,178.3 495.6,167.8 					"/>
					<g>
						<ellipse fill="#231815" stroke="#000000" stroke-width="0.373" cx="499" cy="153.2" rx="2.9" ry="2.8"/>
					</g>
				</g>
			</g>
			<g>
				<g>
					<polygon fill="#231815" stroke="#000000" stroke-width="0.373" points="477.3,155.9 472.7,163.7 475.1,163.7 479.7,156.1 					
						"/>
					<polygon fill="#231815" stroke="#000000" stroke-width="0.373" points="486.9,155.9 491.6,163.7 489.2,163.7 484.6,156.1 					
						"/>
					<polygon fill="#231815" stroke="#000000" stroke-width="0.373" points="478.8,167.8 478.8,156 485.4,156 485.4,168.1 
						485.4,168.1 485.4,178.3 483.1,178.3 483.1,168.1 481.1,168.1 481.1,178.3 478.8,178.3 478.8,167.8 					"/>
					<g>
						<ellipse fill="#231815" stroke="#000000" stroke-width="0.373" cx="482.2" cy="153.2" rx="2.9" ry="2.8"/>
					</g>
				</g>
			</g>
			<g>
				<g>
					<polygon fill="#231815" stroke="#000000" stroke-width="0.373" points="510.5,155.9 506.2,163.7 508.6,163.7 512.9,156.1 					
						"/>
					<polygon fill="#231815" stroke="#000000" stroke-width="0.373" points="520.1,155.9 524.7,163.7 522.3,163.7 517.7,156.1 					
						"/>
					<polygon fill="#231815" stroke="#000000" stroke-width="0.373" points="512,167.8 512,156 518.6,156 518.6,168.1 518.6,168.1 
						518.6,178.3 516.2,178.3 516.2,168.1 514.3,168.1 514.3,178.3 512,178.3 512,167.8 					"/>
					<g>
						<ellipse fill="#231815" stroke="#000000" stroke-width="0.373" cx="515.4" cy="153.2" rx="2.9" ry="2.8"/>
					</g>
				</g>
			</g>
		</g>
		<g>
			<g>
				<g>
					<polygon stroke="#000000" stroke-miterlimit="10" points="489.9,135.4 487.1,135.4 490.7,121 494.3,135.4 491.4,135.4 
						491.4,144.1 489.9,144.1 					"/>
				</g>
			</g>
		</g>
		<g>
			<g>
				<g>
					<polygon stroke="#000000" stroke-miterlimit="10" points="508.8,121 510.3,121 510.3,129.6 513.1,129.6 509.5,144.1 506,129.6 
						508.8,129.6 					"/>
				</g>
			</g>
		</g>
	</g>
	<rect x="402.2" y="319.5" fill="none" stroke="#000000" stroke-miterlimit="10" width="114.4" height="91"/>
	<line fill="none" stroke="#000000" stroke-miterlimit="10" x1="585.3" y1="153.2" x2="659.8" y2="153.2"/>
	<line fill="none" stroke="#000000" stroke-miterlimit="10" x1="585.3" y1="175.5" x2="659.8" y2="175.5"/>
	<line fill="none" stroke="#000000" stroke-miterlimit="10" x1="652.4" y1="153.2" x2="652.7" y2="175.5"/>
	<line fill="none" stroke="#000000" stroke-miterlimit="10" x1="649.4" y1="153.9" x2="649.6" y2="176.1"/>
	<line fill="none" stroke="#000000" stroke-miterlimit="10" x1="645.4" y1="153.9" x2="645.7" y2="176.1"/>
	<line fill="none" stroke="#000000" stroke-miterlimit="10" x1="638" y1="153.9" x2="638.3" y2="176.1"/>
	<line fill="none" stroke="#000000" stroke-miterlimit="10" x1="634.6" y1="153.9" x2="634.9" y2="176.1"/>
	<line fill="none" stroke="#000000" stroke-miterlimit="10" x1="628" y1="153.9" x2="628.2" y2="176.1"/>
	<line fill="none" stroke="#000000" stroke-miterlimit="10" x1="631.9" y1="153.9" x2="632.1" y2="176.1"/>
	<line fill="none" stroke="#000000" stroke-miterlimit="10" x1="610" y1="153.9" x2="610.2" y2="176.1"/>
	<line fill="none" stroke="#000000" stroke-miterlimit="10" x1="606.8" y1="153.9" x2="607.1" y2="176.1"/>
	<line fill="none" stroke="#000000" stroke-miterlimit="10" x1="617.5" y1="153.9" x2="617.8" y2="176.1"/>
	<line fill="none" stroke="#000000" stroke-miterlimit="10" x1="613.7" y1="153.9" x2="613.9" y2="176.1"/>
	<line fill="none" stroke="#000000" stroke-miterlimit="10" x1="620.8" y1="153.9" x2="621.1" y2="176.1"/>
	<line fill="none" stroke="#000000" stroke-miterlimit="10" x1="624.8" y1="153.9" x2="625.1" y2="176.1"/>
	<line fill="none" stroke="#000000" stroke-miterlimit="10" x1="641.7" y1="153.9" x2="642" y2="176.1"/>
	<g>
		<polygon points="642.6,164 661.7,165.8 642.6,167.6 642.6,166.6 590.8,166.6 590.8,165.3 642.6,165.3 		"/>
		<line fill="none" stroke="#000000" stroke-miterlimit="10" x1="278.6" y1="255" x2="316.5" y2="255"/>
		<line fill="none" stroke="#000000" stroke-miterlimit="10" x1="279.4" y1="342.2" x2="316.5" y2="341.8"/>
		<line fill="none" stroke="#000000" stroke-miterlimit="10" x1="279.4" y1="306.3" x2="316.5" y2="306"/>
		<line fill="none" stroke="#000000" stroke-miterlimit="10" x1="279.4" y1="312.7" x2="316.5" y2="312.3"/>
		<polyline fill="none" stroke="#000000" stroke-miterlimit="10" points="279.4,317.7 316.5,317.3 370.5,317.4 393.2,294.4 		"/>
		<line fill="none" stroke="#000000" stroke-miterlimit="10" x1="279.4" y1="323.3" x2="316.5" y2="323"/>
		<line fill="none" stroke="#000000" stroke-miterlimit="10" x1="279.4" y1="329" x2="316.5" y2="328.7"/>
		<line fill="none" stroke="#000000" stroke-miterlimit="10" x1="279.4" y1="300.2" x2="316.5" y2="299.8"/>
		<line fill="none" stroke="#000000" stroke-miterlimit="10" x1="279.4" y1="293.7" x2="316.5" y2="293.3"/>
		<path fill="none" stroke="#000000" stroke-miterlimit="10" d="M316.5,287.3"/>
		<path fill="none" stroke="#000000" stroke-miterlimit="10" d="M279.4,287.7"/>
		<line fill="none" stroke="#000000" stroke-miterlimit="10" x1="279.4" y1="287.7" x2="316.5" y2="287.3"/>
		<path fill="none" stroke="#000000" stroke-miterlimit="10" d="M316.5,281.7"/>
		<path fill="none" stroke="#000000" stroke-miterlimit="10" d="M279.4,282"/>
		<line fill="none" stroke="#000000" stroke-miterlimit="10" x1="279.4" y1="280.8" x2="316.5" y2="280.5"/>
		<path fill="none" stroke="#000000" stroke-miterlimit="10" d="M316.5,275.7"/>
		<path fill="none" stroke="#000000" stroke-miterlimit="10" d="M279.4,276"/>
		<path fill="none" stroke="#000000" stroke-miterlimit="10" d="M316.5,273"/>
		<path fill="none" stroke="#000000" stroke-miterlimit="10" d="M279.4,273.3"/>
		<line fill="none" stroke="#000000" stroke-miterlimit="10" x1="279.4" y1="274.7" x2="316.5" y2="274.3"/>
		<line fill="none" stroke="#000000" stroke-miterlimit="10" x1="279.4" y1="267.7" x2="316.5" y2="267.3"/>
		<line fill="none" stroke="#000000" stroke-miterlimit="10" x1="297.5" y1="267.3" x2="297.9" y2="328.8"/>
		<g>
			<polygon points="306.9,277.9 304.9,261.2 302.9,277.9 304.1,277.9 304.1,323.4 305.5,323.4 305.5,277.9 			"/>
		</g>
		<g>
			<polygon points="289.2,307.7 289.2,262.2 287.7,262.2 287.7,307.7 286.5,307.7 288.5,324.5 290.5,307.7 			"/>
		</g>
	</g>
	<line fill="none" stroke="#000000" stroke-miterlimit="10" x1="132.7" y1="100.5" x2="132.7" y2="142.3"/>
	<line fill="none" stroke="#000000" stroke-miterlimit="10" x1="125.8" y1="100.6" x2="125.8" y2="142.4"/>
	<line fill="none" stroke="#000000" stroke-miterlimit="10" x1="139.6" y1="100.5" x2="139.6" y2="142.3"/>
	<line fill="none" stroke="#000000" stroke-miterlimit="10" x1="146.5" y1="100.6" x2="146.5" y2="142.4"/>
	<line fill="none" stroke="#000000" stroke-miterlimit="10" x1="154.1" y1="100.6" x2="154.1" y2="142.4"/>
	<line fill="none" stroke="#000000" stroke-miterlimit="10" x1="161.6" y1="100.6" x2="161.6" y2="142.4"/>
	<line fill="none" stroke="#000000" stroke-miterlimit="10" x1="175.4" y1="100.6" x2="175.4" y2="142.4"/>
	<line fill="none" stroke="#000000" stroke-miterlimit="10" x1="168.5" y1="100.6" x2="168.5" y2="142.4"/>
	<line fill="none" stroke="#000000" stroke-miterlimit="10" x1="208.1" y1="100.6" x2="208.1" y2="142.4"/>
	<line fill="none" stroke="#000000" stroke-miterlimit="10" x1="201.8" y1="100.6" x2="201.8" y2="142.4"/>
	<line fill="none" stroke="#000000" stroke-miterlimit="10" x1="195.5" y1="100.6" x2="195.5" y2="142.4"/>
	<line fill="none" stroke="#000000" stroke-miterlimit="10" x1="188.6" y1="100.6" x2="188.6" y2="142.4"/>
	<line fill="none" stroke="#000000" stroke-miterlimit="10" x1="181.7" y1="100.6" x2="181.7" y2="142.4"/>
	<g>
		<polygon points="187.6,118.9 216.6,121.7 187.6,124.5 187.6,122.8 108.9,122.8 108.9,120.8 187.6,120.8 		"/>
	</g>
	<line fill="none" stroke="#000000" stroke-miterlimit="10" x1="881" y1="20.5" x2="910.8" y2="20"/>
	<line fill="none" stroke="#000000" stroke-miterlimit="10" x1="881" y1="25.2" x2="910.8" y2="24.7"/>
	<line fill="none" stroke="#000000" stroke-miterlimit="10" x1="835.9" y1="6.2" x2="910.8" y2="5.7"/>
	<line fill="none" stroke="#000000" stroke-miterlimit="10" x1="881" y1="30.2" x2="910.8" y2="29.7"/>
	<line fill="none" stroke="#000000" stroke-miterlimit="10" x1="881" y1="35.2" x2="910.8" y2="34.7"/>
	<line fill="none" stroke="#000000" stroke-miterlimit="10" x1="881" y1="44.2" x2="910.8" y2="43.7"/>
	<line fill="none" stroke="#000000" stroke-miterlimit="10" x1="881" y1="48.2" x2="910.8" y2="47.7"/>
	<line fill="none" stroke="#000000" stroke-miterlimit="10" x1="881" y1="39.3" x2="910.8" y2="38.8"/>
	<line fill="none" stroke="#000000" stroke-miterlimit="10" x1="881" y1="52.7" x2="910.8" y2="52.2"/>
	<line fill="none" stroke="#000000" stroke-miterlimit="10" x1="881" y1="66.8" x2="910.8" y2="66.3"/>
	<line fill="none" stroke="#000000" stroke-miterlimit="10" x1="881" y1="61.7" x2="910.8" y2="61.2"/>
	<line fill="none" stroke="#000000" stroke-miterlimit="10" x1="881" y1="57.2" x2="910.8" y2="56.7"/>
	<line fill="none" stroke="#000000" stroke-miterlimit="10" x1="895.9" y1="15.7" x2="895.9" y2="66.5"/>
	<g>
		<polygon points="905.8,62 904.5,80.5 903.3,62 904,62 904,11.5 904.9,11.5 904.9,62 		"/>
		<polygon points="890.8,29.3 889.5,10.7 888.3,29.3 889,29.3 889,79.7 889.9,79.7 889.9,29.3 		"/>
	</g>
	<polyline fill="none" stroke="#000000" stroke-miterlimit="10" points="226.4,41.5 402.2,40.3 402.2,184.5 376.5,215.5 	"/>
	<polygon id="ATDLoffice" fill="none" stroke="#000000" stroke-miterlimit="10" points="286.5,6.5 286.5,41.1 402.2,40.3 
		402.2,79.7 553,79.7 553,41.1 641.7,40.3 641.7,6.5 	"/>
	<text transform="matrix(1 0 0 1 426.5034 45.834)" font-family="'Candara'" font-size="18">ATDL OFFICE</text>
</g>
</svg>
