<?xml version="1.0" encoding="iso-8859-1"?>
<!-- Generator: Adobe Illustrator 16.0.4, SVG Export Plug-In . SVG Version: 6.00 Build 0)  -->
<!DOCTYPE svg PUBLIC "-//W3C//DTD SVG 1.1//EN" "http://www.w3.org/Graphics/SVG/1.1/DTD/svg11.dtd">
<svg version="1.1" xmlns="http://www.w3.org/2000/svg" xmlns:xlink="http://www.w3.org/1999/xlink" x="0px" y="0px" width="890px"
	 height="510px" viewBox="0 0 890 510" style="enable-background:new 0 0 890 510;" xml:space="preserve">

<g id="&#x56FE;&#x5C42;_2">
    <g id="active">
        <rect id="room" x="739.5" y="50.5" style="fill:#FFFFFF;stroke:#0000FF;stroke-miterlimit:10;" width="18" height="23"/>
        <rect id="room_1_" x="757.5" y="50.5" style="fill:#FFFFFF;stroke:#0000FF;stroke-miterlimit:10;" width="18" height="23"/>
        <rect id="room_2_" x="730.5" y="20.5" style="fill:#FFFFFF;stroke:#0000FF;stroke-miterlimit:10;" width="17" height="22"/>
        <rect id="room_3_" x="748.5" y="20.5" style="fill:#FFFFFF;stroke:#0000FF;stroke-miterlimit:10;" width="17" height="22"/>
        <rect id="room_4_" x="766.5" y="20.5" style="fill:#FFFFFF;stroke:#0000FF;stroke-miterlimit:10;" width="17" height="22"/>
        <rect x="677.5" y="43.5" style="fill:#FFFFFF;stroke:#0000FF;stroke-miterlimit:10;" width="26" height="31"/>
        <rect x="654.5" y="43.5" style="fill:#FFFFFF;stroke:#0000FF;stroke-miterlimit:10;" width="23" height="31"/>
        <rect id="room_5_" x="399.5" y="373.5" style="fill:none;stroke:#0000FF;stroke-miterlimit:10;" width="28" height="20"/>
        <rect id="room_6_" x="399.5" y="352.5" style="fill:none;stroke:#0000FF;stroke-miterlimit:10;" width="28" height="20"/>

        <rect id="Library_Instruction_Lab" x="299.5" y="271.5" style="fill:none;stroke:#0000FF;stroke-miterlimit:10;" width="86" height="62"/>
        <rect id="office" x="376.5" y="352.5" style="fill:none;stroke:#0000FF;stroke-miterlimit:10;" width="22" height="35"/>
        <rect id="office_1_" x="352.5" y="367.5" style="fill:none;stroke:#0000FF;stroke-miterlimit:10;" width="23" height="26"/>
        <rect x="366.5" y="144.5" style="fill:#93278F;stroke:#0000FF;stroke-miterlimit:10;" width="113" height="69"/>
        <rect x="485.5" y="135.5" style="fill:#93278F;stroke:#0000FF;stroke-miterlimit:10;" width="20" height="53"/>
        <rect x="112.5" y="224.5" style="fill:#93278F;stroke:#0000FF;stroke-miterlimit:10;" width="61" height="183"/>
        <rect x="298.5" y="226.5" style="fill:none;stroke:#0000FF;stroke-miterlimit:10;" width="23" height="21"/>
        <rect x="175.5" y="224.5" style="fill:none;stroke:#0000FF;stroke-miterlimit:10;" width="19" height="22"/>
        <rect x="194.5" y="224.5" style="fill:none;stroke:#0000FF;stroke-miterlimit:10;" width="21" height="22"/>
        <polyline style="fill:none;stroke:#0000FF;stroke-miterlimit:10;" points="298.499,226.669 298.002,196.5 333,196.5
			332.669,217.997 321.669,218.664 321.5,226.5 		"/>
        <rect x="406.5" y="294.5" style="fill:none;stroke:#0000FF;stroke-miterlimit:10;" width="21" height="33"/>
        <rect x="426.5" y="271.5" style="fill:#00FFFF;stroke:#0000FF;stroke-miterlimit:10;" width="76" height="122"/>
        <rect x="406.5" y="327.5" style="fill:none;stroke:#0000FF;stroke-miterlimit:10;" width="21" height="24"/>
    </g>
    <g id="outer">
        <line style="fill:none;stroke:#0000FF;stroke-miterlimit:10;" x1="637.75" y1="74.5" x2="654.25" y2="74"/>
        <line style="fill:none;stroke:#0000FF;stroke-miterlimit:10;" x1="637.5" y1="98.5" x2="637.75" y2="75"/>
        <line style="fill:none;stroke:#0000FF;stroke-miterlimit:10;" x1="603.75" y1="98.75" x2="637.5" y2="99"/>
        <line style="fill:none;stroke:#0000FF;stroke-miterlimit:10;" x1="604" y1="43.25" x2="604.25" y2="99.25"/>
        <line style="fill:none;stroke:#0000FF;stroke-miterlimit:10;" x1="654" y1="43.5" x2="604" y2="43.5"/>
        <rect x="604.5" y="99.5" style="fill:#FFFFFF;stroke:#0000FF;stroke-miterlimit:10;" width="34" height="23"/>
        <rect x="604.5" y="122.5" style="fill:#FFFFFF;stroke:#0000FF;stroke-miterlimit:10;" width="34" height="29"/>
        <rect x="604.5" y="152.5" style="fill:#FFFFFF;stroke:#0000FF;stroke-miterlimit:10;" width="34" height="25"/>
        <rect x="637.5" y="75.5" style="fill:#24FFFF;stroke:#0000FF;stroke-miterlimit:10;" width="88" height="130"/>
        <rect id="stair" x="781.5" y="263.5" style="fill:none;stroke:#0000FF;stroke-miterlimit:10;" width="26" height="57"/>
        <rect id="toilet" x="731.5" y="263.5" style="fill:none;stroke:#0000FF;stroke-miterlimit:10;" width="50" height="57"/>
        <line style="fill:none;stroke:#0000FF;stroke-miterlimit:10;" x1="731" y1="320.5" x2="700.25" y2="320"/>
        <line style="fill:none;stroke:#0000FF;stroke-miterlimit:10;" x1="700" y1="319.75" x2="700.25" y2="320.25"/>
        <line style="fill:none;stroke:#0000FF;stroke-miterlimit:10;" x1="700.5" y1="320" x2="700.5" y2="300"/>
        <line style="fill:none;stroke:#0000FF;stroke-miterlimit:10;" x1="702.75" y1="263.75" x2="731" y2="263.5"/>
        <line style="fill:none;stroke:#0000FF;stroke-miterlimit:10;" x1="702.5" y1="264" x2="702.5" y2="289"/>
        <line style="fill:none;stroke:#0000FF;stroke-miterlimit:10;" x1="702.5" y1="289" x2="717.75" y2="288.75"/>
        <line style="fill:none;stroke:#0000FF;stroke-miterlimit:10;" x1="717.5" y1="289" x2="717.5" y2="275"/>
        <line style="fill:none;stroke:#0000FF;stroke-miterlimit:10;" x1="716.75" y1="275" x2="731" y2="275.25"/>
        <line style="fill:none;stroke:#0000FF;stroke-miterlimit:10;" x1="703" y1="278.5" x2="717" y2="278.5"/>
        <line style="fill:none;stroke:#0000FF;stroke-miterlimit:10;" x1="722.75" y1="288.25" x2="731.75" y2="288"/>
        <path style="fill:none;stroke:#0000FF;stroke-miterlimit:10;" d="M604.5,177.5c0,0,8,102,25.5,121.75l70.5,0.5"/>
        <line style="fill:none;stroke:#0000FF;stroke-miterlimit:10;" x1="610" y1="231" x2="721.5" y2="232"/>
        <rect x="703.5" y="58.5" style="fill:none;stroke:#0000FF;stroke-miterlimit:10;" width="23" height="16"/>
        <rect x="703.5" y="20.5" style="fill:none;stroke:#0000FF;stroke-miterlimit:10;" width="27" height="38"/>
        <rect id="stair_1_" x="783.5" y="20.5" style="fill:none;stroke:#0000FF;stroke-miterlimit:10;" width="22" height="53"/>
        <line style="fill:none;stroke:#0000FF;stroke-miterlimit:10;" x1="796.5" y1="74" x2="796.5" y2="263"/>
        <line style="fill:none;stroke:#0000FF;stroke-miterlimit:10;" x1="729" y1="218" x2="785" y2="218.5"/>
        <g id="toilet_1_">
            <g>
                <rect x="744.603" y="284.353" style="fill:none;stroke:#0000FF;" width="20.647" height="21.146"/>
                <g>
                    <path style="fill:#231815;stroke:#0000FF;" d="M765.25,302.163c0,1.84-1.46,3.336-3.256,3.336h-14.137
						c-1.797,0-3.255-1.496-3.255-3.336v-14.48c0-1.84,1.458-3.33,3.255-3.33h14.137c1.796,0,3.256,1.49,3.256,3.33V302.163z"/>
                    <g>
                        <polygon style="fill:#FFFFFF;stroke:#0000FF;" points="754.589,285.931 754.589,303.018 746.946,303.018 746.946,289.682
													"/>
                        <polygon style="fill:#FFFFFF;stroke:#0000FF;" points="755.446,285.931 755.446,303.018 763.087,303.018 763.087,289.682
													"/>
                        <g>
                            <g>
                                <polygon style="fill:#231815;stroke:#0000FF;" points="749.768,291.194 751.909,291.194 753.868,296.132 753.479,296.401
									751.844,293.3 751.694,293.459 753.41,298.176 751.726,298.176 751.184,302.286 750.502,302.286 749.96,298.176
									748.276,298.176 750.018,293.554 749.842,293.3 748.211,296.401 747.816,296.132 								"/>
                                <path style="fill:#231815;stroke:#0000FF;" d="M752.013,289.631c0,0.692-0.55,1.254-1.224,1.254
									c-0.675,0-1.221-0.562-1.221-1.254c0-0.687,0.546-1.25,1.221-1.25C751.463,288.381,752.013,288.944,752.013,289.631z"/>
                                <path style="fill:#231815;stroke:#0000FF;" d="M760.257,289.631c0,0.692-0.549,1.254-1.223,1.254
									c-0.677,0-1.225-0.562-1.225-1.254c0-0.687,0.548-1.25,1.225-1.25C759.708,288.381,760.257,288.944,760.257,289.631z"/>
                            </g>
                            <polygon style="fill:#231815;stroke:#0000FF;" points="757.273,291.194 760.628,291.194 761.383,291.649 761.383,297.445
								760.731,297.445 760.731,293.407 760.206,293.407 760.206,302.286 759.365,302.286 759.115,298.897 758.834,298.897
								758.608,302.286 757.72,302.286 757.72,293.407 757.199,293.407 757.193,297.445 756.55,297.445 756.55,291.767 							"/>
                        </g>
                    </g>
                </g>
            </g>
            <g id="elevator">
                <g>
                    <g>
                        <g>
                            <polygon style="fill:#231815;stroke:#0000FF;stroke-width:0.3082;" points="697.69,236.198 695.097,242.405 696.435,242.377
								699.021,236.39 							"/>
                            <polygon style="fill:#231815;stroke:#0000FF;stroke-width:0.3082;" points="703.066,236.198 705.639,242.4 704.303,242.391
								701.736,236.39 							"/>
                            <polygon style="fill:#231815;stroke:#0000FF;stroke-width:0.3082;" points="698.523,245.615 698.523,236.346
								702.228,236.346 702.228,245.918 702.227,245.918 702.227,253.977 700.912,253.977 700.912,245.857 699.83,245.857
								699.83,253.977 698.517,253.977 698.517,245.615 							"/>
                            <g>
                                <ellipse style="fill:#231815;stroke:#0000FF;stroke-width:0.3082;" cx="700.426" cy="234.112" rx="1.6" ry="2.232"/>
                            </g>
                        </g>
                    </g>
                    <g>
                        <g>
                            <polygon style="fill:#231815;stroke:#0000FF;stroke-width:0.3082;" points="688.318,236.198 685.724,242.405
								687.062,242.377 689.647,236.39 							"/>
                            <polygon style="fill:#231815;stroke:#0000FF;stroke-width:0.3082;" points="693.694,236.198 696.282,242.388
								694.938,242.409 692.364,236.39 							"/>
                            <polygon style="fill:#231815;stroke:#0000FF;stroke-width:0.3082;" points="689.151,245.615 689.151,236.346
								692.854,236.346 692.854,245.918 692.854,245.918 692.854,253.977 691.54,253.977 691.54,245.857 690.458,245.857
								690.458,253.977 689.145,253.977 689.145,245.615 							"/>
                            <g>
                                <ellipse style="fill:#231815;stroke:#0000FF;stroke-width:0.3082;" cx="691.054" cy="234.112" rx="1.6" ry="2.232"/>
                            </g>
                        </g>
                    </g>
                    <g>
                        <g>
                            <polygon style="fill:#231815;stroke:#0000FF;stroke-width:0.3082;" points="706.837,236.198 704.446,242.374
								705.788,242.377 708.167,236.39 							"/>
                            <polygon style="fill:#231815;stroke:#0000FF;stroke-width:0.3082;" points="712.213,236.198 714.808,242.405 713.47,242.377
								710.884,236.39 							"/>
                            <polygon style="fill:#231815;stroke:#0000FF;stroke-width:0.3082;" points="707.67,245.615 707.67,236.346 711.374,236.346
								711.374,245.918 711.373,245.918 711.373,253.977 710.059,253.977 710.059,245.857 708.977,245.857 708.977,253.977
								707.663,253.977 707.663,245.615 							"/>
                            <g>
                                <ellipse style="fill:#231815;stroke:#0000FF;stroke-width:0.3082;" cx="709.573" cy="234.112" rx="1.6" ry="2.232"/>
                            </g>
                        </g>
                    </g>
                </g>
                <rect x="684.5" y="231.5" style="fill:none;stroke:#0000FF;" width="30" height="23"/>
            </g>
        </g>
        <rect id="toilet_2_" x="299.5" y="333.5" style="fill:none;stroke:#0000FF;stroke-miterlimit:10;" width="53" height="60"/>
        <rect id="stair_2_" x="239.5" y="280.5" style="fill:none;stroke:#0000FF;stroke-miterlimit:10;" width="24" height="79"/>
        <rect id="stair_3_" x="386.5" y="222.5" style="fill:none;stroke:#0000FF;stroke-miterlimit:10;" width="64" height="22"/>
        <rect id="stair_4_" x="153.5" y="191.5" style="fill:none;stroke:#0000FF;stroke-miterlimit:10;" width="62" height="32"/>
        <rect x="215.5" y="134.5" style="fill:none;stroke:#0000FF;stroke-miterlimit:10;" width="27" height="89"/>
        <rect x="215.5" y="223.5" style="fill:none;stroke:#0000FF;stroke-miterlimit:10;" width="27" height="23"/>
        <rect x="242.5" y="134.5" style="fill:none;stroke:#0000FF;stroke-miterlimit:10;" width="57" height="41"/>
        <rect id="stair_5_" x="506.5" y="134.5" style="fill:none;stroke:#0000FF;stroke-miterlimit:10;" width="32" height="53"/>
        <line style="fill:none;stroke:#0000FF;stroke-miterlimit:10;" x1="299.674" y1="134.666" x2="506.674" y2="134.999"/>
        <line style="fill:none;stroke:#0000FF;stroke-miterlimit:10;" x1="240" y1="454.5" x2="531" y2="454.5"/>
        <path style="fill:none;stroke:#0000FF;stroke-miterlimit:10;" d="M531,454.666l0.667-155.333L531,217.75c0,0-53.25-1.5-52.5,14.25
			s-0.25,29.75-0.25,29.75"/>
        <line style="fill:none;stroke:#0000FF;stroke-miterlimit:10;" x1="530.334" y1="298.666" x2="618.334" y2="277.333"/>
        <line style="fill:none;stroke:#0000FF;stroke-miterlimit:10;" x1="538.334" y1="134.666" x2="603.667" y2="135.332"/>
        <path style="fill:none;stroke:#0000FF;stroke-miterlimit:10;" d="M239,297.5"/>
        <polyline style="fill:#FF9D45;stroke:#0000FF;stroke-miterlimit:10;" points="240,390 239,298.5 174,298.5 173,407.5 220.5,405.5
			220.5,390.5 239.5,389.5 239.5,454 		"/>
        <line style="fill:none;stroke:#0000FF;stroke-miterlimit:10;" x1="239.5" y1="389.5" x2="240" y2="454.5"/>
        <g id="toilet_3_">
            <g>
                <rect x="318.602" y="351.104" style="fill:none;stroke:#0000FF;" width="21.948" height="23.633"/>
                <g>
                    <path style="fill:#231815;stroke:#0000FF;" d="M340.55,371.009c0,2.056-1.552,3.728-3.461,3.728h-15.027
						c-1.911,0-3.46-1.672-3.46-3.728v-16.184c0-2.056,1.55-3.722,3.46-3.722h15.027c1.909,0,3.461,1.666,3.461,3.722V371.009z"/>
                    <g>
                        <polygon style="fill:#FFFFFF;stroke:#0000FF;" points="329.217,352.867 329.217,371.963 321.093,371.963 321.093,357.06
													"/>
                        <polygon style="fill:#FFFFFF;stroke:#0000FF;" points="330.128,352.867 330.128,371.963 338.251,371.963 338.251,357.06
													"/>
                        <g>
                            <g>
                                <polygon style="fill:#231815;stroke:#0000FF;" points="324.092,358.75 326.369,358.75 328.451,364.268 328.037,364.568
									326.299,361.103 326.14,361.28 327.964,366.552 326.173,366.552 325.597,371.146 324.873,371.146 324.296,366.552
									322.507,366.552 324.358,361.387 324.17,361.103 322.438,364.568 322.018,364.268 								"/>
                                <path style="fill:#231815;stroke:#0000FF;" d="M326.479,357.003c0,0.773-0.584,1.4-1.301,1.4
									c-0.717,0-1.298-0.627-1.298-1.4c0-0.768,0.581-1.397,1.298-1.397C325.895,355.605,326.479,356.235,326.479,357.003z"/>
                                <path style="fill:#231815;stroke:#0000FF;" d="M335.242,357.003c0,0.773-0.584,1.4-1.299,1.4c-0.72,0-1.302-0.627-1.302-1.4
									c0-0.768,0.582-1.397,1.302-1.397C334.658,355.605,335.242,356.235,335.242,357.003z"/>
                            </g>
                            <polygon style="fill:#231815;stroke:#0000FF;" points="332.071,358.75 335.636,358.75 336.438,359.259 336.438,365.735
								335.746,365.735 335.746,361.223 335.188,361.223 335.188,371.146 334.295,371.146 334.028,367.358 333.729,367.358
								333.489,371.146 332.545,371.146 332.545,361.223 331.991,361.223 331.986,365.735 331.302,365.735 331.302,359.39
								"/>
                        </g>
                    </g>
                </g>
            </g>
            <g id="elevator_1_">
                <g>
                    <g>
                        <g>
                            <polygon style="stroke:#0000FF;stroke-width:0.3018;" points="341.661,225.704 339.226,232.045 340.481,232.017
								342.909,225.9 							"/>
                            <polygon style="stroke:#0000FF;stroke-width:0.3018;" points="346.708,225.704 349.122,232.04 347.867,232.031
								345.458,225.9 							"/>
                            <polygon style="stroke:#0000FF;stroke-width:0.3018;" points="342.443,235.325 342.443,225.855 345.919,225.855
								345.919,235.634 345.918,235.634 345.918,243.867 344.685,243.867 344.685,235.572 343.669,235.572 343.669,243.867
								342.437,243.867 342.437,235.325 							"/>
                            <g>
                                <ellipse style="stroke:#0000FF;stroke-width:0.3018;" cx="344.229" cy="223.573" rx="1.502" ry="2.281"/>
                            </g>
                        </g>
                    </g>
                    <g>
                        <g>
                            <polygon style="stroke:#0000FF;stroke-width:0.3018;" points="332.863,225.704 330.429,232.045 331.684,232.017
								334.111,225.9 							"/>
                            <polygon style="stroke:#0000FF;stroke-width:0.3018;" points="337.91,225.704 340.339,232.027 339.077,232.049
								336.662,225.9 							"/>
                            <polygon style="stroke:#0000FF;stroke-width:0.3018;" points="333.646,235.325 333.646,225.855 337.122,225.855
								337.122,235.634 337.121,235.634 337.121,243.867 335.888,243.867 335.888,235.572 334.872,235.572 334.872,243.867
								333.639,243.867 333.639,235.325 							"/>
                            <g>
                                <path style="stroke:#0000FF;stroke-width:0.3018;" d="M333.93,223.573c0,1.259,0.672,2.281,1.501,2.281
									c0.83,0,1.502-1.022,1.502-2.281c0-1.26-2.332-2.282-1.502-2.282C337.616,221.292,333.93,218.419,333.93,223.573z"/>
                            </g>
                        </g>
                    </g>
                    <g>
                        <g>
                            <polygon style="stroke:#0000FF;stroke-width:0.3018;" points="350.247,225.704 348.002,232.013 349.261,232.017
								351.495,225.9 							"/>
                            <polygon style="stroke:#0000FF;stroke-width:0.3018;" points="355.293,225.704 357.728,232.045 356.472,232.017
								354.045,225.9 							"/>
                            <polygon style="stroke:#0000FF;stroke-width:0.3018;" points="351.028,235.325 351.028,225.855 354.505,225.855
								354.505,235.634 354.503,235.634 354.503,243.867 353.271,243.867 353.271,235.572 352.255,235.572 352.255,243.867
								351.022,243.867 351.022,235.325 							"/>
                            <g>
                                <ellipse style="stroke:#0000FF;stroke-width:0.3018;" cx="352.814" cy="223.573" rx="1.502" ry="2.281"/>
                            </g>
                        </g>
                    </g>
                </g>
                <g id="&#x7BAD;&#x5934;_30">
                    <rect x="337.735" y="201.667" style="fill:none;stroke:#0000FF;" width="4.265" height="17.667"/>
                    <g>
                        <polygon style="fill:#231815;stroke:#0000FF;" points="340.75,212.719 342,212.72 339.868,201.667 337.735,212.719
							338.985,212.719 338.985,219.333 340.75,219.333 						"/>
                    </g>
                    <rect x="346.402" y="202" style="fill:none;stroke:#0000FF;" width="4.265" height="17.667"/>
                    <g>
                        <polygon style="fill:#231815;stroke:#0000FF;" points="347.652,208.613 346.402,208.613 348.534,219.666 350.667,208.613
							349.417,208.613 349.417,202 347.652,202 						"/>
                    </g>
                </g>
                <rect x="329.5" y="220.5" style="fill:none;stroke:#0000FF;" width="29" height="24"/>
            </g>
        </g>
        <rect x="648.999" y="265.334" style="fill:none;" width="7.333" height="1"/>

        <text transform="matrix(1 0 0 1 650.999 274.667)" style="stroke:#000000; font-family:'AdobeSongStd-Light-GBpc-EUC-H'; font-size:12;">Cafe</text>
        <text transform="matrix(1 0 0 1 316.3325 290.001)"><tspan x="0" y="0" style="stroke:#000000; font-family:'AdobeSongStd-Light-GBpc-EUC-H'; font-size:12;">Library</tspan><tspan x="0" y="14.4" style="stroke:#000000; font-family:'AdobeSongStd-Light-GBpc-EUC-H'; font-size:12;">Instruction</tspan><tspan x="0" y="28.8" style="stroke:#000000; font-family:'AdobeSongStd-Light-GBpc-EUC-H'; font-size:12;">Lab</tspan></text>
    </g>
</g>
        </svg>
