<?xml version="1.0" encoding="iso-8859-1"?>
<!-- Generator: Adobe Illustrator 16.0.4, SVG Export Plug-In . SVG Version: 6.00 Build 0)  -->
<!DOCTYPE svg PUBLIC "-//W3C//DTD SVG 1.1//EN" "http://www.w3.org/Graphics/SVG/1.1/DTD/svg11.dtd">
<svg version="1.1" xmlns="http://www.w3.org/2000/svg" xmlns:xlink="http://www.w3.org/1999/xlink" x="0px" y="0px" width="890px"
	 height="510px" viewBox="0 0 890 510" style="enable-background:new 0 0 890 510;" xml:space="preserve">

<g id="bg" style="display:none;">
	<g style="display:inline;">

			<image style="overflow:visible;enable-background:new    ;" width="1514" height="1118" xlink:href="1floor.png"  transform="matrix(0.5145 0 0 0.5125 23.5005 -24.25)">
		</image>
	</g>
</g>
<g id="&#x56FE;&#x5C42;_2">
	<g id="active">
		<rect id="room" x="692.5" y="50.5" style="fill:#25FFFF;stroke:#000000;stroke-miterlimit:10;" width="18" height="23"/>
		<rect id="room_1_" x="710.5" y="50.5" style="fill:#25FFFF;stroke:#000000;stroke-miterlimit:10;" width="18" height="23"/>
		<rect id="room_2_" x="683.5" y="20.5" style="fill:#25FFFF;stroke:#000000;stroke-miterlimit:10;" width="17" height="22"/>
		<rect id="room_3_" x="701.5" y="20.5" style="fill:#25FFFF;stroke:#000000;stroke-miterlimit:10;" width="17" height="22"/>
		<rect id="room_4_" x="719.5" y="20.5" style="fill:#25FFFF;stroke:#000000;stroke-miterlimit:10;" width="17" height="22"/>
		<rect x="630.5" y="43.5" style="fill:#FFFFFF;stroke:#000000;stroke-miterlimit:10;" width="26" height="31"/>
		<rect x="607.5" y="43.5" style="fill:#FFFFFF;stroke:#000000;stroke-miterlimit:10;" width="23" height="31"/>
		<rect id="room_5_" x="352.5" y="373.5" style="fill:#25FFFF;stroke:#000000;stroke-miterlimit:10;" width="28" height="20"/>
		<rect id="room_6_" x="352.5" y="352.5" style="fill:#25FFFF;stroke:#000000;stroke-miterlimit:10;" width="28" height="20"/>

			<rect id="Library_Instruction_Lab" x="252.5" y="271.5" style="fill:none;stroke:#000000;stroke-miterlimit:10;" width="86" height="62"/>
		<rect id="office" x="329.5" y="352.5" style="fill:none;stroke:#000000;stroke-miterlimit:10;" width="22" height="35"/>
		<rect id="office_1_" x="305.5" y="367.5" style="fill:none;stroke:#000000;stroke-miterlimit:10;" width="23" height="26"/>
		<rect x="319.5" y="144.5" style="fill:#BCBBBC;stroke:#000000;stroke-miterlimit:10;" width="113" height="69"/>
		<rect x="438.5" y="135.5" style="fill:#BCBBBC;stroke:#000000;stroke-miterlimit:10;" width="20" height="53"/>
		<rect x="65.5" y="224.5" style="fill:#BCBBBC;stroke:#000000;stroke-miterlimit:10;" width="61" height="183"/>
		<rect x="251.5" y="226.5" style="fill:none;stroke:#000000;stroke-miterlimit:10;" width="23" height="21"/>
		<rect x="126.5" y="224.5" style="fill:none;stroke:#000000;stroke-miterlimit:10;" width="21" height="22"/>
		<rect x="147.5" y="224.5" style="fill:none;stroke:#000000;stroke-miterlimit:10;" width="21" height="22"/>
		<polyline style="fill:none;stroke:#000000;stroke-miterlimit:10;" points="251.499,226.669 251.002,196.5 286,196.5
			285.669,217.997 274.669,218.664 274.5,226.5 		"/>
		<rect x="359.5" y="294.5" style="fill:none;stroke:#000000;stroke-miterlimit:10;" width="21" height="33"/>
		<rect x="379.5" y="271.5" style="fill:#AFACAC;stroke:#000000;stroke-miterlimit:10;" width="76" height="122"/>
		<polygon style="fill:none;stroke:#000000;stroke-miterlimit:10;" points="359.5,327.5 379.5,327.166 379.5,351.499 359.5,351.5
			"/>
	</g>
	<g id="outer">
		<line style="fill:none;stroke:#000000;stroke-miterlimit:10;" x1="590.834" y1="75.5" x2="606.834" y2="75.167"/>
		<line style="fill:none;stroke:#000000;stroke-miterlimit:10;" x1="590.5" y1="98.5" x2="590.75" y2="75"/>
		<line style="fill:none;stroke:#000000;stroke-miterlimit:10;" x1="556.75" y1="98.75" x2="590.5" y2="99"/>
		<line style="fill:none;stroke:#000000;stroke-miterlimit:10;" x1="557" y1="43.25" x2="557.25" y2="99.25"/>
		<line style="fill:none;stroke:#000000;stroke-miterlimit:10;" x1="607" y1="43.5" x2="557" y2="43.5"/>
		<rect x="557.5" y="99.5" style="fill:#FFFFFF;stroke:#000000;stroke-miterlimit:10;" width="34" height="23"/>
		<rect x="557.5" y="122.5" style="fill:#FFFFFF;stroke:#000000;stroke-miterlimit:10;" width="34" height="29"/>
		<rect x="557.5" y="152.5" style="fill:#FFFFFF;stroke:#000000;stroke-miterlimit:10;" width="34" height="25"/>
		<rect x="590.5" y="75.5" style="fill:#B7B2B2;stroke:#000000;stroke-miterlimit:10;" width="88" height="130"/>
		<rect id="stair" x="734.5" y="263.5" style="fill:none;stroke:#000000;stroke-miterlimit:10;" width="26" height="57"/>
		<rect id="toilet" x="684.5" y="263.5" style="fill:none;stroke:#000000;stroke-miterlimit:10;" width="50" height="57"/>
		<line style="fill:none;stroke:#000000;stroke-miterlimit:10;" x1="684" y1="320.5" x2="653.25" y2="320"/>
		<line style="fill:none;stroke:#000000;stroke-miterlimit:10;" x1="653" y1="319.75" x2="653.25" y2="320.25"/>
		<line style="fill:none;stroke:#000000;stroke-miterlimit:10;" x1="653.5" y1="320" x2="653.5" y2="300"/>
		<line style="fill:none;stroke:#000000;stroke-miterlimit:10;" x1="655.75" y1="263.75" x2="684" y2="263.5"/>
		<line style="fill:none;stroke:#000000;stroke-miterlimit:10;" x1="655.5" y1="264" x2="655.5" y2="289"/>
		<line style="fill:none;stroke:#000000;stroke-miterlimit:10;" x1="655.5" y1="289" x2="670.75" y2="288.75"/>
		<line style="fill:none;stroke:#000000;stroke-miterlimit:10;" x1="670.5" y1="289" x2="670.5" y2="275"/>
		<line style="fill:none;stroke:#000000;stroke-miterlimit:10;" x1="670.334" y1="274.833" x2="684.001" y2="274.917"/>
		<line style="fill:none;stroke:#000000;stroke-miterlimit:10;" x1="656" y1="278.5" x2="670" y2="278.5"/>
		<line style="fill:none;stroke:#000000;stroke-miterlimit:10;" x1="675.75" y1="288.25" x2="684.75" y2="288"/>
		<path style="fill:none;stroke:#000000;stroke-miterlimit:10;" d="M557.5,177.5c0,0,8,102,25.5,121.75l70.5,0.5"/>
		<line style="fill:none;stroke:#000000;stroke-miterlimit:10;" x1="563" y1="231" x2="674.334" y2="231.333"/>
		<rect x="656.5" y="58.5" style="fill:none;stroke:#000000;stroke-miterlimit:10;" width="23" height="16"/>
		<rect x="656.5" y="20.5" style="fill:none;stroke:#000000;stroke-miterlimit:10;" width="27" height="38"/>
		<rect id="stair_1_" x="736.5" y="20.5" style="fill:none;stroke:#000000;stroke-miterlimit:10;" width="22" height="53"/>
		<line style="fill:none;stroke:#000000;stroke-miterlimit:10;" x1="749.5" y1="74" x2="749.5" y2="263"/>
		<line style="fill:none;stroke:#000000;stroke-miterlimit:10;" x1="682" y1="218" x2="738" y2="218.5"/>
		<g id="toilet_1_">
			<g>
				<rect x="697.604" y="284.354" style="fill:none;stroke:#000000;" width="20.646" height="21.146"/>
				<g>
					<path style="fill:#44403F;stroke:#000000;" d="M718.25,302.163c0,1.84-1.46,3.336-3.256,3.336h-14.137
						c-1.798,0-3.256-1.496-3.256-3.336v-14.479c0-1.841,1.458-3.33,3.256-3.33h14.137c1.796,0,3.256,1.489,3.256,3.33V302.163z"/>
					<g>
						<polygon style="fill:#FFFFFF;stroke:#000000;" points="707.589,285.932 707.589,303.018 699.946,303.018 699.946,289.682
													"/>
						<polygon style="fill:#FFFFFF;stroke:#000000;" points="708.446,285.932 708.446,303.018 716.087,303.018 716.087,289.682
													"/>
						<g>
							<g>
								<polygon style="fill:#231815;stroke:#000000;" points="702.768,291.193 704.909,291.193 706.868,296.132 706.479,296.4
									704.844,293.3 704.694,293.459 706.41,298.176 704.726,298.176 704.184,302.286 703.502,302.286 702.96,298.176
									701.276,298.176 703.018,293.555 702.842,293.3 701.211,296.4 700.816,296.132 								"/>
								<path style="fill:#231815;stroke:#000000;" d="M705.013,289.631c0,0.692-0.55,1.254-1.224,1.254
									c-0.675,0-1.221-0.562-1.221-1.254c0-0.688,0.546-1.25,1.221-1.25C704.463,288.381,705.013,288.943,705.013,289.631z"/>
								<path style="fill:#231815;stroke:#000000;" d="M713.257,289.631c0,0.692-0.549,1.254-1.223,1.254
									c-0.677,0-1.226-0.562-1.226-1.254c0-0.688,0.549-1.25,1.226-1.25C712.708,288.381,713.257,288.943,713.257,289.631z"/>
							</g>
							<polygon style="fill:#231815;stroke:#000000;" points="710.273,291.193 713.628,291.193 714.383,291.648 714.383,297.445
								713.731,297.445 713.731,293.407 713.206,293.407 713.206,302.286 712.365,302.286 712.115,298.896 711.834,298.896
								711.608,302.286 710.72,302.286 710.72,293.407 710.199,293.407 710.193,297.445 709.55,297.445 709.55,291.768 							"/>
						</g>
					</g>
				</g>
			</g>
			<g id="elevator">
				<g>
					<g>
						<g>
							<polygon style="fill:#231815;stroke:#000000;stroke-width:0.3082;" points="650.69,236.198 648.097,242.405 649.435,242.377
								652.021,236.39 							"/>
							<polygon style="fill:#231815;stroke:#000000;stroke-width:0.3082;" points="656.066,236.198 658.639,242.4 657.303,242.391
								654.736,236.39 							"/>
							<polygon style="fill:#231815;stroke:#000000;stroke-width:0.3082;" points="651.523,245.615 651.523,236.346
								655.229,236.346 655.229,245.918 655.227,245.918 655.227,253.977 653.912,253.977 653.912,245.857 652.83,245.857
								652.83,253.977 651.517,253.977 651.517,245.615 							"/>
							<g>
								<ellipse style="fill:#231815;stroke:#000000;stroke-width:0.3082;" cx="653.426" cy="234.112" rx="1.601" ry="2.232"/>
							</g>
						</g>
					</g>
					<g>
						<g>
							<polygon style="fill:#231815;stroke:#000000;stroke-width:0.3082;" points="641.318,236.198 638.724,242.405
								640.062,242.377 642.646,236.39 							"/>
							<polygon style="fill:#231815;stroke:#000000;stroke-width:0.3082;" points="646.694,236.198 649.282,242.388
								647.938,242.409 645.364,236.39 							"/>
							<polygon style="fill:#231815;stroke:#000000;stroke-width:0.3082;" points="642.151,245.615 642.151,236.346
								645.854,236.346 645.854,245.918 645.854,245.918 645.854,253.977 644.54,253.977 644.54,245.857 643.458,245.857
								643.458,253.977 642.145,253.977 642.145,245.615 							"/>
							<g>
								<ellipse style="fill:#231815;stroke:#000000;stroke-width:0.3082;" cx="644.054" cy="234.112" rx="1.601" ry="2.232"/>
							</g>
						</g>
					</g>
					<g>
						<g>
							<polygon style="fill:#231815;stroke:#000000;stroke-width:0.3082;" points="659.837,236.198 657.446,242.374
								658.788,242.377 661.167,236.39 							"/>
							<polygon style="fill:#231815;stroke:#000000;stroke-width:0.3082;" points="665.213,236.198 667.808,242.405 666.47,242.377
								663.884,236.39 							"/>
							<polygon style="fill:#231815;stroke:#000000;stroke-width:0.3082;" points="660.67,245.615 660.67,236.346 664.374,236.346
								664.374,245.918 664.373,245.918 664.373,253.977 663.059,253.977 663.059,245.857 661.977,245.857 661.977,253.977
								660.663,253.977 660.663,245.615 							"/>
							<g>
								<ellipse style="fill:#231815;stroke:#000000;stroke-width:0.3082;" cx="662.573" cy="234.112" rx="1.6" ry="2.232"/>
							</g>
						</g>
					</g>
				</g>
				<rect x="637.5" y="231.5" style="fill:none;stroke:#000000;" width="30" height="23"/>
			</g>
		</g>
		<rect id="toilet_2_" x="252.5" y="333.5" style="fill:none;stroke:#000000;stroke-miterlimit:10;" width="53" height="60"/>
		<rect id="stair_2_" x="192.5" y="280.5" style="fill:none;stroke:#000000;stroke-miterlimit:10;" width="24" height="79"/>
		<rect id="stair_3_" x="339.5" y="222.5" style="fill:none;stroke:#000000;stroke-miterlimit:10;" width="64" height="22"/>
		<rect id="stair_4_" x="106.5" y="191.5" style="fill:none;stroke:#000000;stroke-miterlimit:10;" width="62" height="32"/>
		<rect x="168.5" y="134.5" style="fill:none;stroke:#000000;stroke-miterlimit:10;" width="27" height="89"/>
		<rect x="168.5" y="223.5" style="fill:none;stroke:#000000;stroke-miterlimit:10;" width="27" height="23"/>
		<rect x="195.5" y="134.5" style="fill:none;stroke:#000000;stroke-miterlimit:10;" width="57" height="41"/>
		<polygon id="stair_5_" style="fill:none;stroke:#000000;stroke-miterlimit:10;" points="459.501,135.175 491.834,134.833
			491.5,188.167 459.5,188.167 		"/>
		<line style="fill:none;stroke:#000000;stroke-miterlimit:10;" x1="252.674" y1="134.666" x2="459.674" y2="134.999"/>
		<line style="fill:none;stroke:#000000;stroke-miterlimit:10;" x1="193" y1="454.5" x2="484" y2="454.5"/>
		<path style="fill:none;stroke:#000000;stroke-miterlimit:10;" d="M484,454.666l0.667-155.333L484,217.75c0,0-53.25-1.5-52.5,14.25
			s-0.25,29.75-0.25,29.75"/>
		<line style="fill:none;stroke:#000000;stroke-miterlimit:10;" x1="484.501" y1="298.166" x2="574.001" y2="276.333"/>
		<line style="fill:none;stroke:#000000;stroke-miterlimit:10;" x1="491.334" y1="134.666" x2="556.667" y2="135.332"/>
		<path style="fill:none;stroke:#000000;stroke-miterlimit:10;" d="M192,297.5"/>
		<polyline style="fill:#BCBBBC;stroke:#000000;stroke-miterlimit:10;" points="192.167,389.499 192,298.5 127,298.5 126,407.5
			173.5,405.5 173.5,390.5 192.5,389.5 192.5,454 		"/>
		<line style="fill:none;stroke:#000000;stroke-miterlimit:10;" x1="192.5" y1="389.5" x2="193" y2="454.5"/>
		<g id="toilet_3_">
			<g>
				<rect x="271.602" y="351.104" style="fill:none;stroke:#000000;" width="21.948" height="23.634"/>
				<g>
					<path style="fill:#44403F;stroke:#000000;" d="M293.55,371.009c0,2.057-1.552,3.729-3.461,3.729h-15.027
						c-1.911,0-3.46-1.672-3.46-3.729v-16.184c0-2.057,1.55-3.722,3.46-3.722h15.027c1.909,0,3.461,1.665,3.461,3.722V371.009z"/>
					<g>
						<polygon style="fill:#FFFFFF;stroke:#000000;" points="282.217,352.867 282.217,371.963 274.093,371.963 274.093,357.06
													"/>
						<polygon style="fill:#FFFFFF;stroke:#000000;" points="283.128,352.867 283.128,371.963 291.251,371.963 291.251,357.06
													"/>
						<g>
							<g>
								<polygon style="fill:#231815;stroke:#000000;" points="277.092,358.75 279.369,358.75 281.451,364.268 281.037,364.568
									279.299,361.103 279.14,361.28 280.964,366.552 279.173,366.552 278.597,371.146 277.873,371.146 277.296,366.552
									275.507,366.552 277.358,361.387 277.17,361.103 275.438,364.568 275.018,364.268 								"/>
								<path style="fill:#231815;stroke:#000000;" d="M279.479,357.003c0,0.773-0.584,1.4-1.301,1.4
									c-0.717,0-1.298-0.627-1.298-1.4c0-0.768,0.581-1.396,1.298-1.396C278.895,355.605,279.479,356.235,279.479,357.003z"/>
								<path style="fill:#231815;stroke:#000000;" d="M288.242,357.003c0,0.773-0.584,1.4-1.299,1.4c-0.72,0-1.302-0.627-1.302-1.4
									c0-0.768,0.582-1.396,1.302-1.396C287.658,355.605,288.242,356.235,288.242,357.003z"/>
							</g>
							<polygon style="fill:#231815;stroke:#000000;" points="285.071,358.75 288.636,358.75 289.438,359.259 289.438,365.735
								288.746,365.735 288.746,361.223 288.188,361.223 288.188,371.146 287.295,371.146 287.028,367.358 286.729,367.358
								286.489,371.146 285.545,371.146 285.545,361.223 284.991,361.223 284.986,365.735 284.302,365.735 284.302,359.39
								"/>
						</g>
					</g>
				</g>
			</g>
			<g id="elevator_1_">
				<g>
					<g>
						<g>
							<polygon style="stroke:#000000;stroke-width:0.3018;" points="294.661,225.704 292.226,232.045 293.481,232.017
								295.909,225.9 							"/>
							<polygon style="stroke:#000000;stroke-width:0.3018;" points="299.708,225.704 302.122,232.04 300.867,232.031
								298.458,225.9 							"/>
							<polygon style="stroke:#000000;stroke-width:0.3018;" points="295.443,235.325 295.443,225.855 298.919,225.855
								298.919,235.634 298.918,235.634 298.918,243.867 297.685,243.867 297.685,235.572 296.669,235.572 296.669,243.867
								295.437,243.867 295.437,235.325 							"/>
							<g>
								<ellipse style="stroke:#000000;stroke-width:0.3018;" cx="297.229" cy="223.573" rx="1.502" ry="2.281"/>
							</g>
						</g>
					</g>
					<g>
						<g>
							<polygon style="stroke:#000000;stroke-width:0.3018;" points="285.863,225.704 283.429,232.045 284.684,232.017
								287.111,225.9 							"/>
							<polygon style="stroke:#000000;stroke-width:0.3018;" points="290.91,225.704 293.339,232.027 292.077,232.049
								289.662,225.9 							"/>
							<polygon style="stroke:#000000;stroke-width:0.3018;" points="286.646,235.325 286.646,225.855 290.122,225.855
								290.122,235.634 290.121,235.634 290.121,243.867 288.888,243.867 288.888,235.572 287.872,235.572 287.872,243.867
								286.639,243.867 286.639,235.325 							"/>
							<g>
								<path style="stroke:#000000;stroke-width:0.3018;" d="M286.93,223.573c0,1.259,0.672,2.281,1.501,2.281
									c0.83,0,1.502-1.022,1.502-2.281c0-1.26-2.332-2.282-1.502-2.282C290.616,221.292,286.93,218.419,286.93,223.573z"/>
							</g>
						</g>
					</g>
					<g>
						<g>
							<polygon style="stroke:#000000;stroke-width:0.3018;" points="303.247,225.704 301.002,232.013 302.261,232.017
								304.495,225.9 							"/>
							<polygon style="stroke:#000000;stroke-width:0.3018;" points="308.293,225.704 310.728,232.045 309.472,232.017
								307.045,225.9 							"/>
							<polygon style="stroke:#000000;stroke-width:0.3018;" points="304.028,235.325 304.028,225.855 307.505,225.855
								307.505,235.634 307.503,235.634 307.503,243.867 306.271,243.867 306.271,235.572 305.255,235.572 305.255,243.867
								304.022,243.867 304.022,235.325 							"/>
							<g>
								<ellipse style="stroke:#000000;stroke-width:0.3018;" cx="305.814" cy="223.573" rx="1.502" ry="2.281"/>
							</g>
						</g>
					</g>
				</g>
				<g id="&#x7BAD;&#x5934;_30">
					<g>
						<polygon style="fill:#231815;stroke:#000000;" points="293.75,212.719 295,212.72 292.868,201.667 290.735,212.719
							291.985,212.719 291.985,219.333 293.75,219.333 						"/>
					</g>
					<g>
						<polygon style="fill:#231815;stroke:#000000;" points="300.652,208.613 299.402,208.613 301.534,219.666 303.667,208.613
							302.417,208.613 302.417,202 300.652,202 						"/>
					</g>
				</g>
				<rect x="282.5" y="220.5" style="fill:none;stroke:#000000;" width="29" height="24"/>
			</g>
		</g>

			<text transform="matrix(1 0 0 1 269.3325 290.001)" style="stroke:#000000;stroke-miterlimit:10; font-family:'AdobeSongStd-Light-GBpc-EUC-H'; font-size:12;">Library</text>

			<text transform="matrix(1 0 0 1 269.3325 290.001)" style="fill:none;stroke:#000000; font-family:'AdobeSongStd-Light-GBpc-EUC-H'; font-size:12;">Library</text>

			<text transform="matrix(1 0 0 1 269.3325 304.4014)" style="stroke:#000000;stroke-miterlimit:10; font-family:'AdobeSongStd-Light-GBpc-EUC-H'; font-size:12;">Instruction</text>

			<text transform="matrix(1 0 0 1 269.3325 304.4014)" style="fill:none;stroke:#000000; font-family:'AdobeSongStd-Light-GBpc-EUC-H'; font-size:12;">Instruction</text>

			<text transform="matrix(1 0 0 1 269.3325 318.8008)" style="stroke:#000000;stroke-miterlimit:10; font-family:'AdobeSongStd-Light-GBpc-EUC-H'; font-size:12;">Lab</text>

			<text transform="matrix(1 0 0 1 269.3325 318.8008)" style="fill:none;stroke:#000000; font-family:'AdobeSongStd-Light-GBpc-EUC-H'; font-size:12;">Lab</text>
	</g>
</g>
<text transform="matrix(1 0 0 1 600.5 266.167)" style="font-family:'AdobeSongStd-Light-GBpc-EUC-H'; font-size:12;">Cafe</text>
</svg>
