<?xml version="1.0" encoding="utf-8"?>
<!-- Generator: Adobe Illustrator 17.1.0, SVG Export Plug-In . SVG Version: 6.00 Build 0)  -->
<!DOCTYPE svg PUBLIC "-//W3C//DTD SVG 1.1//EN" "http://www.w3.org/Graphics/SVG/1.1/DTD/svg11.dtd">
<svg version="1.1" id="PostFloor1" xmlns="http://www.w3.org/2000/svg" xmlns:xlink="http://www.w3.org/1999/xlink" x="0px" y="0px"
	 viewBox="0 0 885 510" enable-background="new 0 0 885 510" xml:space="preserve">

<g id="active">
	<rect id="room141" y="149.1" fill="#29ABE2" stroke="#0B0B0B" stroke-miterlimit="10" width="67.3" height="42.1"/>
	<rect id="room140" x="87.4" y="126.1" fill="#29ABE2" stroke="#0B0B0B" stroke-miterlimit="10" width="67.3" height="42.1"/>
	<rect id="room143" y="64.9" fill="#29ABE2" stroke="#0B0B0B" stroke-miterlimit="10" width="67.3" height="42.1"/>
	<rect id="room142" y="107" fill="#29ABE2" stroke="#0B0B0B" stroke-miterlimit="10" width="67.3" height="42.1"/>
	<rect id="room144" x="87.4" y="84" fill="#29ABE2" stroke="#0B0B0B" stroke-miterlimit="10" width="67.3" height="42.1"/>
	<rect id="computerArea" x="148.1" y="202" fill="none" stroke="#0B0B0B" stroke-miterlimit="10" width="395.4" height="214.2"/>
	<g id="Win">
    		<rect x="508" y="247.5" fill="#E6E700" width="8.7" height="15"/>
    		<rect x="508" y="277.5" fill="#E6E700" width="8.7" height="15"/>
    		<rect x="508" y="218.2" fill="#E6E700" width="8.7" height="15"/>
    		<rect x="492.3" y="247.2" fill="#E6E700" width="8.7" height="15"/>
    		<rect x="492.3" y="277.2" fill="#E6E700" width="8.7" height="15"/>
    		<rect x="492.3" y="217.8" fill="#E6E700" width="8.7" height="15"/>
    		<rect x="429.7" y="247.3" fill="#E6E700" width="8.7" height="15"/>
    		<rect x="429.7" y="277.3" fill="#E6E700" width="8.7" height="15"/>
    		<rect x="429.7" y="218" fill="#E6E700" width="8.7" height="15"/>
    		<rect x="414" y="247" fill="#E6E700" width="8.7" height="15"/>
    		<rect x="414" y="277" fill="#E6E700" width="8.7" height="15"/>
    		<rect x="414" y="217.7" fill="#E6E700" width="8.7" height="15"/>
    		<rect x="352.4" y="247.4" fill="#E6E700" width="8.7" height="15"/>
    		<rect x="352.4" y="277.4" fill="#E6E700" width="8.7" height="15"/>
    		<rect x="352.4" y="218" fill="#E6E700" width="8.7" height="15"/>
    		<rect x="336.8" y="247" fill="#E6E700" width="8.7" height="15"/>
    		<rect x="336.8" y="277" fill="#E6E700" width="8.7" height="15"/>
    		<rect x="336.8" y="217.7" fill="#E6E700" width="8.7" height="15"/>
    		<rect x="195.3" y="247.8" fill="#E6E700" width="8.7" height="15"/>
    		<rect x="195.3" y="277.8" fill="#E6E700" width="8.7" height="15"/>
    		<rect x="195.3" y="218.5" fill="#E6E700" width="8.7" height="15"/>
    		<rect x="179.7" y="247.5" fill="#E6E700" width="8.7" height="15"/>
    		<rect x="179.7" y="277.5" fill="#E6E700" width="8.7" height="15"/>
    		<rect x="179.7" y="218.2" fill="#E6E700" width="8.7" height="15"/>
    		<rect x="274.1" y="248.2" fill="#E6E700" width="8.7" height="15"/>
    		<rect x="274.1" y="278.2" fill="#E6E700" width="8.7" height="15"/>
    		<rect x="274.1" y="218.9" fill="#E6E700" width="8.7" height="15"/>
    		<rect x="258.4" y="247.9" fill="#E6E700" width="8.7" height="15"/>
    		<rect x="258.4" y="277.9" fill="#E6E700" width="8.7" height="15"/>
    		<rect x="258.4" y="218.5" fill="#E6E700" width="8.7" height="15"/>
    	</g>
    	<g id="Mac">
    		<rect x="508" y="368.7" fill="#B7B334" width="8.7" height="15"/>
    		<rect x="508" y="335.5" fill="#B7B334" width="8.7" height="15"/>
    		<rect x="492.3" y="368.3" fill="#B7B334" width="8.7" height="15"/>
    		<rect x="492.3" y="335.1" fill="#B7B334" width="8.7" height="15"/>
    		<rect x="429.7" y="351.7" fill="#B7B334" width="8.7" height="15"/>
    		<rect x="429.7" y="381.7" fill="#B7B334" width="8.7" height="15"/>
    		<rect x="429.7" y="322.3" fill="#B7B334" width="8.7" height="15"/>
    		<rect x="414" y="351.3" fill="#B7B334" width="8.7" height="15"/>
    		<rect x="414" y="381.3" fill="#B7B334" width="8.7" height="15"/>
    		<rect x="414" y="322" fill="#B7B334" width="8.7" height="15"/>
    		<rect x="352.4" y="368.5" fill="#B7B334" width="8.7" height="15"/>
    		<rect x="352.4" y="335.4" fill="#B7B334" width="8.7" height="15"/>
    		<rect x="336.8" y="368.1" fill="#B7B334" width="8.7" height="15"/>
    		<rect x="336.8" y="335" fill="#B7B334" width="8.7" height="15"/>
    		<rect x="195.3" y="369" fill="#B7B334" width="8.7" height="15"/>
    		<rect x="195.3" y="335.8" fill="#B7B334" width="8.7" height="15"/>
    		<rect x="179.7" y="368.6" fill="#B7B334" width="8.7" height="15"/>
    		<rect x="179.7" y="335.4" fill="#B7B334" width="8.7" height="15"/>
    		<rect x="274.1" y="352.5" fill="#B7B334" width="8.7" height="15"/>
    		<rect x="274.1" y="382.5" fill="#B7B334" width="8.7" height="15"/>
    		<rect x="274.1" y="323.2" fill="#B7B334" width="8.7" height="15"/>
    		<rect x="258.4" y="352.2" fill="#B7B334" width="8.7" height="15"/>
    		<rect x="258.4" y="382.2" fill="#B7B334" width="8.7" height="15"/>
    		<rect x="258.4" y="322.9" fill="#B7B334" width="8.7" height="15"/>
    	</g>
	<rect x="110.3" y="202.6" fill="none" stroke="#0B0B0B" stroke-miterlimit="10" width="37.1" height="56.1"/>
	<rect id="office2" x="61.6" y="258.7" fill="#828287" stroke="#0B0B0B" stroke-miterlimit="10" width="85.8" height="59.9"/>
	<rect id="office3" x="61.6" y="318.7" fill="#828287" stroke="#0B0B0B" stroke-miterlimit="10" width="85.8" height="58.7"/>
	<rect id="office1" x="232" y="416.9" fill="#828287" stroke="#0B0B0B" stroke-miterlimit="10" width="70.2" height="88"/>
	<rect id="office" x="147.1" y="416.2" fill="#828287" stroke="#0B0B0B" stroke-miterlimit="10" width="84.9" height="44.6"/>
	<rect id="office_1_" x="147.1" y="460.9" fill="#828287" stroke="#0B0B0B" stroke-miterlimit="10" width="84.9" height="42.6"/>
	<path id="office4" fill="#828287" stroke="#0B0B0B" stroke-miterlimit="10" d="M387.4,416.9h78v86.1c0,0-32.9,1.9-77.3,1.9"/>
	<rect x="302.2" y="444.8" fill="none" stroke="#0B0B0B" stroke-miterlimit="10" width="85.9" height="60.1"/>
	<polygon fill="none" stroke="#0B0B0B" stroke-miterlimit="10" points="61.9,377.3 147.1,377.3 147.1,416.2 232,416.9 232,505.5 
		61.6,503.8 	"/>
	<rect id="newAC" x="656.1" y="305.9" fill="#FAAC58" stroke="#0B0B0B" stroke-miterlimit="10" width="7" height="56.8"/>
	<rect id="PostPrinter" x="304.6" y="419.2" fill="#109988" stroke="#0B0B0B" stroke-miterlimit="10" width="80.3" height="22.2"/>
</g>
<g id="outfit">
	<symbol  id="Children" viewBox="-36.8 -20.1 73.6 40.1">
    	<g>
    				<polygon fill="#231F20" stroke="#FFFFFF" stroke-width="0.65" points="-6.4,12 -12.9,0.9 -9.5,1 -3.1,11.7 				"/>
    				<polygon fill="#231F20" stroke="#FFFFFF" stroke-width="0.65" points="7,12 13.4,0.9 10.1,1 3.7,11.7 				"/>
    				<polygon fill="#231F20" stroke="#FFFFFF" stroke-width="0.65" points="-4.3,-4.8 -4.3,11.8 4.9,11.8 4.9,-5.3 4.9,-5.3
    					4.9,-19.7 1.6,-19.7 1.6,-5.2 -1.1,-5.2 -1.1,-19.7 -4.4,-19.7 -4.4,-4.8 				"/>

    					<path fill="#231F20" stroke="#FFFFFF" stroke-width="0.65" d="M-3.6,15.7c0-2.2,1.8-4,4-4s4,1.8,4,4c0,2.2-1.8,4-4,4
    						C-1.8,19.7-3.6,17.9-3.6,15.7z"/>

    				<polygon fill="#231F20" stroke="#FFFFFF" stroke-width="0.65" points="-29.8,12 -36.2,0.9 -32.9,1 -26.4,11.7 				"/>
    				<polygon fill="#231F20" stroke="#FFFFFF" stroke-width="0.65" points="-16.4,12 -9.9,1 -13.3,0.9 -19.7,11.7 				"/>
    				<polygon fill="#231F20" stroke="#FFFFFF" stroke-width="0.65" points="-27.7,-4.8 -27.7,11.8 -18.5,11.8 -18.5,-5.3 -18.5,-5.3
    					-18.5,-19.7 -21.7,-19.7 -21.7,-5.2 -24.4,-5.2 -24.4,-19.7 -27.7,-19.7 -27.7,-4.8 				"/>

    					<path fill="#231F20" stroke="#FFFFFF" stroke-width="0.65" d="M-26.9,15.7c0-2.2,1.8-4,4-4c2.2,0,4,1.8,4,4c0,2.2-1.8,4-4,4
    						C-25.1,19.7-26.9,17.9-26.9,15.7z"/>

    				<polygon fill="#231F20" stroke="#FFFFFF" stroke-width="0.65" points="16.4,12 10.4,1 13.8,1 19.7,11.7 				"/>
    				<polygon fill="#231F20" stroke="#FFFFFF" stroke-width="0.65" points="29.8,12 36.2,0.9 32.9,1 26.4,11.7 				"/>
    				<polygon fill="#231F20" stroke="#FFFFFF" stroke-width="0.65" points="18.4,-4.8 18.4,11.8 27.7,11.8 27.7,-5.3 27.7,-5.3
    					27.7,-19.7 24.4,-19.7 24.4,-5.2 21.7,-5.2 21.7,-19.7 18.4,-19.7 18.4,-4.8 				"/>

    					<path fill="#231F20" stroke="#FFFFFF" stroke-width="0.65" d="M19.2,15.7c0-2.2,1.8-4,4-4c2.2,0,4,1.8,4,4c0,2.2-1.8,4-4,4
    						C21,19.7,19.2,17.9,19.2,15.7z"/>

    	</g>
    </symbol>
	<text transform="matrix(1.2765 0 0 1 720.3144 371.835)" font-family="'ArialMT'" font-size="24">Café</text>
	<rect y="7.5" fill="none" stroke="#0B0B0B" stroke-miterlimit="10" width="160.4" height="57.4"/>
	<rect y="192.4" fill="none" stroke="#0B0B0B" stroke-miterlimit="10" width="110.3" height="66.3"/>
	<line fill="none" stroke="#0B0B0B" stroke-miterlimit="10" x1="0" y1="192.4" x2="110.3" y2="258.7"/>
	<line fill="none" stroke="#0B0B0B" stroke-miterlimit="10" x1="0" y1="258.7" x2="110.3" y2="192.4"/>
	<polygon id="stair" fill="none" stroke="#0B0B0B" stroke-miterlimit="10" points="885,64.9 721.7,64.9 720.3,7.5 885,7.5 	"/>
	<rect id="toilet" x="721.7" y="64.9" fill="none" stroke="#0B0B0B" stroke-miterlimit="10" width="163.3" height="125"/>
	<rect x="721.7" y="189.9" fill="none" stroke="#0B0B0B" stroke-miterlimit="10" width="163.3" height="70.1"/>
	<line fill="none" stroke="#0B0B0B" stroke-miterlimit="10" x1="754.7" y1="190.5" x2="754.7" y2="224.9"/>
	<line fill="none" stroke="#0B0B0B" stroke-miterlimit="10" x1="754" y1="225.6" x2="796.9" y2="225.6"/>
	<line fill="none" stroke="#0B0B0B" stroke-miterlimit="10" x1="796.2" y1="226.2" x2="796.2" y2="260.6"/>
	<line fill="none" stroke="#0B0B0B" stroke-miterlimit="10" x1="796.2" y1="208.4" x2="796.2" y2="190.5"/>
	<line fill="none" stroke="#0B0B0B" stroke-miterlimit="10" x1="828.4" y1="260" x2="829.9" y2="438.5"/>
	<path fill="none" stroke="#0B0B0B" stroke-miterlimit="10" d="M503.3,501.8c-12.6,0-25.3,1-37.8,1"/>
	<path fill="none" stroke="#0B0B0B" stroke-width="2" stroke-miterlimit="10" d="M503.3,500.6"/>
	<path fill="none" stroke="#0B0B0B" stroke-miterlimit="10" d="M875.7,422.6c0,0-112.3,38.2-249.8,62.1"/>
	<line fill="none" stroke="#0B0B0B" stroke-width="2" stroke-miterlimit="10" x1="161.1" y1="25.6" x2="721.7" y2="26.4"/>
	<line fill="none" stroke="#0B0B0B" stroke-width="2" stroke-miterlimit="10" x1="589.3" y1="59.1" x2="589.3" y2="199.4"/>
	
		<use xlink:href="#Children"  width="73.6" height="40.1" x="-36.8" y="-20.1" transform="matrix(0.7969 0 0 -0.8841 659.0248 288.6064)" overflow="visible"/>
	<rect x="630.1" y="270.3" fill="none" stroke="#0B0B0B" stroke-miterlimit="10" width="57.8" height="35.8"/>
	<text transform="matrix(1.2765 0 0 1 720.3144 371.835)" fill="none" stroke="#0B0B0B" font-family="'ArialMT'" font-size="24">Cafe</text>
	<g>
		<g>
			<polyline fill="#231F20" stroke="#0B0B0B" stroke-miterlimit="10" points="629.1,282.3 609.5,285.6 609.5,283.2 593.4,283.2 
				593.4,281.3 606.5,281.3 609.5,279 			"/>
		</g>
	</g>
	<g>
		<g>
			<polyline fill="#231F20" stroke="#0B0B0B" stroke-miterlimit="10" points="613,293.1 613,295.4 629.1,295.4 629.1,297.3 
				613,297.3 614,299.7 594.4,296.4 			"/>
		</g>
	</g>
	<line fill="none" stroke="#0B0B0B" stroke-miterlimit="10" x1="388.1" y1="444.8" x2="388.4" y2="416.9"/>
	<g id="Restrooms">
		<g>
			<rect x="782.9" y="105.6" fill="none" stroke="#0B0B0B" width="39.2" height="38.3"/>
			<g>
				<path fill="#231F20" stroke="#0B0B0B" d="M822,137.9c0,3.3-2.8,6-6.2,6H789c-3.4,0-6.2-2.7-6.2-6v-26.2c0-3.3,2.8-6,6.2-6h26.8
					c3.4,0,6.2,2.7,6.2,6V137.9z"/>
				<g>
					<polygon fill="#FFFFFF" stroke="#0B0B0B" points="801.8,108.5 801.8,139.4 787.3,139.4 787.3,115.3 					"/>
					<polygon fill="#FFFFFF" stroke="#0B0B0B" points="803.4,108.5 803.4,139.4 817.9,139.4 817.9,115.3 					"/>
					<g>
						<g>
							<polygon fill="#231F20" stroke="#0B0B0B" points="792.7,118 796.7,118 800.5,127 799.7,127.4 796.6,121.8 796.3,122.1 
								799.6,130.7 796.4,130.7 795.4,138.1 794.1,138.1 793,130.7 789.8,130.7 793.1,122.3 792.8,121.8 789.7,127.4 789,127 
															"/>
							<path fill="#231F20" stroke="#0B0B0B" d="M796.9,115.2c0,1.3-1,2.3-2.3,2.3c-1.3,0-2.3-1-2.3-2.3c0-1.2,1-2.3,2.3-2.3
								C795.9,112.9,796.9,113.9,796.9,115.2z"/>
							<path fill="#231F20" stroke="#0B0B0B" d="M812.6,115.2c0,1.3-1,2.3-2.3,2.3c-1.3,0-2.3-1-2.3-2.3c0-1.2,1-2.3,2.3-2.3
								C811.5,112.9,812.6,113.9,812.6,115.2z"/>
						</g>
						<polygon fill="#231F20" stroke="#0B0B0B" points="806.9,118 813.3,118 814.7,118.8 814.7,129.3 813.5,129.3 813.5,122 
							812.5,122 812.5,138.1 810.9,138.1 810.4,132 809.9,132 809.4,138.1 807.8,138.1 807.8,122 806.8,122 806.8,129.3 
							805.5,129.3 805.5,119.1 						"/>
					</g>
				</g>
			</g>
		</g>
	</g>
	<line fill="none" stroke="#0B0B0B" stroke-miterlimit="10" x1="754.7" y1="7.5" x2="754.7" y2="64.9"/>
	<line fill="none" stroke="#0B0B0B" stroke-miterlimit="10" x1="762" y1="7.5" x2="762" y2="64.9"/>
	<line fill="none" stroke="#0B0B0B" stroke-miterlimit="10" x1="768.7" y1="7.5" x2="768.7" y2="64.9"/>
	<line fill="none" stroke="#0B0B0B" stroke-miterlimit="10" x1="775.4" y1="7.5" x2="775.4" y2="64.9"/>
	<line fill="none" stroke="#0B0B0B" stroke-miterlimit="10" x1="782.7" y1="7.5" x2="782.7" y2="64.9"/>
	<line fill="none" stroke="#0B0B0B" stroke-miterlimit="10" x1="790.1" y1="7.5" x2="790.1" y2="64.9"/>
	<line fill="none" stroke="#0B0B0B" stroke-miterlimit="10" x1="798.3" y1="7.5" x2="798.3" y2="64.9"/>
	<line fill="none" stroke="#0B0B0B" stroke-miterlimit="10" x1="806" y1="7.5" x2="806" y2="64.9"/>
	<line fill="none" stroke="#0B0B0B" stroke-miterlimit="10" x1="813.2" y1="7.5" x2="813.2" y2="64.9"/>
	<line fill="none" stroke="#0B0B0B" stroke-miterlimit="10" x1="821" y1="7.5" x2="821" y2="64.9"/>
	<line fill="none" stroke="#0B0B0B" stroke-miterlimit="10" x1="830" y1="7.5" x2="830" y2="64.9"/>
	<line fill="none" stroke="#0B0B0B" stroke-miterlimit="10" x1="837.2" y1="7.5" x2="837.2" y2="64.9"/>
	<line fill="none" stroke="#0B0B0B" stroke-miterlimit="10" x1="845" y1="7.5" x2="845" y2="64.9"/>
	<line fill="none" stroke="#0B0B0B" stroke-miterlimit="10" x1="852.3" y1="7.5" x2="852.3" y2="64.9"/>
	<path fill="none" stroke="#0B0B0B" stroke-miterlimit="10" d="M396.7,25.6"/>
	<path fill="none" stroke="#0B0B0B" stroke-miterlimit="10" d="M404,25.6"/>
	<path fill="none" stroke="#0B0B0B" stroke-miterlimit="10" d="M410.7,25.6"/>
	<path fill="none" stroke="#0B0B0B" stroke-miterlimit="10" d="M417.4,25.6"/>
	<path fill="none" stroke="#0B0B0B" stroke-miterlimit="10" d="M424.7,25.6"/>
	<path fill="none" stroke="#0B0B0B" stroke-miterlimit="10" d="M432.1,25.6"/>
	<path fill="none" stroke="#0B0B0B" stroke-miterlimit="10" d="M440.3,25.6"/>
	<path fill="none" stroke="#0B0B0B" stroke-miterlimit="10" d="M448,25.6"/>
	<path fill="none" stroke="#0B0B0B" stroke-miterlimit="10" d="M455.2,25.6"/>
	<path fill="none" stroke="#0B0B0B" stroke-miterlimit="10" d="M463,25.6"/>
	<path fill="none" stroke="#0B0B0B" stroke-miterlimit="10" d="M472,25.6"/>
	<path fill="none" stroke="#0B0B0B" stroke-miterlimit="10" d="M479.2,25.6"/>
	<path fill="none" stroke="#0B0B0B" stroke-miterlimit="10" d="M487,25.6"/>
	<path fill="none" stroke="#0B0B0B" stroke-miterlimit="10" d="M494.3,25.6"/>
	<line fill="none" stroke="#0B0B0B" stroke-miterlimit="10" x1="134.5" y1="7.5" x2="134.5" y2="64.9"/>
	<line fill="none" stroke="#0B0B0B" stroke-miterlimit="10" x1="127.2" y1="7.5" x2="127.2" y2="64.9"/>
	<line fill="none" stroke="#0B0B0B" stroke-miterlimit="10" x1="120.5" y1="7.5" x2="120.5" y2="64.9"/>
	<line fill="none" stroke="#0B0B0B" stroke-miterlimit="10" x1="113.8" y1="7.5" x2="113.8" y2="64.9"/>
	<line fill="none" stroke="#0B0B0B" stroke-miterlimit="10" x1="106.5" y1="7.5" x2="106.5" y2="64.9"/>
	<line fill="none" stroke="#0B0B0B" stroke-miterlimit="10" x1="99.1" y1="7.5" x2="99.1" y2="64.9"/>
	<line fill="none" stroke="#0B0B0B" stroke-miterlimit="10" x1="90.9" y1="7.5" x2="90.9" y2="64.9"/>
	<line fill="none" stroke="#0B0B0B" stroke-miterlimit="10" x1="83.2" y1="7.5" x2="83.2" y2="64.9"/>
	<line fill="none" stroke="#0B0B0B" stroke-miterlimit="10" x1="75.9" y1="7.5" x2="75.9" y2="64.9"/>
	<line fill="none" stroke="#0B0B0B" stroke-miterlimit="10" x1="68.2" y1="7.5" x2="68.2" y2="64.9"/>
	<line fill="none" stroke="#0B0B0B" stroke-miterlimit="10" x1="59.2" y1="7.5" x2="59.2" y2="64.9"/>
	<line fill="none" stroke="#0B0B0B" stroke-miterlimit="10" x1="51.9" y1="7.5" x2="51.9" y2="64.9"/>
	<line fill="none" stroke="#0B0B0B" stroke-miterlimit="10" x1="44.2" y1="7.5" x2="44.2" y2="64.9"/>
	<line fill="none" stroke="#0B0B0B" stroke-miterlimit="10" x1="36.9" y1="7.5" x2="36.9" y2="64.9"/>
	<g>
		<polygon points="834.8,34.4 867,37.1 834.8,39.7 834.8,38.1 747,38.1 747,36.2 834.8,36.2 		"/>
		<polygon points="54.4,34.4 22.2,37.1 54.4,39.7 54.4,38.1 142.2,38.1 142.2,36.2 54.4,36.2 		"/>
	</g>
</g>

</svg>
