<?xml version="1.0" encoding="iso-8859-1"?>
<!-- Generator: Adobe Illustrator 17.1.0, SVG Export Plug-In . SVG Version: 6.00 Build 0)  -->
<!DOCTYPE svg PUBLIC "-//W3C//DTD SVG 1.1//EN" "http://www.w3.org/Graphics/SVG/1.1/DTD/svg11.dtd">
<svg version="1.1" id="Layer_1" xmlns="http://www.w3.org/2000/svg" xmlns:xlink="http://www.w3.org/1999/xlink" x="0px" y="0px"
	 viewBox="0 0 890 510" style="enable-background:new 0 0 890 510;" xml:space="preserve">
<g id="active">
	<rect x="84.5" y="73.5" style="fill:#FFFFFF;stroke:#333333;stroke-miterlimit:10;" width="122" height="94"/>
	<rect x="84.5" y="167.5" style="fill:#FFFFFF;stroke:#333333;stroke-miterlimit:10;" width="65" height="50"/>
	<rect x="149.5" y="189.5" style="fill:#FFFFFF;stroke:#333333;stroke-miterlimit:10;" width="57" height="28"/>
	<rect x="133.5" y="217.5" style="fill:#FFFFFF;stroke:#333333;stroke-miterlimit:10;" width="93" height="49"/>
	<rect x="133.5" y="266.5" style="fill:#FFFFFF;stroke:#333333;stroke-miterlimit:10;" width="68" height="44"/>
	<rect x="133.5" y="310.5" style="fill:#FFFFFF;stroke:#333333;stroke-miterlimit:10;" width="68" height="39"/>
	<rect x="133.5" y="349.5" style="fill:#FFFFFF;stroke:#333333;stroke-miterlimit:10;" width="96" height="53"/>
	<rect x="229.5" y="349.5" style="fill:#FFFFFF;stroke:#333333;stroke-miterlimit:10;" width="67" height="53"/>
	<rect x="226.5" y="198.5" style="fill:#FFFFFF;stroke:#333333;stroke-miterlimit:10;" width="37" height="60"/>
	<rect x="263.5" y="198.5" style="fill:#FFFFFF;stroke:#333333;stroke-miterlimit:10;" width="33" height="15"/>
	<rect x="263.5" y="213.5" style="fill:#FFFFFF;stroke:#333333;stroke-miterlimit:10;" width="33" height="43"/>
	<line style="fill:none;stroke:#333333;stroke-miterlimit:10;" x1="296.5" y1="257" x2="296.5" y2="350"/>
	<rect x="326.5" y="198.5" style="fill:none;stroke:#333333;stroke-miterlimit:10;" width="53" height="36"/>
	<rect x="379.5" y="198.5" style="fill:none;stroke:#333333;stroke-miterlimit:10;" width="92" height="36"/>
	<rect x="471.5" y="198.5" style="fill:none;stroke:#333333;stroke-miterlimit:10;" width="52" height="36"/>
	<rect x="680.5" y="167.5" style="fill:none;stroke:#333333;stroke-miterlimit:10;" width="63" height="53"/>
	<rect x="648.5" y="167.5" style="fill:none;stroke:#333333;stroke-miterlimit:10;" width="32" height="27"/>
	<rect x="648.5" y="194.5" style="fill:none;stroke:#333333;stroke-miterlimit:10;" width="32" height="26"/>
</g>
<g id="outfit">
	<rect id="stair_4_" x="84.5" y="31.5" style="fill:#FFFFFF;stroke:#333333;stroke-miterlimit:10;" width="122" height="42"/>
	<rect id="stair_1_" x="632.5" y="31.5" style="fill:#FFFFFF;stroke:#333333;stroke-miterlimit:10;" width="111" height="42"/>
	<rect id="toilet_2_" x="632.5" y="73.5" style="fill:#FFFFFF;stroke:#333333;stroke-miterlimit:10;" width="111" height="94"/>
	<line style="fill:none;stroke:#333333;stroke-width:2;stroke-miterlimit:10;" x1="206" y1="47" x2="632" y2="47"/>
	<path style="fill:none;stroke:#333333;stroke-miterlimit:10;" d="M742.5,221v123.385c0,0-117.461,44.165-195.366,44.684
		l17.417,93.135"/>
	<path style="fill:none;stroke:#333333;stroke-miterlimit:10;" d="M297.47,401.02c0,0,145.187-3.637,159.352-6.755l10.033,88.321"/>
	<path style="fill:#CCCCCC;" d="M325,237v163.501c0,0,158-2.598,196-24.94V237H325z"/>
	<g id="Restrooms">
		<g>
			<rect x="671.062" y="103.991" style="fill:none;stroke:#333333;" width="38.472" height="34.293"/>
			<g>
				<path style="fill:#231F20;stroke:#333333;" d="M709.534,132.874c0,2.983-2.719,5.41-6.066,5.41h-26.34
					c-3.349,0-6.066-2.427-6.066-5.41v-23.482c0-2.983,2.717-5.401,6.066-5.401h26.34c3.347,0,6.066,2.418,6.066,5.401V132.874z"/>
				<g>
					<polygon style="fill:#FFFFFF;stroke:#333333;" points="689.671,106.551 689.671,134.259 675.43,134.259 675.43,112.633
						"/>
					<polygon style="fill:#FFFFFF;stroke:#333333;" points="691.268,106.551 691.268,134.259 705.505,134.259 705.505,112.633
						"/>
					<g>
						<g>
							<polygon style="fill:#231F20;stroke:#333333;" points="680.687,115.087 684.677,115.087 688.327,123.093 687.601,123.53
								684.555,118.5 684.276,118.758 687.474,126.407 684.335,126.407 683.325,133.073 682.056,133.073 681.045,126.407
								677.908,126.407 681.153,118.912 680.824,118.5 677.786,123.53 677.051,123.093 							"/>
							<path style="fill:#231F20;stroke:#333333;" d="M684.87,112.551c0,1.123-1.025,2.033-2.28,2.033
								c-1.257,0-2.275-0.91-2.275-2.033c0-1.114,1.018-2.028,2.275-2.028C683.846,110.523,684.87,111.438,684.87,112.551z"/>
							<path style="fill:#231F20;stroke:#333333;" d="M700.231,112.551c0,1.123-1.023,2.033-2.278,2.033
								c-1.262,0-2.283-0.91-2.283-2.033c0-1.114,1.021-2.028,2.283-2.028C699.208,110.523,700.231,111.438,700.231,112.551z"/>
						</g>
						<polygon style="fill:#231F20;stroke:#333333;" points="694.673,115.087 700.922,115.087 702.328,115.825 702.328,125.223
							701.115,125.223 701.115,118.674 700.137,118.674 700.137,133.073 698.57,133.073 698.103,127.577 697.58,127.577
							697.159,133.073 695.503,133.073 695.503,118.674 694.533,118.674 694.523,125.223 693.324,125.223 693.324,116.015 						"/>
					</g>
				</g>
			</g>
		</g>
		<g id="Arrow_30_1_">
			<rect x="522.924" y="218.991" style="fill:none;" width="36.623" height="10.047"/>
			<g>
				<polygon style="fill:#231F20;" points="538.914,226.959 538.913,229.167 557.745,225.4 538.914,221.633 538.914,223.84
					527.645,223.84 527.645,226.959 				"/>
			</g>
			<rect x="560.5" y="209.5" style="fill:none;stroke:#333333;" width="46" height="50"/>
		</g>
		<g id="Arrow_30">
			<rect x="522.925" y="232.871" style="fill:none;" width="36.623" height="10.047"/>
			<g>
				<polygon style="fill:#231F20;stroke:#333333;" points="547.204,237.069 547.205,238.892 526.574,235.783 547.204,232.673
					547.204,234.495 559.548,234.495 559.548,237.069 				"/>
			</g>
		</g>
	</g>
	<g id="Children">
		<g>
			<g>
				<g>
					<polygon style="fill:#231F20;stroke:#333333;stroke-width:0.5416;" points="577.159,218.356 572.653,231.886 574.977,231.825
						579.47,218.775 					"/>
					<polygon style="fill:#231F20;stroke:#333333;stroke-width:0.5416;" points="586.5,218.356 590.968,231.874 588.646,231.855
						584.189,218.775 					"/>
					<polygon style="fill:#231F20;stroke:#333333;stroke-width:0.5416;" points="578.607,238.883 578.607,218.68 585.041,218.68
						585.041,239.544 585.039,239.544 585.039,257.108 582.757,257.108 582.757,239.41 580.876,239.41 580.876,257.108
						578.595,257.108 578.595,238.883 					"/>
					<g>
						<ellipse style="fill:#231F20;stroke:#333333;stroke-width:0.5416;" cx="581.912" cy="213.81" rx="2.779" ry="4.866"/>
					</g>
				</g>
			</g>
			<g>
				<g>
					<polygon style="fill:#231F20;stroke:#333333;stroke-width:0.5416;" points="560.878,218.356 556.372,231.886 558.696,231.825
						563.188,218.775 					"/>
					<polygon style="fill:#231F20;stroke:#333333;stroke-width:0.5416;" points="570.218,218.356 574.713,231.848 572.377,231.894
						567.908,218.775 					"/>
					<polygon style="fill:#231F20;stroke:#333333;stroke-width:0.5416;" points="562.326,238.883 562.326,218.68 568.759,218.68
						568.759,239.544 568.758,239.544 568.758,257.108 566.475,257.108 566.475,239.41 564.595,239.41 564.595,257.108
						562.314,257.108 562.314,238.883 					"/>
					<g>
						<ellipse style="fill:#231F20;stroke:#333333;stroke-width:0.5416;" cx="565.631" cy="213.81" rx="2.779" ry="4.866"/>
					</g>
				</g>
			</g>
			<g>
				<g>
					<polygon style="fill:#231F20;stroke:#333333;stroke-width:0.5416;" points="593.049,218.356 588.896,231.817 591.226,231.825
						595.359,218.775 					"/>
					<polygon style="fill:#231F20;stroke:#333333;stroke-width:0.5416;" points="602.389,218.356 606.895,231.886 604.571,231.825
						600.079,218.775 					"/>
					<polygon style="fill:#231F20;stroke:#333333;stroke-width:0.5416;" points="594.497,238.883 594.497,218.68 600.931,218.68
						600.931,239.544 600.928,239.544 600.928,257.108 598.646,257.108 598.646,239.41 596.766,239.41 596.766,257.108
						594.484,257.108 594.484,238.883 					"/>
					<g>
						<ellipse style="fill:#231F20;stroke:#333333;stroke-width:0.5416;" cx="597.802" cy="213.81" rx="2.779" ry="4.866"/>
					</g>
				</g>
			</g>
		</g>
	</g>

		<text transform="matrix(1.3216 0 0 1 224.8765 309.5732)" style="stroke:#333333; font-family:'MyriadPro-Regular'; font-size:15.6567;">ATDL</text>
	<text transform="matrix(1.1359 0 0 1 392.8843 302.125)"><tspan x="0" y="0" style="stroke:#333333; font-family:'MyriadPro-Regular'; font-size:14.5484;">Digital</tspan><tspan x="0" y="17.458" style="stroke:#333333; font-family:'MyriadPro-Regular'; font-size:14.5484;">Media Zone</tspan></text>
</g>
</svg>
