<?xml version="1.0" encoding="iso-8859-1"?>
<!-- Generator: Adobe Illustrator 17.1.0, SVG Export Plug-In . SVG Version: 6.00 Build 0)  -->
<!DOCTYPE svg PUBLIC "-//W3C//DTD SVG 1.1//EN" "http://www.w3.org/Graphics/SVG/1.1/DTD/svg11.dtd">
<svg version="1.1" id="Layer_1" xmlns="http://www.w3.org/2000/svg" xmlns:xlink="http://www.w3.org/1999/xlink" x="0px" y="0px"
	 viewBox="0 0 900 510" style="enable-background:new 0 0 900 510;" xml:space="preserve">
<symbol  id="Children" viewBox="-36.787 -20.053 73.573 40.106">
	<g>
		<g>
			<g>
				<polygon style="fill:#231F20;stroke:#FFFFFF;stroke-width:0.65;" points="-6.415,12.017 -12.875,0.933 -9.542,0.983
					-3.102,11.673 				"/>
				<polygon style="fill:#231F20;stroke:#FFFFFF;stroke-width:0.65;" points="6.977,12.017 13.382,0.943 10.054,0.958 3.663,11.673
									"/>
				<polygon style="fill:#231F20;stroke:#FFFFFF;stroke-width:0.65;" points="-4.338,-4.799 -4.338,11.751 4.886,11.751
					4.886,-5.34 4.883,-5.34 4.883,-19.728 1.61,-19.728 1.61,-5.23 -1.086,-5.23 -1.086,-19.728 -4.356,-19.728 -4.356,-4.799
					"/>
				<g>
					<path style="fill:#231F20;stroke:#FFFFFF;stroke-width:0.65;" d="M-3.585,15.74c0-2.2,1.784-3.986,3.984-3.986
						s3.984,1.786,3.984,3.986c0,2.203-1.784,3.988-3.984,3.988S-3.585,17.943-3.585,15.74z"/>
				</g>
			</g>
		</g>
		<g>
			<g>
				<polygon style="fill:#231F20;stroke:#FFFFFF;stroke-width:0.65;" points="-29.756,12.017 -36.216,0.933 -32.885,0.983
					-26.445,11.673 				"/>
				<polygon style="fill:#231F20;stroke:#FFFFFF;stroke-width:0.65;" points="-16.366,12.017 -9.921,0.964 -13.271,0.926
					-19.678,11.673 				"/>
				<polygon style="fill:#231F20;stroke:#FFFFFF;stroke-width:0.65;" points="-27.68,-4.799 -27.68,11.751 -18.457,11.751
					-18.457,-5.34 -18.459,-5.34 -18.459,-19.728 -21.731,-19.728 -21.731,-5.23 -24.427,-5.23 -24.427,-19.728 -27.698,-19.728
					-27.698,-4.799 				"/>
				<g>
					<path style="fill:#231F20;stroke:#FFFFFF;stroke-width:0.65;" d="M-26.926,15.74c0-2.2,1.783-3.986,3.983-3.986
						c2.201,0,3.985,1.786,3.985,3.986c0,2.203-1.784,3.988-3.985,3.988C-25.143,19.728-26.926,17.943-26.926,15.74z"/>
				</g>
			</g>
		</g>
		<g>
			<g>
				<polygon style="fill:#231F20;stroke:#FFFFFF;stroke-width:0.65;" points="16.366,12.017 10.412,0.99 13.753,0.983
					19.678,11.673 				"/>
				<polygon style="fill:#231F20;stroke:#FFFFFF;stroke-width:0.65;" points="29.756,12.017 36.216,0.933 32.885,0.983
					26.444,11.673 				"/>
				<polygon style="fill:#231F20;stroke:#FFFFFF;stroke-width:0.65;" points="18.441,-4.799 18.441,11.751 27.666,11.751
					27.666,-5.34 27.662,-5.34 27.662,-19.728 24.391,-19.728 24.391,-5.23 21.695,-5.23 21.695,-19.728 18.424,-19.728
					18.424,-4.799 				"/>
				<g>
					<path style="fill:#231F20;stroke:#FFFFFF;stroke-width:0.65;" d="M19.195,15.74c0-2.2,1.784-3.986,3.983-3.986
						c2.201,0,3.985,1.786,3.985,3.986c0,2.203-1.784,3.988-3.985,3.988C20.979,19.728,19.195,17.943,19.195,15.74z"/>
				</g>
			</g>
		</g>
	</g>
</symbol>

<g id="active">
	<rect id="room141" class="active" x="104.5" y="147.5" style="fill:#29ABE2;stroke:#0B0B0B;stroke-miterlimit:10;" width="47" height="33"/>
	<rect id="room140" class="active" x="165.5" y="129.5" style="fill:#29ABE2;stroke:#0B0B0B;stroke-miterlimit:10;" width="47" height="33"/>
	<rect id="room143" class="active" x="104.5" y="81.5" style="fill:#29ABE2;stroke:#0B0B0B;stroke-miterlimit:10;" width="47" height="33"/>
	<rect id="room142" class="active" x="104.5" y="114.5" style="fill:#29ABE2;stroke:#0B0B0B;stroke-miterlimit:10;" width="47" height="33"/>
	<rect id="room144" class="active" x="165.5" y="96.5" style="fill:#29ABE2;stroke:#0B0B0B;stroke-miterlimit:10;" width="47" height="33"/>
	<rect x="217" y="189" style="fill:#BDCCD4;stroke:#0B0B0B;stroke-miterlimit:10;" width="267" height="168"/>
	<rect x="181.5" y="189.5" style="fill:none;stroke:#0B0B0B;stroke-miterlimit:10;" width="35" height="44"/>
	<rect x="147.5" y="233.5" style="fill:none;stroke:#0B0B0B;stroke-miterlimit:10;" width="69" height="47"/>
	<rect x="147.5" y="280.5" style="fill:none;stroke:#0B0B0B;stroke-miterlimit:10;" width="69" height="46"/>
	<rect x="266.5" y="357.5" style="fill:none;stroke:#0B0B0B;stroke-miterlimit:10;" width="49" height="69"/>
	<rect x="315.5" y="357.5" style="fill:none;stroke:#0B0B0B;stroke-miterlimit:10;" width="60" height="69"/>
	<polygon style="fill:none;stroke:#0B0B0B;stroke-miterlimit:10;" points="147,326.5 217,326.5 217,357 266.5,357.5 266.5,427
		147.5,425.667 	"/>
	<path style="fill:none;stroke:#0B0B0B;stroke-miterlimit:10;" d="M375,357.5h54.5V425c0,0-23,1.5-54,1.5"/>
	<rect id="newAC" class="active" x="560.378" y="270.5" style="fill:#FAAC58;stroke:#0B0B0B;stroke-miterlimit:10;" width="7.122" height="44.5"/>
</g>
<g id="Restrooms">
	<g>
		<rect x="646.854" y="102.824" style="fill:none;stroke:#0B0B0B;" width="45.792" height="51.261"/>
		<g>
			<path style="fill:#231F20;stroke:#0B0B0B;" d="M692.646,145.998c0,4.46-3.237,8.087-7.22,8.087h-31.351
				c-3.986,0-7.22-3.627-7.22-8.087v-35.101c0-4.46,3.234-8.073,7.22-8.073h31.351c3.983,0,7.22,3.614,7.22,8.073V145.998z"/>
			<g>
				<polygon style="fill:#FFFFFF;stroke:#0B0B0B;" points="669.003,106.651 669.003,148.069 652.052,148.069 652.052,115.742
					"/>
				<polygon style="fill:#FFFFFF;stroke:#0B0B0B;" points="670.904,106.651 670.904,148.069 687.85,148.069 687.85,115.742 				"/>
				<g>
					<g>
						<polygon style="fill:#231F20;stroke:#0B0B0B;" points="658.31,119.41 663.059,119.41 667.404,131.378 666.54,132.031
							662.914,124.513 662.582,124.898 666.388,136.332 662.651,136.332 661.45,146.296 659.939,146.296 658.736,136.332
							655.002,136.332 658.865,125.128 658.473,124.513 654.857,132.031 653.982,131.378 						"/>
						<path style="fill:#231F20;stroke:#0B0B0B;" d="M663.289,115.621c0,1.678-1.22,3.038-2.714,3.038
							c-1.496,0-2.708-1.36-2.708-3.038c0-1.665,1.212-3.032,2.708-3.032C662.07,112.589,663.289,113.956,663.289,115.621z"/>
						<path style="fill:#231F20;stroke:#0B0B0B;" d="M681.572,115.621c0,1.678-1.218,3.038-2.711,3.038
							c-1.502,0-2.717-1.36-2.717-3.038c0-1.665,1.215-3.032,2.717-3.032C680.354,112.589,681.572,113.956,681.572,115.621z"/>
					</g>
					<polygon style="fill:#231F20;stroke:#0B0B0B;" points="674.957,119.41 682.394,119.41 684.069,120.513 684.069,134.562
						682.624,134.562 682.624,124.773 681.461,124.773 681.461,146.296 679.596,146.296 679.04,138.081 678.417,138.081
						677.915,146.296 675.945,146.296 675.945,124.773 674.79,124.773 674.778,134.562 673.352,134.562 673.352,120.797 					"/>
				</g>
			</g>
		</g>
	</g>
</g>
<g id="outfit">
	<rect x="104.5" y="36.5" style="fill:none;stroke:#0B0B0B;stroke-miterlimit:10;" width="112" height="45"/>
	<rect x="104.5" y="181.5" style="fill:none;stroke:#0B0B0B;stroke-miterlimit:10;" width="77" height="52"/>
	<line style="fill:none;stroke:#0B0B0B;stroke-miterlimit:10;" x1="104.5" y1="181.5" x2="181.5" y2="233.5"/>
	<line style="fill:none;stroke:#0B0B0B;stroke-miterlimit:10;" x1="104.5" y1="233.5" x2="181.5" y2="181.5"/>
	<polygon id="stair" style="fill:none;stroke:#0B0B0B;stroke-miterlimit:10;" points="722.5,81.5 608.5,81.5 607.5,36.5 722.5,36.5
			"/>
	<rect id="toilet" x="608.5" y="81.5" style="fill:none;stroke:#0B0B0B;stroke-miterlimit:10;" width="114" height="98"/>
	<rect x="608.5" y="179.5" style="fill:none;stroke:#0B0B0B;stroke-miterlimit:10;" width="114" height="55"/>
	<line style="fill:none;stroke:#0B0B0B;stroke-miterlimit:10;" x1="631.5" y1="180" x2="631.5" y2="207"/>
	<line style="fill:none;stroke:#0B0B0B;stroke-miterlimit:10;" x1="631" y1="207.5" x2="661" y2="207.5"/>
	<line style="fill:none;stroke:#0B0B0B;stroke-miterlimit:10;" x1="660.5" y1="208" x2="660.5" y2="235"/>
	<line style="fill:none;stroke:#0B0B0B;stroke-miterlimit:10;" x1="660.5" y1="194" x2="660.5" y2="180"/>
	<line style="fill:none;stroke:#0B0B0B;stroke-miterlimit:10;" x1="683" y1="234.5" x2="684" y2="374.5"/>
	<path style="fill:none;stroke:#0B0B0B;stroke-width:2;stroke-miterlimit:10;" d="M455.926,423.187
		c-8.82,0.787-17.642,1.401-26.426,1.813"/>
	<path style="fill:none;stroke:#0B0B0B;stroke-width:2;stroke-miterlimit:10;" d="M455.926,423.187"/>
	<path style="fill:none;stroke:#0B0B0B;stroke-width:2;stroke-miterlimit:10;" d="M716,362c0,0-78.389,29.926-174.456,48.724"/>
	<line style="fill:none;stroke:#0B0B0B;stroke-width:2;stroke-miterlimit:10;" x1="217" y1="50.667" x2="608.5" y2="51.333"/>
	<line style="fill:none;stroke:#0B0B0B;stroke-width:2;stroke-miterlimit:10;" x1="516" y1="77" x2="516" y2="187"/>

		<use xlink:href="#Children"  width="73.573" height="40.106" x="-36.787" y="-20.053" transform="matrix(0.601 0 0 -1.3021 566.34 244.7136)" style="overflow:visible;"/>
	<rect x="544.5" y="213.5" style="fill:none;stroke:#0B0B0B;stroke-miterlimit:10;" width="46" height="57"/>

		<text transform="matrix(1.1368 0 0 1 607.4999 322.1895)" style="stroke:#0B0B0B; font-family:'MyriadPro-Regular'; font-size:22.3125;">Cafe</text>
	<g>
		<polygon style="fill:none;" points="498.781,236.952 544.5,236.952 544.5,227.632 498.781,227.632 		"/>
		<g>
			<polygon style="fill:#231F20;stroke:#0B0B0B;stroke-miterlimit:10;" points="515.897,234.22 515.895,236.952 544.5,232.292
				515.897,227.632 515.897,230.362 498.781,230.362 498.781,234.22 			"/>
		</g>
	</g>
	<g id="Arrow_30">
		<rect x="498.781" y="245.247" style="fill:none;" width="45.72" height="9.319"/>
		<g>
			<polygon style="fill:#231F20;stroke:#0B0B0B;stroke-miterlimit:10;" points="527.385,251.835 527.387,254.567 498.781,249.907
				527.385,245.247 527.385,247.978 544.501,247.978 544.501,251.835 			"/>
		</g>
	</g>

		<line style="fill:none;stroke:#0B0B0B;stroke-width:2;stroke-miterlimit:10;" x1="541.544" y1="410.724" x2="557.446" y2="498.356"/>
	<line style="fill:none;stroke:#0B0B0B;stroke-width:2;stroke-miterlimit:10;" x1="455.926" y1="423.187" x2="463.5" y2="498.356"/>
</g>
</svg>
