<?xml version="1.0" encoding="iso-8859-1"?>
<!-- Generator: Adobe Illustrator 17.1.0, SVG Export Plug-In . SVG Version: 6.00 Build 0)  -->
<!DOCTYPE svg PUBLIC "-//W3C//DTD SVG 1.1//EN" "http://www.w3.org/Graphics/SVG/1.1/DTD/svg11.dtd">
<svg version="1.1" id="Layer_1" xmlns="http://www.w3.org/2000/svg" xmlns:xlink="http://www.w3.org/1999/xlink" x="0px" y="0px"
	 viewBox="0 0 890 510" style="enable-background:new 0 0 890 510;" xml:space="preserve">

<g id="active">
	<rect id="room340" x="171.5" y="147.5" style="fill:#3FA9F5;stroke:#1A1A1A;stroke-miterlimit:10;" width="46" height="34"/>
	<rect id="room341" x="109.5" y="164.5" style="fill:#3FA9F5;stroke:#1A1A1A;stroke-miterlimit:10;" width="46" height="34"/>
	<rect id="room342" x="109.5" y="130.5" style="fill:#3FA9F5;stroke:#1A1A1A;stroke-miterlimit:10;" width="46" height="34"/>
	<rect id="room343" x="109.5" y="96.5" style="fill:#3FA9F5;stroke:#1A1A1A;stroke-miterlimit:10;" width="46" height="34"/>
	<rect id="room344" x="171.5" y="113.5" style="fill:#3FA9F5;stroke:#1A1A1A;stroke-miterlimit:10;" width="46" height="34"/>
	<rect x="468.5" y="292.5" style="fill:none;stroke:#1A1A1A;stroke-miterlimit:10;" width="103" height="51"/>
	<path style="fill:none;stroke:#1A1A1A;stroke-miterlimit:10;" d="M468.5,447.25c0,0,87-5.25,103-13.75V344l-103-0.5V447.25z"/>
	<path style="fill:none;stroke:#1A1A1A;stroke-miterlimit:10;" d="M261.5,292.5H468l0.25,154.75c0,0-203.583,14.083-206.75,8.75
		V292.5z"/>
	<rect x="627.5" y="199.5" style="fill:none;stroke:#1A1A1A;stroke-miterlimit:10;" width="32" height="29"/>
	<rect x="627.5" y="228.5" style="fill:none;stroke:#1A1A1A;stroke-miterlimit:10;" width="32" height="29"/>
	<rect x="188.5" y="208.5" style="fill:none;stroke:#1A1A1A;stroke-miterlimit:10;" width="31" height="49"/>
</g>
<g id="outfit">
	<rect id="stair" x="109.5" y="47.5" style="fill:none;stroke:#1A1A1A;stroke-miterlimit:10;" width="108" height="49"/>
	<rect x="109.5" y="198.5" style="fill:none;stroke:#1A1A1A;stroke-miterlimit:10;" width="79" height="59"/>
	<rect x="659.5" y="199.5" style="fill:none;stroke:#1A1A1A;stroke-miterlimit:10;" width="64" height="58"/>
	<rect x="611.5" y="96.5" style="fill:none;stroke:#1A1A1A;stroke-miterlimit:10;" width="112" height="103"/>
	<rect id="stair_1_" x="611.5" y="47.5" style="fill:none;stroke:#1A1A1A;stroke-miterlimit:10;" width="112" height="49"/>
	<path style="fill:none;stroke:#1A1A1A;stroke-miterlimit:10;" d="M723.5,257.5h-47V407c0,0,32-6.5,47-18.5V257.5z"/>
	<path style="fill:none;stroke:#1A1A1A;stroke-miterlimit:10;" d="M571.5,433.5c0,0,81-14.5,104-26.5"/>
	<line style="fill:none;stroke:#1A1A1A;stroke-miterlimit:10;" x1="217.5" y1="65" x2="611.5" y2="65.5"/>
	<rect x="261.5" y="65.5" style="fill:none;stroke:#1A1A1A;stroke-miterlimit:10;" width="310" height="145"/>
	<line style="fill:none;stroke:#1A1A1A;stroke-miterlimit:10;" x1="261.5" y1="210.5" x2="571.5" y2="65.5"/>
	<line style="fill:none;stroke:#1A1A1A;stroke-miterlimit:10;" x1="261.5" y1="65.5" x2="571.5" y2="210.5"/>
	<line style="fill:none;stroke:#1A1A1A;stroke-miterlimit:10;" x1="675.5" y1="257.5" x2="722.5" y2="388.5"/>
	<line style="fill:none;stroke:#1A1A1A;stroke-miterlimit:10;" x1="722.5" y1="257.5" x2="675.5" y2="407"/>
	<line style="fill:none;stroke:#1A1A1A;stroke-miterlimit:10;" x1="659.5" y1="199.5" x2="722.5" y2="257.5"/>
	<line style="fill:none;stroke:#1A1A1A;stroke-miterlimit:10;" x1="659.5" y1="257.5" x2="723.5" y2="199.5"/>
	<line style="fill:none;stroke:#1A1A1A;stroke-miterlimit:10;" x1="109.5" y1="198.5" x2="188.5" y2="257.5"/>
	<line style="fill:none;stroke:#1A1A1A;stroke-miterlimit:10;" x1="188.5" y1="198.5" x2="109.5" y2="257.5"/>
	<g id="Restrooms">
		<g>
			<rect x="650.602" y="127.936" style="fill:none;stroke:#1A1A1A;" width="38.398" height="38.795"/>
			<g>
				<path style="fill:#231F20;stroke:#1A1A1A;" d="M689,160.611c0,3.375-2.714,6.12-6.054,6.12h-26.289
					c-3.343,0-6.054-2.745-6.054-6.12v-26.565c0-3.375,2.712-6.11,6.054-6.11h26.289c3.34,0,6.054,2.735,6.054,6.11V160.611z"/>
				<g>
					<polygon style="fill:#FFFFFF;stroke:#1A1A1A;" points="669.174,130.832 669.174,162.178 654.961,162.178 654.961,137.713
						"/>
					<polygon style="fill:#FFFFFF;stroke:#1A1A1A;" points="670.768,130.832 670.768,162.178 684.978,162.178 684.978,137.713
						"/>
					<g>
						<g>
							<polygon style="fill:#231F20;stroke:#1A1A1A;" points="660.208,140.489 664.191,140.489 667.834,149.546 667.109,150.04
								664.069,144.35 663.79,144.642 666.982,153.295 663.849,153.295 662.841,160.836 661.574,160.836 660.565,153.295
								657.434,153.295 660.673,144.816 660.345,144.35 657.313,150.04 656.579,149.546 							"/>
							<path style="fill:#231F20;stroke:#1A1A1A;" d="M664.383,137.621c0,1.27-1.023,2.3-2.276,2.3c-1.254,0-2.271-1.029-2.271-2.3
								c0-1.26,1.016-2.294,2.271-2.294C663.361,135.326,664.383,136.361,664.383,137.621z"/>
							<path style="fill:#231F20;stroke:#1A1A1A;" d="M679.714,137.621c0,1.27-1.021,2.3-2.273,2.3c-1.26,0-2.278-1.029-2.278-2.3
								c0-1.26,1.019-2.294,2.278-2.294C678.693,135.326,679.714,136.361,679.714,137.621z"/>
						</g>
						<polygon style="fill:#231F20;stroke:#1A1A1A;" points="674.167,140.489 680.404,140.489 681.808,141.323 681.808,151.955
							680.596,151.955 680.596,144.547 679.621,144.547 679.621,160.836 678.057,160.836 677.591,154.619 677.069,154.619
							676.648,160.836 674.996,160.836 674.996,144.547 674.027,144.547 674.017,151.955 672.821,151.955 672.821,141.538 						"/>
					</g>
				</g>
			</g>
		</g>
		<g id="Arrow_30">
			<rect x="511.333" y="253.997" style="fill:none;" width="29.334" height="13.004"/>
			<g>
				<polygon style="fill:#231F20;stroke:#1A1A1A;" points="522.315,263.19 522.314,267.001 540.667,260.499 522.315,253.997
					522.315,257.807 511.333,257.807 511.333,263.19 				"/>
			</g>
		</g>
		<g id="Arrow_30_1_">
			<rect x="511.334" y="272.664" style="fill:none;" width="29.334" height="13.004"/>
			<g>
				<polygon style="fill:#231F20;stroke:#1A1A1A;" points="529.686,281.857 529.687,285.668 511.334,279.166 529.686,272.664
					529.686,276.474 540.668,276.474 540.668,281.857 				"/>
			</g>
			<rect x="542.5" y="241.5" style="fill:none;stroke:#1A1A1A;" width="47" height="50"/>
			<line style="fill:none;stroke:#1A1A1A;" x1="155.5" y1="257" x2="155.5" y2="455"/>
			<line style="fill:none;stroke:#1A1A1A;" x1="155.5" y1="455" x2="261.5" y2="456"/>
			<text transform="matrix(1 0 0 1 172.5 341.5)"><tspan x="0" y="0" style="stroke:#1A1A1A; font-family:'MyriadPro-Regular'; font-size:18;">Durant</tspan><tspan x="0" y="21.6" style="stroke:#1A1A1A; font-family:'MyriadPro-Regular'; font-size:18;">Special</tspan><tspan x="0" y="43.2" style="stroke:#1A1A1A; font-family:'MyriadPro-Regular'; font-size:18;">Collection</tspan><tspan x="0" y="64.8" style="stroke:#1A1A1A; font-family:'MyriadPro-Regular'; font-size:18;">Lounge</tspan></text>
			<text transform="matrix(1 0 0 1 301 344)"><tspan x="0" y="0" style="stroke:#1A1A1A; font-family:'MyriadPro-Regular'; font-size:18;">Gerard Manley</tspan><tspan x="0" y="21.6" style="stroke:#1A1A1A; font-family:'MyriadPro-Regular'; font-size:18;">Hopkins, S.J.</tspan><tspan x="0" y="43.2" style="stroke:#1A1A1A; font-family:'MyriadPro-Regular'; font-size:18;">Special Collection</tspan></text>
			<text transform="matrix(1 0 0 1 587 342.5)"><tspan x="0" y="0" style="stroke:#1A1A1A; font-family:'MyriadPro-Regular'; font-size:18;">Griffiths</tspan><tspan x="0" y="21.6" style="stroke:#1A1A1A; font-family:'MyriadPro-Regular'; font-size:18;">Scholars</tspan><tspan x="0" y="43.2" style="stroke:#1A1A1A; font-family:'MyriadPro-Regular'; font-size:18;">Lounge</tspan></text>
		</g>
		<g id="Children">
			<g>
				<g>
					<g>
						<polygon style="fill:#231F20;stroke:#1A1A1A;stroke-width:0.5491;" points="561.355,251.719 557.43,264.737 559.455,264.679
							563.368,252.123 						"/>
						<polygon style="fill:#231F20;stroke:#1A1A1A;stroke-width:0.5491;" points="569.492,251.719 573.384,264.726 571.362,264.708
							567.479,252.123 						"/>
						<polygon style="fill:#231F20;stroke:#1A1A1A;stroke-width:0.5491;" points="562.617,271.47 562.617,252.031 568.222,252.031
							568.222,272.105 568.22,272.105 568.22,289.005 566.232,289.005 566.232,271.977 564.593,271.977 564.593,289.005
							562.606,289.005 562.606,271.47 						"/>
						<g>
							<ellipse style="fill:#231F20;stroke:#1A1A1A;stroke-width:0.5491;" cx="565.496" cy="247.346" rx="2.421" ry="4.682"/>
						</g>
					</g>
				</g>
				<g>
					<g>
						<polygon style="fill:#231F20;stroke:#1A1A1A;stroke-width:0.5491;" points="547.172,251.719 543.247,264.737 545.271,264.679
							549.184,252.123 						"/>
						<polygon style="fill:#231F20;stroke:#1A1A1A;stroke-width:0.5491;" points="555.308,251.719 559.224,264.701 557.189,264.745
							553.296,252.123 						"/>
						<polygon style="fill:#231F20;stroke:#1A1A1A;stroke-width:0.5491;" points="548.433,271.47 548.433,252.031 554.038,252.031
							554.038,272.105 554.036,272.105 554.036,289.005 552.048,289.005 552.048,271.977 550.41,271.977 550.41,289.005
							548.423,289.005 548.423,271.47 						"/>
						<g>
							<ellipse style="fill:#231F20;stroke:#1A1A1A;stroke-width:0.5491;" cx="551.312" cy="247.346" rx="2.421" ry="4.682"/>
						</g>
					</g>
				</g>
				<g>
					<g>
						<polygon style="fill:#231F20;stroke:#1A1A1A;stroke-width:0.5491;" points="575.198,251.719 571.58,264.671 573.61,264.679
							577.21,252.123 						"/>
						<polygon style="fill:#231F20;stroke:#1A1A1A;stroke-width:0.5491;" points="583.334,251.719 587.259,264.737 585.235,264.679
							581.322,252.123 						"/>
						<polygon style="fill:#231F20;stroke:#1A1A1A;stroke-width:0.5491;" points="576.459,271.47 576.459,252.031 582.064,252.031
							582.064,272.105 582.062,272.105 582.062,289.005 580.074,289.005 580.074,271.977 578.436,271.977 578.436,289.005
							576.448,289.005 576.448,271.47 						"/>
						<g>
							<ellipse style="fill:#231F20;stroke:#1A1A1A;stroke-width:0.5491;" cx="579.338" cy="247.346" rx="2.421" ry="4.682"/>
						</g>
					</g>
				</g>
			</g>
		</g>
	</g>
</g>
</svg>