<?xml version="1.0" encoding="utf-8"?>
<!-- Generator: Adobe Illustrator 16.0.4, SVG Export Plug-In . SVG Version: 6.00 Build 0)  -->
<!DOCTYPE svg PUBLIC "-//W3C//DTD SVG 1.1//EN" "http://www.w3.org/Graphics/SVG/1.1/DTD/svg11.dtd">
<svg version="1.1" id="Layer_1" xmlns="http://www.w3.org/2000/svg" xmlns:xlink="http://www.w3.org/1999/xlink" x="0px" y="0px"
	 width="885px" height="510px" viewBox="0 0 885 510" enable-background="new 0 0 885 510" xml:space="preserve">
<g id="active">
	<rect x="2" y="62.056" fill="#FFFFFF" stroke="#333333" stroke-miterlimit="10" width="162.729" height="126.579"/>
	<rect x="2" y="188.635" fill="#FFFFFF" stroke="#333333" stroke-miterlimit="10" width="86.699" height="67.329"/>
	<rect x="88.699" y="218.259" fill="#FFFFFF" stroke="#333333" stroke-miterlimit="10" width="76.029" height="37.705"/>
	<rect x="67.358" y="255.964" fill="#FFFFFF" stroke="#333333" stroke-miterlimit="10" width="124.047" height="65.982"/>
	<rect x="67.358" y="321.946" fill="#FFFFFF" stroke="#333333" stroke-miterlimit="10" width="90.701" height="59.248"/>
	<rect x="67.358" y="381.194" fill="#FFFFFF" stroke="#333333" stroke-miterlimit="10" width="90.701" height="52.517"/>
	<rect x="67.358" y="433.711" fill="#FFFFFF" stroke="#333333" stroke-miterlimit="10" width="128.049" height="71.37"/>
	<rect x="195.407" y="433.711" fill="#FFFFFF" stroke="#333333" stroke-miterlimit="10" width="89.367" height="71.37"/>
	<rect x="191.405" y="230.377" fill="#FFFFFF" stroke="#333333" stroke-miterlimit="10" width="49.352" height="80.796"/>
	<rect x="240.756" y="230.377" fill="#FFFFFF" stroke="#333333" stroke-miterlimit="10" width="44.018" height="20.2"/>
	<rect x="240.756" y="250.577" fill="#FFFFFF" stroke="#333333" stroke-miterlimit="10" width="44.018" height="57.904"/>
	<line fill="none" stroke="#333333" stroke-miterlimit="10" x1="284.774" y1="309.152" x2="284.774" y2="434.384"/>
	<rect x="324.789" y="230.377" fill="none" stroke="#333333" stroke-miterlimit="10" width="70.693" height="48.479"/>
	<rect x="395.482" y="230.377" fill="none" stroke="#333333" stroke-miterlimit="10" width="122.714" height="48.479"/>
	<rect x="518.196" y="230.377" fill="none" stroke="#333333" stroke-miterlimit="10" width="69.358" height="48.479"/>
	<rect x="796.967" y="188.635" fill="none" stroke="#333333" stroke-miterlimit="10" width="84.033" height="71.368"/>
	<rect x="754.285" y="188.635" fill="none" stroke="#333333" stroke-miterlimit="10" width="42.682" height="36.357"/>
	<rect x="754.285" y="224.992" fill="none" stroke="#333333" stroke-miterlimit="10" width="42.682" height="35.011"/>
</g>
<g id="outfit">
	<rect id="stair_4_" x="2" y="5.5" fill="#FFFFFF" stroke="#333333" stroke-miterlimit="10" width="162.729" height="56.556"/>
	
		<rect id="stair_1_" x="732.943" y="5.5" fill="#FFFFFF" stroke="#333333" stroke-miterlimit="10" width="148.057" height="56.556"/>
	
		<rect id="toilet_2_" x="732.943" y="62.056" fill="#FFFFFF" stroke="#333333" stroke-miterlimit="10" width="148.057" height="126.579"/>
	<line fill="none" stroke="#333333" stroke-width="2" stroke-miterlimit="10" x1="164.062" y1="26.371" x2="732.278" y2="26.371"/>
	<path fill="none" stroke="#333333" stroke-miterlimit="10" d="M637.134,505.081"/>
	<path fill="none" stroke="#333333" stroke-miterlimit="10" d="M880.659,260.677v166.146c0,0-157.668,59.472-261.58,60.17"/>
	<path fill="none" stroke="#333333" stroke-miterlimit="10" d="M510.505,505.5"/>
	<path fill="none" stroke="#333333" stroke-miterlimit="10" d="M285.075,505.088c0,0,193.656-4.899,212.55-9.097"/>
	<path fill="#CCCCCC" d="M322.789,282.222v220.166c0,0,210.747-3.496,261.431-33.582V282.222H322.789z"/>
	<g id="Restrooms">
		<g>
			<rect x="784.378" y="103.114" fill="none" stroke="#333333" width="51.317" height="46.179"/>
			<g>
				<path fill="#231F20" stroke="#333333" d="M835.695,142.008c0,4.017-3.628,7.285-8.092,7.285H792.47
					c-4.466,0-8.092-3.268-8.092-7.285v-31.621c0-4.017,3.626-7.273,8.092-7.273h35.134c4.464,0,8.092,3.256,8.092,7.273V142.008z"
					/>
				<g>
					<polygon fill="#FFFFFF" stroke="#333333" points="809.201,106.562 809.201,143.873 790.207,143.873 790.207,114.751 					"/>
					<polygon fill="#FFFFFF" stroke="#333333" points="811.332,106.562 811.332,143.873 830.321,143.873 830.321,114.751 					"/>
					<g>
						<g>
							<polygon fill="#231F20" stroke="#333333" points="797.219,118.056 802.538,118.056 807.408,128.836 806.44,129.425 
								802.377,122.652 802.005,122.999 806.269,133.299 802.083,133.299 800.737,142.274 799.044,142.274 797.695,133.299 
								793.511,133.299 797.839,123.208 797.399,122.652 793.35,129.425 792.368,128.836 							"/>
							<path fill="#231F20" stroke="#333333" d="M802.799,114.641c0,1.511-1.369,2.738-3.043,2.738
								c-1.677,0-3.034-1.227-3.034-2.738c0-1.5,1.357-2.731,3.034-2.731C801.431,111.91,802.799,113.142,802.799,114.641z"/>
							<path fill="#231F20" stroke="#333333" d="M823.285,114.641c0,1.511-1.363,2.738-3.037,2.738
								c-1.684,0-3.046-1.227-3.046-2.738c0-1.5,1.362-2.731,3.046-2.731C821.922,111.91,823.285,113.142,823.285,114.641z"/>
						</g>
						<polygon fill="#231F20" stroke="#333333" points="815.873,118.056 824.208,118.056 826.083,119.05 826.083,131.705 
							824.465,131.705 824.465,122.887 823.162,122.887 823.162,142.274 821.069,142.274 820.447,134.875 819.75,134.875 
							819.188,142.274 816.98,142.274 816.98,122.887 815.687,122.887 815.674,131.705 814.073,131.705 814.073,119.306 						"/>
					</g>
				</g>
			</g>
		</g>
		<g id="Arrow_30_1_">
			<rect x="586.787" y="257.972" fill="none" width="48.849" height="13.528"/>
			<g>
				<polygon fill="#231F20" points="608.114,268.701 608.113,271.674 633.232,266.602 608.114,261.528 608.114,264.501 
					593.084,264.501 593.084,268.701 				"/>
			</g>
			<g>
				<polygon fill="#231F20" points="633.232,289.394 633.232,285.193 618.2,285.193 618.2,282.222 593.084,287.294 618.201,292.367 
					618.2,289.394 				"/>
			</g>
			<rect x="633.842" y="245.191" fill="none" stroke="#333333" width="64.423" height="64.875"/>
		</g>
		<g id="Arrow_30">
			<rect x="586.789" y="276.661" fill="none" width="48.848" height="13.529"/>
		</g>
	</g>
	<g id="Children">
		<g>
			<g>
				<g>
					<polygon fill="#231F20" stroke="#333333" stroke-width="0.5416" points="659.127,257.116 653.117,275.334 656.218,275.253 
						662.21,257.68 					"/>
					<polygon fill="#231F20" stroke="#333333" stroke-width="0.5416" points="671.589,257.116 677.548,275.319 674.45,275.293 
						668.505,257.68 					"/>
					<polygon fill="#231F20" stroke="#333333" stroke-width="0.5416" points="661.059,284.757 661.059,257.553 669.64,257.553 
						669.64,285.647 669.638,285.647 669.638,309.298 666.596,309.298 666.596,285.467 664.085,285.467 664.085,309.298 
						661.044,309.298 661.044,284.757 					"/>
					<g>
						<ellipse fill="#231F20" stroke="#333333" stroke-width="0.5416" cx="665.467" cy="250.994" rx="3.708" ry="6.552"/>
					</g>
				</g>
			</g>
			<g>
				<g>
					<polygon fill="#231F20" stroke="#333333" stroke-width="0.5416" points="637.411,257.116 631.401,275.334 634.501,275.253 
						640.493,257.68 					"/>
					<polygon fill="#231F20" stroke="#333333" stroke-width="0.5416" points="649.87,257.116 655.866,275.284 652.748,275.346 
						646.789,257.68 					"/>
					<polygon fill="#231F20" stroke="#333333" stroke-width="0.5416" points="639.343,284.757 639.343,257.553 647.923,257.553 
						647.923,285.647 647.922,285.647 647.922,309.298 644.877,309.298 644.877,285.467 642.368,285.467 642.368,309.298 
						639.328,309.298 639.328,284.757 					"/>
					<g>
						<ellipse fill="#231F20" stroke="#333333" stroke-width="0.5416" cx="643.751" cy="250.994" rx="3.706" ry="6.552"/>
					</g>
				</g>
			</g>
			<g>
				<g>
					<polygon fill="#231F20" stroke="#333333" stroke-width="0.5416" points="680.323,257.116 674.782,275.242 677.892,275.253 
						683.405,257.68 					"/>
					<polygon fill="#231F20" stroke="#333333" stroke-width="0.5416" points="692.782,257.116 698.792,275.334 695.69,275.253 
						689.699,257.68 					"/>
					<polygon fill="#231F20" stroke="#333333" stroke-width="0.5416" points="682.255,284.757 682.255,257.553 690.835,257.553 
						690.835,285.647 690.831,285.647 690.831,309.298 687.788,309.298 687.788,285.467 685.28,285.467 685.28,309.298 
						682.236,309.298 682.236,284.757 					"/>
					<g>
						<ellipse fill="#231F20" stroke="#333333" stroke-width="0.5416" cx="686.661" cy="250.994" rx="3.708" ry="6.552"/>
					</g>
				</g>
			</g>
		</g>
	</g>
	<text transform="matrix(1.3091 0 0 1 189.2407 379.9434)" font-family="'MyriadPro-Regular'" font-size="21.083">ATDL</text>
	
		<text transform="matrix(1.3091 0 0 1 189.2407 379.9434)" fill="none" stroke="#333333" font-family="'MyriadPro-Regular'" font-size="21.083">ATDL</text>
	<text transform="matrix(1.1252 0 0 1 413.3359 369.916)" font-family="'MyriadPro-Regular'" font-size="19.5905">Digital</text>
	
		<text transform="matrix(1.1252 0 0 1 413.3359 369.916)" fill="none" stroke="#333333" font-family="'MyriadPro-Regular'" font-size="19.5905">Digital</text>
	<text transform="matrix(1.1252 0 0 1 413.3359 393.4258)" font-family="'MyriadPro-Regular'" font-size="19.5905">Media Zone</text>
	
		<text transform="matrix(1.1252 0 0 1 413.3359 393.4258)" fill="none" stroke="#333333" font-family="'MyriadPro-Regular'" font-size="19.5905">Media Zone</text>
</g>
</svg>
