<?xml version="1.0" encoding="utf-8"?>
<!-- Generator: Adobe Illustrator 16.0.4, SVG Export Plug-In . SVG Version: 6.00 Build 0)  -->
<!DOCTYPE svg PUBLIC "-//W3C//DTD SVG 1.1//EN" "http://www.w3.org/Graphics/SVG/1.1/DTD/svg11.dtd">
<svg version="1.1" id="Layer_1" xmlns="http://www.w3.org/2000/svg" xmlns:xlink="http://www.w3.org/1999/xlink" x="0px" y="0px"
	 width="885px" height="510px" viewBox="0 0 885 510" enable-background="new 0 0 885 510" xml:space="preserve">
<g id="active">
	
		<rect id="room340" x="95.156" y="127.217" fill="#3FA9F5" stroke="#1A1A1A" stroke-miterlimit="10" width="65.583" height="41.724"/>
	
		<rect id="room341" x="6.762" y="148.078" fill="#3FA9F5" stroke="#1A1A1A" stroke-miterlimit="10" width="65.583" height="41.724"/>
	
		<rect id="room342" x="6.762" y="106.354" fill="#3FA9F5" stroke="#1A1A1A" stroke-miterlimit="10" width="65.583" height="41.724"/>
	<rect id="room343" x="6.762" y="64.631" fill="#3FA9F5" stroke="#1A1A1A" stroke-miterlimit="10" width="65.583" height="41.723"/>
	
		<rect id="room344" x="95.156" y="85.492" fill="#3FA9F5" stroke="#1A1A1A" stroke-miterlimit="10" width="65.583" height="41.725"/>
	<rect x="518.589" y="305.155" fill="none" stroke="#1A1A1A" stroke-miterlimit="10" width="146.847" height="62.587"/>
	<path fill="none" stroke="#1A1A1A" stroke-miterlimit="10" d="M518.589,495.06c-5.831,0,134.168-11.56,146.847-16.872V368.354
		l-146.847-0.612V495.06z"/>
	<path fill="none" stroke="#1A1A1A" stroke-miterlimit="10" d="M223.468,305.155h294.407l0.357,189.904
		c0,0-217.232,14.94-294.764,10.739V305.155z"/>
	<rect x="745.275" y="191.03" fill="none" stroke="#1A1A1A" stroke-miterlimit="10" width="45.621" height="35.587"/>
	<rect x="745.275" y="226.617" fill="none" stroke="#1A1A1A" stroke-miterlimit="10" width="45.621" height="35.588"/>
	<rect x="119.393" y="202.074" fill="none" stroke="#1A1A1A" stroke-miterlimit="10" width="44.195" height="60.131"/>
</g>
<g id="outfit">
	<rect id="stair" x="6.762" y="4.5" fill="none" stroke="#1A1A1A" stroke-miterlimit="10" width="153.977" height="60.131"/>
	<rect x="6.762" y="189.802" fill="none" stroke="#1A1A1A" stroke-miterlimit="10" width="112.631" height="72.403"/>
	<rect x="790.896" y="191.03" fill="none" stroke="#1A1A1A" stroke-miterlimit="10" width="91.246" height="71.175"/>
	<rect x="722.465" y="64.631" fill="none" stroke="#1A1A1A" stroke-miterlimit="10" width="159.678" height="126.398"/>
	<rect id="stair_1_" x="722.465" y="4.5" fill="none" stroke="#1A1A1A" stroke-miterlimit="10" width="159.678" height="60.131"/>
	<path fill="none" stroke="#1A1A1A" stroke-miterlimit="10" d="M882.143,262.205h-67.009v183.462c0,0,61.48-19.439,67.009-22.702
		V262.205z"/>
	<path fill="none" stroke="#1A1A1A" stroke-miterlimit="10" d="M665.436,478.188c0,0,110.564-16.26,149.273-32.521"/>
	<line fill="none" stroke="#1A1A1A" stroke-miterlimit="10" x1="160.738" y1="25.975" x2="722.465" y2="26.588"/>
	<rect x="223.468" y="26.588" fill="none" stroke="#1A1A1A" stroke-miterlimit="10" width="441.967" height="177.939"/>
	<line fill="none" stroke="#1A1A1A" stroke-miterlimit="10" x1="223.468" y1="204.528" x2="665.436" y2="26.588"/>
	<line fill="none" stroke="#1A1A1A" stroke-miterlimit="10" x1="223.468" y1="26.588" x2="665.436" y2="204.528"/>
	<line fill="none" stroke="#1A1A1A" stroke-miterlimit="10" x1="813.709" y1="262.205" x2="880.717" y2="422.965"/>
	<line fill="none" stroke="#1A1A1A" stroke-miterlimit="10" x1="880.717" y1="262.205" x2="814.709" y2="445.667"/>
	<line fill="none" stroke="#1A1A1A" stroke-miterlimit="10" x1="790.896" y1="191.03" x2="880.717" y2="262.205"/>
	<line fill="none" stroke="#1A1A1A" stroke-miterlimit="10" x1="790.896" y1="262.205" x2="882.143" y2="191.03"/>
	<line fill="none" stroke="#1A1A1A" stroke-miterlimit="10" x1="6.762" y1="189.802" x2="119.393" y2="262.205"/>
	<line fill="none" stroke="#1A1A1A" stroke-miterlimit="10" x1="119.393" y1="189.802" x2="6.762" y2="262.205"/>
	<g id="Restrooms">
		<g>
			<rect x="778.213" y="103.208" fill="none" stroke="#1A1A1A" width="54.742" height="47.608"/>
			<g>
				<path fill="#231F20" stroke="#1A1A1A" d="M832.955,143.306c0,4.142-3.867,7.51-8.629,7.51h-37.482
					c-4.766,0-8.629-3.369-8.629-7.51v-32.6c0-4.142,3.865-7.498,8.629-7.498h37.482c4.762,0,8.629,3.356,8.629,7.498V143.306z"/>
				<g>
					<polygon fill="#FFFFFF" stroke="#1A1A1A" points="804.69,106.763 804.69,145.229 784.426,145.229 784.426,115.207 					"/>
					<polygon fill="#FFFFFF" stroke="#1A1A1A" points="806.964,106.763 806.964,145.229 827.223,145.229 827.223,115.207 					"/>
					<g>
						<g>
							<polygon fill="#231F20" stroke="#1A1A1A" points="791.908,118.613 797.586,118.613 802.781,129.727 801.745,130.334 
								797.412,123.351 797.014,123.709 801.566,134.327 797.098,134.327 795.661,143.583 793.855,143.583 792.415,134.327 
								787.951,134.327 792.57,123.923 792.102,123.351 787.781,130.334 786.733,129.727 							"/>
							<path fill="#231F20" stroke="#1A1A1A" d="M797.86,115.093c0,1.558-1.461,2.822-3.245,2.822c-1.788,0-3.238-1.262-3.238-2.822
								c0-1.546,1.449-2.815,3.238-2.815C796.402,112.277,797.86,113.547,797.86,115.093z"/>
							<path fill="#231F20" stroke="#1A1A1A" d="M819.717,115.093c0,1.558-1.455,2.822-3.24,2.822c-1.797,0-3.249-1.262-3.249-2.822
								c0-1.546,1.453-2.815,3.249-2.815C818.262,112.277,819.717,113.547,819.717,115.093z"/>
						</g>
						<polygon fill="#231F20" stroke="#1A1A1A" points="811.811,118.613 820.7,118.613 822.701,119.636 822.701,132.684 
							820.974,132.684 820.974,123.592 819.584,123.592 819.584,143.583 817.354,143.583 816.689,135.953 815.948,135.953 
							815.347,143.583 812.99,143.583 812.99,123.592 811.609,123.592 811.595,132.684 809.891,132.684 809.891,119.9 						"/>
					</g>
				</g>
			</g>
		</g>
		<g id="Arrow_30">
			<rect x="579.655" y="257.905" fill="none" width="41.822" height="15.959"/>
		</g>
		<g id="Arrow_30_1_">
			<rect x="579.657" y="280.813" fill="none" width="41.821" height="15.959"/>
			<g>
				<polygon fill="#231F20" stroke="#1A1A1A" points="605.822,291.096 605.822,294.772 579.657,288.792 605.822,282.813 
					605.822,287.49 621.479,287.49 621.479,291.096 				"/>
			</g>
			<g>
				<polygon fill="#231F20" stroke="#1A1A1A" points="579.656,268.188 579.656,264.582 595.312,264.582 595.312,259.905 
					621.478,265.884 595.312,271.864 595.312,268.188 				"/>
			</g>
			<rect x="624.091" y="242.57" fill="none" stroke="#1A1A1A" width="67.008" height="61.359"/>
			<line fill="none" stroke="#1A1A1A" x1="72.345" y1="261.591" x2="72.345" y2="504.571"/>
			<line fill="none" stroke="#1A1A1A" x1="72.345" y1="504.571" x2="223.468" y2="505.799"/>
			<text transform="matrix(1.1618 0 0 1 96.5854 365.2822)" font-family="'MyriadPro-Regular'" font-size="22.089">Durant</text>
			
				<text transform="matrix(1.1618 0 0 1 96.5854 365.2822)" fill="none" stroke="#1A1A1A" font-family="'MyriadPro-Regular'" font-size="22.089">Durant</text>
			<text transform="matrix(1.1618 0 0 1 96.5854 391.79)" font-family="'MyriadPro-Regular'" font-size="22.089">Special</text>
			
				<text transform="matrix(1.1618 0 0 1 96.5854 391.79)" fill="none" stroke="#1A1A1A" font-family="'MyriadPro-Regular'" font-size="22.089">Special</text>
			<text transform="matrix(1.1618 0 0 1 96.5854 418.2969)" font-family="'MyriadPro-Regular'" font-size="22.089">Collection</text>
			
				<text transform="matrix(1.1618 0 0 1 96.5854 418.2969)" fill="none" stroke="#1A1A1A" font-family="'MyriadPro-Regular'" font-size="22.089">Collection</text>
			<text transform="matrix(1.1618 0 0 1 96.5854 444.8037)" font-family="'MyriadPro-Regular'" font-size="22.089">Lounge</text>
			
				<text transform="matrix(1.1618 0 0 1 96.5854 444.8037)" fill="none" stroke="#1A1A1A" font-family="'MyriadPro-Regular'" font-size="22.089">Lounge</text>
			<text transform="matrix(1.1618 0 0 1 279.7881 368.3506)" font-family="'MyriadPro-Regular'" font-size="22.089">Gerard Manley</text>
			
				<text transform="matrix(1.1618 0 0 1 279.7881 368.3506)" fill="none" stroke="#1A1A1A" font-family="'MyriadPro-Regular'" font-size="22.089">Gerard Manley</text>
			<text transform="matrix(1.1618 0 0 1 279.7881 394.8574)" font-family="'MyriadPro-Regular'" font-size="22.089">Hopkins, S.J.</text>
			
				<text transform="matrix(1.1618 0 0 1 279.7881 394.8574)" fill="none" stroke="#1A1A1A" font-family="'MyriadPro-Regular'" font-size="22.089">Hopkins, S.J.</text>
			<text transform="matrix(1.1618 0 0 1 279.7881 421.3643)" font-family="'MyriadPro-Regular'" font-size="22.089">Special Collection</text>
			
				<text transform="matrix(1.1618 0 0 1 279.7881 421.3643)" fill="none" stroke="#1A1A1A" font-family="'MyriadPro-Regular'" font-size="22.089">Special Collection</text>
			<text transform="matrix(1.1618 0 0 1 687.5391 366.5117)" font-family="'MyriadPro-Regular'" font-size="22.089">Griffiths</text>
			
				<text transform="matrix(1.1618 0 0 1 687.5391 366.5117)" fill="none" stroke="#1A1A1A" font-family="'MyriadPro-Regular'" font-size="22.089">Griffiths</text>
			<text transform="matrix(1.1618 0 0 1 687.5391 393.0186)" font-family="'MyriadPro-Regular'" font-size="22.089">Scholars</text>
			
				<text transform="matrix(1.1618 0 0 1 687.5391 393.0186)" fill="none" stroke="#1A1A1A" font-family="'MyriadPro-Regular'" font-size="22.089">Scholars</text>
			<text transform="matrix(1.1618 0 0 1 687.5391 419.5244)" font-family="'MyriadPro-Regular'" font-size="22.089">Lounge</text>
			
				<text transform="matrix(1.1618 0 0 1 687.5391 419.5244)" fill="none" stroke="#1A1A1A" font-family="'MyriadPro-Regular'" font-size="22.089">Lounge</text>
		</g>
		<g id="Children">
			<g>
				<g>
					<g>
						<polygon fill="#231F20" stroke="#1A1A1A" stroke-width="0.5491" points="650.973,255.111 645.377,271.085 648.265,271.015 
							653.842,255.606 						"/>
						<polygon fill="#231F20" stroke="#1A1A1A" stroke-width="0.5491" points="662.573,255.111 668.122,271.073 665.24,271.05 
							659.705,255.606 						"/>
						<polygon fill="#231F20" stroke="#1A1A1A" stroke-width="0.5491" points="652.771,279.348 652.771,255.495 660.762,255.495 
							660.762,280.128 660.759,280.128 660.759,300.868 657.926,300.868 657.926,279.971 655.589,279.971 655.589,300.868 
							652.757,300.868 652.757,279.348 						"/>
						<g>
							<ellipse fill="#231F20" stroke="#1A1A1A" stroke-width="0.5491" cx="656.877" cy="249.745" rx="3.451" ry="5.746"/>
						</g>
					</g>
				</g>
				<g>
					<g>
						<polygon fill="#231F20" stroke="#1A1A1A" stroke-width="0.5491" points="630.751,255.111 625.156,271.085 628.041,271.015 
							633.621,255.606 						"/>
						<polygon fill="#231F20" stroke="#1A1A1A" stroke-width="0.5491" points="642.352,255.111 647.935,271.042 645.033,271.097 
							639.482,255.606 						"/>
						<polygon fill="#231F20" stroke="#1A1A1A" stroke-width="0.5491" points="632.548,279.348 632.548,255.495 640.541,255.495 
							640.541,280.128 640.539,280.128 640.539,300.868 637.704,300.868 637.704,279.971 635.367,279.971 635.367,300.868 
							632.535,300.868 632.535,279.348 						"/>
						<g>
							<ellipse fill="#231F20" stroke="#1A1A1A" stroke-width="0.5491" cx="636.654" cy="249.745" rx="3.452" ry="5.746"/>
						</g>
					</g>
				</g>
				<g>
					<g>
						<polygon fill="#231F20" stroke="#1A1A1A" stroke-width="0.5491" points="670.71,255.111 665.551,271.005 668.443,271.015 
							673.576,255.606 						"/>
						<polygon fill="#231F20" stroke="#1A1A1A" stroke-width="0.5491" points="682.308,255.111 687.904,271.085 685.018,271.015 
							679.441,255.606 						"/>
						<polygon fill="#231F20" stroke="#1A1A1A" stroke-width="0.5491" points="672.506,279.348 672.506,255.495 680.497,255.495 
							680.497,280.128 680.494,280.128 680.494,300.868 677.66,300.868 677.66,279.971 675.325,279.971 675.325,300.868 
							672.491,300.868 672.491,279.348 						"/>
						<g>
							<ellipse fill="#231F20" stroke="#1A1A1A" stroke-width="0.5491" cx="676.61" cy="249.745" rx="3.452" ry="5.746"/>
						</g>
					</g>
				</g>
			</g>
		</g>
	</g>
</g>
</svg>
