<?xml version="1.0" encoding="utf-8"?>
<!-- Generator: Adobe Illustrator 16.0.4, SVG Export Plug-In . SVG Version: 6.00 Build 0)  -->
<!DOCTYPE svg PUBLIC "-//W3C//DTD SVG 1.1//EN" "http://www.w3.org/Graphics/SVG/1.1/DTD/svg11.dtd">
<svg version="1.1" id="PostFloor3" xmlns="http://www.w3.org/2000/svg" xmlns:xlink="http://www.w3.org/1999/xlink" x="0px" y="0px"
	 width="885px" height="510px" viewBox="0 0 885 510" enable-background="new 0 0 885 510" xml:space="preserve">
<g id="active">
	
		<rect id="room340" x="95.156" y="127.217" fill="#3FA9F5" stroke="#1A1A1A" stroke-miterlimit="10" width="65.583" height="41.724"/>
	
		<rect id="room341" x="6.762" y="148.078" fill="#3FA9F5" stroke="#1A1A1A" stroke-miterlimit="10" width="65.583" height="41.724"/>
	
		<rect id="room342" x="6.762" y="106.354" fill="#3FA9F5" stroke="#1A1A1A" stroke-miterlimit="10" width="65.583" height="41.724"/>
	<rect id="room343" x="6.762" y="64.631" fill="#3FA9F5" stroke="#1A1A1A" stroke-miterlimit="10" width="65.583" height="41.723"/>
	
		<rect id="room344" x="95.156" y="85.492" fill="#3FA9F5" stroke="#1A1A1A" stroke-miterlimit="10" width="65.583" height="41.725"/>
	<rect x="518.589" y="305.154" fill="none" stroke="#1A1A1A" stroke-miterlimit="10" width="146.847" height="62.588"/>
	<path fill="none" stroke="#1A1A1A" stroke-miterlimit="10" d="M518.589,495.06c-5.831,0,134.168-11.56,146.847-16.872V368.354
		l-146.847-0.611V495.06z"/>
	<path fill="none" stroke="#1A1A1A" stroke-miterlimit="10" d="M223.468,305.154h294.407l0.357,189.904
		c0,0-217.232,14.94-294.765,10.739V305.154L223.468,305.154z"/>
	<rect x="745.275" y="191.03" fill="none" stroke="#1A1A1A" stroke-miterlimit="10" width="45.621" height="35.587"/>
	<rect x="745.275" y="226.617" fill="none" stroke="#1A1A1A" stroke-miterlimit="10" width="45.621" height="35.588"/>
	<rect x="119.393" y="202.074" fill="none" stroke="#1A1A1A" stroke-miterlimit="10" width="44.195" height="60.131"/>
</g>
<g id="outfit">
	<rect id="stair" x="6.762" y="4.5" fill="none" stroke="#1A1A1A" stroke-miterlimit="10" width="153.977" height="60.131"/>
	<rect x="6.762" y="189.802" fill="none" stroke="#1A1A1A" stroke-miterlimit="10" width="112.631" height="72.403"/>
	<rect x="790.896" y="191.03" fill="none" stroke="#1A1A1A" stroke-miterlimit="10" width="91.245" height="71.175"/>
	<rect x="722.465" y="64.631" fill="none" stroke="#1A1A1A" stroke-miterlimit="10" width="159.678" height="126.398"/>
	<rect id="stair_1_" x="722.465" y="4.5" fill="none" stroke="#1A1A1A" stroke-miterlimit="10" width="159.678" height="60.131"/>
	<path fill="none" stroke="#1A1A1A" stroke-miterlimit="10" d="M882.143,262.205h-67.009v183.462c0,0,61.48-19.439,67.009-22.702
		V262.205L882.143,262.205z"/>
	<path fill="none" stroke="#1A1A1A" stroke-miterlimit="10" d="M665.436,478.188c0,0,110.564-16.26,149.273-32.521"/>
	<line fill="none" stroke="#1A1A1A" stroke-miterlimit="10" x1="160.738" y1="25.975" x2="722.465" y2="26.588"/>
	<rect x="223.468" y="26.588" fill="none" stroke="#1A1A1A" stroke-miterlimit="10" width="441.967" height="177.939"/>
	<line fill="none" stroke="#1A1A1A" stroke-miterlimit="10" x1="223.468" y1="204.528" x2="665.436" y2="26.588"/>
	<line fill="none" stroke="#1A1A1A" stroke-miterlimit="10" x1="223.468" y1="26.588" x2="665.436" y2="204.528"/>
	<line fill="none" stroke="#1A1A1A" stroke-miterlimit="10" x1="813.709" y1="262.205" x2="880.717" y2="422.965"/>
	<line fill="none" stroke="#1A1A1A" stroke-miterlimit="10" x1="880.717" y1="262.205" x2="814.709" y2="445.667"/>
	<line fill="none" stroke="#1A1A1A" stroke-miterlimit="10" x1="790.896" y1="191.03" x2="880.717" y2="262.205"/>
	<line fill="none" stroke="#1A1A1A" stroke-miterlimit="10" x1="790.896" y1="262.205" x2="882.143" y2="191.03"/>
	<line fill="none" stroke="#1A1A1A" stroke-miterlimit="10" x1="6.762" y1="189.802" x2="119.393" y2="262.205"/>
	<line fill="none" stroke="#1A1A1A" stroke-miterlimit="10" x1="119.393" y1="189.802" x2="6.762" y2="262.205"/>
	<g id="Restrooms">
		<g>
			<rect x="778.213" y="103.208" fill="none" stroke="#1A1A1A" width="54.742" height="47.608"/>
			<g>
				<path fill="#231F20" stroke="#1A1A1A" d="M832.955,143.306c0,4.142-3.867,7.51-8.629,7.51h-37.482
					c-4.766,0-8.629-3.369-8.629-7.51v-32.6c0-4.142,3.865-7.498,8.629-7.498h37.482c4.762,0,8.629,3.356,8.629,7.498V143.306z"/>
				<g>
					<polygon fill="#FFFFFF" stroke="#1A1A1A" points="804.69,106.763 804.69,145.229 784.426,145.229 784.426,115.207 					"/>
					<polygon fill="#FFFFFF" stroke="#1A1A1A" points="806.964,106.763 806.964,145.229 827.223,145.229 827.223,115.207 					"/>
					<g>
						<g>
							<polygon fill="#231F20" stroke="#1A1A1A" points="791.908,118.613 797.586,118.613 802.781,129.727 801.745,130.334 
								797.412,123.351 797.014,123.709 801.566,134.327 797.098,134.327 795.661,143.583 793.855,143.583 792.415,134.327 
								787.951,134.327 792.57,123.923 792.102,123.351 787.781,130.334 786.733,129.727 							"/>
							<path fill="#231F20" stroke="#1A1A1A" d="M797.86,115.093c0,1.558-1.461,2.822-3.245,2.822c-1.788,0-3.238-1.262-3.238-2.822
								c0-1.546,1.449-2.815,3.238-2.815C796.402,112.277,797.86,113.547,797.86,115.093z"/>
							<path fill="#231F20" stroke="#1A1A1A" d="M819.717,115.093c0,1.558-1.455,2.822-3.24,2.822c-1.797,0-3.249-1.262-3.249-2.822
								c0-1.546,1.453-2.815,3.249-2.815C818.262,112.277,819.717,113.547,819.717,115.093z"/>
						</g>
						<polygon fill="#231F20" stroke="#1A1A1A" points="811.811,118.613 820.7,118.613 822.701,119.636 822.701,132.684 
							820.974,132.684 820.974,123.592 819.584,123.592 819.584,143.583 817.354,143.583 816.689,135.953 815.948,135.953 
							815.347,143.583 812.99,143.583 812.99,123.592 811.609,123.592 811.595,132.684 809.891,132.684 809.891,119.9 						"/>
					</g>
				</g>
			</g>
		</g>
		<g id="Arrow_30_1_">
			<rect x="628.041" y="249.745" fill="none" stroke="#1A1A1A" width="63.058" height="54.185"/>
			<line fill="none" stroke="#1A1A1A" x1="72.345" y1="261.591" x2="72.345" y2="504.571"/>
			<line fill="none" stroke="#1A1A1A" x1="72.345" y1="504.571" x2="223.468" y2="505.799"/>
		</g>
		<g id="Children">
			<g>
				<g>
					<g>
						<polygon fill="#231F20" stroke="#1A1A1A" stroke-width="0.5491" points="653.338,260.819 648.072,274.926 650.79,274.864 
							656.038,261.257 						"/>
						<polygon fill="#231F20" stroke="#1A1A1A" stroke-width="0.5491" points="664.255,260.819 669.477,274.915 666.765,274.895 
							661.556,261.257 						"/>
						<polygon fill="#231F20" stroke="#1A1A1A" stroke-width="0.5491" points="655.031,282.223 655.031,261.159 662.55,261.159 
							662.55,282.911 662.547,282.911 662.547,301.227 659.882,301.227 659.882,282.772 657.683,282.772 657.683,301.227 
							655.018,301.227 655.018,282.223 						"/>
						<g>
							<ellipse fill="#231F20" stroke="#1A1A1A" stroke-width="0.5491" cx="658.895" cy="256.081" rx="3.248" ry="5.074"/>
						</g>
					</g>
				</g>
				<g>
					<g>
						<polygon fill="#231F20" stroke="#1A1A1A" stroke-width="0.5491" points="634.309,260.819 629.044,274.926 631.759,274.864 
							637.01,261.257 						"/>
						<polygon fill="#231F20" stroke="#1A1A1A" stroke-width="0.5491" points="645.226,260.819 650.479,274.888 647.749,274.937 
							642.525,261.257 						"/>
						<polygon fill="#231F20" stroke="#1A1A1A" stroke-width="0.5491" points="636,282.223 636,261.159 643.521,261.159 
							643.521,282.911 643.52,282.911 643.52,301.227 640.852,301.227 640.852,282.772 638.652,282.772 638.652,301.227 
							635.987,301.227 635.987,282.223 						"/>
						<g>
							<ellipse fill="#231F20" stroke="#1A1A1A" stroke-width="0.5491" cx="639.864" cy="256.081" rx="3.248" ry="5.074"/>
						</g>
					</g>
				</g>
				<g>
					<g>
						<polygon fill="#231F20" stroke="#1A1A1A" stroke-width="0.5491" points="671.912,260.819 667.057,274.855 669.779,274.864 
							674.609,261.257 						"/>
						<polygon fill="#231F20" stroke="#1A1A1A" stroke-width="0.5491" points="682.826,260.819 688.093,274.926 685.376,274.864 
							680.129,261.257 						"/>
						<polygon fill="#231F20" stroke="#1A1A1A" stroke-width="0.5491" points="673.602,282.223 673.602,261.159 681.122,261.159 
							681.122,282.911 681.119,282.911 681.119,301.227 678.452,301.227 678.452,282.772 676.255,282.772 676.255,301.227 
							673.588,301.227 673.588,282.223 						"/>
						<g>
							<ellipse fill="#231F20" stroke="#1A1A1A" stroke-width="0.5491" cx="677.465" cy="256.081" rx="3.248" ry="5.074"/>
						</g>
					</g>
				</g>
			</g>
		</g>
	</g>
	<text transform="matrix(1.1618 0 0 1 96.585 365.2822)" font-family="'MyriadPro-Regular'" font-size="20">Durant</text>
	<text transform="matrix(1.1618 0 0 1 96.585 391.79)" font-family="'MyriadPro-Regular'" font-size="20">Special</text>
	<text transform="matrix(1.1618 0 0 1 96.585 418.2969)" font-family="'MyriadPro-Regular'" font-size="20">Collection</text>
	<text transform="matrix(1.1618 0 0 1 96.585 444.8037)" font-family="'MyriadPro-Regular'" font-size="20">Lounge</text>
	<text transform="matrix(1.1618 0 0 1 279.7881 368.3506)" font-family="'MyriadPro-Regular'" font-size="20">Gerard Manley</text>
	<text transform="matrix(1.1618 0 0 1 279.7881 394.8574)" font-family="'MyriadPro-Regular'" font-size="20">Hopkins, S.J.</text>
	<text transform="matrix(1.1618 0 0 1 279.7881 421.3643)" font-family="'MyriadPro-Regular'" font-size="20">Special Collection</text>
	<text transform="matrix(1.1618 0 0 1 687.5391 366.5117)" font-family="'MyriadPro-Regular'" font-size="20">Griffiths</text>
	<text transform="matrix(1.1618 0 0 1 687.5391 393.0186)" font-family="'MyriadPro-Regular'" font-size="20">Scholars</text>
	<text transform="matrix(1.1618 0 0 1 687.5391 419.5244)" font-family="'MyriadPro-Regular'" font-size="20">Lounge</text>

    <g>
        <g>
            <g>
                <polygon points="601.635,290.458 601.635,294.177 623.86,289.493 601.635,284.8 601.635,288.52 588.334,288.52 588.334,290.458
                                "/>
            </g>
        </g>
        <g>
            <g>
                <polygon points="610.561,268.848 610.561,272.566 588.335,267.883 610.561,263.189 610.561,266.909 623.861,266.909
                    623.861,268.848 			"/>
            </g>
        </g>
        <line fill="none" stroke="#1A1A1A" x1="757" y1="4.5" x2="756.5" y2="64.631"/>
        <line fill="none" stroke="#1A1A1A" x1="765.766" y1="4.5" x2="765.266" y2="64.631"/>
        <line fill="none" stroke="#1A1A1A" x1="773.766" y1="4.5" x2="773.266" y2="64.631"/>
        <line fill="none" stroke="#1A1A1A" x1="783.463" y1="4.5" x2="782.963" y2="64.631"/>
        <line fill="none" stroke="#1A1A1A" x1="791.983" y1="4.5" x2="791.483" y2="64.631"/>
        <line fill="none" stroke="#1A1A1A" x1="801.11" y1="4.5" x2="800.61" y2="64.631"/>
        <line fill="none" stroke="#1A1A1A" x1="810.141" y1="4.5" x2="809.641" y2="64.631"/>
        <line fill="none" stroke="#1A1A1A" x1="818.967" y1="4.5" x2="818.467" y2="64.631"/>
        <line fill="none" stroke="#1A1A1A" x1="827.072" y1="4.498" x2="826.572" y2="64.629"/>
        <line fill="none" stroke="#1A1A1A" x1="837.057" y1="4.5" x2="836.557" y2="64.631"/>
        <line fill="none" stroke="#1A1A1A" x1="845.737" y1="4.5" x2="845.237" y2="64.631"/>
        <line fill="none" stroke="#1A1A1A" x1="130.745" y1="4.369" x2="131.245" y2="64.5"/>
        <line fill="none" stroke="#1A1A1A" x1="121.979" y1="4.369" x2="122.479" y2="64.5"/>
        <line fill="none" stroke="#1A1A1A" x1="113.979" y1="4.369" x2="114.479" y2="64.5"/>
        <line fill="none" stroke="#1A1A1A" x1="104.282" y1="4.369" x2="104.782" y2="64.5"/>
        <line fill="none" stroke="#1A1A1A" x1="95.762" y1="4.369" x2="96.262" y2="64.5"/>
        <line fill="none" stroke="#1A1A1A" x1="86.635" y1="4.369" x2="87.135" y2="64.5"/>
        <line fill="none" stroke="#1A1A1A" x1="77.604" y1="4.369" x2="78.104" y2="64.5"/>
        <line fill="none" stroke="#1A1A1A" x1="68.778" y1="4.369" x2="69.278" y2="64.5"/>
        <line fill="none" stroke="#1A1A1A" x1="60.673" y1="4.367" x2="61.173" y2="64.498"/>
        <line fill="none" stroke="#1A1A1A" x1="50.688" y1="4.369" x2="51.188" y2="64.5"/>
        <line fill="none" stroke="#1A1A1A" x1="42.008" y1="4.369" x2="42.508" y2="64.5"/>
        <g>
            <polygon points="826.283,32.756 854.489,34.602 826.283,36.433 826.283,35.337 749.5,35.337 749.5,34.014 826.283,34.014 		"/>
            <polygon points="61.462,32.625 33.256,34.471 61.462,36.302 61.462,35.206 138.245,35.206 138.245,33.882 61.462,33.882 		"/>
        </g>
    </g>
</g>
</svg>
