<?xml version="1.0" encoding="utf-8"?>
<!-- Generator: Adobe Illustrator 16.0.4, SVG Export Plug-In . SVG Version: 6.00 Build 0)  -->
<!DOCTYPE svg PUBLIC "-//W3C//DTD SVG 1.1//EN" "http://www.w3.org/Graphics/SVG/1.1/DTD/svg11.dtd">
<svg version="1.1" id="PostFloor1" xmlns="http://www.w3.org/2000/svg" xmlns:xlink="http://www.w3.org/1999/xlink" x="0px" y="0px"
	 width="885px" height="510px" viewBox="0 0 885 510" enable-background="new 0 0 885 510" xml:space="preserve">
<symbol  id="Children" viewBox="-36.786 -20.052 73.573 40.103">
	<g>
		<g>
			<g>
				<polygon fill="#231F20" stroke="#FFFFFF" stroke-width="0.65" points="-6.415,12.018 -12.875,0.934 -9.542,0.984 -3.102,11.674 
									"/>
				<polygon fill="#231F20" stroke="#FFFFFF" stroke-width="0.65" points="6.977,12.018 13.382,0.944 10.054,0.959 3.663,11.674 
									"/>
				<polygon fill="#231F20" stroke="#FFFFFF" stroke-width="0.65" points="-4.338,-4.798 -4.338,11.752 4.886,11.752 4.886,-5.339 
					4.883,-5.339 4.883,-19.727 1.61,-19.727 1.61,-5.229 -1.086,-5.229 -1.086,-19.727 -4.356,-19.727 -4.356,-4.798 				"/>
				<g>
					<path fill="#231F20" stroke="#FFFFFF" stroke-width="0.65" d="M-3.585,15.741c0-2.2,1.784-3.986,3.984-3.986
						c2.2,0,3.984,1.786,3.984,3.986c0,2.203-1.784,3.985-3.984,3.985C-1.801,19.729-3.585,17.944-3.585,15.741z"/>
				</g>
			</g>
		</g>
		<g>
			<g>
				<polygon fill="#231F20" stroke="#FFFFFF" stroke-width="0.65" points="-29.756,12.018 -36.216,0.934 -32.885,0.984 
					-26.445,11.674 				"/>
				<polygon fill="#231F20" stroke="#FFFFFF" stroke-width="0.65" points="-16.366,12.018 -9.921,0.965 -13.271,0.927 
					-19.678,11.674 				"/>
				<polygon fill="#231F20" stroke="#FFFFFF" stroke-width="0.65" points="-27.68,-4.798 -27.68,11.752 -18.457,11.752 
					-18.457,-5.339 -18.459,-5.339 -18.459,-19.727 -21.731,-19.727 -21.731,-5.229 -24.427,-5.229 -24.427,-19.727 
					-27.698,-19.727 -27.698,-4.798 				"/>
				<g>
					<path fill="#231F20" stroke="#FFFFFF" stroke-width="0.65" d="M-26.926,15.741c0-2.2,1.783-3.986,3.983-3.986
						c2.201,0,3.985,1.786,3.985,3.986c0,2.203-1.784,3.985-3.985,3.985C-25.143,19.729-26.926,17.944-26.926,15.741z"/>
				</g>
			</g>
		</g>
		<g>
			<g>
				<polygon fill="#231F20" stroke="#FFFFFF" stroke-width="0.65" points="16.366,12.018 10.412,0.991 13.753,0.984 19.678,11.674 
									"/>
				<polygon fill="#231F20" stroke="#FFFFFF" stroke-width="0.65" points="29.756,12.018 36.216,0.934 32.885,0.984 26.444,11.674 
									"/>
				<polygon fill="#231F20" stroke="#FFFFFF" stroke-width="0.65" points="18.441,-4.798 18.441,11.752 27.666,11.752 
					27.666,-5.339 27.662,-5.339 27.662,-19.727 24.391,-19.727 24.391,-5.229 21.695,-5.229 21.695,-19.727 18.424,-19.727 
					18.424,-4.798 				"/>
				<g>
					<path fill="#231F20" stroke="#FFFFFF" stroke-width="0.65" d="M19.195,15.741c0-2.2,1.784-3.986,3.983-3.986
						c2.201,0,3.985,1.786,3.985,3.986c0,2.203-1.784,3.985-3.985,3.985C20.979,19.729,19.195,17.944,19.195,15.741z"/>
				</g>
			</g>
		</g>
	</g>
</symbol>
<g id="active">
	<rect id="room141" y="149.057" fill="#29ABE2" stroke="#0B0B0B" stroke-miterlimit="10" width="67.306" height="42.084"/>
	<rect id="room140" x="87.354" y="126.102" fill="#29ABE2" stroke="#0B0B0B" stroke-miterlimit="10" width="67.306" height="42.084"/>
	<rect id="room143" y="64.888" fill="#29ABE2" stroke="#0B0B0B" stroke-miterlimit="10" width="67.306" height="42.085"/>
	<rect id="room142" y="106.973" fill="#29ABE2" stroke="#0B0B0B" stroke-miterlimit="10" width="67.306" height="42.084"/>
	<rect id="room144" x="87.354" y="84.017" fill="#29ABE2" stroke="#0B0B0B" stroke-miterlimit="10" width="67.306" height="42.085"/>
	
	<rect id="computerArea" x="148.104" y="201.982" fill="#BDCCD4" stroke="#0B0B0B" stroke-miterlimit="10" width="395.355" height="214.247"/>

    <rect x="110.267" y="202.62" fill="none" stroke="#0B0B0B" stroke-miterlimit="10" width="37.121" height="56.112"/>

    <rect id="office2" x="61.577" y="258.732" fill="#828287" stroke="#0B0B0B" stroke-miterlimit="10" width="85.811" height="59.938"/>
	<rect id="office3" x="61.577" y="318.671" fill="#828287" stroke="#0B0B0B" stroke-miterlimit="10" width="85.811" height="58.664"/>
	<rect id="office1" x="231.99" y="416.869" fill="#828287" stroke="#0B0B0B" stroke-miterlimit="10" width="70.17" height="87.993"/>
	<rect id="office" x="147.104" y="416.229" fill="#828287" stroke="#0B0B0B" stroke-miterlimit="10" width="84.886" height="44.637"/>
    <rect id="office_1_" x="147.104" y="460.865" fill="#828287" stroke="#0B0B0B" stroke-miterlimit="10" width="84.886" height="42.637"/>
    <path id="office4" fill="#828287" stroke="#0B0B0B" stroke-miterlimit="10" d="M387.366,416.869h78.047v86.081c0,0-32.938,1.912-77.331,1.912"/>

    <rect x="302.16" y="444.765" fill="none" stroke="#0B0B0B" stroke-miterlimit="10" width="85.922" height="60.1"/>
	<polygon fill="none" stroke="#0B0B0B" stroke-miterlimit="10" points="61.861,377.335 147.104,377.335 147.104,416.229 
		231.99,416.869 231.99,505.5 61.577,503.799 	"/>

	<rect id="newAC" x="652.835" y="305.918" fill="#FAAC58" stroke="#0B0B0B" stroke-miterlimit="10" width="10.199" height="56.75"/>
	
	<rect id="PostPrinter" x="304.604" y="419.229" fill="#109988" stroke="#0B0B0B" stroke-miterlimit="10" width="80.268" height="22.188"/>
</g>
<g id="outfit">
    <symbol  id="Children" viewBox="-36.786 -20.052 73.573 40.103">
	<g>
		<g>
			<g>
				<polygon fill="#231F20" stroke="#FFFFFF" stroke-width="0.65" points="-6.415,12.018 -12.875,0.934 -9.542,0.984 -3.102,11.674
									"/>
				<polygon fill="#231F20" stroke="#FFFFFF" stroke-width="0.65" points="6.977,12.018 13.382,0.944 10.054,0.959 3.663,11.674
									"/>
				<polygon fill="#231F20" stroke="#FFFFFF" stroke-width="0.65" points="-4.338,-4.798 -4.338,11.752 4.886,11.752 4.886,-5.339
					4.883,-5.339 4.883,-19.727 1.61,-19.727 1.61,-5.229 -1.086,-5.229 -1.086,-19.727 -4.356,-19.727 -4.356,-4.798 				"/>
				<g>
					<path fill="#231F20" stroke="#FFFFFF" stroke-width="0.65" d="M-3.585,15.741c0-2.2,1.784-3.986,3.984-3.986
						c2.2,0,3.984,1.786,3.984,3.986c0,2.203-1.784,3.985-3.984,3.985C-1.801,19.729-3.585,17.944-3.585,15.741z"/>
				</g>
			</g>
		</g>
		<g>
			<g>
				<polygon fill="#231F20" stroke="#FFFFFF" stroke-width="0.65" points="-29.756,12.018 -36.216,0.934 -32.885,0.984
					-26.445,11.674 				"/>
				<polygon fill="#231F20" stroke="#FFFFFF" stroke-width="0.65" points="-16.366,12.018 -9.921,0.965 -13.271,0.927
					-19.678,11.674 				"/>
				<polygon fill="#231F20" stroke="#FFFFFF" stroke-width="0.65" points="-27.68,-4.798 -27.68,11.752 -18.457,11.752
					-18.457,-5.339 -18.459,-5.339 -18.459,-19.727 -21.731,-19.727 -21.731,-5.229 -24.427,-5.229 -24.427,-19.727
					-27.698,-19.727 -27.698,-4.798 				"/>
				<g>
					<path fill="#231F20" stroke="#FFFFFF" stroke-width="0.65" d="M-26.926,15.741c0-2.2,1.783-3.986,3.983-3.986
						c2.201,0,3.985,1.786,3.985,3.986c0,2.203-1.784,3.985-3.985,3.985C-25.143,19.729-26.926,17.944-26.926,15.741z"/>
				</g>
			</g>
		</g>
		<g>
			<g>
				<polygon fill="#231F20" stroke="#FFFFFF" stroke-width="0.65" points="16.366,12.018 10.412,0.991 13.753,0.984 19.678,11.674
									"/>
				<polygon fill="#231F20" stroke="#FFFFFF" stroke-width="0.65" points="29.756,12.018 36.216,0.934 32.885,0.984 26.444,11.674
									"/>
				<polygon fill="#231F20" stroke="#FFFFFF" stroke-width="0.65" points="18.441,-4.798 18.441,11.752 27.666,11.752
					27.666,-5.339 27.662,-5.339 27.662,-19.727 24.391,-19.727 24.391,-5.229 21.695,-5.229 21.695,-19.727 18.424,-19.727
					18.424,-4.798 				"/>
				<g>
					<path fill="#231F20" stroke="#FFFFFF" stroke-width="0.65" d="M19.195,15.741c0-2.2,1.784-3.986,3.983-3.986
						c2.201,0,3.985,1.786,3.985,3.986c0,2.203-1.784,3.985-3.985,3.985C20.979,19.729,19.195,17.944,19.195,15.741z"/>
				</g>
			</g>
		</g>
	</g>
</symbol>
	<text transform="matrix(1.2765 0 0 1 720.3145 371.835)" font-family="'NewsGothicMT'" font-size="24">Café</text>
	<rect y="7.5" fill="none" stroke="#0B0B0B" stroke-miterlimit="10" width="160.388" height="57.388"/>
	<rect y="192.417" fill="none" stroke="#0B0B0B" stroke-miterlimit="10" width="110.267" height="66.315"/>
	<line fill="none" stroke="#0B0B0B" stroke-miterlimit="10" x1="0" y1="192.417" x2="110.267" y2="258.732"/>
	<line fill="none" stroke="#0B0B0B" stroke-miterlimit="10" x1="0" y1="258.732" x2="110.267" y2="192.417"/>
	<polygon id="stair" fill="none" stroke="#0B0B0B" stroke-miterlimit="10" points="885,64.888 721.748,64.888 720.315,7.5 885,7.5 	
		"/>
	<rect id="toilet" x="721.748" y="64.888" fill="none" stroke="#0B0B0B" stroke-miterlimit="10" width="163.252" height="124.979"/>
	<rect x="721.748" y="189.866" fill="none" stroke="#0B0B0B" stroke-miterlimit="10" width="163.252" height="70.141"/>
	<line fill="none" stroke="#0B0B0B" stroke-miterlimit="10" x1="754.684" y1="190.504" x2="754.684" y2="224.936"/>
	<line fill="none" stroke="#0B0B0B" stroke-miterlimit="10" x1="753.968" y1="225.574" x2="796.93" y2="225.574"/>
	<line fill="none" stroke="#0B0B0B" stroke-miterlimit="10" x1="796.216" y1="226.211" x2="796.216" y2="260.645"/>
	<line fill="none" stroke="#0B0B0B" stroke-miterlimit="10" x1="796.216" y1="208.357" x2="796.216" y2="190.504"/>
	<line fill="none" stroke="#0B0B0B" stroke-miterlimit="10" x1="828.436" y1="260.007" x2="829.866" y2="438.547"/>
	<path fill="none" stroke="#0B0B0B" stroke-miterlimit="10" d="M503.256,501.793c-12.631,0-25.264,1.033-37.843,1.033"/>
	<path fill="none" stroke="#0B0B0B" stroke-width="2" stroke-miterlimit="10" d="M503.256,500.637"/>
	<path fill="none" stroke="#0B0B0B" stroke-miterlimit="10" d="M875.691,422.606c0,0-112.254,38.16-249.827,62.137"/>
	<line fill="none" stroke="#0B0B0B" stroke-width="2" stroke-miterlimit="10" x1="161.104" y1="25.568" x2="721.748" y2="26.417"/>
	<line fill="none" stroke="#0B0B0B" stroke-width="2" stroke-miterlimit="10" x1="589.284" y1="59.149" x2="589.284" y2="199.431"/>
	
		<use xlink:href="#Children"  width="73.573" height="40.103" x="-36.786" y="-20.052" transform="matrix(0.7969 0 0 -0.8841 659.0244 288.6064)" overflow="visible"/>
	<rect x="630.069" y="270.266" fill="none" stroke="#0B0B0B" stroke-miterlimit="10" width="57.814" height="35.786"/>
	
		<text transform="matrix(1.2765 0 0 1 720.3145 371.835)" fill="none" stroke="#0B0B0B" font-family="'NewsGothicMT'" font-size="24">Cafe</text>
	<g>
		<g>
			<polyline fill="#231F20" stroke="#0B0B0B" stroke-miterlimit="10" points="629.068,282.266 609.466,285.572 609.468,283.227 
				593.43,283.227 593.43,281.307 606.468,281.307 609.468,278.959 			"/>
		</g>
	</g>
	<g>
		<g>
			<polyline fill="#231F20" stroke="#0B0B0B" stroke-miterlimit="10" points="613.03,293.059 613.03,295.404 629.068,295.404 
				629.068,297.326 613.03,297.326 614.032,299.672 594.43,296.365 			"/>
		</g>
	</g>
	<line fill="none" stroke="#0B0B0B" stroke-miterlimit="10" x1="388.083" y1="444.765" x2="388.396" y2="416.869"/>
	<g id="Restrooms">
		<g>
			<rect x="782.871" y="105.629" fill="none" stroke="#0B0B0B" width="39.178" height="38.281"/>
			<g>
				<path fill="#231F20" stroke="#0B0B0B" d="M822.049,137.871c0,3.331-2.77,6.039-6.178,6.039h-26.822
					c-3.411,0-6.178-2.708-6.178-6.039v-26.213c0-3.331,2.767-6.029,6.178-6.029h26.822c3.408,0,6.178,2.698,6.178,6.029V137.871z"
					/>
				<g>
					<polygon fill="#FFFFFF" stroke="#0B0B0B" points="801.82,108.486 801.82,139.417 787.319,139.417 787.319,115.276 					"/>
					<polygon fill="#FFFFFF" stroke="#0B0B0B" points="803.448,108.486 803.448,139.417 817.945,139.417 817.945,115.276 					"/>
					<g>
						<g>
							<polygon fill="#231F20" stroke="#0B0B0B" points="792.674,118.015 796.736,118.015 800.453,126.953 799.715,127.44 
								796.613,121.826 796.327,122.113 799.584,130.651 796.387,130.651 795.359,138.092 794.067,138.092 793.037,130.651 
								789.842,130.651 793.147,122.285 792.812,121.826 789.719,127.44 788.971,126.953 							"/>
							<path fill="#231F20" stroke="#0B0B0B" d="M796.933,115.185c0,1.253-1.043,2.269-2.321,2.269
								c-1.281,0-2.318-1.015-2.318-2.269c0-1.244,1.037-2.265,2.318-2.265C795.89,112.921,796.933,113.941,796.933,115.185z"/>
							<path fill="#231F20" stroke="#0B0B0B" d="M812.575,115.185c0,1.253-1.042,2.269-2.318,2.269
								c-1.287,0-2.327-1.015-2.327-2.269c0-1.244,1.04-2.265,2.327-2.265C811.533,112.921,812.575,113.941,812.575,115.185z"/>
						</g>
						<polygon fill="#231F20" stroke="#0B0B0B" points="806.914,118.015 813.279,118.015 814.711,118.838 814.711,129.331 
							813.475,129.331 813.475,122.02 812.479,122.02 812.479,138.092 810.884,138.092 810.408,131.958 809.876,131.958 
							809.445,138.092 807.76,138.092 807.76,122.02 806.772,122.02 806.763,129.331 805.542,129.331 805.542,119.05 						"/>
					</g>
				</g>
			</g>
		</g>
	</g>
	<line fill="none" stroke="#0B0B0B" stroke-miterlimit="10" x1="754.684" y1="7.5" x2="754.684" y2="64.888"/>
	<line fill="none" stroke="#0B0B0B" stroke-miterlimit="10" x1="762" y1="7.5" x2="762" y2="64.888"/>
	<line fill="none" stroke="#0B0B0B" stroke-miterlimit="10" x1="768.667" y1="7.5" x2="768.667" y2="64.888"/>
	<line fill="none" stroke="#0B0B0B" stroke-miterlimit="10" x1="775.442" y1="7.5" x2="775.442" y2="64.888"/>
	<line fill="none" stroke="#0B0B0B" stroke-miterlimit="10" x1="782.658" y1="7.5" x2="782.658" y2="64.888"/>
	<line fill="none" stroke="#0B0B0B" stroke-miterlimit="10" x1="790.113" y1="7.5" x2="790.113" y2="64.888"/>
	<line fill="none" stroke="#0B0B0B" stroke-miterlimit="10" x1="798.293" y1="7.5" x2="798.293" y2="64.888"/>
	<line fill="none" stroke="#0B0B0B" stroke-miterlimit="10" x1="805.967" y1="7.5" x2="805.967" y2="64.888"/>
	<line fill="none" stroke="#0B0B0B" stroke-miterlimit="10" x1="813.248" y1="7.5" x2="813.248" y2="64.888"/>
	<line fill="none" stroke="#0B0B0B" stroke-miterlimit="10" x1="821" y1="7.5" x2="821" y2="64.888"/>
	<line fill="none" stroke="#0B0B0B" stroke-miterlimit="10" x1="829.967" y1="7.5" x2="829.967" y2="64.888"/>
	<line fill="none" stroke="#0B0B0B" stroke-miterlimit="10" x1="837.248" y1="7.5" x2="837.248" y2="64.888"/>
	<line fill="none" stroke="#0B0B0B" stroke-miterlimit="10" x1="845" y1="7.5" x2="845" y2="64.888"/>
	<line fill="none" stroke="#0B0B0B" stroke-miterlimit="10" x1="852.334" y1="7.5" x2="852.334" y2="64.888"/>
	<path fill="none" stroke="#0B0B0B" stroke-miterlimit="10" d="M396.684,25.568"/>
	<path fill="none" stroke="#0B0B0B" stroke-miterlimit="10" d="M404,25.568"/>
	<path fill="none" stroke="#0B0B0B" stroke-miterlimit="10" d="M410.667,25.568"/>
	<path fill="none" stroke="#0B0B0B" stroke-miterlimit="10" d="M417.442,25.568"/>
	<path fill="none" stroke="#0B0B0B" stroke-miterlimit="10" d="M424.658,25.568"/>
	<path fill="none" stroke="#0B0B0B" stroke-miterlimit="10" d="M432.113,25.568"/>
	<path fill="none" stroke="#0B0B0B" stroke-miterlimit="10" d="M440.293,25.568"/>
	<path fill="none" stroke="#0B0B0B" stroke-miterlimit="10" d="M447.967,25.568"/>
	<path fill="none" stroke="#0B0B0B" stroke-miterlimit="10" d="M455.248,25.568"/>
	<path fill="none" stroke="#0B0B0B" stroke-miterlimit="10" d="M463,25.568"/>
	<path fill="none" stroke="#0B0B0B" stroke-miterlimit="10" d="M471.967,25.568"/>
	<path fill="none" stroke="#0B0B0B" stroke-miterlimit="10" d="M479.248,25.568"/>
	<path fill="none" stroke="#0B0B0B" stroke-miterlimit="10" d="M487,25.568"/>
	<path fill="none" stroke="#0B0B0B" stroke-miterlimit="10" d="M494.334,25.568"/>
	<line fill="none" stroke="#0B0B0B" stroke-miterlimit="10" x1="134.511" y1="7.5" x2="134.511" y2="64.888"/>
	<line fill="none" stroke="#0B0B0B" stroke-miterlimit="10" x1="127.194" y1="7.5" x2="127.194" y2="64.888"/>
	<line fill="none" stroke="#0B0B0B" stroke-miterlimit="10" x1="120.527" y1="7.5" x2="120.527" y2="64.888"/>
	<line fill="none" stroke="#0B0B0B" stroke-miterlimit="10" x1="113.752" y1="7.5" x2="113.752" y2="64.888"/>
	<line fill="none" stroke="#0B0B0B" stroke-miterlimit="10" x1="106.536" y1="7.5" x2="106.536" y2="64.888"/>
	<line fill="none" stroke="#0B0B0B" stroke-miterlimit="10" x1="99.081" y1="7.5" x2="99.081" y2="64.888"/>
	<line fill="none" stroke="#0B0B0B" stroke-miterlimit="10" x1="90.901" y1="7.5" x2="90.901" y2="64.888"/>
	<line fill="none" stroke="#0B0B0B" stroke-miterlimit="10" x1="83.228" y1="7.5" x2="83.228" y2="64.888"/>
	<line fill="none" stroke="#0B0B0B" stroke-miterlimit="10" x1="75.946" y1="7.5" x2="75.946" y2="64.888"/>
	<line fill="none" stroke="#0B0B0B" stroke-miterlimit="10" x1="68.194" y1="7.5" x2="68.194" y2="64.888"/>
	<line fill="none" stroke="#0B0B0B" stroke-miterlimit="10" x1="59.228" y1="7.5" x2="59.228" y2="64.888"/>
	<line fill="none" stroke="#0B0B0B" stroke-miterlimit="10" x1="51.946" y1="7.5" x2="51.946" y2="64.888"/>
	<line fill="none" stroke="#0B0B0B" stroke-miterlimit="10" x1="44.194" y1="7.5" x2="44.194" y2="64.888"/>
	<line fill="none" stroke="#0B0B0B" stroke-miterlimit="10" x1="36.86" y1="7.5" x2="36.86" y2="64.888"/>
	<g>
		<polygon points="834.761,34.419 867,37.064 834.761,39.688 834.761,38.117 747,38.117 747,36.221 834.761,36.221 		"/>
		<polygon points="54.434,34.419 22.194,37.064 54.434,39.688 54.434,38.117 142.194,38.117 142.194,36.221 54.434,36.221 		"/>
	</g>
</g>

</svg>
