<?xml version="1.0" encoding="utf-8"?>
<!-- Generator: Adobe Illustrator 16.0.4, SVG Export Plug-In . SVG Version: 6.00 Build 0)  -->
<!DOCTYPE svg PUBLIC "-//W3C//DTD SVG 1.1//EN" "http://www.w3.org/Graphics/SVG/1.1/DTD/svg11.dtd">
<svg version="1.1" id="PostFloor2" xmlns="http://www.w3.org/2000/svg" xmlns:xlink="http://www.w3.org/1999/xlink" x="0px" y="0px"
	 width="885px" height="510px" viewBox="0 0 885 510" enable-background="new 0 0 885 510" xml:space="preserve">
<g id="active">
	<rect x="2" y="62.056" fill="#FFFFFF" stroke="#333333" stroke-miterlimit="10" width="162.729" height="126.579"/>
	<rect x="2" y="188.635" fill="#FFFFFF" stroke="#333333" stroke-miterlimit="10" width="86.699" height="67.329"/>
	<rect x="88.699" y="218.259" fill="#FFFFFF" stroke="#333333" stroke-miterlimit="10" width="76.029" height="37.705"/>
	<rect x="67.358" y="255.964" fill="#FFFFFF" stroke="#333333" stroke-miterlimit="10" width="124.047" height="65.982"/>
	<rect x="67.358" y="321.946" fill="#FFFFFF" stroke="#333333" stroke-miterlimit="10" width="90.701" height="59.248"/>
	<rect x="67.358" y="381.194" fill="#FFFFFF" stroke="#333333" stroke-miterlimit="10" width="90.701" height="52.517"/>
	<rect x="67.358" y="433.711" fill="#FFFFFF" stroke="#333333" stroke-miterlimit="10" width="128.049" height="71.37"/>
	<rect x="195.407" y="433.711" fill="#FFFFFF" stroke="#333333" stroke-miterlimit="10" width="89.367" height="71.37"/>
	<rect x="191.405" y="230.377" fill="#FFFFFF" stroke="#333333" stroke-miterlimit="10" width="49.352" height="80.796"/>
	<rect x="240.756" y="230.377" fill="#FFFFFF" stroke="#333333" stroke-miterlimit="10" width="44.018" height="20.2"/>
	<rect x="240.756" y="250.577" fill="#FFFFFF" stroke="#333333" stroke-miterlimit="10" width="44.018" height="57.904"/>
	<line fill="none" stroke="#333333" stroke-miterlimit="10" x1="284.774" y1="309.152" x2="284.774" y2="434.384"/>
	<rect x="324.789" y="230.377" fill="none" stroke="#333333" stroke-miterlimit="10" width="70.693" height="48.479"/>
	<rect x="395.482" y="230.377" fill="none" stroke="#333333" stroke-miterlimit="10" width="122.714" height="48.479"/>
	<rect x="518.196" y="230.377" fill="none" stroke="#333333" stroke-miterlimit="10" width="69.356" height="48.479"/>
	<rect x="796.967" y="188.635" fill="none" stroke="#333333" stroke-miterlimit="10" width="84.033" height="71.368"/>
	<rect x="754.285" y="188.635" fill="none" stroke="#333333" stroke-miterlimit="10" width="42.682" height="36.357"/>
	<rect x="754.285" y="224.992" fill="none" stroke="#333333" stroke-miterlimit="10" width="42.682" height="35.011"/>
	<path id="digitMediaZone" fill="#CCCCCC" d="M322.789,282.223v220.165c0,0,210.747-3.496,261.431-33.582V282.223H322.789z"/>
</g>
<g id="outfit">
	<text transform="matrix(1.3091 0 0 1 189.2402 379.9434)" font-family="'MyriadPro-Regular'" font-size="20">ATDL</text>
	<rect id="stair_4_" x="2" y="5.5" fill="#FFFFFF" stroke="#333333" stroke-miterlimit="10" width="162.729" height="56.556"/>
	<rect id="stair_1_" x="732.943" y="5.5" fill="none" stroke="#333333" stroke-miterlimit="10" width="148.057" height="56.556"/>
	
		<rect id="toilet_2_" x="732.943" y="62.056" fill="#FFFFFF" stroke="#333333" stroke-miterlimit="10" width="148.057" height="126.579"/>
	<line fill="none" stroke="#333333" stroke-width="2" stroke-miterlimit="10" x1="164.062" y1="26.371" x2="732.278" y2="26.371"/>
	<path fill="none" stroke="#333333" stroke-miterlimit="10" d="M637.134,505.081"/>
	<path fill="none" stroke="#333333" stroke-miterlimit="10" d="M880.659,260.677v166.146c0,0-157.668,59.472-261.58,60.17"/>
	<path fill="none" stroke="#333333" stroke-miterlimit="10" d="M510.505,505.5"/>
	<path fill="none" stroke="#333333" stroke-miterlimit="10" d="M285.075,505.088c0,0,193.656-4.897,212.55-9.097"/>
	<text transform="matrix(1.1252 0 0 1 413.3359 393.4258)" font-family="'MyriadPro-Regular'" font-size="20">Media Zone</text>
	<text transform="matrix(1.1252 0 0 1 413.3359 369.916)" font-family="'MyriadPro-Regular'" font-size="20">Digital</text>
	<g id="Restrooms">
		<g>
			<rect x="784.378" y="103.114" fill="none" stroke="#333333" width="51.317" height="46.179"/>
			<g>
				<path fill="#231F20" stroke="#333333" d="M835.695,142.008c0,4.017-3.628,7.285-8.092,7.285H792.47
					c-4.466,0-8.092-3.268-8.092-7.285v-31.621c0-4.017,3.626-7.273,8.092-7.273h35.134c4.466,0,8.094,3.256,8.094,7.273
					L835.695,142.008L835.695,142.008z"/>
				<g>
					<polygon fill="#FFFFFF" stroke="#333333" points="809.201,106.562 809.201,143.873 790.207,143.873 790.207,114.751 					"/>
					<polygon fill="#FFFFFF" stroke="#333333" points="811.332,106.562 811.332,143.873 830.321,143.873 830.321,114.751 					"/>
					<g>
						<g>
							<polygon fill="#231F20" stroke="#333333" points="797.219,118.056 802.538,118.056 807.408,128.836 806.44,129.425 
								802.377,122.652 802.005,122.999 806.269,133.299 802.083,133.299 800.737,142.274 799.044,142.274 797.695,133.299 
								793.511,133.299 797.839,123.208 797.399,122.652 793.35,129.425 792.368,128.836 							"/>
							<path fill="#231F20" stroke="#333333" d="M802.799,114.641c0,1.511-1.369,2.738-3.043,2.738
								c-1.677,0-3.034-1.227-3.034-2.738c0-1.5,1.357-2.731,3.034-2.731C801.431,111.91,802.799,113.142,802.799,114.641z"/>
							<path fill="#231F20" stroke="#333333" d="M823.285,114.641c0,1.511-1.363,2.738-3.037,2.738
								c-1.684,0-3.046-1.227-3.046-2.738c0-1.5,1.362-2.731,3.046-2.731C821.922,111.91,823.285,113.142,823.285,114.641z"/>
						</g>
						<polygon fill="#231F20" stroke="#333333" points="815.873,118.056 824.208,118.056 826.083,119.05 826.083,131.705 
							824.465,131.705 824.465,122.887 823.162,122.887 823.162,142.274 821.069,142.274 820.447,134.875 819.75,134.875 
							819.188,142.274 816.98,142.274 816.98,122.887 815.688,122.887 815.674,131.705 814.073,131.705 814.073,119.306 						"/>
					</g>
				</g>
			</g>
		</g>
		<g id="Arrow_30_1_">
			<polygon fill="none" points="586.787,257.973 637.834,270.443 637.834,280.732 586.787,271.5 			"/>
			<rect x="636.19" y="260.723" fill="none" stroke="#333333" width="59.017" height="49.345"/>
		</g>
	</g>
	<g id="Children">
		<g>
			<g>
				<g>
					<polygon fill="#231F20" stroke="#333333" stroke-width="0.5416" points="659.354,269.792 653.848,283.648 656.688,283.587 
						662.178,270.221 					"/>
					<polygon fill="#231F20" stroke="#333333" stroke-width="0.5416" points="670.77,269.792 676.229,283.639 673.391,283.618 
						667.945,270.221 					"/>
					<polygon fill="#231F20" stroke="#333333" stroke-width="0.5416" points="661.123,290.814 661.123,270.124 668.984,270.124 
						668.984,291.492 668.982,291.492 668.982,309.481 666.195,309.481 666.195,291.355 663.896,291.355 663.896,309.481 
						661.109,309.481 661.109,290.814 					"/>
					<g>
						<ellipse fill="#231F20" stroke="#333333" stroke-width="0.5416" cx="665.161" cy="265.136" rx="3.396" ry="4.983"/>
					</g>
				</g>
			</g>
			<g>
				<g>
					<polygon fill="#231F20" stroke="#333333" stroke-width="0.5416" points="639.46,269.792 633.955,283.648 636.794,283.587 
						642.283,270.221 					"/>
					<polygon fill="#231F20" stroke="#333333" stroke-width="0.5416" points="650.873,269.792 656.366,283.611 653.511,283.657 
						648.052,270.221 					"/>
					<polygon fill="#231F20" stroke="#333333" stroke-width="0.5416" points="641.229,290.814 641.229,270.124 649.089,270.124 
						649.089,291.492 649.088,291.492 649.088,309.481 646.3,309.481 646.3,291.355 644.001,291.355 644.001,309.481 
						641.216,309.481 641.216,290.814 					"/>
					<g>
						<ellipse fill="#231F20" stroke="#333333" stroke-width="0.5416" cx="645.269" cy="265.136" rx="3.396" ry="4.983"/>
					</g>
				</g>
			</g>
			<g>
				<g>
					<polygon fill="#231F20" stroke="#333333" stroke-width="0.5416" points="678.771,269.792 673.695,283.579 676.544,283.587 
						681.595,270.221 					"/>
					<polygon fill="#231F20" stroke="#333333" stroke-width="0.5416" points="690.185,269.792 695.69,283.648 692.849,283.587 
						687.36,270.221 					"/>
					<polygon fill="#231F20" stroke="#333333" stroke-width="0.5416" points="680.541,290.814 680.541,270.124 688.401,270.124 
						688.401,291.492 688.396,291.492 688.396,309.481 685.609,309.481 685.609,291.355 683.312,291.355 683.312,309.481 
						680.523,309.481 680.523,290.814 					"/>
					<g>
						<ellipse fill="#231F20" stroke="#333333" stroke-width="0.5416" cx="684.577" cy="265.136" rx="3.396" ry="4.983"/>
					</g>
				</g>
			</g>
		</g>
	</g>
	<polygon points="611.592,300.396 611.592,303.835 634.86,299.504 611.592,295.165 611.592,298.604 597.667,298.604 
		597.667,300.396 	"/>
	<polygon points="620.936,281.63 620.936,285.068 597.667,280.736 620.936,276.398 620.936,279.837 634.86,279.837 634.86,281.63 	
		"/>
	<line fill="none" stroke="#333333" stroke-miterlimit="10" x1="764.333" y1="5.5" x2="764.333" y2="62.056"/>
	<line fill="none" stroke="#333333" stroke-miterlimit="10" x1="773.667" y1="5.5" x2="773.667" y2="62.056"/>
	<line fill="none" stroke="#333333" stroke-miterlimit="10" x1="782.667" y1="5.5" x2="782.667" y2="62.056"/>
	<line fill="none" stroke="#333333" stroke-miterlimit="10" x1="792.368" y1="5.5" x2="792.368" y2="62.056"/>
	<line fill="none" stroke="#333333" stroke-miterlimit="10" x1="800.799" y1="5.5" x2="800.799" y2="62.056"/>
	<line fill="none" stroke="#333333" stroke-miterlimit="10" x1="810.037" y1="5.5" x2="810.037" y2="62.056"/>
	<line fill="none" stroke="#333333" stroke-miterlimit="10" x1="819.826" y1="5.5" x2="819.826" y2="62.056"/>
	<line fill="none" stroke="#333333" stroke-miterlimit="10" x1="828.321" y1="5.5" x2="828.321" y2="62.056"/>
	<line fill="none" stroke="#333333" stroke-miterlimit="10" x1="836.983" y1="5.5" x2="836.983" y2="62.056"/>
	<line fill="none" stroke="#333333" stroke-miterlimit="10" x1="845.667" y1="5.5" x2="845.667" y2="62.056"/>
	<line fill="none" stroke="#333333" stroke-miterlimit="10" x1="125.767" y1="5.899" x2="125.767" y2="62.456"/>
	<line fill="none" stroke="#333333" stroke-miterlimit="10" x1="116.433" y1="5.899" x2="116.433" y2="62.456"/>
	<line fill="none" stroke="#333333" stroke-miterlimit="10" x1="107.433" y1="5.899" x2="107.433" y2="62.456"/>
	<line fill="none" stroke="#333333" stroke-miterlimit="10" x1="97.731" y1="5.899" x2="97.731" y2="62.456"/>
	<line fill="none" stroke="#333333" stroke-miterlimit="10" x1="89.301" y1="5.899" x2="89.301" y2="62.456"/>
	<line fill="none" stroke="#333333" stroke-miterlimit="10" x1="80.062" y1="5.899" x2="80.062" y2="62.456"/>
	<line fill="none" stroke="#333333" stroke-miterlimit="10" x1="70.273" y1="5.899" x2="70.273" y2="62.456"/>
	<line fill="none" stroke="#333333" stroke-miterlimit="10" x1="61.778" y1="5.899" x2="61.778" y2="62.456"/>
	<line fill="none" stroke="#333333" stroke-miterlimit="10" x1="53.116" y1="5.899" x2="53.116" y2="62.456"/>
	<line fill="none" stroke="#333333" stroke-miterlimit="10" x1="44.433" y1="5.899" x2="44.433" y2="62.456"/>
	<g>
		<polygon points="833.144,32.05 860.333,35.189 833.144,38.305 833.144,36.44 759.137,36.44 759.137,34.188 833.144,34.188 		"/>
		<polygon points="56.956,32.449 29.767,35.588 56.956,38.705 56.956,36.839 130.963,36.839 130.963,34.587 56.956,34.587 		"/>
	</g>
</g>
</svg>
