<?xml version="1.0" encoding="utf-8"?>
<!-- Generator: Adobe Illustrator 16.0.4, SVG Export Plug-In . SVG Version: 6.00 Build 0)  -->
<!DOCTYPE svg PUBLIC "-//W3C//DTD SVG 1.1//EN" "http://www.w3.org/Graphics/SVG/1.1/DTD/svg11.dtd">
<svg version="1.1" id="PostFloor2" xmlns="http://www.w3.org/2000/svg" xmlns:xlink="http://www.w3.org/1999/xlink" x="0px" y="0px"
	 width="885px" height="510px" viewBox="0 0 885 510" enable-background="new 0 0 885 510" xml:space="preserve">
<g id="active">
	<rect x="2" y="62.056" fill="#FFFFFF" stroke="#333333" stroke-miterlimit="10" width="162.729" height="126.579"/>
	<rect x="2" y="188.635" fill="#FFFFFF" stroke="#333333" stroke-miterlimit="10" width="86.699" height="67.329"/>
	<rect x="88.699" y="218.259" fill="#FFFFFF" stroke="#333333" stroke-miterlimit="10" width="76.029" height="37.705"/>
	<rect x="67.358" y="255.964" fill="#FFFFFF" stroke="#333333" stroke-miterlimit="10" width="124.047" height="65.982"/>
	<rect x="67.358" y="321.946" fill="#FFFFFF" stroke="#333333" stroke-miterlimit="10" width="90.701" height="59.248"/>
	<rect x="67.358" y="381.194" fill="#FFFFFF" stroke="#333333" stroke-miterlimit="10" width="90.701" height="52.517"/>
	<rect x="67.358" y="433.711" fill="#FFFFFF" stroke="#333333" stroke-miterlimit="10" width="128.049" height="71.37"/>
	<rect x="195.407" y="433.711" fill="#FFFFFF" stroke="#333333" stroke-miterlimit="10" width="89.367" height="71.37"/>
	<rect x="191.405" y="230.377" fill="#FFFFFF" stroke="#333333" stroke-miterlimit="10" width="49.352" height="80.796"/>
	<rect x="240.756" y="230.377" fill="#FFFFFF" stroke="#333333" stroke-miterlimit="10" width="44.018" height="20.2"/>
	<rect x="240.756" y="250.577" fill="#FFFFFF" stroke="#333333" stroke-miterlimit="10" width="44.018" height="57.904"/>
	<line fill="none" stroke="#333333" stroke-miterlimit="10" x1="284.774" y1="309.152" x2="284.774" y2="434.384"/>
	<rect x="324.789" y="230.377" fill="none" stroke="#333333" stroke-miterlimit="10" width="70.693" height="48.479"/>
	<rect x="395.482" y="230.377" fill="none" stroke="#333333" stroke-miterlimit="10" width="122.714" height="48.479"/>
	<rect x="518.196" y="230.377" fill="none" stroke="#333333" stroke-miterlimit="10" width="69.355" height="48.479"/>
	<rect x="796.967" y="188.635" fill="none" stroke="#333333" stroke-miterlimit="10" width="84.033" height="71.368"/>
	<rect x="754.285" y="188.635" fill="none" stroke="#333333" stroke-miterlimit="10" width="42.682" height="36.357"/>
	<rect x="754.285" y="224.992" fill="none" stroke="#333333" stroke-miterlimit="10" width="42.682" height="35.011"/>
	<path id="digitMediaZone" fill="#CCCCCC" d="M322.789,282.223v220.165c0,0,210.747-3.496,261.431-33.582V282.223H322.789z"/>
</g>
<g id="outfit">
	<text transform="matrix(1.3091 0 0 1 189.2402 379.9434)" font-family="'MyriadPro-Regular'" font-size="20">ATDL</text>
	<rect id="stair_4_" x="2" y="5.5" fill="#FFFFFF" stroke="#333333" stroke-miterlimit="10" width="162.729" height="56.556"/>
	<rect id="stair_1_" x="732.943" y="5.5" fill="none" stroke="#333333" stroke-miterlimit="10" width="148.057" height="56.556"/>
	
		<rect id="toilet_2_" x="732.943" y="62.056" fill="none" stroke="#333333" stroke-miterlimit="10" width="148.057" height="126.579"/>
	<line fill="none" stroke="#333333" stroke-width="2" stroke-miterlimit="10" x1="164.062" y1="26.371" x2="732.278" y2="26.371"/>
	<path fill="none" stroke="#333333" stroke-miterlimit="10" d="M637.134,505.081"/>
	<path fill="none" stroke="#333333" stroke-miterlimit="10" d="M880.659,260.677v166.146c0,0-157.668,59.472-261.58,60.17"/>
	<path fill="none" stroke="#333333" stroke-miterlimit="10" d="M510.505,505.5"/>
	<path fill="none" stroke="#333333" stroke-miterlimit="10" d="M285.075,505.088c0,0,193.656-4.896,212.55-9.097"/>
	<text transform="matrix(1.1252 0 0 1 413.3359 393.4258)" font-family="'MyriadPro-Regular'" font-size="20">Media Zone</text>
	<text transform="matrix(1.1252 0 0 1 413.3359 369.916)" font-family="'MyriadPro-Regular'" font-size="20">Digital</text>
	<g id="Restrooms">
		<g>
			<rect x="794.383" y="108.534" fill="none" stroke="#333333" width="33.484" height="35.339"/>
			<g>
				<path fill="#231F20" stroke="#333333" d="M827.867,138.298c0,3.074-2.367,5.575-5.279,5.575h-22.925
					c-2.914,0-5.28-2.501-5.28-5.575V114.1c0-3.074,2.366-5.566,5.28-5.566h22.925c2.914,0,5.281,2.492,5.281,5.566L827.867,138.298
					L827.867,138.298z"/>
				<g>
					<polygon fill="#FFFFFF" stroke="#333333" points="810.579,111.172 810.579,139.726 798.187,139.726 798.187,117.439 					"/>
					<polygon fill="#FFFFFF" stroke="#333333" points="811.971,111.172 811.971,139.726 824.361,139.726 824.361,117.439 					"/>
					<g>
						<g>
							<polygon fill="#231F20" stroke="#333333" points="802.762,119.968 806.232,119.968 809.41,128.218 808.778,128.668 
								806.127,123.485 805.885,123.751 808.666,131.633 805.936,131.633 805.057,138.501 803.952,138.501 803.072,131.633 
								800.343,131.633 803.166,123.911 802.879,123.485 800.236,128.668 799.597,128.218 							"/>
							<path fill="#231F20" stroke="#333333" d="M806.402,117.355c0,1.156-0.894,2.095-1.985,2.095c-1.094,0-1.98-0.939-1.98-2.095
								c0-1.148,0.887-2.09,1.98-2.09S806.402,116.208,806.402,117.355z"/>
							<path fill="#231F20" stroke="#333333" d="M819.77,117.355c0,1.156-0.889,2.095-1.981,2.095c-1.099,0-1.988-0.939-1.988-2.095
								c0-1.148,0.89-2.09,1.988-2.09C818.881,115.265,819.77,116.208,819.77,117.355z"/>
						</g>
						<polygon fill="#231F20" stroke="#333333" points="814.933,119.968 820.372,119.968 821.595,120.729 821.595,130.414 
							820.539,130.414 820.539,123.666 819.689,123.666 819.689,138.501 818.324,138.501 817.917,132.839 817.463,132.839 
							817.097,138.501 815.656,138.501 815.656,123.666 814.812,123.666 814.804,130.414 813.759,130.414 813.759,120.925 						"/>
					</g>
				</g>
			</g>
		</g>
		<g id="Arrow_30_1_">
			<rect x="636.19" y="270.575" fill="none" stroke="#333333" width="59.017" height="39.493"/>
		</g>
	</g>
	<g id="Children">
		<g>
			<g>
				<g>
					<polygon fill="#231F20" stroke="#333333" stroke-width="0.5416" points="659.354,277.834 653.848,288.924 656.688,288.875 
						662.178,278.177 					"/>
					<polygon fill="#231F20" stroke="#333333" stroke-width="0.5416" points="670.77,277.834 676.229,288.916 673.391,288.899 
						667.945,278.177 					"/>
					<polygon fill="#231F20" stroke="#333333" stroke-width="0.5416" points="661.123,294.659 661.123,278.1 668.984,278.1 
						668.984,295.201 668.982,295.201 668.982,309.599 666.195,309.599 666.195,295.092 663.896,295.092 663.896,309.599 
						661.109,309.599 661.109,294.659 					"/>
					<g>
						<ellipse fill="#231F20" stroke="#333333" stroke-width="0.5416" cx="665.161" cy="274.107" rx="3.396" ry="3.988"/>
					</g>
				</g>
			</g>
			<g>
				<g>
					<polygon fill="#231F20" stroke="#333333" stroke-width="0.5416" points="639.46,277.834 633.955,288.924 636.794,288.875 
						642.283,278.177 					"/>
					<polygon fill="#231F20" stroke="#333333" stroke-width="0.5416" points="650.873,277.834 656.366,288.895 653.511,288.931 
						648.052,278.177 					"/>
					<polygon fill="#231F20" stroke="#333333" stroke-width="0.5416" points="641.229,294.659 641.229,278.1 649.089,278.1 
						649.089,295.201 649.088,295.201 649.088,309.599 646.3,309.599 646.3,295.092 644.001,295.092 644.001,309.599 
						641.216,309.599 641.216,294.659 					"/>
					<g>
						<ellipse fill="#231F20" stroke="#333333" stroke-width="0.5416" cx="645.269" cy="274.107" rx="3.396" ry="3.988"/>
					</g>
				</g>
			</g>
			<g>
				<g>
					<polygon fill="#231F20" stroke="#333333" stroke-width="0.5416" points="678.771,277.834 673.695,288.868 676.544,288.875 
						681.595,278.177 					"/>
					<polygon fill="#231F20" stroke="#333333" stroke-width="0.5416" points="690.185,277.834 695.69,288.924 692.849,288.875 
						687.36,278.177 					"/>
					<polygon fill="#231F20" stroke="#333333" stroke-width="0.5416" points="680.541,294.659 680.541,278.1 688.401,278.1 
						688.401,295.201 688.396,295.201 688.396,309.599 685.609,309.599 685.609,295.092 683.312,295.092 683.312,309.599 
						680.523,309.599 680.523,294.659 					"/>
					<g>
						<ellipse fill="#231F20" stroke="#333333" stroke-width="0.5416" cx="684.577" cy="274.107" rx="3.396" ry="3.988"/>
					</g>
				</g>
			</g>
		</g>
	</g>
	<polygon points="611.592,300.396 611.592,303.835 634.86,299.504 611.592,295.165 611.592,298.604 597.667,298.604 
		597.667,300.396 	"/>
	<polygon points="620.936,281.63 620.936,285.068 597.667,280.736 620.936,276.398 620.936,279.837 634.86,279.837 634.86,281.63 	
		"/>
	<line fill="none" stroke="#333333" stroke-miterlimit="10" x1="764.333" y1="5.5" x2="764.333" y2="62.056"/>
	<line fill="none" stroke="#333333" stroke-miterlimit="10" x1="773.667" y1="5.5" x2="773.667" y2="62.056"/>
	<line fill="none" stroke="#333333" stroke-miterlimit="10" x1="782.667" y1="5.5" x2="782.667" y2="62.056"/>
	<line fill="none" stroke="#333333" stroke-miterlimit="10" x1="792.368" y1="5.5" x2="792.368" y2="62.056"/>
	<line fill="none" stroke="#333333" stroke-miterlimit="10" x1="800.799" y1="5.5" x2="800.799" y2="62.056"/>
	<line fill="none" stroke="#333333" stroke-miterlimit="10" x1="810.037" y1="5.5" x2="810.037" y2="62.056"/>
	<line fill="none" stroke="#333333" stroke-miterlimit="10" x1="819.826" y1="5.5" x2="819.826" y2="62.056"/>
	<line fill="none" stroke="#333333" stroke-miterlimit="10" x1="828.321" y1="5.5" x2="828.321" y2="62.056"/>
	<line fill="none" stroke="#333333" stroke-miterlimit="10" x1="836.983" y1="5.5" x2="836.983" y2="62.056"/>
	<line fill="none" stroke="#333333" stroke-miterlimit="10" x1="845.667" y1="5.5" x2="845.667" y2="62.056"/>
	<line fill="none" stroke="#333333" stroke-miterlimit="10" x1="125.767" y1="5.899" x2="125.767" y2="62.456"/>
	<line fill="none" stroke="#333333" stroke-miterlimit="10" x1="116.433" y1="5.899" x2="116.433" y2="62.456"/>
	<line fill="none" stroke="#333333" stroke-miterlimit="10" x1="107.433" y1="5.899" x2="107.433" y2="62.456"/>
	<line fill="none" stroke="#333333" stroke-miterlimit="10" x1="97.731" y1="5.899" x2="97.731" y2="62.456"/>
	<line fill="none" stroke="#333333" stroke-miterlimit="10" x1="89.301" y1="5.899" x2="89.301" y2="62.456"/>
	<line fill="none" stroke="#333333" stroke-miterlimit="10" x1="80.062" y1="5.899" x2="80.062" y2="62.456"/>
	<line fill="none" stroke="#333333" stroke-miterlimit="10" x1="70.273" y1="5.899" x2="70.273" y2="62.456"/>
	<line fill="none" stroke="#333333" stroke-miterlimit="10" x1="61.778" y1="5.899" x2="61.778" y2="62.456"/>
	<line fill="none" stroke="#333333" stroke-miterlimit="10" x1="53.116" y1="5.899" x2="53.116" y2="62.456"/>
	<line fill="none" stroke="#333333" stroke-miterlimit="10" x1="44.433" y1="5.899" x2="44.433" y2="62.456"/>
	<g>
		<polygon points="833.144,32.05 860.333,35.189 833.144,38.305 833.144,36.44 759.137,36.44 759.137,34.188 833.144,34.188 		"/>
		<polygon points="56.956,32.449 29.767,35.588 56.956,38.705 56.956,36.839 130.963,36.839 130.963,34.587 56.956,34.587 		"/>
	</g>
</g>
</svg>
