<?xml version="1.0" encoding="utf-8"?>
<!-- Generator: Adobe Illustrator 16.0.4, SVG Export Plug-In . SVG Version: 6.00 Build 0)  -->
<!DOCTYPE svg PUBLIC "-//W3C//DTD SVG 1.1//EN" "http://www.w3.org/Graphics/SVG/1.1/DTD/svg11.dtd">
<svg version="1.1" id="PostFloor3" xmlns="http://www.w3.org/2000/svg" xmlns:xlink="http://www.w3.org/1999/xlink" x="0px" y="0px"
	 width="885px" height="510px" viewBox="0 0 885 510" enable-background="new 0 0 885 510" xml:space="preserve">
<g id="active">
	
	<rect id="room340" x="95.156" y="127.217" fill="#29ABE2" stroke="#1A1A1A" stroke-miterlimit="10" width="65.583" height="41.724"/>
	<rect id="room341" x="6.762" y="148.078" fill="#29ABE2" stroke="#1A1A1A" stroke-miterlimit="10" width="65.583" height="41.724"/>
    <rect id="room342" x="6.762" y="106.354" fill="#29ABE2" stroke="#1A1A1A" stroke-miterlimit="10" width="65.583" height="41.724"/>
	<rect id="room343" x="6.762" y="64.631" fill="#29ABE2" stroke="#1A1A1A" stroke-miterlimit="10" width="65.583" height="41.723"/>
	<rect id="room344" x="95.156" y="85.492" fill="#29ABE2" stroke="#1A1A1A" stroke-miterlimit="10" width="65.583" height="41.725"/>

    <rect x="518.589" y="305.154" fill="none" stroke="#1A1A1A" stroke-miterlimit="10" width="146.847" height="62.588"/>
	<path fill="none" stroke="#1A1A1A" stroke-miterlimit="10" d="M518.589,495.06c-5.831,0,134.168-11.56,146.847-16.872V368.354
		l-146.847-0.61V495.06z"/>
	<path fill="none" stroke="#1A1A1A" stroke-miterlimit="10" d="M223.468,305.154h294.407l0.357,189.903
		c0,0-217.232,14.94-294.766,10.739L223.468,305.154L223.468,305.154z"/>
	<rect x="745.275" y="191.03" fill="none" stroke="#1A1A1A" stroke-miterlimit="10" width="45.621" height="35.587"/>
	<rect x="745.275" y="226.617" fill="none" stroke="#1A1A1A" stroke-miterlimit="10" width="45.621" height="35.588"/>
	<rect x="119.393" y="202.074" fill="none" stroke="#1A1A1A" stroke-miterlimit="10" width="44.195" height="60.131"/>
</g>
<g id="outfit">
	<rect id="stair" x="6.762" y="4.5" fill="none" stroke="#1A1A1A" stroke-miterlimit="10" width="153.977" height="60.131"/>
	<rect x="6.762" y="189.802" fill="none" stroke="#1A1A1A" stroke-miterlimit="10" width="112.631" height="72.403"/>
	<rect x="790.896" y="191.03" fill="none" stroke="#1A1A1A" stroke-miterlimit="10" width="91.244" height="71.175"/>
	<rect x="722.465" y="64.631" fill="none" stroke="#1A1A1A" stroke-miterlimit="10" width="159.678" height="126.398"/>
	<rect id="stair_1_" x="722.465" y="4.5" fill="none" stroke="#1A1A1A" stroke-miterlimit="10" width="159.678" height="60.131"/>
	<path fill="none" stroke="#1A1A1A" stroke-miterlimit="10" d="M882.143,262.205h-67.009v183.462c0,0,61.48-19.439,67.009-22.702
		V262.205L882.143,262.205z"/>
	<path fill="none" stroke="#1A1A1A" stroke-miterlimit="10" d="M665.436,478.188c0,0,110.564-16.26,149.273-32.521"/>
	<line fill="none" stroke="#1A1A1A" stroke-miterlimit="10" x1="160.738" y1="25.975" x2="722.465" y2="26.588"/>
	<rect x="223.468" y="26.588" fill="none" stroke="#1A1A1A" stroke-miterlimit="10" width="441.967" height="177.939"/>
	<line fill="none" stroke="#1A1A1A" stroke-miterlimit="10" x1="223.468" y1="204.528" x2="665.436" y2="26.588"/>
	<line fill="none" stroke="#1A1A1A" stroke-miterlimit="10" x1="223.468" y1="26.588" x2="665.436" y2="204.528"/>
	<line fill="none" stroke="#1A1A1A" stroke-miterlimit="10" x1="813.709" y1="262.205" x2="880.717" y2="422.965"/>
	<line fill="none" stroke="#1A1A1A" stroke-miterlimit="10" x1="880.717" y1="262.205" x2="814.709" y2="445.667"/>
	<line fill="none" stroke="#1A1A1A" stroke-miterlimit="10" x1="790.896" y1="191.03" x2="880.717" y2="262.205"/>
	<line fill="none" stroke="#1A1A1A" stroke-miterlimit="10" x1="790.896" y1="262.205" x2="882.143" y2="191.03"/>
	<line fill="none" stroke="#1A1A1A" stroke-miterlimit="10" x1="6.762" y1="189.802" x2="119.393" y2="262.205"/>
	<line fill="none" stroke="#1A1A1A" stroke-miterlimit="10" x1="119.393" y1="189.802" x2="6.762" y2="262.205"/>
	<g id="Restrooms">
		<g>
			<rect x="788.452" y="116.276" fill="none" stroke="#1A1A1A" width="33.979" height="30.541"/>
			<g>
				<path fill="#231F20" stroke="#1A1A1A" d="M822.431,142c0,2.658-2.399,4.817-5.356,4.817h-23.264
					c-2.958,0-5.355-2.161-5.355-4.817v-20.914c0-2.658,2.398-4.81,5.355-4.81h23.264c2.957,0,5.356,2.152,5.356,4.81V142z"/>
				<g>
					<polygon fill="#FFFFFF" stroke="#1A1A1A" points="804.887,118.558 804.887,143.234 792.309,143.234 792.309,123.974 					"/>
					<polygon fill="#FFFFFF" stroke="#1A1A1A" points="806.3,118.558 806.3,143.234 818.873,143.234 818.873,123.974 					"/>
					<g>
						<g>
							<polygon fill="#231F20" stroke="#1A1A1A" points="796.953,126.159 800.477,126.159 803.701,133.289 803.059,133.678 
								800.369,129.199 800.123,129.427 802.947,136.24 800.176,136.24 799.282,142.178 798.162,142.178 797.267,136.24 
								794.497,136.24 797.364,129.565 797.074,129.199 794.393,133.678 793.74,133.289 							"/>
							<path fill="#231F20" stroke="#1A1A1A" d="M800.648,123.9c0,1-0.908,1.811-2.015,1.811c-1.11,0-2.012-0.81-2.012-1.811
								c0-0.992,0.899-1.806,2.012-1.806C799.742,122.094,800.648,122.909,800.648,123.9z"/>
							<path fill="#231F20" stroke="#1A1A1A" d="M814.215,123.9c0,1-0.904,1.811-2.012,1.811c-1.116,0-2.017-0.81-2.017-1.811
								c0-0.992,0.901-1.806,2.017-1.806C813.311,122.094,814.215,122.909,814.215,123.9z"/>
						</g>
						<polygon fill="#231F20" stroke="#1A1A1A" points="809.307,126.159 814.824,126.159 816.066,126.814 816.066,135.185 
							814.994,135.185 814.994,129.353 814.131,129.353 814.131,142.178 812.747,142.178 812.335,137.282 811.876,137.282 
							811.502,142.178 810.039,142.178 810.039,129.353 809.182,129.353 809.174,135.185 808.114,135.185 808.114,126.984 						"/>
					</g>
				</g>
			</g>
		</g>
		<g id="Arrow_30_1_">
			<rect x="628.041" y="261.154" fill="none" stroke="#1A1A1A" width="63.058" height="42.775"/>
			<line fill="none" stroke="#1A1A1A" x1="72.345" y1="261.591" x2="72.345" y2="504.571"/>
			<line fill="none" stroke="#1A1A1A" x1="72.345" y1="504.571" x2="223.468" y2="505.799"/>
		</g>
		<g id="Children">
			<g>
				<g>
					<g>
						<polygon fill="#231F20" stroke="#1A1A1A" stroke-width="0.5491" points="653.338,269.896 648.072,281.033 650.79,280.984 
							656.038,270.242 						"/>
						<polygon fill="#231F20" stroke="#1A1A1A" stroke-width="0.5491" points="664.255,269.896 669.477,281.024 666.765,281.008 
							661.556,270.242 						"/>
						<polygon fill="#231F20" stroke="#1A1A1A" stroke-width="0.5491" points="655.031,286.793 655.031,270.165 662.55,270.165 
							662.55,287.337 662.547,287.337 662.547,301.796 659.882,301.796 659.882,287.227 657.683,287.227 657.683,301.796 
							655.018,301.796 655.018,286.793 						"/>
						<g>
							<ellipse fill="#231F20" stroke="#1A1A1A" stroke-width="0.5491" cx="658.895" cy="266.156" rx="3.248" ry="4.005"/>
						</g>
					</g>
				</g>
				<g>
					<g>
						<polygon fill="#231F20" stroke="#1A1A1A" stroke-width="0.5491" points="634.309,269.896 629.044,281.033 631.759,280.984 
							637.01,270.242 						"/>
						<polygon fill="#231F20" stroke="#1A1A1A" stroke-width="0.5491" points="645.226,269.896 650.479,281.004 647.749,281.042 
							642.525,270.242 						"/>
						<polygon fill="#231F20" stroke="#1A1A1A" stroke-width="0.5491" points="636,286.793 636,270.165 643.521,270.165 
							643.521,287.337 643.52,287.337 643.52,301.796 640.852,301.796 640.852,287.227 638.652,287.227 638.652,301.796 
							635.987,301.796 635.987,286.793 						"/>
						<g>
							<ellipse fill="#231F20" stroke="#1A1A1A" stroke-width="0.5491" cx="639.864" cy="266.156" rx="3.248" ry="4.005"/>
						</g>
					</g>
				</g>
				<g>
					<g>
						<polygon fill="#231F20" stroke="#1A1A1A" stroke-width="0.5491" points="671.912,269.896 667.057,280.978 669.779,280.984 
							674.609,270.242 						"/>
						<polygon fill="#231F20" stroke="#1A1A1A" stroke-width="0.5491" points="682.826,269.896 688.093,281.033 685.376,280.984 
							680.129,270.242 						"/>
						<polygon fill="#231F20" stroke="#1A1A1A" stroke-width="0.5491" points="673.602,286.793 673.602,270.165 681.122,270.165 
							681.122,287.337 681.119,287.337 681.119,301.796 678.452,301.796 678.452,287.227 676.255,287.227 676.255,301.796 
							673.588,301.796 673.588,286.793 						"/>
						<g>
							<ellipse fill="#231F20" stroke="#1A1A1A" stroke-width="0.5491" cx="677.465" cy="266.156" rx="3.248" ry="4.005"/>
						</g>
					</g>
				</g>
			</g>
		</g>
	</g>
	<text transform="matrix(1.1618 0 0 1 96.585 365.2822)" font-family="'MyriadPro-Regular'" font-size="20">Durant</text>
	<text transform="matrix(1.1618 0 0 1 96.585 391.79)" font-family="'MyriadPro-Regular'" font-size="20">Special</text>
	<text transform="matrix(1.1618 0 0 1 96.585 418.2969)" font-family="'MyriadPro-Regular'" font-size="20">Collection</text>
	<text transform="matrix(1.1618 0 0 1 96.585 444.8037)" font-family="'MyriadPro-Regular'" font-size="20">Lounge</text>
	<text transform="matrix(1.1618 0 0 1 279.7881 368.3506)" font-family="'MyriadPro-Regular'" font-size="20">Gerard Manley</text>
	<text transform="matrix(1.1618 0 0 1 279.7881 394.8574)" font-family="'MyriadPro-Regular'" font-size="20">Hopkins, S.J.</text>
	<text transform="matrix(1.1618 0 0 1 279.7881 421.3643)" font-family="'MyriadPro-Regular'" font-size="20">Special Collection</text>
	<text transform="matrix(1.1618 0 0 1 687.5391 366.5117)" font-family="'MyriadPro-Regular'" font-size="20">Griffiths</text>
	<text transform="matrix(1.1618 0 0 1 687.5391 393.0186)" font-family="'MyriadPro-Regular'" font-size="20">Scholars</text>
	<text transform="matrix(1.1618 0 0 1 687.5391 419.5244)" font-family="'MyriadPro-Regular'" font-size="20">Lounge</text>
	<g>
		<g>
			<g>
				<polygon points="601.635,290.458 601.635,294.177 623.86,289.493 601.635,284.8 601.635,288.52 588.334,288.52 588.334,290.458 
									"/>
			</g>
		</g>
		<g>
			<g>
				<polygon points="610.561,268.848 610.561,272.566 588.335,267.883 610.561,263.189 610.561,266.909 623.861,266.909 
					623.861,268.848 				"/>
			</g>
		</g>
		<line fill="none" stroke="#1A1A1A" x1="757" y1="4.5" x2="756.5" y2="64.631"/>
		<line fill="none" stroke="#1A1A1A" x1="765.766" y1="4.5" x2="765.266" y2="64.631"/>
		<line fill="none" stroke="#1A1A1A" x1="773.766" y1="4.5" x2="773.266" y2="64.631"/>
		<line fill="none" stroke="#1A1A1A" x1="783.463" y1="4.5" x2="782.963" y2="64.631"/>
		<line fill="none" stroke="#1A1A1A" x1="791.983" y1="4.5" x2="791.483" y2="64.631"/>
		<line fill="none" stroke="#1A1A1A" x1="801.11" y1="4.5" x2="800.61" y2="64.631"/>
		<line fill="none" stroke="#1A1A1A" x1="810.141" y1="4.5" x2="809.641" y2="64.631"/>
		<line fill="none" stroke="#1A1A1A" x1="818.967" y1="4.5" x2="818.467" y2="64.631"/>
		<line fill="none" stroke="#1A1A1A" x1="827.072" y1="4.498" x2="826.572" y2="64.629"/>
		<line fill="none" stroke="#1A1A1A" x1="837.057" y1="4.5" x2="836.557" y2="64.631"/>
		<line fill="none" stroke="#1A1A1A" x1="845.737" y1="4.5" x2="845.237" y2="64.631"/>
		<line fill="none" stroke="#1A1A1A" x1="130.745" y1="4.369" x2="131.245" y2="64.5"/>
		<line fill="none" stroke="#1A1A1A" x1="121.979" y1="4.369" x2="122.479" y2="64.5"/>
		<line fill="none" stroke="#1A1A1A" x1="113.979" y1="4.369" x2="114.479" y2="64.5"/>
		<line fill="none" stroke="#1A1A1A" x1="104.282" y1="4.369" x2="104.782" y2="64.5"/>
		<line fill="none" stroke="#1A1A1A" x1="95.762" y1="4.369" x2="96.262" y2="64.5"/>
		<line fill="none" stroke="#1A1A1A" x1="86.635" y1="4.369" x2="87.135" y2="64.5"/>
		<line fill="none" stroke="#1A1A1A" x1="77.604" y1="4.369" x2="78.104" y2="64.5"/>
		<line fill="none" stroke="#1A1A1A" x1="68.778" y1="4.369" x2="69.278" y2="64.5"/>
		<line fill="none" stroke="#1A1A1A" x1="60.673" y1="4.367" x2="61.173" y2="64.498"/>
		<line fill="none" stroke="#1A1A1A" x1="50.688" y1="4.369" x2="51.188" y2="64.5"/>
		<line fill="none" stroke="#1A1A1A" x1="42.008" y1="4.369" x2="42.508" y2="64.5"/>
		<g>
			<polygon points="826.283,32.756 854.489,34.602 826.283,36.433 826.283,35.337 749.5,35.337 749.5,34.014 826.283,34.014 			"/>
			<polygon points="61.462,32.625 33.256,34.471 61.462,36.302 61.462,35.206 138.245,35.206 138.245,33.882 61.462,33.882 			"/>
		</g>
	</g>
</g>
</svg>
