<svg version="1.1" id="&#x56FE;&#x5C42;_1" xmlns="http://www.w3.org/2000/svg" xmlns:xlink="http://www.w3.org/1999/xlink" x="0px"
	 y="0px" width="900px" height="510px" viewBox="0 0 900 510" style="enable-background:new 0 0 900 510;" xml:space="preserve">
<symbol  id="&#x513F;&#x7AE5;" viewBox="-36.786 -20.053 73.573 40.106">
	<g>
		<g>
			<g>
				<polygon style="fill:#231815;stroke:#FFFFFF;stroke-width:0.65;" points="-6.415,12.017 -12.875,0.933 -9.542,0.983 
					-3.102,11.673 				"/>
				<polygon style="fill:#231815;stroke:#FFFFFF;stroke-width:0.65;" points="6.977,12.017 13.382,0.943 10.054,0.958 3.663,11.673 
									"/>
				<polygon style="fill:#231815;stroke:#FFFFFF;stroke-width:0.65;" points="-4.338,-4.799 -4.338,11.751 4.886,11.751 
					4.886,-5.34 4.883,-5.34 4.883,-19.728 1.61,-19.728 1.61,-5.23 -1.086,-5.23 -1.086,-19.728 -4.356,-19.728 -4.356,-4.799 				
					"/>
				<g>
					<path style="fill:#231815;stroke:#FFFFFF;stroke-width:0.65;" d="M-3.585,15.74c0-2.2,1.784-3.986,3.984-3.986
						s3.984,1.786,3.984,3.986c0,2.203-1.784,3.988-3.984,3.988S-3.585,17.943-3.585,15.74z"/>
				</g>
			</g>
		</g>
		<g>
			<g>
				<polygon style="fill:#231815;stroke:#FFFFFF;stroke-width:0.65;" points="-29.756,12.017 -36.216,0.933 -32.885,0.983 
					-26.445,11.673 				"/>
				<polygon style="fill:#231815;stroke:#FFFFFF;stroke-width:0.65;" points="-16.366,12.017 -9.921,0.964 -13.271,0.926 
					-19.678,11.673 				"/>
				<polygon style="fill:#231815;stroke:#FFFFFF;stroke-width:0.65;" points="-27.68,-4.799 -27.68,11.751 -18.457,11.751 
					-18.457,-5.34 -18.459,-5.34 -18.459,-19.728 -21.731,-19.728 -21.731,-5.23 -24.427,-5.23 -24.427,-19.728 -27.698,-19.728 
					-27.698,-4.799 				"/>
				<g>
					<path style="fill:#231815;stroke:#FFFFFF;stroke-width:0.65;" d="M-26.926,15.74c0-2.2,1.783-3.986,3.983-3.986
						c2.201,0,3.985,1.786,3.985,3.986c0,2.203-1.784,3.988-3.985,3.988C-25.143,19.728-26.926,17.943-26.926,15.74z"/>
				</g>
			</g>
		</g>
		<g>
			<g>
				<polygon style="fill:#231815;stroke:#FFFFFF;stroke-width:0.65;" points="16.366,12.017 10.412,0.99 13.753,0.983 
					19.678,11.673 				"/>
				<polygon style="fill:#231815;stroke:#FFFFFF;stroke-width:0.65;" points="29.756,12.017 36.216,0.933 32.885,0.983 
					26.444,11.673 				"/>
				<polygon style="fill:#231815;stroke:#FFFFFF;stroke-width:0.65;" points="18.441,-4.799 18.441,11.751 27.666,11.751 
					27.666,-5.34 27.662,-5.34 27.662,-19.728 24.391,-19.728 24.391,-5.23 21.695,-5.23 21.695,-19.728 18.424,-19.728 
					18.424,-4.799 				"/>
				<g>
					<path style="fill:#231815;stroke:#FFFFFF;stroke-width:0.65;" d="M19.195,15.74c0-2.2,1.784-3.986,3.983-3.986
						c2.201,0,3.985,1.786,3.985,3.986c0,2.203-1.784,3.988-3.985,3.988C20.979,19.728,19.195,17.943,19.195,15.74z"/>
				</g>
			</g>
		</g>
	</g>
</symbol>
<symbol  id="&#x536B;&#x751F;&#x95F4;" viewBox="-7.398 -7.397 14.796 14.795">
	<g>
		<polygon style="fill:none;" points="-7.398,-7.397 7.398,-7.397 7.398,7.397 -7.398,7.397 		"/>
		<g>
			<path style="fill:#231815;" d="M7.398-5.063c0-1.287-1.046-2.334-2.333-2.334h-10.13c-1.288,0-2.333,1.047-2.333,2.334V5.067
				c0,1.287,1.045,2.33,2.333,2.33h10.13c1.287,0,2.333-1.043,2.333-2.33V-5.063z"/>
			<g>
				<polygon style="fill:#FFFFFF;" points="-0.241,6.293 -0.241,-5.661 -5.718,-5.661 -5.718,3.669 				"/>
				<polygon style="fill:#FFFFFF;" points="0.373,6.293 0.373,-5.661 5.849,-5.661 5.849,3.669 				"/>
				<g>
					<g>
						<polygon style="fill:#231815;" points="-3.696,2.61 -2.162,2.61 -0.758,-0.844 -1.037,-1.032 -2.208,1.138 -2.316,1.026 
							-1.086,-2.273 -2.293,-2.273 -2.682,-5.149 -3.17,-5.149 -3.559,-2.273 -4.765,-2.273 -3.517,0.96 -3.644,1.138 
							-4.812,-1.032 -5.095,-0.844 						"/>
						<path style="fill:#231815;" d="M-2.087,3.704c0-0.484-0.394-0.877-0.877-0.877c-0.483,0-0.875,0.393-0.875,0.877
							c0,0.48,0.392,0.875,0.875,0.875C-2.481,4.579-2.087,4.185-2.087,3.704z"/>
						<path style="fill:#231815;" d="M3.82,3.704c0-0.484-0.394-0.877-0.876-0.877c-0.485,0-0.878,0.393-0.878,0.877
							c0,0.48,0.393,0.875,0.878,0.875C3.427,4.579,3.82,4.185,3.82,3.704z"/>
					</g>
					<polygon style="fill:#231815;" points="1.683,2.61 4.086,2.61 4.627,2.292 4.627,-1.763 4.16,-1.763 4.16,1.062 3.784,1.062 
						3.784,-5.149 3.182,-5.149 3.002,-2.778 2.801,-2.778 2.639,-5.149 2.002,-5.149 2.002,1.062 1.629,1.062 1.625,-1.763 
						1.164,-1.763 1.164,2.21 					"/>
				</g>
			</g>
		</g>
	</g>
</symbol>
<symbol  id="&#x7BAD;&#x5934;_25" viewBox="-22.86 -13.14 45.72 26.28">
	<polygon style="fill:none;" points="-22.86,-13.14 22.86,-13.14 22.86,13.14 -22.86,13.14 	"/>
	<g>
		<polygon style="fill:#231815;" points="-22.86,-3.168 0.066,-3.168 0.066,-13.14 22.86,0.001 0.066,13.14 0.066,3.17 -22.86,3.17 
					"/>
	</g>
</symbol>

<g id="outfit">
	<path id="outter_1_" style="fill:none;stroke:#FF0000;stroke-miterlimit:10;" d="M33.5,411.5V233l39.5-1l0.5-31.5H125l1-59.5
		l291-0.5h30.5V198l-13.25-0.25l-0.25,6l77-7.75c0,0-3.5-44.25-2.5-55.75S508.625,47,508.625,47l4.875-0.25V49l89,0.5V33
		l103.25-0.25L706,88.5L695,88l0.25,15.25l6.25,0.5V109l-6,0.5l0.25,8h4.75l0.5,27h-5l-0.25,7H702l0.125,5.5l-6.625,0.5v7h5V192
		l-4.75,0.25l-0.5,6.5l6.25,0.25v6.5H695l0.5,6.25l5,0.375l-0.25,27.375H696l-0.25,7H702l-0.25,5.5l-6.5,0.75l0.25,14.75L706,268
		l0.25,55l-99.5,0.25L606.5,334l-64.25,0.5c0,0-22.75-69-25.5-98.5l-78,11.75l1,207.25l-281.25,1v-59.5h-18v15H33.5z"/>
	<polyline style="fill:none;stroke:#FF0000;stroke-miterlimit:10;" points="141.5,394.25 142.25,255.125 160,237.5 242,237.5 
		246,233 245.25,206 417.5,205.5 417.5,197.5 417.5,141 	"/>
	<path style="fill:none;stroke:#FF0000;stroke-miterlimit:10;" d="M435.25,197.75"/>
	<line style="fill:none;stroke:#FF0000;stroke-miterlimit:10;" x1="418" y1="197.5" x2="435" y2="198"/>
	<polyline style="fill:none;stroke:#FF0000;stroke-miterlimit:10;" points="159,396.5 290,396.5 290.5,408 439,408.5 	"/>
	<polyline style="fill:none;stroke:#FF0000;stroke-miterlimit:10;" points="268.5,455 268.5,491 299.5,503 330.5,491.5 330.5,455.5 
		299,455.5 	"/>
	<line style="fill:none;stroke:#FF0000;stroke-miterlimit:10;" x1="300" y1="502.5" x2="300.5" y2="455.5"/>
	<polyline style="fill:none;stroke:#FF0000;stroke-miterlimit:10;" points="274.5,494 274.5,459 324.5,458.668 324.5,493 	"/>
	<line style="fill:none;stroke:#FF0000;stroke-miterlimit:10;" x1="681.667" y1="268.001" x2="682" y2="323.001"/>
	<line style="fill:none;stroke:#FF0000;stroke-miterlimit:10;" x1="662.334" y1="269.001" x2="682" y2="268.668"/>
	<line style="fill:none;stroke:#FF0000;stroke-miterlimit:10;" x1="632.334" y1="270.001" x2="649" y2="269.668"/>
	<line style="fill:none;stroke:#FF0000;stroke-miterlimit:10;" x1="632" y1="269.668" x2="632.334" y2="321.668"/>
	<rect x="376.5" y="217.5" style="fill:none;stroke:#FF0000;stroke-miterlimit:10;" width="27" height="10"/>
	<line style="fill:none;stroke:#FF0000;stroke-miterlimit:10;" x1="376.25" y1="222" x2="400" y2="222.5"/>
	<line style="fill:none;stroke:#FF0000;stroke-miterlimit:10;" x1="379.5" y1="218" x2="379.5" y2="227"/>
	<line style="fill:none;stroke:#FF0000;stroke-miterlimit:10;" x1="381.5" y1="218" x2="381.5" y2="227"/>
	<line style="fill:none;stroke:#FF0000;stroke-miterlimit:10;" x1="383.5" y1="218" x2="383.5" y2="227"/>
	<line style="fill:none;stroke:#FF0000;stroke-miterlimit:10;" x1="385.5" y1="218" x2="385.5" y2="227"/>
	<line style="fill:none;stroke:#FF0000;stroke-miterlimit:10;" x1="387.5" y1="218" x2="387.5" y2="227"/>
	<line style="fill:none;stroke:#FF0000;stroke-miterlimit:10;" x1="389.5" y1="218" x2="389.5" y2="227"/>
	<line style="fill:none;stroke:#FF0000;stroke-miterlimit:10;" x1="391.5" y1="218" x2="391.5" y2="227"/>
	<line style="fill:none;stroke:#FF0000;stroke-miterlimit:10;" x1="393.5" y1="218" x2="393.5" y2="227"/>
	<line style="fill:none;stroke:#FF0000;stroke-miterlimit:10;" x1="395.5" y1="218" x2="395.5" y2="227"/>
	<line style="fill:none;stroke:#FF0000;stroke-miterlimit:10;" x1="398.5" y1="218" x2="398.5" y2="227"/>
	<line style="fill:none;stroke:#FF0000;stroke-miterlimit:10;" x1="400.5" y1="218" x2="400.5" y2="227"/>
	
		<use xlink:href="#卫生间"  width="14.796" height="14.795" x="-7.398" y="-7.397" transform="matrix(1.5237 0 0 -1.4001 658.001 297.334)" style="overflow:visible;"/>
	
		<use xlink:href="#卫生间"  width="14.796" height="14.795" x="-7.398" y="-7.397" transform="matrix(1.5237 0 0 -1.4001 240.001 371.334)" style="overflow:visible;"/>
	
		<use xlink:href="#儿童"  width="73.573" height="40.106" x="-36.786" y="-20.053" transform="matrix(0.3652 0 0 -0.4515 600.4512 250.4355)" style="overflow:visible;"/>
	
		<use xlink:href="#儿童"  width="73.573" height="40.106" x="-36.786" y="-20.053" transform="matrix(0.3652 0 0 -0.4515 259.623 245.4355)" style="overflow:visible;"/>
	<path style="fill:none;stroke:#FF0000;stroke-miterlimit:10;" d="M617.5,141v84l-8.75-0.25c0,0,1-6.625-6.25-7.375l-0.25,7.125H600
		l-0.25-54.25c0,0,6.5,0.5,6.75-6.25l-7-0.25v-23.5l2,0.25v6.5c0,0,5.25,3.25,6.75-6.25L617.5,141z"/>
	<line style="fill:none;stroke:#FF0000;stroke-miterlimit:10;" x1="599.25" y1="163.75" x2="617.5" y2="163.25"/>
	<line style="fill:none;stroke:#FF0000;stroke-miterlimit:10;" x1="600.25" y1="203.25" x2="617.5" y2="203"/>
	<path style="fill:none;stroke:#FF0000;stroke-miterlimit:10;" d="M631,278.5h-3c0,0,0.25-6.5-6.75-6.75l-0.25,7l-6.5-0.25V272
		c0,0-5.75,0-6.25,5.75L606.5,278v16.5h8.5c0,0,1.75,6.5-8.5,8.25v16.75h2.5"/>
	<line style="fill:none;stroke:#FF0000;stroke-miterlimit:10;" x1="609" y1="320.5" x2="632" y2="320.5"/>
	<line style="fill:none;stroke:#FF0000;stroke-miterlimit:10;" x1="606.75" y1="292.25" x2="632.25" y2="293"/>
	<line style="fill:none;stroke:#FF0000;stroke-miterlimit:10;" x1="620.5" y1="279" x2="620.5" y2="293"/>
	<line style="fill:none;stroke:#FF0000;stroke-miterlimit:10;" x1="592" y1="321.5" x2="605" y2="321.5"/>
	<path style="fill:none;stroke:#FF0000;stroke-miterlimit:10;" d="M592.5,321v7c0,0-5.75,1-6.5-7l-46.5,0.25"/>
	<line style="fill:none;stroke:#FF0000;stroke-miterlimit:10;" x1="604.75" y1="319.5" x2="605" y2="334.25"/>
	<line style="fill:none;stroke:#FF0000;stroke-miterlimit:10;" x1="605" y1="319.5" x2="607" y2="319.5"/>
	<g id="stairs">
		<line style="fill:none;stroke:#FF0000;stroke-miterlimit:10;" x1="699.5" y1="288" x2="699.5" y2="314"/>
		<polyline style="fill:none;stroke:#FF0000;stroke-miterlimit:10;" points="688.125,285.875 688,314.375 699.375,314.25 		"/>
		<polygon style="fill:none;stroke:#FF0000;stroke-miterlimit:10;" points="688.875,286.75 688.125,286.75 687.375,286.75 
			687.375,285 688.875,285 		"/>
		<line style="fill:none;stroke:#FF0000;stroke-miterlimit:10;" x1="695.625" y1="289.625" x2="704.125" y2="289.75"/>
		<line style="fill:none;stroke:#FF0000;stroke-miterlimit:10;" x1="695.625" y1="291.625" x2="704.125" y2="291.75"/>
		<line style="fill:none;stroke:#FF0000;stroke-miterlimit:10;" x1="695.625" y1="293.625" x2="704.125" y2="293.75"/>
		<line style="fill:none;stroke:#FF0000;stroke-miterlimit:10;" x1="695.625" y1="295.625" x2="704.125" y2="295.75"/>
		<line style="fill:none;stroke:#FF0000;stroke-miterlimit:10;" x1="695.625" y1="297.625" x2="704.125" y2="297.75"/>
		<line style="fill:none;stroke:#FF0000;stroke-miterlimit:10;" x1="695.625" y1="299.625" x2="704.125" y2="299.75"/>
		<line style="fill:none;stroke:#FF0000;stroke-miterlimit:10;" x1="694.625" y1="299.625" x2="703.125" y2="299.75"/>
		<line style="fill:none;stroke:#FF0000;stroke-miterlimit:10;" x1="695.625" y1="301.625" x2="704.125" y2="301.75"/>
		<line style="fill:none;stroke:#FF0000;stroke-miterlimit:10;" x1="695.625" y1="303.625" x2="704.125" y2="303.75"/>
		<line style="fill:none;stroke:#FF0000;stroke-miterlimit:10;" x1="695.625" y1="305.625" x2="704.125" y2="305.75"/>
		<line style="fill:none;stroke:#FF0000;stroke-miterlimit:10;" x1="683.375" y1="271.125" x2="683.25" y2="320.875"/>
		<line style="fill:none;stroke:#FF0000;stroke-miterlimit:10;" x1="695.625" y1="307.625" x2="704.125" y2="307.75"/>
		<line style="fill:none;stroke:#FF0000;stroke-miterlimit:10;" x1="695.625" y1="309.625" x2="704.125" y2="309.75"/>
		<line style="fill:none;stroke:#FF0000;stroke-miterlimit:10;" x1="684" y1="308.82" x2="692.25" y2="309.055"/>
		<line style="fill:none;stroke:#FF0000;stroke-miterlimit:10;" x1="684" y1="306.875" x2="692.25" y2="307"/>
		<line style="fill:none;stroke:#FF0000;stroke-miterlimit:10;" x1="684" y1="304.875" x2="692.25" y2="305"/>
		<line style="fill:none;stroke:#FF0000;stroke-miterlimit:10;" x1="684" y1="301.875" x2="692.25" y2="302"/>
		<line style="fill:none;stroke:#FF0000;stroke-miterlimit:10;" x1="684" y1="299.875" x2="692.25" y2="300"/>
		<line style="fill:none;stroke:#FF0000;stroke-miterlimit:10;" x1="684" y1="297.875" x2="692.25" y2="298"/>
		<line style="fill:none;stroke:#FF0000;stroke-miterlimit:10;" x1="684" y1="295.875" x2="692.25" y2="296"/>
		<line style="fill:none;stroke:#FF0000;stroke-miterlimit:10;" x1="684" y1="293.875" x2="692.25" y2="294"/>
		<line style="fill:none;stroke:#FF0000;stroke-miterlimit:10;" x1="684" y1="291.875" x2="692.25" y2="292"/>
		<line style="fill:none;stroke:#FF0000;stroke-miterlimit:10;" x1="684" y1="289.875" x2="692.25" y2="290"/>
		<line style="fill:none;stroke:#FF0000;stroke-miterlimit:10;" x1="684" y1="287.875" x2="692.25" y2="288"/>
		<rect x="692.5" y="287.5" style="fill:none;stroke:#FF0000;stroke-miterlimit:10;" width="3" height="24"/>
		<path style="fill:none;stroke:#FF0000;stroke-miterlimit:10;" d="M683,271.625l0.5-0.125h1.5l0.25,5.625
			c0,0,5.375,1.25,6.75-5.625h13"/>
		<line style="fill:none;stroke:#FF0000;stroke-miterlimit:10;" x1="705" y1="320.625" x2="704.875" y2="271.625"/>
		<line style="fill:none;stroke:#FF0000;stroke-miterlimit:10;" x1="683.125" y1="320.875" x2="705" y2="320.75"/>
		<line style="fill:none;stroke:#FF0000;stroke-miterlimit:10;" x1="698.5" y1="53" x2="698.5" y2="79"/>
		<polyline style="fill:none;stroke:#FF0000;stroke-miterlimit:10;" points="687.125,50.875 687,79.375 698.375,79.25 		"/>
		<polygon style="fill:none;stroke:#FF0000;stroke-miterlimit:10;" points="687.875,51.75 687.125,51.75 686.375,51.75 686.375,50 
			687.875,50 		"/>
		<line style="fill:none;stroke:#FF0000;stroke-miterlimit:10;" x1="694.625" y1="54.625" x2="703.125" y2="54.75"/>
		<line style="fill:none;stroke:#FF0000;stroke-miterlimit:10;" x1="694.625" y1="56.625" x2="703.125" y2="56.75"/>
		<line style="fill:none;stroke:#FF0000;stroke-miterlimit:10;" x1="694.625" y1="58.625" x2="703.125" y2="58.75"/>
		<line style="fill:none;stroke:#FF0000;stroke-miterlimit:10;" x1="694.625" y1="60.625" x2="703.125" y2="60.75"/>
		<line style="fill:none;stroke:#FF0000;stroke-miterlimit:10;" x1="694.625" y1="62.625" x2="703.125" y2="62.75"/>
		<line style="fill:none;stroke:#FF0000;stroke-miterlimit:10;" x1="694.625" y1="64.625" x2="703.125" y2="64.75"/>
		<line style="fill:none;stroke:#FF0000;stroke-miterlimit:10;" x1="693.625" y1="64.625" x2="702.125" y2="64.75"/>
		<line style="fill:none;stroke:#FF0000;stroke-miterlimit:10;" x1="694.625" y1="66.625" x2="703.125" y2="66.75"/>
		<line style="fill:none;stroke:#FF0000;stroke-miterlimit:10;" x1="694.625" y1="68.625" x2="703.125" y2="68.75"/>
		<line style="fill:none;stroke:#FF0000;stroke-miterlimit:10;" x1="694.625" y1="70.625" x2="703.125" y2="70.75"/>
		<line style="fill:none;stroke:#FF0000;stroke-miterlimit:10;" x1="682.375" y1="36.125" x2="682.25" y2="85.875"/>
		<line style="fill:none;stroke:#FF0000;stroke-miterlimit:10;" x1="694.625" y1="72.625" x2="703.125" y2="72.75"/>
		<line style="fill:none;stroke:#FF0000;stroke-miterlimit:10;" x1="694.625" y1="74.625" x2="703.125" y2="74.75"/>
		<line style="fill:none;stroke:#FF0000;stroke-miterlimit:10;" x1="683" y1="73.82" x2="691.25" y2="74.055"/>
		<line style="fill:none;stroke:#FF0000;stroke-miterlimit:10;" x1="683" y1="71.875" x2="691.25" y2="72"/>
		<line style="fill:none;stroke:#FF0000;stroke-miterlimit:10;" x1="683" y1="69.875" x2="691.25" y2="70"/>
		<line style="fill:none;stroke:#FF0000;stroke-miterlimit:10;" x1="683" y1="66.875" x2="691.25" y2="67"/>
		<line style="fill:none;stroke:#FF0000;stroke-miterlimit:10;" x1="683" y1="64.875" x2="691.25" y2="65"/>
		<line style="fill:none;stroke:#FF0000;stroke-miterlimit:10;" x1="683" y1="62.875" x2="691.25" y2="63"/>
		<line style="fill:none;stroke:#FF0000;stroke-miterlimit:10;" x1="683" y1="60.875" x2="691.25" y2="61"/>
		<line style="fill:none;stroke:#FF0000;stroke-miterlimit:10;" x1="683" y1="58.875" x2="691.25" y2="59"/>
		<line style="fill:none;stroke:#FF0000;stroke-miterlimit:10;" x1="683" y1="56.875" x2="691.25" y2="57"/>
		<line style="fill:none;stroke:#FF0000;stroke-miterlimit:10;" x1="683" y1="54.875" x2="691.25" y2="55"/>
		<line style="fill:none;stroke:#FF0000;stroke-miterlimit:10;" x1="683" y1="52.875" x2="691.25" y2="53"/>
		<rect x="691.5" y="52.5" style="fill:none;stroke:#FF0000;stroke-miterlimit:10;" width="3" height="24"/>
		<path style="fill:none;stroke:#FF0000;stroke-miterlimit:10;" d="M682,37.625l0.5-0.125h1.5l0.25,5.625c0,0,5.375,1.25,6.75-5.625
			h13"/>
		<line style="fill:none;stroke:#FF0000;stroke-miterlimit:10;" x1="704" y1="85.625" x2="703.875" y2="36.625"/>
		<line style="fill:none;stroke:#FF0000;stroke-miterlimit:10;" x1="440.5" y1="178" x2="440.5" y2="149"/>
		<polyline style="fill:none;stroke:#FF0000;stroke-miterlimit:10;" points="426.916,180.22 426.765,148.639 440.482,148.777 		"/>
		<polygon style="fill:none;stroke:#FF0000;stroke-miterlimit:10;" points="427.82,179.25 426.916,179.25 426.012,179.25 
			426.012,181.189 427.82,181.189 		"/>
		<line style="fill:none;stroke:#FF0000;stroke-miterlimit:10;" x1="435.96" y1="176.064" x2="446.21" y2="175.926"/>
		<line style="fill:none;stroke:#FF0000;stroke-miterlimit:10;" x1="435.96" y1="173.849" x2="446.21" y2="173.71"/>
		<line style="fill:none;stroke:#FF0000;stroke-miterlimit:10;" x1="435.96" y1="171.632" x2="446.21" y2="171.493"/>
		<line style="fill:none;stroke:#FF0000;stroke-miterlimit:10;" x1="435.96" y1="169.416" x2="446.21" y2="169.277"/>
		<line style="fill:none;stroke:#FF0000;stroke-miterlimit:10;" x1="435.96" y1="167.199" x2="446.21" y2="167.061"/>
		<line style="fill:none;stroke:#FF0000;stroke-miterlimit:10;" x1="435.96" y1="164.983" x2="446.21" y2="164.845"/>
		<line style="fill:none;stroke:#FF0000;stroke-miterlimit:10;" x1="434.754" y1="164.983" x2="445.004" y2="164.845"/>
		<line style="fill:none;stroke:#FF0000;stroke-miterlimit:10;" x1="435.96" y1="162.767" x2="446.21" y2="162.629"/>
		<line style="fill:none;stroke:#FF0000;stroke-miterlimit:10;" x1="435.96" y1="160.551" x2="446.21" y2="160.412"/>
		<line style="fill:none;stroke:#FF0000;stroke-miterlimit:10;" x1="435.96" y1="158.335" x2="446.21" y2="158.196"/>
		<line style="fill:none;stroke:#FF0000;stroke-miterlimit:10;" x1="421.188" y1="196.564" x2="421.037" y2="141.436"/>
		<line style="fill:none;stroke:#FF0000;stroke-miterlimit:10;" x1="435.96" y1="156.118" x2="446.21" y2="155.979"/>
		<line style="fill:none;stroke:#FF0000;stroke-miterlimit:10;" x1="435.96" y1="153.902" x2="446.21" y2="153.764"/>
		<line style="fill:none;stroke:#FF0000;stroke-miterlimit:10;" x1="421.941" y1="154.794" x2="431.891" y2="154.534"/>
		<line style="fill:none;stroke:#FF0000;stroke-miterlimit:10;" x1="421.941" y1="156.949" x2="431.891" y2="156.811"/>
		<line style="fill:none;stroke:#FF0000;stroke-miterlimit:10;" x1="421.941" y1="159.166" x2="431.891" y2="159.027"/>
		<line style="fill:none;stroke:#FF0000;stroke-miterlimit:10;" x1="421.941" y1="162.49" x2="431.891" y2="162.352"/>
		<line style="fill:none;stroke:#FF0000;stroke-miterlimit:10;" x1="421.941" y1="164.706" x2="431.891" y2="164.567"/>
		<line style="fill:none;stroke:#FF0000;stroke-miterlimit:10;" x1="421.941" y1="166.923" x2="431.891" y2="166.784"/>
		<line style="fill:none;stroke:#FF0000;stroke-miterlimit:10;" x1="421.941" y1="169.139" x2="431.891" y2="169"/>
		<line style="fill:none;stroke:#FF0000;stroke-miterlimit:10;" x1="421.941" y1="171.354" x2="431.891" y2="171.217"/>
		<line style="fill:none;stroke:#FF0000;stroke-miterlimit:10;" x1="421.941" y1="173.571" x2="431.891" y2="173.433"/>
		<line style="fill:none;stroke:#FF0000;stroke-miterlimit:10;" x1="421.941" y1="175.787" x2="431.891" y2="175.648"/>
		<line style="fill:none;stroke:#FF0000;stroke-miterlimit:10;" x1="421.941" y1="178.004" x2="431.891" y2="177.865"/>
		<rect x="432.5" y="151.5" style="fill:none;stroke:#FF0000;stroke-miterlimit:10;" width="3" height="27"/>
		<path style="fill:none;stroke:#FF0000;stroke-miterlimit:10;" d="M420.603,196.361l0.736,0.139h1.809l0.302-6.233
			c0,0,6.481-1.767,8.14,6.233H447"/>
		<line style="fill:none;stroke:#FF0000;stroke-miterlimit:10;" x1="447.266" y1="141.713" x2="447.114" y2="196.011"/>
		<line style="fill:none;stroke:#FF0000;stroke-miterlimit:10;" x1="420.887" y1="141.436" x2="447.266" y2="141.574"/>
		<line style="fill:none;stroke:#FF0000;stroke-miterlimit:10;" x1="97" y1="212.5" x2="126" y2="212.5"/>
		<polyline style="fill:none;stroke:#FF0000;stroke-miterlimit:10;" points="94.715,226.018 126.296,226.169 126.158,212.451 		"/>
		<polygon style="fill:none;stroke:#FF0000;stroke-miterlimit:10;" points="95.685,225.113 95.685,226.018 95.685,226.922 
			93.746,226.922 93.746,225.113 		"/>
		<line style="fill:none;stroke:#FF0000;stroke-miterlimit:10;" x1="98.871" y1="216.974" x2="99.009" y2="206.724"/>
		<line style="fill:none;stroke:#FF0000;stroke-miterlimit:10;" x1="101.086" y1="216.974" x2="101.225" y2="206.724"/>
		<line style="fill:none;stroke:#FF0000;stroke-miterlimit:10;" x1="103.303" y1="216.974" x2="103.442" y2="206.724"/>
		<line style="fill:none;stroke:#FF0000;stroke-miterlimit:10;" x1="105.519" y1="216.974" x2="105.658" y2="206.724"/>
		<line style="fill:none;stroke:#FF0000;stroke-miterlimit:10;" x1="107.736" y1="216.974" x2="107.875" y2="206.724"/>
		<line style="fill:none;stroke:#FF0000;stroke-miterlimit:10;" x1="109.952" y1="216.974" x2="110.09" y2="206.724"/>
		<line style="fill:none;stroke:#FF0000;stroke-miterlimit:10;" x1="109.952" y1="218.18" x2="110.09" y2="207.93"/>
		<line style="fill:none;stroke:#FF0000;stroke-miterlimit:10;" x1="112.168" y1="216.974" x2="112.306" y2="206.724"/>
		<line style="fill:none;stroke:#FF0000;stroke-miterlimit:10;" x1="114.384" y1="216.974" x2="114.523" y2="206.724"/>
		<line style="fill:none;stroke:#FF0000;stroke-miterlimit:10;" x1="116.6" y1="216.974" x2="116.739" y2="206.724"/>
		<line style="fill:none;stroke:#FF0000;stroke-miterlimit:10;" x1="78.371" y1="231.746" x2="133.5" y2="231.896"/>
		<line style="fill:none;stroke:#FF0000;stroke-miterlimit:10;" x1="118.817" y1="216.974" x2="118.956" y2="206.724"/>
		<line style="fill:none;stroke:#FF0000;stroke-miterlimit:10;" x1="121.033" y1="216.974" x2="121.171" y2="206.724"/>
		<line style="fill:none;stroke:#FF0000;stroke-miterlimit:10;" x1="120.141" y1="230.992" x2="120.401" y2="221.043"/>
		<line style="fill:none;stroke:#FF0000;stroke-miterlimit:10;" x1="117.986" y1="230.992" x2="118.125" y2="221.043"/>
		<line style="fill:none;stroke:#FF0000;stroke-miterlimit:10;" x1="115.769" y1="230.992" x2="115.908" y2="221.043"/>
		<line style="fill:none;stroke:#FF0000;stroke-miterlimit:10;" x1="112.445" y1="230.992" x2="112.583" y2="221.043"/>
		<line style="fill:none;stroke:#FF0000;stroke-miterlimit:10;" x1="110.229" y1="230.992" x2="110.368" y2="221.043"/>
		<line style="fill:none;stroke:#FF0000;stroke-miterlimit:10;" x1="108.012" y1="230.992" x2="108.151" y2="221.043"/>
		<line style="fill:none;stroke:#FF0000;stroke-miterlimit:10;" x1="105.796" y1="230.992" x2="105.935" y2="221.043"/>
		<line style="fill:none;stroke:#FF0000;stroke-miterlimit:10;" x1="103.581" y1="230.992" x2="103.718" y2="221.043"/>
		<line style="fill:none;stroke:#FF0000;stroke-miterlimit:10;" x1="101.364" y1="230.992" x2="101.502" y2="221.043"/>
		<line style="fill:none;stroke:#FF0000;stroke-miterlimit:10;" x1="99.148" y1="230.992" x2="99.287" y2="221.043"/>
		<line style="fill:none;stroke:#FF0000;stroke-miterlimit:10;" x1="96.931" y1="230.992" x2="97.07" y2="221.043"/>
		<rect x="96.5" y="217.5" style="fill:none;stroke:#FF0000;stroke-miterlimit:10;" width="27" height="3"/>
		<path style="fill:none;stroke:#FF0000;stroke-miterlimit:10;" d="M78.639,232.364l-0.139-0.77v-1.809l6.233-0.302
			c0,0,1.767-6.481-6.233-8.14V206"/>
		<line style="fill:none;stroke:#FF0000;stroke-miterlimit:10;" x1="133.222" y1="205.668" x2="78.924" y2="205.819"/>
		<line style="fill:none;stroke:#FF0000;stroke-miterlimit:10;" x1="133.5" y1="232.047" x2="133.361" y2="205.668"/>
		<line style="fill:none;stroke:#FF0000;stroke-miterlimit:10;" x1="610.25" y1="113" x2="610.5" y2="127.75"/>
		<rect x="626.5" y="103.5" style="fill:none;stroke:#FF0000;stroke-miterlimit:10;" width="6" height="6"/>
		<rect x="626.5" y="151.5" style="fill:none;stroke:#FF0000;stroke-miterlimit:10;" width="6" height="6"/>
		<rect x="627.5" y="199.5" style="fill:none;stroke:#FF0000;stroke-miterlimit:10;" width="5" height="6"/>
		<rect x="627.5" y="247.5" style="fill:none;stroke:#FF0000;stroke-miterlimit:10;" width="5" height="5"/>
		<rect x="607.5" y="35.5" style="fill:none;stroke:#FF0000;stroke-miterlimit:10;" width="0" height="21"/>
	</g>
	<line style="fill:none;stroke:#FF0000;stroke-miterlimit:10;" x1="515" y1="56.5" x2="608" y2="56.5"/>
	<line style="fill:none;stroke:#FF0000;stroke-miterlimit:10;" x1="607.75" y1="56.5" x2="607" y2="97.75"/>
	<line style="fill:none;stroke:#FF0000;stroke-miterlimit:10;" x1="607" y1="97.5" x2="618" y2="97.5"/>
	<line style="fill:none;stroke:#FF0000;stroke-miterlimit:10;" x1="515" y1="56.5" x2="513" y2="56.5"/>
	<path style="fill:none;stroke:#FF0000;stroke-miterlimit:10;" d="M512.5,56l0.5,11.5"/>
	<path style="fill:none;stroke:#FF0000;stroke-miterlimit:10;" d="M580.5,127.5l30-0.25c0,0,2,6.5,6,5.25l-0.25-5.25L618,127
		l0.25-29.75"/>
	<line style="fill:none;stroke:#FF0000;stroke-miterlimit:10;" x1="538.25" y1="56.25" x2="538.5" y2="127.25"/>
	<line style="fill:none;stroke:#FF0000;stroke-miterlimit:10;" x1="539" y1="127.5" x2="568" y2="127.5"/>
	<path style="fill:none;stroke:#FF0000;stroke-miterlimit:10;" d="M568.25,127.5l-0.25-7.25c0,0,6.25,0.75,6.25,5.75
		c0,0,1-6.75,6.25-6v7"/>
	<line style="fill:none;stroke:#FF0000;stroke-miterlimit:10;" x1="587.5" y1="121" x2="587.5" y2="127"/>
	<line style="fill:none;stroke:#FF0000;stroke-miterlimit:10;" x1="587" y1="112.5" x2="618" y2="112.5"/>
	<path style="fill:none;stroke:#FF0000;stroke-miterlimit:10;" d="M582.25,57.5l0.5,32c0,0,6.75,0.5,6,6l-6.25-0.25l0.5,2.25h24"/>
	<line style="fill:none;stroke:#FF0000;stroke-miterlimit:10;" x1="560.5" y1="57" x2="560.5" y2="87"/>
	<path style="fill:none;stroke:#FF0000;stroke-miterlimit:10;" d="M511,98.5l18.75,0.125c0,0-0.25-6.625,5.75-6.625v7l2.25,0.5"/>
	<path style="fill:none;stroke:#FF0000;stroke-miterlimit:10;" d="M539,85.5h14c0,0,0.5-6.75,6.5-6.5c0,0,8.5-1,8.5,6.5h14"/>
	<path style="fill:none;stroke:#FF0000;stroke-miterlimit:10;" d="M538,120.25c-6.25,0-7,7.25-7,7.25h-21"/>
	<path style="fill:none;stroke:#FF0000;stroke-miterlimit:10;" d="M704,85.75l-21.875,0.125L678.5,86.5l0.25-6.75
		c-6.25,0.5-5.75,6.75-5.75,6.75h-32c-0.015-0.379-0.05-0.736-0.104-1.073C640.041,80,634.5,80,634.5,80v7.5h-2l-0.75-53.75"/>
	<path style="fill:none;stroke:#FF0000;stroke-miterlimit:10;" d="M607,63.5h16c0,0,1,10.5,8.5,9.25l-0.25-8.25H633"/>
	<path style="fill:none;stroke:#FF0000;stroke-miterlimit:10;" d="M621.5,87V71c0,0-6.25,1-6.75-7.25"/>
	<line style="fill:none;stroke:#FF0000;stroke-miterlimit:10;" x1="607" y1="87.5" x2="622" y2="87.5"/>
	<line style="fill:none;stroke:#FF0000;stroke-miterlimit:10;" x1="606.5" y1="36.25" x2="681.75" y2="36.5"/>
	<path style="fill:none;stroke:#FF0000;stroke-miterlimit:10;" d="M617,96c0,0,7.5,1.5,7.25-6.5l-6.75,0.25l-0.5-2"/>
	<path style="fill:none;stroke:#FF0000;stroke-miterlimit:10;" d="M648.5,110.5"/>
	<path style="fill:none;stroke:#FF0000;stroke-miterlimit:10;" d="M587.25,120c0,0,6.75,0.5,7-6.75"/>
	<path style="fill:none;stroke:#FF0000;stroke-miterlimit:10;" d="M594.5,98v7c0,0,7.5-0.25,6.5,6.5"/>
	<line style="fill:none;stroke:#FF0000;stroke-miterlimit:10;" x1="510.25" y1="67.25" x2="512.75" y2="67.5"/>
	<rect x="586.5" y="240.5" style="fill:none;stroke:#FF0000;stroke-miterlimit:10;" width="27" height="20"/>
	<rect x="243.5" y="233.5" style="fill:none;stroke:#FF0000;stroke-miterlimit:10;" width="30" height="22"/>
	<line style="fill:none;stroke:#FF0000;stroke-miterlimit:10;" x1="291" y1="230.833" x2="364.667" y2="230.667"/>
	<line style="fill:none;stroke:#FF0000;stroke-miterlimit:10;" x1="364.5" y1="231" x2="364.5" y2="255"/>
	<line style="fill:none;stroke:#FF0000;stroke-miterlimit:10;" x1="292.167" y1="254.333" x2="364.667" y2="254.167"/>
	<line style="fill:none;stroke:#FF0000;stroke-miterlimit:10;" x1="294.5" y1="232" x2="294.5" y2="237"/>
	<line style="fill:none;stroke:#FF0000;stroke-miterlimit:10;" x1="294" y1="236.5" x2="355" y2="236.5"/>
	<line style="fill:none;stroke:#FF0000;stroke-miterlimit:10;" x1="294.5" y1="247" x2="294.5" y2="254"/>
	<line style="fill:none;stroke:#FF0000;stroke-miterlimit:10;" x1="294" y1="247.167" x2="355.333" y2="247.5"/>
	<line style="fill:none;stroke:#FF0000;stroke-miterlimit:10;" x1="299" y1="242.5" x2="348" y2="242.5"/>
	<line style="fill:none;stroke:#FF0000;stroke-miterlimit:10;" x1="299" y1="236.667" x2="299.167" y2="246.667"/>
	<line style="fill:none;stroke:#FF0000;stroke-miterlimit:10;" x1="301" y1="236.667" x2="301.167" y2="246.667"/>
	<line style="fill:none;stroke:#FF0000;stroke-miterlimit:10;" x1="304" y1="236.667" x2="304.167" y2="246.667"/>
	<line style="fill:none;stroke:#FF0000;stroke-miterlimit:10;" x1="306" y1="236.667" x2="306.167" y2="246.667"/>
	<line style="fill:none;stroke:#FF0000;stroke-miterlimit:10;" x1="308" y1="236.667" x2="308.167" y2="246.667"/>
	<line style="fill:none;stroke:#FF0000;stroke-miterlimit:10;" x1="310" y1="236.667" x2="310.167" y2="246.667"/>
	<line style="fill:none;stroke:#FF0000;stroke-miterlimit:10;" x1="312" y1="236.667" x2="312.167" y2="246.667"/>
	<line style="fill:none;stroke:#FF0000;stroke-miterlimit:10;" x1="316" y1="236.667" x2="316.167" y2="246.667"/>
	<line style="fill:none;stroke:#FF0000;stroke-miterlimit:10;" x1="318" y1="236.667" x2="318.167" y2="246.667"/>
	<line style="fill:none;stroke:#FF0000;stroke-miterlimit:10;" x1="320" y1="236.667" x2="320.167" y2="246.667"/>
	<line style="fill:none;stroke:#FF0000;stroke-miterlimit:10;" x1="323" y1="236.667" x2="323.167" y2="246.667"/>
	<line style="fill:none;stroke:#FF0000;stroke-miterlimit:10;" x1="335" y1="236.667" x2="335.167" y2="246.667"/>
	<line style="fill:none;stroke:#FF0000;stroke-miterlimit:10;" x1="337" y1="236.667" x2="337.167" y2="246.667"/>
	<line style="fill:none;stroke:#FF0000;stroke-miterlimit:10;" x1="339" y1="236.667" x2="339.167" y2="246.667"/>
	<line style="fill:none;stroke:#FF0000;stroke-miterlimit:10;" x1="342" y1="236.667" x2="342.167" y2="246.667"/>
	<line style="fill:none;stroke:#FF0000;stroke-miterlimit:10;" x1="344" y1="236.667" x2="344.167" y2="246.667"/>
	<line style="fill:none;stroke:#FF0000;stroke-miterlimit:10;" x1="346" y1="236.667" x2="346.167" y2="246.667"/>
	<line style="fill:none;stroke:#FF0000;stroke-miterlimit:10;" x1="348" y1="236.667" x2="348.167" y2="246.667"/>
	<line style="fill:none;stroke:#FF0000;stroke-miterlimit:10;" x1="351" y1="236.667" x2="351.167" y2="246.667"/>
	<line style="fill:none;stroke:#FF0000;stroke-miterlimit:10;" x1="314" y1="236.667" x2="314.167" y2="246.667"/>
	
		<use xlink:href="#箭头_25"  width="45.72" height="26.28" x="-22.86" y="-13.14" transform="matrix(0.3481 0 0 -0.1326 349.6484 242.3682)" style="overflow:visible;"/>
	<rect x="296.5" y="241" style="fill:none;stroke:#FF0000;stroke-miterlimit:10;" width="1.667" height="2"/>
	<rect x="784" y="341" style="fill:none;stroke:#FF0000;stroke-miterlimit:10;" width="1.666" height="2"/>
</g>
<g id="active">
	<rect x="402.5" y="253.5" style="fill:#E7009B;stroke:#FF0000;stroke-miterlimit:10;" width="33" height="90"/>
	<rect x="386.5" y="310.5" style="fill:none;stroke:#0000FF;stroke-miterlimit:10;" width="30" height="98"/>
	<path style="fill:#00FFFF;stroke:#0000FF;stroke-miterlimit:10;" d="M291.75,379l-0.25,29.5H325l-0.25-21.5c0,0-6.75,1.25-7.75-8.5
		L291.75,379z"/>
	<path style="fill:#00FFFF;stroke:#0000FF;stroke-miterlimit:10;" d="M267.875,396.5l23.062-0.25l0.781-17.25
		c0,0-3.734-0.25-4.484-2.75l4.266-4.75V353l-31,0.5V365c0,0,2.25-0.75,4,1.5l-4.25,4.25l-0.25,25.5l6.25-4.75
		C266.25,391.5,269.75,393.5,267.875,396.5z"/>
	<path style="fill:none;stroke:#0000FF;stroke-miterlimit:10;" d="M292,330.5h-22l-0.25,22l21.75,0.5l-0.25-14.75l-3.75-5
		C287.5,333.25,288.75,330.5,292,330.5z"/>
	<path style="fill:none;stroke:#0000FF;stroke-miterlimit:10;" d="M269.25,302.75l0.75,27l21.5-0.25c-1.25,0.75-4.25-2.25-4.25-2.25
		l4.25-5.25v-19L269.25,302.75z"/>
	<path style="fill:#00FFFF;stroke:#0000FF;stroke-miterlimit:10;" d="M241.5,302.5l-0.25,20.125l-10.75-0.188l-0.25,11.031
		c0,0,5,0.016,4.75,2.016l-4.5,6.758l29.25,0.254l0.25,9.752l9.75,0.126l-0.5-49.874H241.5z"/>
	<path style="fill:#00FFFF;stroke:#0000FF;stroke-miterlimit:10;" d="M213,303"/>
	<path style="fill:none;stroke:#0000FF;stroke-miterlimit:10;" d="M241.25,322.625l-27.5,0.875l5-6.25c-2-3-6.25-1.25-6.25-1.25v-13
		l28.5-0.25"/>
	<polygon style="fill:#8B8700;stroke:#0000FF;stroke-miterlimit:10;" points="161.667,396.75 161.334,449.374 164.001,449.688 
		164.334,454.343 435.667,453.754 435,449.5 440,449.5 439.334,411.999 435.667,411.332 435.334,408.665 291.5,408.5 
		290.938,396.25 	"/>
	<path style="fill:none;stroke:#0000FF;stroke-miterlimit:10;" d="M440,449.332"/>
	<polygon style="fill:#45FF9A;stroke:#0000FF;stroke-miterlimit:10;" points="34.666,233.335 134.333,233.001 134,201.5 
		126.5,201.5 126.5,140.668 417.749,141.001 417.333,205.668 245.667,206.001 245.333,233.668 243,236.668 160.667,236.001 
		141.5,255 141.5,410.5 35,410.5 	"/>
	<path style="fill:none;stroke:#0000FF;stroke-miterlimit:10;" d="M597.5,140.5l-0.167,99H523c0,0-13.334-69.166-10.667-98.833
		L597.5,140.5z"/>
</g>
</svg>
